<svg id="图层_1" data-name="图层 1" xmlns="http://www.w3.org/2000/svg" viewBox="0 0 70 70"><defs><style>.cls-1{fill:#ea6a6a;}.cls-2{fill:#ff9f80;}.cls-3{fill:#ffdb5c;}.cls-4{fill:#67e0e3;}.cls-5{fill:#69b5e1;}</style></defs><title>area</title><polygon class="cls-1" points="63.12 62.91 6.88 62.91 6.88 32.43 16.28 29.09 25.84 31.36 35 29.49 44.53 20.89 53.78 15.48 63.12 14.69 63.12 62.91"/><polygon class="cls-2" points="63.12 62.91 6.88 62.91 6.88 47.73 16.52 46.49 26.05 48.01 35.25 46.61 44.67 44.76 53.84 40.04 63.12 39.38 63.12 62.91"/><polygon class="cls-3" points="63.12 62.91 6.88 62.91 6.88 53.63 16.41 52.76 25.98 53.69 35.23 52.88 44.48 52.16 53.86 46.18 63.12 45.42 63.12 62.91"/><polygon class="cls-4" points="63.12 62.91 6.88 62.91 6.88 56.59 16.54 56.66 25.79 57.53 35.22 56.01 44.51 55.5 53.9 52.16 63.12 52.95 63.12 62.91"/><polygon class="cls-5" points="63.12 62.91 6.88 62.91 6.88 60.56 16.4 60.16 25.84 60.56 35 60.23 44.61 61.25 53.95 58.21 63.12 58.92 63.12 62.91"/></svg>