<svg id="图层_1" data-name="图层 1" xmlns="http://www.w3.org/2000/svg" viewBox="0 0 70 70"><defs><style>.cls-1{fill:#69b5e1;}.cls-2{fill:#ff9f80;}</style></defs><title>bar</title><path class="cls-1" d="M15.06,48.36h4.4a0,0,0,0,1,0,0v20.7a1.09,1.09,0,0,1-1.09,1.09H16.15a1.09,1.09,0,0,1-1.09-1.09V48.36A0,0,0,0,1,15.06,48.36Z" transform="translate(-42 76.52) rotate(-90)"/><path class="cls-2" d="M18,39.13h4.4a0,0,0,0,1,0,0V65.67a1.09,1.09,0,0,1-1.09,1.09H19.07A1.09,1.09,0,0,1,18,65.67V39.13A0,0,0,0,1,18,39.13Z" transform="translate(-32.76 73.13) rotate(-90)"/><path class="cls-1" d="M21.44,29.36h4.4a0,0,0,0,1,0,0V62.81a1.09,1.09,0,0,1-1.09,1.09H22.53a1.09,1.09,0,0,1-1.09-1.09V29.36A0,0,0,0,1,21.44,29.36Z" transform="translate(-23 70.27) rotate(-90)"/><path class="cls-2" d="M16.56,27.92H21a0,0,0,0,1,0,0V51.63a1.09,1.09,0,0,1-1.09,1.09H17.66a1.09,1.09,0,0,1-1.09-1.09V27.92a0,0,0,0,1,0,0Z" transform="translate(-21.56 59.09) rotate(-90)"/><path class="cls-1" d="M23.39,14.83h4.4a0,0,0,0,1,0,0V52.18a1.09,1.09,0,0,1-1.09,1.09H24.48a1.09,1.09,0,0,1-1.09-1.09V14.83a0,0,0,0,1,0,0Z" transform="translate(-8.46 59.63) rotate(-90)"/><path class="cls-2" d="M32.51-.61h4.4a0,0,0,0,1,0,0V55a1.09,1.09,0,0,1-1.09,1.09H33.6A1.09,1.09,0,0,1,32.51,55V-.61A0,0,0,0,1,32.51-.61Z" transform="translate(6.97 62.45) rotate(-90)"/><path class="cls-1" d="M28.88-3.29h4.4a0,0,0,0,1,0,0V45a1.09,1.09,0,0,1-1.09,1.09H30A1.09,1.09,0,0,1,28.88,45V-3.29a0,0,0,0,1,0,0Z" transform="translate(9.65 52.5) rotate(-90)"/><path class="cls-2" d="M31.71-12.47h4.4a0,0,0,0,1,0,0v54A1.09,1.09,0,0,1,35,42.62H32.8a1.09,1.09,0,0,1-1.09-1.09v-54A0,0,0,0,1,31.71-12.47Z" transform="translate(18.84 48.98) rotate(-90)"/></svg>