<svg id="图层_1" data-name="图层 1" xmlns="http://www.w3.org/2000/svg" viewBox="0 0 70 70"><defs><style>.cls-1{fill:#c7cccf;}.cls-2{fill:#ddd;}.cls-3{fill:#eee;}.cls-4{fill:#36a2da;}.cls-5{fill:#b3c2d5;}.cls-6{fill:#031428;}</style></defs><title>bullet</title><rect class="cls-1" x="5" y="13.82" width="30.17" height="4.03"/><rect class="cls-2" x="35.17" y="13.82" width="15.24" height="4.03"/><rect class="cls-3" x="50.41" y="13.82" width="14.91" height="4.03"/><rect class="cls-4" x="5" y="15.04" width="47.06" height="1.59"/><rect class="cls-5" x="51.67" y="15.04" width="9.21" height="1.59"/><rect class="cls-6" x="57.79" y="14.41" width="0.19" height="2.85"/><rect class="cls-1" x="5" y="23.41" width="30.17" height="4.03"/><rect class="cls-2" x="35.17" y="23.41" width="15.24" height="4.03"/><rect class="cls-3" x="50.41" y="23.41" width="14.91" height="4.03"/><rect class="cls-4" x="5" y="24.62" width="40.93" height="1.59"/><rect class="cls-5" x="45.6" y="24.62" width="8.01" height="1.59"/><rect class="cls-6" x="57.03" y="23.99" width="0.19" height="2.85"/><rect class="cls-1" x="5" y="32.99" width="30.17" height="4.03"/><rect class="cls-3" x="50.41" y="32.99" width="14.91" height="4.03"/><rect class="cls-2" x="35.17" y="32.99" width="16.89" height="4.03"/><rect class="cls-4" x="5" y="34.2" width="25.66" height="1.59"/><rect class="cls-5" x="30.66" y="34.2" width="19.39" height="1.59"/><rect class="cls-6" x="61.37" y="33.57" width="0.19" height="2.85"/><rect class="cls-1" x="5" y="42.57" width="30.17" height="4.03"/><rect class="cls-2" x="35.17" y="42.57" width="15.24" height="4.03"/><rect class="cls-3" x="50.41" y="42.57" width="14.91" height="4.03"/><rect class="cls-4" x="5" y="43.79" width="28.48" height="1.59"/><rect class="cls-5" x="33.25" y="43.79" width="10.37" height="1.59"/><rect class="cls-6" x="53.79" y="43.16" width="0.19" height="2.85"/><rect class="cls-1" x="5" y="52.15" width="30.17" height="4.03"/><rect class="cls-2" x="35.17" y="52.15" width="11.55" height="4.03"/><rect class="cls-3" x="46.71" y="52.15" width="18.62" height="4.03"/><rect class="cls-4" x="5" y="53.37" width="47.06" height="1.59"/><rect class="cls-5" x="51.67" y="53.37" width="11.04" height="1.59"/><rect class="cls-6" x="59.79" y="52.74" width="0.19" height="2.85"/></svg>