<svg id="图层_1" data-name="图层 1" xmlns="http://www.w3.org/2000/svg" viewBox="0 0 70 70"><defs><style>.cls-1{fill:#ebf7fc;}.cls-2{fill:#fff;}.cls-3{fill:#f5fbfc;}.cls-4{fill:#ebf5fb;}.cls-5{fill:#d8ecf6;}.cls-6{fill:#89c7e6;}.cls-7{fill:#afd9ef;}.cls-8{fill:#c5e2f1;}.cls-10,.cls-9{font-size:2.5px;font-family:FZLTZCHK--GBK1-0, FZLanTingHeiS-DB1-GBK;letter-spacing:-0.04em;}.cls-9{fill:#e8696d;}.cls-10{fill:#b8b8b8;}</style></defs><title>calendar</title><rect class="cls-1" x="20" y="15.03" width="7.99" height="7.99"/><path class="cls-2" d="M28.11,23.15H19.87V14.91h8.24Zm-8-.25h7.74V15.16H20.12Z"/><rect class="cls-3" x="27.98" y="15.03" width="7.99" height="7.99"/><path class="cls-2" d="M36.09,23.15H27.86V14.91h8.23Zm-8-.25h7.73V15.16H28.11Z"/><rect class="cls-4" x="35.97" y="15.03" width="7.99" height="7.99"/><path class="cls-2" d="M44.08,23.15H35.84V14.91h8.24Zm-8-.25h7.74V15.16H36.09Z"/><rect class="cls-4" x="27.98" y="38.99" width="7.99" height="7.99"/><path class="cls-2" d="M36.09,47.11H27.86V38.87h8.23Zm-8-.25h7.73V39.12H28.11Z"/><rect class="cls-1" x="43.96" y="15.03" width="7.99" height="7.99"/><path class="cls-2" d="M52.07,23.15H43.83V14.91h8.24Zm-8-.25h7.74V15.16H44.08Z"/><rect class="cls-5" x="51.94" y="15.03" width="7.99" height="7.99"/><path class="cls-2" d="M60.05,23.15H51.82V14.91h8.23Zm-8-.25H59.8V15.16H52.07Z"/><rect class="cls-5" x="51.94" y="7.05" width="7.99" height="7.99"/><path class="cls-2" d="M60.05,15.16H51.82V6.92h8.23Zm-8-.25H59.8V7.17H52.07Z"/><rect class="cls-3" x="20" y="23.02" width="7.99" height="7.99"/><path class="cls-2" d="M28.11,31.13H19.87V22.9h8.24Zm-8-.25h7.74V23.15H20.12Z"/><rect class="cls-1" x="27.98" y="23.02" width="7.99" height="7.99"/><path class="cls-2" d="M36.09,31.13H27.86V22.9h8.23Zm-8-.25h7.73V23.15H28.11Z"/><rect class="cls-6" x="35.97" y="23.02" width="7.99" height="7.99"/><path class="cls-2" d="M44.08,31.13H35.84V22.9h8.24Zm-8-.25h7.74V23.15H36.09Z"/><rect class="cls-5" x="43.96" y="23.02" width="7.99" height="7.99"/><path class="cls-2" d="M52.07,31.13H43.83V22.9h8.24Zm-8-.25h7.74V23.15H44.08Z"/><rect class="cls-5" x="51.94" y="23.02" width="7.99" height="7.99"/><path class="cls-2" d="M60.05,31.13H51.82V22.9h8.23Zm-8-.25H59.8V23.15H52.07Z"/><rect class="cls-6" x="20" y="31.01" width="7.99" height="7.99"/><path class="cls-2" d="M28.11,39.12H19.87V30.88h8.24Zm-8-.25h7.74V31.13H20.12Z"/><rect class="cls-3" x="27.98" y="31.01" width="7.99" height="7.99"/><path class="cls-2" d="M36.09,39.12H27.86V30.88h8.23Zm-8-.25h7.73V31.13H28.11Z"/><rect class="cls-5" x="35.97" y="31.01" width="7.99" height="7.99"/><path class="cls-2" d="M44.08,39.12H35.84V30.88h8.24Zm-8-.25h7.74V31.13H36.09Z"/><rect class="cls-7" x="43.96" y="31.01" width="7.99" height="7.99"/><path class="cls-2" d="M52.07,39.12H43.83V30.88h8.24Zm-8-.25h7.74V31.13H44.08Z"/><rect class="cls-5" x="20" y="38.99" width="7.99" height="7.99"/><path class="cls-2" d="M28.11,47.1H19.87V38.87h8.24Zm-8-.25h7.74V39.12H20.12Z"/><rect class="cls-3" x="35.97" y="38.99" width="7.99" height="7.99"/><path class="cls-2" d="M44.08,47.1H35.84V38.87h8.24Zm-8-.25h7.74V39.12H36.09Z"/><rect class="cls-5" x="43.96" y="38.99" width="7.99" height="7.99"/><path class="cls-2" d="M52.07,47.1H43.83V38.87h8.24Zm-8-.25h7.74V39.12H44.08Z"/><rect class="cls-1" x="20" y="46.98" width="7.99" height="7.99"/><path class="cls-2" d="M28.11,55.09H19.87V46.85h8.24Zm-8-.25h7.74V47.1H20.12Z"/><rect class="cls-1" x="27.98" y="46.98" width="7.99" height="7.99"/><path class="cls-2" d="M36.09,55.09H27.86V46.85h8.23Zm-8-.25h7.73V47.1H28.11Z"/><rect class="cls-8" x="35.97" y="46.98" width="7.99" height="7.99"/><path class="cls-2" d="M44.08,55.09H35.84V46.85h8.24Zm-8-.25h7.74V47.1H36.09Z"/><rect class="cls-7" x="43.96" y="46.98" width="7.99" height="7.99"/><path class="cls-2" d="M52.07,55.09H43.83V46.85h8.24Zm-8-.25h7.74V47.1H44.08Z"/><rect class="cls-3" x="20" y="54.97" width="7.99" height="7.99"/><path class="cls-2" d="M28.11,63.08H19.87V54.84h8.24Zm-8-.25h7.74V55.09H20.12Z"/><rect class="cls-1" x="27.98" y="54.97" width="7.99" height="7.99"/><path class="cls-2" d="M36.09,63.08H27.86V54.84h8.23Zm-8-.25h7.73V55.09H28.11Z"/><rect class="cls-5" x="35.97" y="54.97" width="7.99" height="7.99"/><path class="cls-2" d="M44.08,63.08H35.84V54.84h8.24Zm-8-.25h7.74V55.09H36.09Z"/><rect class="cls-5" x="43.96" y="54.97" width="7.99" height="7.99"/><path class="cls-2" d="M52.07,63.08H43.83V54.84h8.24Zm-8-.25h7.74V55.09H44.08Z"/><rect class="cls-5" x="51.94" y="31.01" width="7.99" height="7.99"/><path class="cls-2" d="M60.05,39.12H51.82V30.88h8.23Zm-8-.25H59.8V31.13H52.07Z"/><rect class="cls-1" x="27.98" y="7.05" width="7.99" height="7.99"/><path class="cls-2" d="M36.09,15.16H27.86V6.92h8.23Zm-8-.25h7.73V7.17H28.11Z"/><rect class="cls-4" x="35.97" y="7.05" width="7.99" height="7.99"/><path class="cls-2" d="M44.08,15.16H35.84V6.92h8.24Zm-8-.25h7.74V7.17H36.09Z"/><rect class="cls-6" x="43.96" y="7.05" width="7.99" height="7.99"/><path class="cls-2" d="M52.07,15.16H43.83V6.92h8.24Zm-8-.25h7.74V7.17H44.08Z"/><text class="cls-9" transform="translate(10.47 12.17)">Sun</text><text class="cls-10" transform="translate(10.47 20.16)">Mon</text><text class="cls-10" transform="translate(10.47 28.14)">Tue</text><text class="cls-10" transform="translate(10.47 36.13)">Wed</text><text class="cls-10" transform="translate(10.47 44.12)">Thu</text><text class="cls-10" transform="translate(10.47 52.11)">Fri</text><text class="cls-10" transform="translate(10.47 60.09)">Sat</text></svg>