<svg id="图层_1" data-name="图层 1" xmlns="http://www.w3.org/2000/svg" viewBox="0 0 70 70"><defs><style>.cls-1{opacity:0.4;}.cls-2{fill:#ff9f80;}.cls-3{opacity:0.58;}.cls-4{fill:#67e0e3;}.cls-5{fill:#3c85fc;}.cls-6{fill:#ffdb5c;}.cls-7{fill:#69b5e1;}.cls-8{fill:none;}</style></defs><title>chord</title><g class="cls-1"><path class="cls-2" d="M20.28,55.56C35.75,34.68,34,11.17,34,10.3c-3.43-1.57-11.57.26-16.4,4.79s-2.93,5.56-2.93,5.56c21.3,13-.07,27.2-1.62,26.72A25.19,25.19,0,0,0,20.28,55.56Z"/></g><g class="cls-3"><path class="cls-4" d="M13.14,23.06c16.94,7.93,7.14,32.5,7.14,32.5A25,25,0,0,0,34,60.26C29.62,24.85,15,23.15,13.77,22,13.77,22,13.06,23,13.14,23.06Z"/></g><g class="cls-3"><path class="cls-5" d="M12.31,46S23.17,22.3,54.22,19.41c16.14-1.5,1.75,25.21,6.53,25.22C60.75,44.63,48.12,22,12.31,46Z"/></g><g class="cls-3"><path class="cls-6" d="M44.85,58.22C30.12,43,9.22,24.81,13.77,22H9.19S5.34,48.1,12.31,46c16.56-5.1,23.45,9.35,23.28,14.32s6.41-.81,9.26-2.05Z"/></g><g class="cls-3"><path class="cls-7" d="M35.58,6.87c1.14,1.43-5.11,29.07,9.77,43.24,17.49,16.65,17.86-21,17.86-21L49.45,10.75Z"/></g><g class="cls-3"><path class="cls-7" d="M34,60.26c-.25-2,1.51-11.67,17.42-6.25,3.89,1.33-6.57,4.21-6.57,4.21S40.56,51.91,34,60.26Z"/></g><path class="cls-8" d="M44.85,58.22a25,25,0,0,0-9.27-47.93V5.7H34V10.3A25,25,0,0,0,14.66,20.65l-3.83-2.52c-.31.43-.61.87-.89,1.32L13.77,22a25,25,0,0,0-1.46,24L8.26,48.1c.23.48.48.95.73,1.42l4-2.15A24.9,24.9,0,0,0,34,60.26v4.59l.92,0h.67V60.27A24.84,24.84,0,0,0,44.85,58.22Z"/><path class="cls-6" d="M9.92,35.28A24.87,24.87,0,0,1,13.77,22L9.94,19.45A29.57,29.57,0,0,0,8.26,48.1L12.31,46A24.73,24.73,0,0,1,9.92,35.28Z"/><path class="cls-2" d="M34,10.3V5.71A29.6,29.6,0,0,0,10.83,18.13l3.83,2.52A25,25,0,0,1,34,10.3Z"/><path class="cls-4" d="M20.28,55.56A25.19,25.19,0,0,1,13,47.37L9,49.52A29.61,29.61,0,0,0,34,64.85V60.26A25,25,0,0,1,20.28,55.56Z"/><path class="cls-7" d="M64.51,35.28A29.63,29.63,0,0,0,35.58,5.7v4.59a25,25,0,0,1,0,50v4.59A29.62,29.62,0,0,0,64.51,35.28Z"/></svg>