<svg id="图层_1" data-name="图层 1" xmlns="http://www.w3.org/2000/svg" viewBox="0 0 70 70"><defs><style>.cls-1{fill:#ffdb5c;}.cls-2{fill:#67e0e3;}.cls-3{fill:#69b5e1;}.cls-4{fill:#ea6a6a;}.cls-5{fill:#ff9f80;}</style></defs><title>circle</title><path class="cls-1" d="M11.08,51.88A29.51,29.51,0,0,1,7.22,25.81l9.5,3.12a19.51,19.51,0,0,0,2.55,17.21Z"/><path class="cls-2" d="M35.18,64.43a29.46,29.46,0,0,1-24.1-12.55l8.19-5.74a19.43,19.43,0,0,0,32-.28l8.28,5.59A29.4,29.4,0,0,1,35.18,64.43Z"/><path class="cls-3" d="M59.58,51.46l-8.28-5.6A19.44,19.44,0,0,0,35.18,15.57v-10a29.43,29.43,0,0,1,24.4,45.89Z"/><path class="cls-4" d="M23.31,19.62l-6.12-7.9a29.12,29.12,0,0,1,18-6.15v10A19.22,19.22,0,0,0,23.31,19.62Z"/><path class="cls-5" d="M16.72,28.93l-9.5-3.12a29.33,29.33,0,0,1,10-14.09l6.12,7.9A19.45,19.45,0,0,0,16.72,28.93Z"/></svg>