<svg id="图层_1" data-name="图层 1" xmlns="http://www.w3.org/2000/svg" viewBox="0 0 70 70"><defs><style>.cls-1{fill:#69b5e1;}.cls-2{fill:#ff9f80;}</style></defs><title>column</title><path class="cls-1" d="M6.09,44.22h3.6a.9.9,0,0,1,.9.9V63a0,0,0,0,1,0,0H5.19a0,0,0,0,1,0,0V45.12A.9.9,0,0,1,6.09,44.22Z"/><path class="cls-2" d="M13.83,39.18h3.6a.9.9,0,0,1,.9.9V63a0,0,0,0,1,0,0h-5.4a0,0,0,0,1,0,0V40.08a.9.9,0,0,1,.9-.9Z"/><path class="cls-1" d="M21.56,33.22h3.6a.9.9,0,0,1,.9.9V63a0,0,0,0,1,0,0h-5.4a0,0,0,0,1,0,0V34.12A.9.9,0,0,1,21.56,33.22Z"/><path class="cls-2" d="M29.3,41.62h3.6a.9.9,0,0,1,.9.9V63a0,0,0,0,1,0,0h-5.4a0,0,0,0,1,0,0V42.52a.9.9,0,0,1,.9-.9Z"/><path class="cls-1" d="M37,29.86h3.6a.9.9,0,0,1,.9.9V63a0,0,0,0,1,0,0H36.1a0,0,0,0,1,0,0V30.76a.9.9,0,0,1,.9-.9Z"/><path class="cls-2" d="M44.74,14.12h3.6a.9.9,0,0,1,.9.9V63a0,0,0,0,1,0,0h-5.4a0,0,0,0,1,0,0V15a.9.9,0,0,1,.9-.9Z"/><path class="cls-1" d="M52.48,20.39h3.6a.9.9,0,0,1,.9.9V63a0,0,0,0,1,0,0h-5.4a0,0,0,0,1,0,0V21.29A.9.9,0,0,1,52.48,20.39Z"/><path class="cls-2" d="M60.27,15.5h3.6a.9.9,0,0,1,.9.9V63a0,0,0,0,1,0,0h-5.4a0,0,0,0,1,0,0V16.4A.9.9,0,0,1,60.27,15.5Z"/></svg>