<svg id="图层_1" data-name="图层 1" xmlns="http://www.w3.org/2000/svg" viewBox="0 0 70 70"><defs><style>.cls-1{fill:#69b5e1;}.cls-2{fill:#ff9f80;}.cls-3{fill:#ea6a6a;}</style></defs><title>combination</title><path class="cls-1" d="M8,43.52h3a1,1,0,0,1,1,1V61.39a0,0,0,0,1,0,0H7a0,0,0,0,1,0,0V44.56A1,1,0,0,1,8,43.52Z"/><path class="cls-2" d="M15.37,38.72h3a1,1,0,0,1,1,1V61.39a0,0,0,0,1,0,0H14.33a0,0,0,0,1,0,0V39.76a1,1,0,0,1,1-1Z"/><path class="cls-1" d="M22.73,33.05h3a1,1,0,0,1,1,1v27.3a0,0,0,0,1,0,0H21.69a0,0,0,0,1,0,0V34.1A1,1,0,0,1,22.73,33.05Z"/><path class="cls-2" d="M30.09,38.11h3a1,1,0,0,1,1,1V61.39a0,0,0,0,1,0,0H29.05a0,0,0,0,1,0,0V39.15a1,1,0,0,1,1-1Z"/><path class="cls-1" d="M37.42,28h3a1,1,0,0,1,1,1V61.39a0,0,0,0,1,0,0H36.37a0,0,0,0,1,0,0V29A1,1,0,0,1,37.42,28Z"/><path class="cls-2" d="M44.78,21.62h3a1,1,0,0,1,1,1V61.39a0,0,0,0,1,0,0H43.74a0,0,0,0,1,0,0V22.66A1,1,0,0,1,44.78,21.62Z"/><path class="cls-1" d="M52.14,20.84h3a1,1,0,0,1,1,1V61.39a0,0,0,0,1,0,0H51.1a0,0,0,0,1,0,0V21.89A1,1,0,0,1,52.14,20.84Z"/><path class="cls-2" d="M59.55,16.19h3a1,1,0,0,1,1,1V61.39a0,0,0,0,1,0,0H58.51a0,0,0,0,1,0,0V17.24a1,1,0,0,1,1-1Z"/><polygon class="cls-3" points="9.73 32.23 9.33 31.57 16.69 27.09 24.21 22.29 31.53 25.25 38.23 18.94 38.26 18.92 46.16 13.49 53.15 12.77 60.89 8.63 61.26 9.31 53.38 13.52 46.44 14.24 38.72 19.54 31.7 26.15 24.29 23.15 17.1 27.74 9.73 32.23"/></svg>