<svg id="图层_1" data-name="图层 1" xmlns="http://www.w3.org/2000/svg" viewBox="0 0 70 70"><defs><style>.cls-1{fill:#67e0e3;}.cls-2{fill:#69b5e1;}.cls-3{fill:#6d6d6d;}.cls-4{fill:#ea6a6a;}.cls-5{fill:#ff9f80;}.cls-6{font-size:6.96px;fill:#333;font-family:DINAlternate-Bold, DIN Alternate;font-weight:700;letter-spacing:-0.04em;}.cls-7{font-size:2.91px;}.cls-7,.cls-8{fill:#a0a0a0;font-family:FZLTHJW--GB1-0, FZLanTingHeiS-R-GB;}.cls-8{font-size:1.98px;}</style></defs><title>instrument</title><path class="cls-1" d="M17.21,19a.31.31,0,0,1-.22-.09l-1.34-1.34a.32.32,0,0,1,.45-.45l1.34,1.34a.31.31,0,0,1,0,.45A.32.32,0,0,1,17.21,19Z"/><path class="cls-2" d="M9.89,36.66H8a.32.32,0,0,1-.32-.32A.32.32,0,0,1,8,36H9.89a.32.32,0,0,1,.32.32A.32.32,0,0,1,9.89,36.66Z"/><path class="cls-2" d="M15.88,55.68a.3.3,0,0,1-.23-.1.33.33,0,0,1,0-.45L17,53.8a.32.32,0,0,1,.45.45L16.1,55.58A.28.28,0,0,1,15.88,55.68Z"/><path class="cls-1" d="M34.89,11.66a.32.32,0,0,1-.32-.32V9.45a.32.32,0,0,1,.32-.32.32.32,0,0,1,.32.32v1.89A.32.32,0,0,1,34.89,11.66Z"/><path class="cls-3" d="M49.76,16.36a.1.1,0,0,1-.07,0,.12.12,0,0,1,0-.17l1.12-1.52a.12.12,0,0,1,.17,0,.14.14,0,0,1,0,.17l-1.13,1.52A.12.12,0,0,1,49.76,16.36Z"/><path class="cls-3" d="M46.44,14.29l0,0a.12.12,0,0,1-.06-.16l.88-1.67a.12.12,0,0,1,.16-.06.13.13,0,0,1,.05.17l-.87,1.67A.14.14,0,0,1,46.44,14.29Z"/><path class="cls-3" d="M42.79,12.74h0a.13.13,0,0,1-.07-.16l.6-1.79a.12.12,0,0,1,.15-.08.13.13,0,0,1,.07.16l-.59,1.79A.13.13,0,0,1,42.79,12.74Z"/><path class="cls-3" d="M39,11.79h0a.11.11,0,0,1-.09-.14l.3-1.86a.12.12,0,0,1,.14-.1.12.12,0,0,1,.1.14l-.31,1.86A.12.12,0,0,1,39,11.79Z"/><path class="cls-3" d="M59.6,32.64a.12.12,0,0,1-.12-.1.12.12,0,0,1,.1-.14l1.87-.29a.12.12,0,0,1,0,.24l-1.87.29Z"/><path class="cls-3" d="M8.32,40.58a.13.13,0,0,1-.12-.11.11.11,0,0,1,.1-.13l1.87-.29a.11.11,0,0,1,.13.1.12.12,0,0,1-.1.14l-1.86.28Z"/><path class="cls-3" d="M58.7,28.83a.12.12,0,0,1-.11-.09.12.12,0,0,1,.07-.15l1.8-.58a.12.12,0,0,1,.08.23l-1.8.58Z"/><path class="cls-3" d="M9.29,44.68a.12.12,0,0,1,0-.24l1.8-.57a.12.12,0,0,1,.15.07.13.13,0,0,1-.08.16l-1.8.57Z"/><path class="cls-3" d="M57.19,25.16a.1.1,0,0,1-.1-.07.12.12,0,0,1,0-.16l1.69-.85a.12.12,0,0,1,.16.05.12.12,0,0,1-.06.16l-1.68.86Z"/><path class="cls-3" d="M10.91,48.62a.11.11,0,0,1-.11-.06.13.13,0,0,1,0-.17l1.69-.85a.12.12,0,0,1,.11.21L11,48.61Z"/><path class="cls-3" d="M55.13,21.79a.12.12,0,0,1-.09-.05.12.12,0,0,1,0-.17l1.53-1.11a.12.12,0,0,1,.17,0,.11.11,0,0,1,0,.16L55.2,21.76A.09.09,0,0,1,55.13,21.79Z"/><path class="cls-3" d="M13.12,52.25a.12.12,0,0,1-.09,0,.12.12,0,0,1,0-.17l1.53-1.11a.13.13,0,0,1,.17,0,.12.12,0,0,1,0,.17l-1.53,1.11Z"/><path class="cls-3" d="M56.65,52.27a.11.11,0,0,1-.07,0l-1.53-1.11A.12.12,0,0,1,55,51a.11.11,0,0,1,.16,0l1.53,1.11a.12.12,0,0,1,0,.17A.12.12,0,0,1,56.65,52.27Z"/><path class="cls-3" d="M14.66,21.77l-.07,0-1.53-1.11a.12.12,0,0,1,0-.17.11.11,0,0,1,.16,0l1.53,1.11a.12.12,0,0,1,0,.17A.12.12,0,0,1,14.66,21.77Z"/><path class="cls-3" d="M58.85,48.67H58.8l-1.68-.86a.12.12,0,0,1-.06-.16.13.13,0,0,1,.17,0l1.68.85a.13.13,0,0,1,.05.17A.11.11,0,0,1,58.85,48.67Z"/><path class="cls-3" d="M12.62,25.11h-.06l-1.68-.86A.12.12,0,0,1,11,24l1.68.86a.12.12,0,0,1,.05.16A.11.11,0,0,1,12.62,25.11Z"/><path class="cls-3" d="M60.48,44.73h0l-1.8-.59a.11.11,0,0,1-.08-.15.12.12,0,0,1,.15-.07l1.8.58a.12.12,0,0,1,.08.15A.13.13,0,0,1,60.48,44.73Z"/><path class="cls-3" d="M11.1,28.78h0l-1.8-.58A.12.12,0,0,1,9.34,28l1.8.58a.12.12,0,0,1,.08.15A.14.14,0,0,1,11.1,28.78Z"/><path class="cls-3" d="M61.47,40.59h0l-1.87-.29a.11.11,0,0,1-.1-.13.12.12,0,0,1,.14-.1l1.86.29a.12.12,0,0,1,.11.13A.13.13,0,0,1,61.47,40.59Z"/><path class="cls-3" d="M10.19,32.62h0L8.3,32.33a.12.12,0,1,1,0-.24l1.87.29a.12.12,0,0,1,.1.14A.12.12,0,0,1,10.19,32.62Z"/><path class="cls-3" d="M30.91,11.78a.12.12,0,0,1-.12-.1l-.3-1.87a.11.11,0,0,1,.1-.13.11.11,0,0,1,.13.1l.3,1.86a.11.11,0,0,1-.09.14Z"/><path class="cls-3" d="M27.1,12.71a.13.13,0,0,1-.12-.09l-.59-1.79a.12.12,0,0,1,.08-.15.12.12,0,0,1,.15.07l.59,1.8a.12.12,0,0,1-.07.15Z"/><path class="cls-3" d="M23.44,14.24a.12.12,0,0,1-.1-.07l-.87-1.68a.12.12,0,1,1,.21-.11l.87,1.68a.12.12,0,0,1-.05.16Z"/><path class="cls-3" d="M20.08,16.32a.12.12,0,0,1-.09-.05l-1.12-1.52a.12.12,0,0,1,0-.17.12.12,0,0,1,.17,0l1.12,1.52a.12.12,0,0,1,0,.17Z"/><path class="cls-4" d="M53.91,55.68a.32.32,0,0,1-.23-.1l-1.33-1.33a.32.32,0,0,1,.45-.45l1.34,1.33a.33.33,0,0,1,0,.45A.32.32,0,0,1,53.91,55.68Z"/><path class="cls-4" d="M61.79,36.66H59.9a.32.32,0,0,1-.33-.32A.33.33,0,0,1,59.9,36h1.89a.33.33,0,0,1,.32.32A.32.32,0,0,1,61.79,36.66Z"/><path class="cls-5" d="M52.57,19a.32.32,0,0,1-.22-.54l1.33-1.34a.34.34,0,0,1,.46,0,.33.33,0,0,1,0,.45L52.8,18.89A.33.33,0,0,1,52.57,19Z"/><path class="cls-1" d="M34.89,17.53,35.34,28l.41,9.74a.78.78,0,0,1-.86.73h0a.78.78,0,0,1-.85-.73L34.45,28Z"/><path class="cls-5" d="M53.31,29.73l-9.45,4.55-8.79,4.23a.78.78,0,0,1-1-.5h0a.77.77,0,0,1,.33-1.07l9.11-3.48Z"/><text class="cls-6" transform="translate(27.25 49.25)">54656</text><text class="cls-7" transform="translate(31.1 53.7)">浙江省</text><text class="cls-8" transform="translate(18.84 52.68)">0</text><text class="cls-8" transform="translate(48.13 52.68)">300</text><text class="cls-8" transform="translate(12.71 37.16)">20</text><text class="cls-8" transform="translate(53.89 37.16)">180</text><text class="cls-8" transform="translate(18.84 21.98)">40</text><text class="cls-8" transform="translate(48.13 21.98)">120</text><text class="cls-8" transform="translate(33.81 15.18)">80</text></svg>