<svg id="图层_1" data-name="图层 1" xmlns="http://www.w3.org/2000/svg" viewBox="0 0 70 70"><defs><style>.cls-1{opacity:0.14;}.cls-2{fill:#ea6a6a;}.cls-3{fill:#ff9f80;}.cls-4{fill:#ffdb5c;}.cls-5{fill:#67e0e3;}.cls-6{fill:#69b5e1;}</style></defs><title>line</title><g class="cls-1"><polygon class="cls-2" points="62.86 63 6.63 63 6.63 32.52 16.03 29.18 25.59 31.45 34.74 29.58 44.27 20.98 53.53 15.57 62.86 14.78 62.86 63"/><polygon class="cls-3" points="62.86 63 6.63 63 6.63 47.82 16.26 46.58 25.79 48.1 35 46.69 44.42 44.84 53.58 40.13 62.86 39.47 62.86 63"/><polygon class="cls-4" points="62.86 63 6.63 63 6.63 53.71 16.16 52.85 25.73 53.78 34.98 52.97 44.23 52.25 53.6 46.27 62.86 45.51 62.86 63"/><polygon class="cls-5" points="62.86 63 6.63 63 6.63 56.68 16.29 56.75 25.53 57.62 34.97 56.1 44.26 55.59 53.64 52.25 62.86 53.04 62.86 63"/><polygon class="cls-6" points="62.86 63 6.63 63 6.63 60.65 16.14 60.24 25.58 60.65 34.74 60.32 44.35 61.34 53.69 58.3 62.86 59.01 62.86 63"/></g><polygon class="cls-2" points="6.73 32.85 6.6 32.35 16.05 29 16.11 29.01 25.62 31.27 34.69 29.42 44.19 20.84 44.21 20.83 53.5 15.4 62.88 14.6 62.91 15.12 53.62 15.91 44.42 21.28 34.87 29.91 25.62 31.8 25.58 31.79 16.07 29.53 6.73 32.85"/><polygon class="cls-3" points="25.83 48.44 25.8 48.44 16.3 46.93 6.69 48.16 6.64 47.64 16.3 46.4 16.33 46.41 25.83 47.92 35 46.52 44.39 44.68 53.56 39.96 53.6 39.96 62.88 39.29 62.91 39.81 53.67 40.47 44.52 45.18 44.49 45.18 35.07 47.03 25.83 48.44"/><polygon class="cls-4" points="25.76 54.12 16.19 53.19 6.68 54.06 6.64 53.54 16.19 52.67 16.21 52.67 25.77 53.6 35 52.8 44.2 52.08 53.57 46.1 53.62 46.1 62.88 45.33 62.91 45.85 53.7 46.61 44.33 52.59 44.28 52.59 35.03 53.31 25.76 54.12"/><polygon class="cls-5" points="25.57 57.97 25.55 57.97 16.31 57.1 6.66 57.02 6.66 56.5 16.34 56.58 25.56 57.45 34.99 55.92 44.26 55.41 53.66 52.07 62.91 52.87 62.88 53.39 53.71 52.59 44.33 55.93 35.02 56.44 25.57 57.97"/><polygon class="cls-6" points="44.41 61.68 34.77 60.66 25.61 60.99 25.61 60.99 16.18 60.59 6.67 60.99 6.66 60.47 16.18 60.07 25.61 60.47 34.79 60.14 34.8 60.14 44.37 61.16 53.7 58.12 53.74 58.12 62.91 58.83 62.88 59.35 53.75 58.64 44.41 61.68"/></svg>