<svg id="图层_1" data-name="图层 1" xmlns="http://www.w3.org/2000/svg" viewBox="0 0 70 70"><defs><style>.cls-1{fill:#c6c6cb;}.cls-2{fill:#ff9f80;}.cls-3{fill:#69b5e1;}.cls-4{fill:#ea6a6a;}</style></defs><title>llbubble</title><path class="cls-1" d="M56.52,48.72c-.31-.11-1,.27-1,1s-.59,1.14-.59,1.78a.79.79,0,0,0,.42.82c.14.14,0,.61.36.72s.29-.23.44-.62.42-.69.42-1.07.1-1.07-.08-1.25S57,48.87,56.52,48.72Z"/><path class="cls-1" d="M43.92,56.32c.15-.14.71.25.55.66A4.36,4.36,0,0,1,44,58.16c-.19.19-.32.44-.48.59a1.29,1.29,0,0,1-1.15-.21c-.24-.24-.72-.44-.42-.95,0,0,.51-1,.9-.9A1.36,1.36,0,0,0,43.92,56.32Z"/><path class="cls-1" d="M38.33,51.07a1.23,1.23,0,0,0-1,0c-.37.12-.57,0-.47-.35s-.26-.64-.26-.8.45-.08.45-.47-.46-.82-.68-.6-.71-.4-.47-.65A1.6,1.6,0,0,1,37,47.75c.45,0,1,0,.8-.13s0-.8-.27-.8-.23.58-.53.29-.54-1-.87-.62A3.86,3.86,0,0,0,35.17,49a4,4,0,0,0-.8.55c-.28.28-.67-.77-.94-1s-.74-.66-.82-1-.64-.1-.64-.41.22-.82,0-.82-.61.77-.82.57-.27-1.23-.5-1.23S30,47,29.44,47.27a3.36,3.36,0,0,0,.24.29A3,3,0,0,1,30,49.25c0,.54-.83,1.07-.83,1.07s-.84.42-.51,1.16.92.25,1.19.51.05.76.37,1.07.71.06.88.22-.43,1-.26,1.19.39,0,.46.06l.76.77c.27.27.71-.3.9-.3s.31.63.66.5-.25-1.06,0-1.27a6.15,6.15,0,0,1,1.51-.49,3.69,3.69,0,0,0,2-.39,1.17,1.17,0,0,1,.7-.35.87.87,0,0,0,.36.18,2.86,2.86,0,0,1,.44-.72C38.89,52.19,38.5,51.24,38.33,51.07Z"/><path class="cls-1" d="M33.19,55.27C33.11,55.14,33,55,33,55h0s-.18.08-.31.18h0a.84.84,0,0,1-.42.19h0a.25.25,0,0,1-.19-.08h0l-.77-.76h0s0,0,0,0h0l-.21,0h0a.26.26,0,0,1-.22-.08h0a.14.14,0,0,1,0-.11h0c0-.26.32-.79.32-1h0a.08.08,0,0,0,0-.06h0a.24.24,0,0,0-.18-.06h-.23a.61.61,0,0,1-.47-.17h0a.88.88,0,0,1-.22-.58h0a.78.78,0,0,0-.15-.5h0a.33.33,0,0,0-.25-.08h0l-.3,0h0a.65.65,0,0,1-.65-.45h0a1,1,0,0,1-.07-.36h0a1.06,1.06,0,0,1,.59-.84h0s.21-.14.41-.33h0a1.14,1.14,0,0,0,.41-.72h0a3,3,0,0,0-.32-1.67h0a2.17,2.17,0,0,1-.24-.29h0a0,0,0,0,1,0,0h0l0,0h0c.38-.2.72-1,.95-1.36h0c.09-.13.14-.22.23-.22h0c.08,0,.13.08.17.18h0a2.45,2.45,0,0,1,.12.38h0a1.94,1.94,0,0,0,.23.67h0l.06,0h0c.08,0,.21-.14.34-.29h0c.14-.15.26-.31.4-.31h0a.15.15,0,0,1,.13.06h0a.32.32,0,0,1,0,.14h0c0,.19-.09.46-.09.65h0a.13.13,0,0,0,.08.13h0a.64.64,0,0,0,.19.05h0c.15,0,.33,0,.37.22h0c.07.27.55.68.82.94h0a4.55,4.55,0,0,1,.4.64h0c.15.24.3.44.41.44h0a.12.12,0,0,0,.08,0h0a3.33,3.33,0,0,1,.79-.54h0a1,1,0,0,1,0-.24h0a4.27,4.27,0,0,1,1-2.31h0a.28.28,0,0,1,.2-.09h0c.14,0,.26.13.38.28h0a3.93,3.93,0,0,0,.34.44h0a.15.15,0,0,0,.12.07h0s.1-.07.15-.17h0c.05-.09.11-.2.23-.2h0c.08,0,.12.05.15.12h0a1.33,1.33,0,0,1,0,.24h0c0,.18,0,.38.11.45h0a.12.12,0,0,1,0,.08h0s0,0,0,.07h0l-.1,0h0a1.32,1.32,0,0,1-.3,0H37a1.48,1.48,0,0,0-1.07.4h0a.19.19,0,0,0,0,.14h0a.55.55,0,0,0,.13.33h0a.4.4,0,0,0,.26.16h0a.14.14,0,0,0,.09,0h0a.2.2,0,0,1,.16-.07h0a.73.73,0,0,1,.57.69h0c0,.32-.28.36-.39.41h0s0,0,0,.06h0s.06.15.13.27h0a1,1,0,0,1,.14.41h0a.59.59,0,0,1,0,.13h0a.39.39,0,0,0,0,.14h0a.2.2,0,0,0,.23.21h0a.7.7,0,0,0,.23,0h0a2.19,2.19,0,0,1,.57-.09h0a.7.7,0,0,1,.49.14h0l0,0,0,0a2.13,2.13,0,0,1,.39,1.12h0a.42.42,0,0,1-.1.31h0a3.19,3.19,0,0,0-.44.72h0a0,0,0,0,1,0,0h0a.82.82,0,0,1-.36-.18h0a.6.6,0,0,0-.2,0h0a1.11,1.11,0,0,0-.47.29h0a3.67,3.67,0,0,1-2,.4h0s-.35.07-.68.16h0a2.92,2.92,0,0,0-.82.32h0a.17.17,0,0,0,0,.12h0c0,.23.2.65.2.92h0a.22.22,0,0,1-.13.24h0l-.1,0h0c-.16,0-.26-.15-.35-.28Zm.05,0c.09.13.18.25.3.25h0l.08,0h0c.07,0,.09-.08.09-.18h0c0-.24-.2-.67-.2-.92h0a.21.21,0,0,1,.06-.16h0a2.53,2.53,0,0,1,.85-.34h0l.68-.16h0a3.76,3.76,0,0,0,2-.38h0a1.2,1.2,0,0,1,.72-.36h0a.76.76,0,0,0,.31.17h0a3.28,3.28,0,0,1,.44-.72h0a.34.34,0,0,0,.08-.26h0a2.26,2.26,0,0,0-.37-1.08h0a.68.68,0,0,0-.45-.11h0a2,2,0,0,0-.55.08h0a.81.81,0,0,1-.25,0h0a.3.3,0,0,1-.21-.07h0a.25.25,0,0,1-.08-.2h0a.55.55,0,0,1,0-.16h0a.41.41,0,0,0,0-.11h0a.79.79,0,0,0-.13-.38h0a1.11,1.11,0,0,1-.14-.3h0c0-.06.05-.09.09-.11h0l.16-.06h0a.29.29,0,0,0,.2-.3h0a.7.7,0,0,0-.17-.43h0a.54.54,0,0,0-.34-.2h0a.21.21,0,0,0-.12,0h0a.15.15,0,0,1-.13.05h0c-.21,0-.45-.3-.45-.55h0a.26.26,0,0,1,.07-.19h0A1.59,1.59,0,0,1,37,47.72h.42a1,1,0,0,0,.37,0h0l0,0h0c-.14-.16-.09-.54-.16-.71h0c0-.06,0-.08-.09-.08h0c-.07,0-.12.08-.17.17h0c-.06.09-.1.2-.21.2h0a.26.26,0,0,1-.17-.09h0a4.07,4.07,0,0,1-.34-.45h0c-.11-.15-.23-.26-.33-.25h0a.22.22,0,0,0-.16.08h0a4.23,4.23,0,0,0-.93,2.26h0a2,2,0,0,0,0,.25h0s0,0,0,0h0s-.12.06-.29.17h0a2.94,2.94,0,0,0-.5.37h0a.16.16,0,0,1-.12.06h0c-.17,0-.31-.23-.46-.47h0a4.84,4.84,0,0,0-.4-.62h0c-.26-.27-.74-.66-.82-1h0c0-.1-.11-.13-.22-.16h0a1.07,1.07,0,0,1-.32-.08h0a.18.18,0,0,1-.11-.18h0c0-.2.09-.48.09-.65h0c0-.1,0-.14-.1-.14h0c-.08,0-.22.14-.35.29h0c-.13.15-.26.31-.39.31h0a.13.13,0,0,1-.1,0h0a1.26,1.26,0,0,1-.2-.5h0a4.7,4.7,0,0,0-.16-.58h0c0-.1-.09-.15-.12-.14h0s-.1.06-.17.19h0c-.08.12-.17.29-.27.47h0a2.6,2.6,0,0,1-.68.9h0a1.73,1.73,0,0,0,.21.25h0A3,3,0,0,1,30,49.25h0c0,.57-.85,1.09-.85,1.1h0a1.35,1.35,0,0,0-.28.2h0a.85.85,0,0,0-.28.59h0a.85.85,0,0,0,.07.33h0a.6.6,0,0,0,.59.42h0l.3,0h0a.38.38,0,0,1,.29.1h0a.82.82,0,0,1,.17.53h0a.82.82,0,0,0,.2.54h0a.54.54,0,0,0,.43.16h.23a.29.29,0,0,1,.22.07h0a.15.15,0,0,1,0,.11h0c0,.26-.33.79-.32,1h0a.08.08,0,0,0,0,.07h0a.22.22,0,0,0,.17.06h0l.21,0h0a.11.11,0,0,1,.08,0h0c.06.07.5.51.77.77h0a.2.2,0,0,0,.14.06h0a.82.82,0,0,0,.38-.18h0A1.08,1.08,0,0,1,33,55h0c.13,0,.19.15.27.28Z"/><path class="cls-1" d="M50.42,50c-.41,0-.64.45-1,.33a2.21,2.21,0,0,0-1.23.17c-.39.14.51-.44.06-.89s-1.72,0-1.93.17.19.71-.24.71-.35-.78-.64-.49-.12,1-.41,1.79-.26,1.1-.8,1.64c-.36.36-1,.94-1.37,1.41a2.24,2.24,0,0,0,.07,1A.76.76,0,0,0,44,56c.17-.17-.31-.3-.31-.61s.9-.68,1.87-.79A2.08,2.08,0,0,0,47,53.44c.68.17.68-.35.68-.35.81.8,1.69-.4,2.37-.51a2.55,2.55,0,0,0,1.39-.92h0C51.18,51.07,50.72,50,50.42,50Z"/><path class="cls-1" d="M43,55.82a1.61,1.61,0,0,1-.09-.6h0a3.18,3.18,0,0,1,0-.38h0v0a18.58,18.58,0,0,1,1.37-1.41h0c.53-.53.5-.86.79-1.63h0c.29-.75.11-1.48.42-1.8h0c.05,0,.09-.08.13-.08h0a.17.17,0,0,1,.13.1h0l.09.2h0c.07.13.15.25.31.25h0c.16,0,.17-.05.18-.14h0c0-.09,0-.22,0-.34h0a.33.33,0,0,1,.07-.21h0a2.49,2.49,0,0,1,1.32-.38h0a.91.91,0,0,1,.66.21h0a.41.41,0,0,1,.14.31h0a1.2,1.2,0,0,1-.28.59h0a3,3,0,0,1,1-.22h0a.82.82,0,0,1,.28,0h0l.09,0h0c.24,0,.47-.35.85-.35h0V50c-.34,0-.56.34-.85.35h0l-.11,0h0a.71.71,0,0,0-.26,0h0a3.25,3.25,0,0,0-1,.21h0l-.09,0h0a.06.06,0,0,1,0,0h0a.19.19,0,0,1,0-.1h0l.1-.14h0a.73.73,0,0,0,.14-.37h0a.41.41,0,0,0-.12-.27h0a.87.87,0,0,0-.62-.19h0a2.37,2.37,0,0,0-1.27.36h0a.21.21,0,0,0-.06.17h0c0,.11,0,.24,0,.34h0a.2.2,0,0,1,0,.15h0a.25.25,0,0,1-.19.06h0c-.3,0-.37-.34-.45-.49h0c0-.05-.06-.07-.08-.07h0a.21.21,0,0,0-.09.06h0c-.28.26-.11,1-.4,1.78h0c-.29.76-.27,1.11-.81,1.65h0c-.35.36-1,.94-1.36,1.4h0a3.26,3.26,0,0,0,0,.37h0a1.42,1.42,0,0,0,.09.57h0a.66.66,0,0,0,.6.29h0A.51.51,0,0,0,44,56h0a.09.09,0,0,0,0,0h0s-.08-.12-.17-.21h0a.49.49,0,0,1-.18-.33h0c0-.18.24-.35.59-.5h0a5,5,0,0,1,1.3-.32h0A1.71,1.71,0,0,0,46.59,54h0a2.61,2.61,0,0,0,.36-.54h0a0,0,0,0,1,0,0h0l.25,0h0a.35.35,0,0,0,.34-.18h0a.36.36,0,0,0,0-.17h0s0,0,0,0h0s0,0,0,0h0a.76.76,0,0,0,.58.27h0c.6,0,1.23-.69,1.76-.78h0a2.51,2.51,0,0,0,1.36-.9h0a7.65,7.65,0,0,0-.73-1.46h0c-.09-.1-.17-.16-.23-.16h0V50c.1,0,.18.07.28.18h0a3.39,3.39,0,0,1,.27.44h0a10.13,10.13,0,0,1,.47,1h0s0,0,0,0h0a2.55,2.55,0,0,1-1.4.93h0c-.49.08-1.13.78-1.77.78h0a.86.86,0,0,1-.58-.24h0a.48.48,0,0,1,0,.14h0a.42.42,0,0,1-.4.21h0l-.24,0h0a2.07,2.07,0,0,1-1.46,1.16h0a5.41,5.41,0,0,0-1.29.32h0c-.34.14-.55.32-.55.44h0a.43.43,0,0,0,.16.29h0c.09.08.18.15.19.25h0a.16.16,0,0,1,0,.1h0a.59.59,0,0,1-.38.11h0a.74.74,0,0,1-.66-.32Z"/><path class="cls-1" d="M10.83,37.46c-.39-.39,1.62-.61,1.87-.36s.19-.42,1.25-.42,1.48.39,2.38,0a8.55,8.55,0,0,1,3.16-.51c.93,0,1.5-.26,2,.19s1.25-.66,1.48-.89-.31-.78-.31-1.45,2.5-1.09,3-1.09a.75.75,0,0,0,.51-1.13c-.31-.31.43-.82-.35-1.17a3.1,3.1,0,0,0,1.79-1.06c.42-.7,1.29.65,2.11-1h0a2.15,2.15,0,0,0-.57-.83,3.91,3.91,0,0,1-.48-1,9,9,0,0,1-1.85-1.08c-1.25,0-1.8-.63-1.49-1.14A3.3,3.3,0,0,0,25.49,23c-.57-.13-.83-1.52-.83-1.52a2.25,2.25,0,0,1-2-1.07c-.29.57-1.2.38-1.58.77S21,22.8,20.38,22.8s-1.06-.39-1.82-.39-1.06,1.78-1.43,2.15-1.21,0-1.71,0a.56.56,0,0,0-.48.92c.36.36.11.62,0,1.3s-.81.33-.7,1-.11.84-.77.84a2.23,2.23,0,0,0-1.47.61c-.26.26-.81.09-1.27.09s-.68.59-.68.59c-.68-.31-1.49,0-2.22,0s-.74.75-.87,1.25.13.46.41.75.29.22.16.81-.68.4-.68.75.68.35.68.35-.24.57.13.57.55.77.55,1.05,1.07.57,1.18,1,.68,1.23.57,1.73a.09.09,0,0,1,0,.05C10.44,38,11.07,37.7,10.83,37.46Z"/><path class="cls-1" d="M9.91,38.19s0,0,0,0h0a.07.07,0,0,0,0,0h0a.51.51,0,0,0,0-.13h0a6.64,6.64,0,0,0-.59-1.59h0c-.06-.26-.69-.51-1-.73h0c-.1-.07-.18-.15-.18-.24h0A1.91,1.91,0,0,0,8,34.8H8c-.08-.23-.22-.4-.38-.4h0a.23.23,0,0,1-.19-.08h0a.29.29,0,0,1-.05-.18h0a1.06,1.06,0,0,1,.06-.31h0c-.06,0-.18,0-.3,0h0c-.17,0-.36-.13-.36-.33h0a.24.24,0,0,1,.1-.21h0l.2-.1h0a.58.58,0,0,0,.38-.45h0a3,3,0,0,0,.08-.45h0c0-.12,0-.16-.23-.33h0A2.63,2.63,0,0,0,7,31.67H7a.36.36,0,0,1-.15-.3h0a.8.8,0,0,1,0-.24h0a4.35,4.35,0,0,1,.22-.82h0a.69.69,0,0,1,.68-.45h0c.48,0,1-.14,1.5-.14h0a1.85,1.85,0,0,1,.7.13h0c.06-.12.28-.58.7-.58h0c.27,0,.56.06.81.06h0a.61.61,0,0,0,.44-.14h0a2.2,2.2,0,0,1,1.49-.62h0a1.08,1.08,0,0,0,.59-.12h0a.45.45,0,0,0,.18-.41h0a1.39,1.39,0,0,0,0-.27h0a.62.62,0,0,1,0-.13h0c0-.25.17-.32.33-.39h0a.55.55,0,0,0,.38-.46h0a6.85,6.85,0,0,0,.21-.89h0a.5.5,0,0,0-.18-.38h0a.51.51,0,0,1-.16-.36h0a.65.65,0,0,1,.67-.61h0c.34,0,.8.15,1.19.15h0a.69.69,0,0,0,.5-.16h0a6.8,6.8,0,0,0,.56-1.21h0c.21-.49.48-.95.89-.95h0c.78,0,1.24.39,1.82.39h0a.29.29,0,0,0,.27-.19h0a1.78,1.78,0,0,0,.12-.47h0a1.85,1.85,0,0,1,.27-1h0a1.7,1.7,0,0,1,.84-.32h0a1,1,0,0,0,.73-.44h.06a1.06,1.06,0,0,0,.1.17h0a1.9,1.9,0,0,0,.35.36h0a2.29,2.29,0,0,0,1.54.53h0s0,0,0,0h0a4.18,4.18,0,0,0,.2.7h0c.13.36.34.73.61.79h0s0,0,0,0h0s0,.09,0,.23h0a2.89,2.89,0,0,1-.25,1.32h0a.47.47,0,0,0-.08.27h0a.69.69,0,0,0,.39.56h0a2.2,2.2,0,0,0,1.15.26h0l.71.49h0a4.82,4.82,0,0,0,1.12.58h0a0,0,0,0,1,0,0h0s.07.2.16.43h0a2.1,2.1,0,0,0,.32.59h0a2.25,2.25,0,0,1,.57.82h0s0,0,0,0h0a0,0,0,0,1,0,0h0c-.36.72-.74.89-1.08.89h0c-.26,0-.49-.09-.68-.09h0a.4.4,0,0,0-.35.21h0a3,3,0,0,1-1.73,1.05h0a.47.47,0,0,1,.31.43h0c0,.19-.1.38-.1.53h0a.27.27,0,0,0,.07.18h0a.51.51,0,0,1,.13.37h0c0,.36-.26.81-.66.81h0A7.74,7.74,0,0,0,23,33.6h0c-.24.13-.38.28-.38.42h0c0,.54.37,1,.37,1.29h0a.24.24,0,0,1-.07.18h0c-.19.19-.77,1-1.26,1h0a.37.37,0,0,1-.26-.12h0a.94.94,0,0,0-.72-.25h0c-.32,0-.71.07-1.21.07h0a8.92,8.92,0,0,0-3.15.5h0a1.94,1.94,0,0,1-.79.18h0c-.48,0-.91-.17-1.6-.17h0a1.26,1.26,0,0,0-.83.23h0c-.15.12-.21.24-.32.25h0a.17.17,0,0,1-.12-.06h0a.91.91,0,0,0-.57-.1h0a3,3,0,0,0-1.19.2h0c-.08.05-.11.09-.11.13h0s0,0,0,.07h0l0,0,0,0a.17.17,0,0,1-.06-.12h0c0-.08.06-.13.14-.18h0a1.78,1.78,0,0,1,.33-.12h0a4.33,4.33,0,0,1,.89-.1h0a1.09,1.09,0,0,1,.61.12h0s.06.05.08.05h0s.13-.11.28-.24h0a1.38,1.38,0,0,1,.87-.25h0c.71,0,1.13.18,1.6.18h0a1.86,1.86,0,0,0,.77-.17h0a8.64,8.64,0,0,1,3.17-.51h0c.49,0,.88-.07,1.21-.07h0a1,1,0,0,1,.76.27h0a.3.3,0,0,0,.22.1h0c.42,0,1-.8,1.22-1h0a.17.17,0,0,0,.05-.13h0c0-.25-.37-.73-.37-1.29h0c0-.18.17-.34.41-.48h0a4.67,4.67,0,0,1,.92-.34h0a8.51,8.51,0,0,1,1.7-.3h0a.55.55,0,0,0,.43-.25h0a.84.84,0,0,0,.17-.5h0a.46.46,0,0,0-.11-.33h0A.29.29,0,0,1,26,31.6h0c0-.18.1-.36.1-.53h0c0-.14-.07-.28-.35-.41h0s0,0,0,0h0a0,0,0,0,1,0,0h0a4.67,4.67,0,0,0,.72-.23h0a2.3,2.3,0,0,0,1.06-.81h0a.43.43,0,0,1,.4-.24h0c.21,0,.44.09.68.09h0c.31,0,.65-.14,1-.81h0a0,0,0,0,1,0,0h0a2.29,2.29,0,0,0-.56-.82h0a3.57,3.57,0,0,1-.49-1h0a9.35,9.35,0,0,1-1.83-1.08h0c-1,0-1.59-.42-1.59-.88h0a.54.54,0,0,1,.08-.3h0a2.83,2.83,0,0,0,.25-1.29h0c0-.1,0-.17,0-.21h0c-.29-.09-.49-.46-.63-.82h0a4.64,4.64,0,0,1-.2-.69h0a2.3,2.3,0,0,1-2-1h0a1.1,1.1,0,0,1-.75.42h0a1.7,1.7,0,0,0-.81.31h0c-.27.26-.18,1.06-.37,1.45h0a.35.35,0,0,1-.33.22h0c-.61,0-1.07-.39-1.82-.39h0c-.36,0-.62.42-.84.92h0a5.22,5.22,0,0,1-.57,1.22h0a.73.73,0,0,1-.54.18h0c-.4,0-.87-.15-1.19-.15h0a.59.59,0,0,0-.6.55h0a.44.44,0,0,0,.14.32h0a.57.57,0,0,1,.19.42h0a7.51,7.51,0,0,1-.21.9h0a.62.62,0,0,1-.42.51h0c-.16.07-.29.11-.29.33h0a.57.57,0,0,0,0,.12h0a1.49,1.49,0,0,1,0,.28h0a.51.51,0,0,1-.2.46h0a1.18,1.18,0,0,1-.63.13h0a2.12,2.12,0,0,0-1.44.6h0a.69.69,0,0,1-.49.16h0c-.26,0-.55-.06-.81-.06h0a.64.64,0,0,0-.49.28h0a1.27,1.27,0,0,0-.16.29h0a0,0,0,0,1,0,0h0a1.69,1.69,0,0,0-.71-.13h0c-.49,0-1,.13-1.5.13h0a.63.63,0,0,0-.63.42h0a4.38,4.38,0,0,0-.21.81H7a.69.69,0,0,0,0,.22h0a.29.29,0,0,0,.13.25h0a2.39,2.39,0,0,1,.32.25h0c.16.16.24.22.24.37h0a2.79,2.79,0,0,1-.08.47h0c-.1.46-.47.47-.61.58h0a.2.2,0,0,0-.07.16h0c0,.15.15.23.31.27h0a1.36,1.36,0,0,0,.34.05h0a0,0,0,0,1,0,0h0a1,1,0,0,0-.08.33h0c0,.11,0,.19.18.2h0c.21,0,.35.21.44.44h0a2,2,0,0,1,.14.64h0s0,.12.15.19h0l.38.23h0c.29.15.59.32.65.54h0A6.36,6.36,0,0,1,10,38h0a.59.59,0,0,1,0,.14h0a3.18,3.18,0,0,0,.59-.26h0c.18-.1.3-.21.3-.29h0a.12.12,0,0,0,0-.09h0l0,0,0,0a.2.2,0,0,1,.06.14h0c0,.13-.14.24-.33.35h0a5.53,5.53,0,0,1-.65.28h0a0,0,0,0,1,0,0Z"/><path class="cls-1" d="M30.51,29.46c.28.28-.35,1.69.41,1.69s1.08-.58,1.52-.4.7.55.17,1.08c0,0,.12,1,.71,1s.49.91.93.91-.39-.69.44-.76.91-.41,1.41-.41a.52.52,0,0,1,0,1c-.68.15-.56,1.09-.12,1.09A5.56,5.56,0,0,0,38.14,34c.27-.26.36-1.4.79-1.4s.28.92.65,1.29.89.89,1.26.52.54-1.06.87-1.4.47-.7.79-.7,1.67-.18,1.67-.76,1-1.12,1.46-1.12.53-.64.53-1.22.67-.71.67.08a2.06,2.06,0,0,0,1.29-.38c.41-.41.41-.06.41-.82s.81-.39,1.08-.11.71.82,1.06.46.41-.83.83-.83,2.88-1.74,2.88-2.18-.71-.31-1.08-.67-.23-.88-.7-1.35,1-.45.85-1-1-.88-.79-1.41,1.26-1.05,1.61-1.4-.06-.5.17-.73-.29-.82-.29-1.14.73-.82.47-1.09-.44-.61-.88-.61-.53.7-1.35.35-.41-1-1.11-1c-.29,0-.49,0-.62-.36a4.34,4.34,0,0,0-.44-1.13l-.09,0c-.35.11-.68,1.25-.5,1.08s.62.45.42.66a3.52,3.52,0,0,0-.77,1.47c-.16.63.31.83.22.92a7.84,7.84,0,0,0-.88.72c-.44.44-.88.09-1.27.09S47,20.46,47,21s.79.75,1.36.4,1.09-.5,1.37-.22.59,1-.07,1a3.43,3.43,0,0,0-1.84.66c-.26.26-.52,1.55-.82,1.85A2,2,0,0,1,45.8,25c-.25,0-.49.49-.49.49-.84-.52-1.63-.26-1.63.09s.31.48.31.77a6.51,6.51,0,0,1-2.19,2c-.38,0-2.2-.17-2.64-.17s-.2.26-.85.46-1.54.9-1.93.9-.69-.38-1.08-.53a8.07,8.07,0,0,0-2-.62H30.76l-.45,0A1.71,1.71,0,0,0,30.51,29.46Z"/><path class="cls-1" d="M35.59,34.18a.63.63,0,0,1,.5-.63h0a.48.48,0,0,0,.42-.48h0a.45.45,0,0,0-.41-.48h0a1.19,1.19,0,0,0-.57.17h0a2,2,0,0,1-.84.24h0c-.3,0-.35.13-.36.24h0c0,.12.09.28.09.39h0a.13.13,0,0,1,0,.1h0a.23.23,0,0,1-.13,0h0c-.24,0-.33-.25-.44-.47h0c-.11-.23-.22-.44-.49-.44h0a.68.68,0,0,1-.6-.51h0a2.12,2.12,0,0,1-.14-.51h0v0h0a.81.81,0,0,0,.29-.53h0c0-.23-.19-.4-.45-.51h0l-.16,0h0c-.34,0-.68.44-1.35.45h0a.36.36,0,0,1-.34-.18h0a.78.78,0,0,1-.09-.41h0c0-.28.06-.61.06-.84h0a.46.46,0,0,0-.06-.28h0l0,0,0,0a.49.49,0,0,1,.09.32h0c0,.24-.07.57-.06.84h0a.65.65,0,0,0,.07.38h0a.3.3,0,0,0,.29.14h0c.65,0,1-.43,1.35-.44h0a.39.39,0,0,1,.18,0h0c.27.11.49.29.49.56h0a.87.87,0,0,1-.29.56h0a2.59,2.59,0,0,0,.12.47h0c.11.25.27.48.55.48h0c.31,0,.44.25.55.47h0c.1.23.19.44.38.44h0c.1,0,.1,0,.11-.07h0a3.34,3.34,0,0,1-.09-.39h0c0-.15.1-.28.42-.3h0a2.2,2.2,0,0,0,.82-.23h0a1.18,1.18,0,0,1,.59-.18h0a.51.51,0,0,1,.47.54h0a.55.55,0,0,1-.47.54h0a.56.56,0,0,0-.45.57h0a.63.63,0,0,0,.09.32h0a.3.3,0,0,0,.24.14h0a5.81,5.81,0,0,0,2.14-.7h0a2.54,2.54,0,0,0,.32-.79h0c.12-.31.24-.62.49-.62h0a.31.31,0,0,1,.27.16h0a1.62,1.62,0,0,1,.11.37h0a1.66,1.66,0,0,0,.29.77h0c.28.27.65.64.95.64h0a.35.35,0,0,0,.26-.12h0c.36-.35.54-1.06.88-1.4h0c.33-.33.46-.71.81-.71h0a4.09,4.09,0,0,0,1-.16h0c.38-.12.7-.31.69-.57h0a1.06,1.06,0,0,1,.56-.8h0a1.89,1.89,0,0,1,.93-.35h0c.24,0,.36-.14.43-.37h0a3.48,3.48,0,0,0,.07-.82h0c0-.31.18-.51.37-.51h0c.19,0,.36.19.36.56h0a1.93,1.93,0,0,0,1.23-.37h0a2.71,2.71,0,0,1,.36-.28h0s0-.14,0-.52h0a.54.54,0,0,1,.11-.37h0a.36.36,0,0,1,.28-.11h0a1.24,1.24,0,0,1,.75.34h0c.21.22.51.58.77.58h0a.33.33,0,0,0,.24-.11h0a3,3,0,0,0,.38-.54h0a.55.55,0,0,1,.47-.3h0A3.58,3.58,0,0,0,52.58,27h0A10.33,10.33,0,0,0,54,25.89h0c.24-.22.39-.41.38-.5h0c0-.2-.15-.26-.38-.33h0a1.61,1.61,0,0,1-.69-.32h0c-.38-.38-.24-.89-.7-1.35h0a.24.24,0,0,1-.1-.18h0c0-.1.07-.16.16-.21h0a2,2,0,0,1,.33-.16h0c.24-.1.47-.22.46-.4h0a.25.25,0,0,0,0-.08h0a1.72,1.72,0,0,0-.47-.64h0a1,1,0,0,1-.35-.62h0a.51.51,0,0,1,0-.17h0c.19-.55,1.27-1.07,1.61-1.41h0a.43.43,0,0,0,.15-.27h0a2.8,2.8,0,0,0-.06-.28h0a.26.26,0,0,1,.09-.18h0a.17.17,0,0,0,0-.14h0c0-.26-.35-.7-.35-1h0a.93.93,0,0,1,.27-.49h0c.13-.17.26-.34.25-.46h0a.15.15,0,0,0,0-.11h0c-.27-.27-.44-.61-.86-.61h0a.65.65,0,0,0-.41.22h0a.77.77,0,0,1-.52.23h0a1.14,1.14,0,0,1-.43-.1h0a1,1,0,0,1-.61-.65h0c-.1-.2-.15-.34-.49-.34h0c-.29,0-.52,0-.65-.38h0a4.89,4.89,0,0,0-.42-1.1h0l-.07,0h0a.89.89,0,0,0-.36.47h0a1.87,1.87,0,0,0-.17.55h0l.09,0h0a.41.41,0,0,1,.29.2h0a.68.68,0,0,1,.14.37h0a.27.27,0,0,1-.06.17h0a3.61,3.61,0,0,0-.76,1.45h0a1.13,1.13,0,0,0,0,.25h0a.78.78,0,0,0,.12.42h0c.07.1.13.15.14.22h0a.08.08,0,0,1,0,.05h0a8.12,8.12,0,0,0-.88.72h0a.68.68,0,0,1-.52.23h0c-.28,0-.54-.13-.77-.13h0c-.07,0-.13.07-.18.2h0a2,2,0,0,0-.11.52h0A11.07,11.07,0,0,0,47,20.79h0V21h0c0,.33.33.54.73.54h0a1.21,1.21,0,0,0,.59-.17h0a2.14,2.14,0,0,1,1-.37h0a.56.56,0,0,1,.41.16h0a1.12,1.12,0,0,1,.33.69h0a.33.33,0,0,1-.1.25h0a.47.47,0,0,1-.32.1h0a3.36,3.36,0,0,0-1.82.64h0a3.21,3.21,0,0,0-.38.9h0a3.43,3.43,0,0,1-.43,1h0a1.94,1.94,0,0,1-1.2.39h0c-.11,0-.23.11-.32.24h0a1.77,1.77,0,0,0-.15.24h0s0,0,0,0h0a1.75,1.75,0,0,0-.93-.29h0a.88.88,0,0,0-.47.11h0a.28.28,0,0,0-.18.24h0c0,.33.3.46.31.77h0c0,.07-.07.17-.18.31h0a4.1,4.1,0,0,1-.42.48h0a12.36,12.36,0,0,1-1.11,1h0a1.13,1.13,0,0,1-.51.28h0c-.38,0-2.2-.17-2.64-.17h0a.32.32,0,0,0-.32.14h0a1,1,0,0,1-.52.32h0c-.66.19-1.53.89-1.94.9h0c-.42,0-.71-.39-1.09-.53h0a7.34,7.34,0,0,0-2-.61h-3a1.75,1.75,0,0,0,.19.93h0l0,0,0,0a1.71,1.71,0,0,1-.21-1h0a0,0,0,0,1,0,0h0l.45,0H33.3a8.31,8.31,0,0,1,2,.62h0c.41.16.69.53,1.07.53h0c.37,0,1.25-.7,1.92-.9h0a.86.86,0,0,0,.49-.3h0a.41.41,0,0,1,.37-.17h0c.44,0,2.27.18,2.64.18h0a2.57,2.57,0,0,0,.83-.56h0a12.94,12.94,0,0,0,1-1h0a1.32,1.32,0,0,0,.28-.42h0c0-.26-.3-.4-.31-.77h0c0-.24.3-.41.71-.41h0a1.82,1.82,0,0,1,.93.28h0l.14-.22h0c.1-.13.22-.26.37-.26h0A1.88,1.88,0,0,0,47,24.62h0a3.08,3.08,0,0,0,.42-.92h0a3.33,3.33,0,0,1,.39-.92h0a3.58,3.58,0,0,1,1.87-.67h0c.28,0,.35-.11.36-.28h0a1.12,1.12,0,0,0-.32-.65h0a.49.49,0,0,0-.36-.14h0a2.05,2.05,0,0,0-1,.36h0a1.17,1.17,0,0,1-.62.18h0c-.41,0-.79-.22-.79-.6h0v-.19h0A6.34,6.34,0,0,1,47.11,19h0c0-.14.13-.24.24-.24h0c.25,0,.51.13.77.13h0a.66.66,0,0,0,.48-.21h0a7.57,7.57,0,0,1,.88-.72h0l-.13-.19h0a.78.78,0,0,1-.13-.45h0a1.22,1.22,0,0,1,0-.26h0A3.7,3.7,0,0,1,50,15.58h0a.13.13,0,0,0,0-.12h0a.72.72,0,0,0-.13-.34h0c-.08-.1-.18-.18-.24-.17h0a.06.06,0,0,0-.05,0h0a.09.09,0,0,1,0,0h0a0,0,0,0,1,0,0h0s0,0,0,0h0a1.91,1.91,0,0,1,.17-.58h0a1,1,0,0,1,.4-.5h0l.09,0h0A4.44,4.44,0,0,1,50.69,15h0c.13.32.3.34.59.35h0a.49.49,0,0,1,.54.38h0a1,1,0,0,0,.59.61h0a1,1,0,0,0,.4.1h0a.72.72,0,0,0,.48-.22h0a.7.7,0,0,1,.45-.23h0c.46,0,.64.37.9.62h0a.26.26,0,0,1,.07.16h0a1.05,1.05,0,0,1-.27.49h0a1,1,0,0,0-.26.46h0c0,.24.35.68.35,1h0a.24.24,0,0,1-.07.18h0a.19.19,0,0,0-.06.14h0c0,.08.05.16.05.28h0a.44.44,0,0,1-.16.31h0c-.36.36-1.44.89-1.6,1.39h0a.4.4,0,0,0,0,.15h0a.9.9,0,0,0,.34.57h0a2,2,0,0,1,.48.67h0a.38.38,0,0,1,0,.1h0c0,.18-.15.29-.31.38h0a5.06,5.06,0,0,0-.51.23h0c-.08.05-.13.1-.13.16h0a.23.23,0,0,0,.08.14h0c.48.48.35,1,.7,1.35h0A1.63,1.63,0,0,0,54,25h0c.22.06.42.15.42.39h0c0,.14-.16.32-.4.55h0a9.19,9.19,0,0,1-.89.73h0a5.22,5.22,0,0,1-1.62.93h0a.49.49,0,0,0-.42.27h0a3.37,3.37,0,0,1-.39.56h0a.41.41,0,0,1-.28.12h0c-.31,0-.6-.38-.82-.59h0a1.18,1.18,0,0,0-.7-.33h0c-.19,0-.32.1-.33.42h0c0,.38,0,.49-.06.57h0a4.3,4.3,0,0,0-.36.27h0a2,2,0,0,1-1.27.39h0a0,0,0,0,1,0,0h0c0-.38-.15-.53-.3-.53h0c-.14,0-.31.16-.31.45h0a2.82,2.82,0,0,1-.08.84h0a.47.47,0,0,1-.48.41h0a1.81,1.81,0,0,0-.9.34h0a1,1,0,0,0-.53.75h0c0,.32-.35.51-.73.63h0a4.22,4.22,0,0,1-1,.16h0c-.29,0-.42.35-.76.69h0c-.33.33-.51,1-.88,1.41h0a.43.43,0,0,1-.31.13h0c-.34,0-.71-.38-1-.66h0c-.29-.29-.27-.88-.42-1.15h0a.23.23,0,0,0-.21-.13h0c-.18,0-.32.26-.43.58h0a2.83,2.83,0,0,1-.33.82h0A6,6,0,0,1,36,34.7h0c-.25,0-.39-.26-.39-.52Z"/><path class="cls-1" d="M53.06,41.94a2.17,2.17,0,0,0-.14.7c0,.36-.82,1.15-1.05,1.39s.31,1.49,1,1.49c0,0-.23,1,1.86.76a1.4,1.4,0,0,1,.54-.79c.55-.35.46-1.49.46-2a.88.88,0,0,0-.33-.73.65.65,0,0,1-.52-.48l.09-.06A2.63,2.63,0,0,0,53.06,41.94Z"/><path class="cls-1" d="M53.07,46.05a.59.59,0,0,1-.22-.45h0a.07.07,0,0,1,0-.05h0c-.62,0-1.07-.91-1.08-1.34h0a.26.26,0,0,1,.07-.2h0c.11-.12.38-.38.61-.65h0a1.63,1.63,0,0,0,.43-.72h0a2.27,2.27,0,0,1,.14-.71h0a0,0,0,0,1,0,0h0a2.46,2.46,0,0,1,.59-.08h0a2.84,2.84,0,0,1,1.37.38h0s0,0,0,0h0s0,0,0,0h0l-.08.05h0v0h0a.88.88,0,0,0,.07.13h0a.73.73,0,0,0,.42.27h0a1,1,0,0,1,.34.76h0c0,.12,0,.28,0,.46h0c0,.55,0,1.28-.48,1.56h0a1.28,1.28,0,0,0-.53.77h0a0,0,0,0,1,0,0h0l-.56,0h0a1.73,1.73,0,0,1-1.13-.29Zm-.15-.55v0h0a.24.24,0,0,0,0,.07h0c0,.19.1.67,1.29.68h0l.53,0h0a1.3,1.3,0,0,1,.54-.78h0c.4-.25.46-1,.46-1.51h0c0-.18,0-.34,0-.46h0a.89.89,0,0,0-.27-.67h0l0,0h0a.67.67,0,0,1-.54-.5h0s0,0,0,0h0l0,0h0a2.73,2.73,0,0,0-1.29-.35h0a2.23,2.23,0,0,0-.56.08h0a2.32,2.32,0,0,0-.13.67h0a1.56,1.56,0,0,1-.45.76h0c-.23.27-.49.53-.61.65h0a.22.22,0,0,0,0,.16h0a1.62,1.62,0,0,0,.31.8h0a1,1,0,0,0,.74.48h0Z"/><path class="cls-1" d="M47.77,35.93a1.21,1.21,0,0,0,.53.12.27.27,0,0,1,.13.51c-.27.1-.86.24-.43.68s.53.62,1,.44.55-.28,1-.19a2.15,2.15,0,0,0,1.17.08c.38-.11.95-1.06,1.34-.91a4.82,4.82,0,0,0,.93-1.41c0-.27.49-.73,1.14-.73s.58-1.07.16-1.07-1.08-.05-1.43-.05-.56.32-.94.7-.66.14-1-.54-.92-.13-1.16-.34C49.42,33.61,47.65,34.71,47.77,35.93Z"/><path class="cls-1" d="M48,37.26a.45.45,0,0,1-.16-.3h0c0-.14.11-.22.23-.29h0c.13-.06.27-.1.37-.14h0a.2.2,0,0,0,.14-.19h0a.25.25,0,0,0-.26-.26h0a1.22,1.22,0,0,1-.54-.12h0v0h0v0a0,0,0,0,1,0,0h0s0-.09,0-.13h0c0-1.2,1.69-2.24,2.38-2.62h0a.28.28,0,0,0,.21.06h0l.38,0h0a.59.59,0,0,1,.57.31h0c.27.46.48.72.69.71h0a.48.48,0,0,0,.32-.17h0c.38-.38.59-.71,1-.71h0c.36,0,1,.05,1.43.05h0c.23,0,.36.27.36.54h0a.7.7,0,0,1-.12.4h0a.47.47,0,0,1-.4.19h0a1.29,1.29,0,0,0-.79.26h0a.67.67,0,0,0-.32.44h0a1.59,1.59,0,0,1-.33.64h0a9.05,9.05,0,0,1-.61.79h-.11c-.17,0-.4.2-.61.42h0a2.09,2.09,0,0,1-.64.51h0a1.26,1.26,0,0,1-.38.06h0a3.45,3.45,0,0,1-.8-.14h0l-.28,0h0a1.74,1.74,0,0,0-.68.22h0a.76.76,0,0,1-.3.07h0c-.25,0-.38-.2-.71-.52Zm0-1.3a1.19,1.19,0,0,0,.37.06h0a.32.32,0,0,1,.32.32h0a.25.25,0,0,1-.18.25h0a2.4,2.4,0,0,0-.36.14h0c-.12.06-.2.13-.2.23h0a.42.42,0,0,0,.15.26h0c.32.33.45.5.66.5h0a.75.75,0,0,0,.28-.07h0a1.84,1.84,0,0,1,.7-.22h0l.29,0h0a3.47,3.47,0,0,0,.79.14h0a1.24,1.24,0,0,0,.37-.06h0a2,2,0,0,0,.6-.5h0c.22-.22.45-.43.66-.43h.08c.18-.21.41-.5.59-.76h0a1.58,1.58,0,0,0,.32-.61h0c0-.3.5-.76,1.17-.76h0c.32,0,.45-.26.45-.53h0a.71.71,0,0,0-.08-.34h0a.24.24,0,0,0-.21-.14h0c-.42,0-1.08,0-1.43,0h0c-.33,0-.53.31-.92.7h0a.58.58,0,0,1-.36.19h0c-.26,0-.47-.29-.74-.75h0a.54.54,0,0,0-.52-.28h0l-.38,0h0a.36.36,0,0,1-.23-.06h0c-.69.38-2.33,1.43-2.32,2.56h0v.1h0l.13.05Z"/><path class="cls-1" d="M63.06,19.6c.32-.32-.13-.61-.13-.61.35-.36-.22-.49-.7-.49s-1,.72-1.1.86S60,20.21,59.66,19s-3-1.45-3-1.45A35.53,35.53,0,0,0,54,13.81a1.62,1.62,0,0,0-1.16-.25c-.46,0-1.14-.13-1.49-.13a4.43,4.43,0,0,0-1.17.41A4.34,4.34,0,0,1,50.66,15c.13.32.33.36.62.36.7,0,.29.64,1.11,1S53.3,16,53.74,16s.61.35.88.61-.47.76-.47,1.09.53.9.29,1.14.18.38-.17.73-1.44.88-1.61,1.4.6.84.79,1.41a.26.26,0,0,1,0,.15.94.94,0,0,0,.71-.15c.35-.35.39,1.14,1,1.14s2.07-.55,2.07,0a.91.91,0,0,0,.86.94c.43,0,0-.43.43-.43s.35.7,1.13.7,1.49-.21,1.95,0l0,0c.34-.55-.34-1.22-.53-1.4s.11-.51.11-.51c.67-.67,1.35.14,1.67-.17s-.2-1.08.15-1.63S62.74,19.92,63.06,19.6Z"/><path class="cls-1" d="M61.65,24.75a1.37,1.37,0,0,0-.6-.11h0c-.41,0-.9.09-1.34.09h0a.83.83,0,0,1-.72-.36h0c-.14-.19-.22-.34-.41-.34h0c-.11,0-.15,0-.17,0h0a.25.25,0,0,0,0,.13h0a.36.36,0,0,1,0,.17h0a.23.23,0,0,1-.21.08h0a.94.94,0,0,1-.89-1h0a.16.16,0,0,0-.09-.16h0a.52.52,0,0,0-.27,0h0c-.46,0-1.23.24-1.68.24h0c-.48,0-.64-.7-.8-1h0c-.06-.12-.11-.18-.15-.17h0a.12.12,0,0,0-.08,0h0a.78.78,0,0,1-.56.16h-.2v0h0v0h0a.25.25,0,0,0,0-.08h0a1.72,1.72,0,0,0-.47-.64h0a1,1,0,0,1-.35-.62h0a.51.51,0,0,1,0-.17h0c.19-.55,1.27-1.07,1.61-1.41h0a.36.36,0,0,0,.14-.27h0a1.37,1.37,0,0,0-.05-.28h0a.26.26,0,0,1,.09-.18h0a.17.17,0,0,0,0-.14h0c0-.26-.35-.7-.35-1h0a.93.93,0,0,1,.27-.49h0c.13-.17.26-.34.25-.46h0a.15.15,0,0,0,0-.11h0c-.27-.27-.44-.61-.86-.61h0a.65.65,0,0,0-.41.22h0a.77.77,0,0,1-.52.23h0a1.14,1.14,0,0,1-.43-.1h0a1,1,0,0,1-.61-.65h0c-.1-.2-.15-.34-.49-.34h0c-.29,0-.52,0-.65-.38h0a4.15,4.15,0,0,0-.44-1.12h0s0,0,0,0h0l0,0h0a4.48,4.48,0,0,1,1.18-.41h0c.35,0,1,.13,1.49.13H53a1.51,1.51,0,0,1,1.07.25h0a34.5,34.5,0,0,1,2.59,3.75h0A8.46,8.46,0,0,1,58,17.8h0c.72.21,1.49.57,1.65,1.2h0c.13.52.39.66.65.67h0a1.39,1.39,0,0,0,.77-.33h0c.14-.14.6-.86,1.12-.87h0a1.93,1.93,0,0,1,.55.07h0c.16.05.28.12.29.25h0A.27.27,0,0,1,63,19h0a.51.51,0,0,1,.23.38h0a.36.36,0,0,1-.12.26h0a.25.25,0,0,0-.08.19h0c0,.21.21.5.21.83h0a.73.73,0,0,1-.1.36h0a.83.83,0,0,0-.13.48h0c0,.27.09.56.09.8h0a.48.48,0,0,1-.12.35h0a.3.3,0,0,1-.22.08h0c-.24,0-.54-.17-.85-.17h0a.82.82,0,0,0-.6.26h0l-.08.11h0a.49.49,0,0,0-.08.23h0a.15.15,0,0,0,.05.12h0a1.88,1.88,0,0,1,.63,1.1h0a.67.67,0,0,1-.1.35h0v0h0Zm0-.07h0a.59.59,0,0,0,.09-.31h0a1.82,1.82,0,0,0-.61-1.05h0a.23.23,0,0,1-.07-.17h0a.67.67,0,0,1,.18-.38h0a.88.88,0,0,1,.64-.28h0c.33,0,.64.17.85.17h0a.24.24,0,0,0,.18-.07h0a.4.4,0,0,0,.1-.3h0c0-.22-.09-.52-.09-.8h0a.84.84,0,0,1,.14-.51h0a.63.63,0,0,0,.09-.33h0c0-.3-.21-.58-.21-.83h0a.32.32,0,0,1,.1-.23h0a.29.29,0,0,0,.1-.22h0a.41.41,0,0,0-.11-.25h0a.89.89,0,0,0-.12-.1h0s0,0,0,0h0a0,0,0,0,1,0,0h0a.28.28,0,0,0,.1-.17h0c0-.08-.09-.15-.25-.19h0a1.79,1.79,0,0,0-.53-.07h0c-.46,0-.93.7-1.08.85h0a1.39,1.39,0,0,1-.81.35h0c-.29,0-.58-.18-.71-.72h0c-.15-.58-.89-.94-1.61-1.15h0a8.21,8.21,0,0,0-1.39-.27h0l0,0h0A35.4,35.4,0,0,0,54,13.83h0a1.42,1.42,0,0,0-1-.23h-.11c-.47,0-1.15-.14-1.49-.14h0a4,4,0,0,0-1.12.4h0A5.08,5.08,0,0,1,50.69,15h0c.13.32.3.34.59.35h0a.49.49,0,0,1,.54.38h0a1,1,0,0,0,.59.61h0a1,1,0,0,0,.4.1h0a.72.72,0,0,0,.48-.22h0a.7.7,0,0,1,.45-.23h0c.46,0,.64.37.9.62h0a.26.26,0,0,1,.07.16h0a1.05,1.05,0,0,1-.27.49h0a1,1,0,0,0-.26.46h0c0,.24.35.68.35,1h0a.24.24,0,0,1-.07.18h0a.19.19,0,0,0-.06.14h0c0,.08.05.16.05.28h0a.44.44,0,0,1-.16.31h0c-.36.36-1.44.89-1.6,1.39h0a.4.4,0,0,0,0,.15h0a.9.9,0,0,0,.34.57h0a2,2,0,0,1,.48.67h0a.38.38,0,0,1,0,.1h0v0h.14a.8.8,0,0,0,.52-.14h0a.17.17,0,0,1,.12-.06h0c.09,0,.14.09.2.2h0c.06.11.11.26.18.41h0c.13.3.3.58.57.58h0c.44,0,1.21-.24,1.68-.24h0a.67.67,0,0,1,.3.05h0a.25.25,0,0,1,.12.22h0a.88.88,0,0,0,.83.9h0c.1,0,.14,0,.16-.05h0a.25.25,0,0,0,0-.13h0a.3.3,0,0,1,0-.16h0c0-.06.11-.08.22-.08h0c.23,0,.33.19.46.36h0a.75.75,0,0,0,.67.34h0c.44,0,.92-.09,1.34-.09h0a1.57,1.57,0,0,1,.6.1Z"/><path class="cls-1" d="M59.71,24.7c-.78,0-.7-.7-1.13-.7s0,.43-.43.43a.91.91,0,0,1-.86-.94c0-.55-1.4,0-2.07,0s-.7-1.49-1-1.14a.94.94,0,0,1-.71.15c-.09.42-1.28.45-.86.87s.34,1,.7,1.35,1.08.23,1.08.67a.41.41,0,0,1-.08.19,1.51,1.51,0,0,0,.69.21c.45,0,1.28-.05,1.64.31a2.79,2.79,0,0,1,.64,1.17,4.48,4.48,0,0,1,.1,1.15c0,.31-.47.67-.17,1.1.55-.32,1.24-1.61,1.34-1.71s.44.3.79.3.53-.52.33-.52-.33-.66.2-.81.58-.78.76-1,.33.48.62.48.33-.48.33-.48c.74-.74-.19-.58.09-1.09C61.2,24.49,60.39,24.7,59.71,24.7Z"/><path class="cls-1" d="M57.17,29.54a.6.6,0,0,1-.1-.32h0c0-.32.27-.59.27-.8h0a4.4,4.4,0,0,0-.1-1.14h0a2.77,2.77,0,0,0-.64-1.16h0a1.93,1.93,0,0,0-1.28-.3H55a1.41,1.41,0,0,1-.7-.22h0a0,0,0,0,1,0,0h0v0h0a.32.32,0,0,0,.07-.17h0c0-.2-.15-.26-.38-.33h0a1.61,1.61,0,0,1-.69-.32h0c-.38-.38-.24-.89-.7-1.35h0a.24.24,0,0,1-.1-.18h0c0-.18.24-.25.46-.35h0c.23-.1.46-.21.49-.37h0s0,0,0,0h.17a.8.8,0,0,0,.52-.14h0a.17.17,0,0,1,.12-.06h0c.09,0,.14.09.2.2h0c.06.11.11.26.18.41h0c.13.3.3.58.57.58h0c.44,0,1.21-.24,1.68-.24h0a.67.67,0,0,1,.3.05h0a.25.25,0,0,1,.12.22h0a.88.88,0,0,0,.83.9h0c.1,0,.14,0,.16-.05h0a.25.25,0,0,0,0-.13h0a.3.3,0,0,1,0-.16h0c0-.06.11-.08.22-.08h0c.23,0,.33.19.46.36h0a.75.75,0,0,0,.67.34h0v.06a.83.83,0,0,1-.72-.36h0c-.14-.19-.22-.34-.41-.34h0c-.11,0-.15,0-.17,0h0a.25.25,0,0,0,0,.13h0a.36.36,0,0,1,0,.17h0a.23.23,0,0,1-.21.08h0a.94.94,0,0,1-.89-1h0a.16.16,0,0,0-.09-.16h0a.52.52,0,0,0-.27,0h0c-.46,0-1.23.24-1.68.24h0c-.48,0-.64-.7-.8-1h0c-.06-.12-.11-.18-.15-.17h0a.12.12,0,0,0-.08,0h0a.78.78,0,0,1-.56.16h-.15c-.06.19-.3.29-.51.38h0c-.24.1-.44.19-.43.3h0a.23.23,0,0,0,.08.14h0c.48.48.35,1,.7,1.35h0A1.63,1.63,0,0,0,54,25h0c.22.06.42.15.42.39h0a.38.38,0,0,1-.06.18h0a1.46,1.46,0,0,0,.64.19h.33a2,2,0,0,1,1.33.32h0a2.92,2.92,0,0,1,.65,1.18h0a4.59,4.59,0,0,1,.1,1.16h0c0,.26-.28.52-.27.8h0a.51.51,0,0,0,.07.26h0a3.11,3.11,0,0,0,.81-.92h0c.26-.37.45-.71.51-.78h0l.07,0h0a.79.79,0,0,1,.32.16h0a.75.75,0,0,0,.42.16h0a.35.35,0,0,0,.27-.14h0a.42.42,0,0,0,.11-.25h0c0-.05,0-.07-.05-.07h0c-.13,0-.2-.18-.21-.36h0a.52.52,0,0,1,.4-.51h0c.5-.15.55-.75.75-1h0a.12.12,0,0,1,.09,0h0c.11,0,.18.14.26.27h0c.09.13.19.24.29.24h0c.12,0,.19-.1.24-.22h0a.87.87,0,0,0,.06-.23h0s0,0,0,0h0c.22-.22.28-.36.28-.44h0a.25.25,0,0,0-.12-.2h0a.37.37,0,0,1-.14-.25h0a.37.37,0,0,1,0-.16h0a1.42,1.42,0,0,0-.57-.1h0c-.41,0-.9.09-1.34.09h0v-.06c.44,0,.92-.09,1.34-.09h0a1.46,1.46,0,0,1,.62.11h0s0,0,0,0h0v0h0a.32.32,0,0,0-.06.16h0a.3.3,0,0,0,.12.2h0a.32.32,0,0,1,.14.25h0c0,.11-.08.25-.29.47h0a1.35,1.35,0,0,1-.06.24h0a.34.34,0,0,1-.3.26h0c-.15,0-.25-.14-.34-.27h0c-.08-.13-.16-.25-.21-.24h0a0,0,0,0,0,0,0h0c-.18.17-.24.81-.79,1h0a.45.45,0,0,0-.34.46h0a.38.38,0,0,0,0,.22h0a.14.14,0,0,0,.1.08h0a.11.11,0,0,1,.09,0h0a.24.24,0,0,1,0,.09h0a.48.48,0,0,1-.44.45h0a.87.87,0,0,1-.45-.16h0a1,1,0,0,0-.29-.16h0s-.24.39-.5.77h0a3.2,3.2,0,0,1-.85.95h0Z"/><path class="cls-1" d="M57.37,28.42a4.48,4.48,0,0,0-.1-1.15,2.79,2.79,0,0,0-.64-1.17c-.36-.36-1.19-.31-1.64-.31a1.51,1.51,0,0,1-.69-.21,8.43,8.43,0,0,1-2.8,2c-.42,0-.48.48-.83.83s-.43.11-.64-.06a.84.84,0,0,0,.24.77c.44.44.68.41.88.78a6.15,6.15,0,0,1,.57.91.92.92,0,0,1,.54-.21c.33,0,.33-1,.64-1s.46-.46.88-.24.11.61.11.94a1.5,1.5,0,0,1-.55.9c-.25.25.79.5.36.52a.46.46,0,0,0-.45.45c.36.18.79-.4,1.2-.8a10.64,10.64,0,0,1,.88-.7c.24-.23.82-.15,1-.15s.14-.83.71-1l.15-.06C56.9,29.09,57.37,28.73,57.37,28.42Z"/><path class="cls-1" d="M53.24,32.22s0,0,0,0h0a.72.72,0,0,1,.07-.23h0a.45.45,0,0,1,.41-.25h.06l0,0h0l-.17-.1h0c-.13-.07-.27-.15-.27-.27h0a.12.12,0,0,1,0-.1h0a1.49,1.49,0,0,0,.54-.88h0c0-.21.11-.43.1-.61h0a.33.33,0,0,0-.2-.31h0a.39.39,0,0,0-.2-.05h0c-.24,0-.39.29-.66.3h0c-.12,0-.21.22-.28.46h0c-.08.24-.16.5-.36.5h0a.79.79,0,0,0-.52.21h0a0,0,0,0,1,0,0h0a7.4,7.4,0,0,0-.57-.91h0c-.19-.36-.43-.33-.87-.77h0a.88.88,0,0,1-.27-.64h0s0-.11,0-.15h0l0,0h0s0,0,0,0h0a.68.68,0,0,0,.37.17h0a.33.33,0,0,0,.24-.11h0a3,3,0,0,0,.38-.54h0a.55.55,0,0,1,.47-.3h0a4.66,4.66,0,0,0,1.36-.76h0a7,7,0,0,0,1.42-1.22h0s0,0,0,0h0a1.47,1.47,0,0,0,.67.21h.33a2,2,0,0,1,1.33.32h0a2.92,2.92,0,0,1,.65,1.18h0a4.59,4.59,0,0,1,.1,1.16h0c0,.26-.28.52-.27.8h0a.44.44,0,0,0,.09.28h0a0,0,0,0,1,0,0h0l0,0h0a.44.44,0,0,1-.16.06h0c-.4.09-.47.57-.56.82h0c0,.08-.07.15-.15.15H56a.94.94,0,0,0-.61.15h0a10.72,10.72,0,0,0-.89.7h0c-.36.35-.72.83-1.08.84h0a.28.28,0,0,1-.15,0Zm.15,0c.3,0,.68-.47,1-.83h0c.39-.38.78-.58.88-.69h0a1,1,0,0,1,.66-.17h.37s.06,0,.09-.11h0c0-.08.06-.19.1-.3h0a.76.76,0,0,1,.51-.56h0a.3.3,0,0,0,.11,0h0a.53.53,0,0,1-.08-.29h0c0-.32.27-.59.27-.8h0a4.4,4.4,0,0,0-.1-1.14h0a2.77,2.77,0,0,0-.64-1.16h0a1.93,1.93,0,0,0-1.28-.3H55a1.47,1.47,0,0,1-.68-.2h0a7.15,7.15,0,0,1-1.41,1.21h0a4.46,4.46,0,0,1-1.4.77h0a.49.49,0,0,0-.42.27h0a3,3,0,0,1-.39.56h0a.41.41,0,0,1-.28.12h0a.62.62,0,0,1-.36-.15h0s0,.06,0,.09h0a.86.86,0,0,0,.25.6h0c.43.43.68.4.88.78h0a8.92,8.92,0,0,1,.56.88h0a.93.93,0,0,1,.53-.19h0c.13,0,.22-.21.3-.46h0c.08-.24.15-.49.34-.5h0c.22,0,.37-.3.66-.3h0a.53.53,0,0,1,.23.06h0a.38.38,0,0,1,.24.36h0c0,.21-.11.42-.11.61h0a1.5,1.5,0,0,1-.56.92h0s0,0,0,.06h0c0,.05.08.13.19.19h0c.11.07.23.12.28.16h0a.07.07,0,0,1,0,.06h0s0,0,0,.05H53.7a.39.39,0,0,0-.36.21h0a.78.78,0,0,0-.06.19h0l.11,0Z"/><path class="cls-1" d="M42.93,33.16c-.32.33-.11.92-.11,1.51s-.08.52-.08,1.24.37.67.37,1.14-.34.52-.34,1,.2.21.89,0a7.68,7.68,0,0,0,2.22-1.52c.34-.34.17-.62.17-1a5.68,5.68,0,0,1,.3-1.25c.09-.41-.38-.73-.57-.92s.37-.9.37-.9c.94-.07.9-.78.9-.78-.61,0-1-.24-.59-.62s-.15-.63-.44-.84a.42.42,0,0,1-.39.23c-.49,0-1.46.53-1.46,1.12,0,.42-.69.63-1.2.71C43.06,32.54,43.12,33,42.93,33.16Z"/><path class="cls-1" d="M42.77,38.22a.55.55,0,0,1,0-.21h0a.84.84,0,0,1,.17-.49h0a.74.74,0,0,0,.17-.47h0a.72.72,0,0,0-.18-.46h0a1,1,0,0,1-.19-.68h0c0-.72.08-.66.08-1.24h0c0-.33-.07-.66-.07-1h0a.79.79,0,0,1,.19-.58h0a.51.51,0,0,0,.11-.37h0a2.52,2.52,0,0,0-.08-.54h0v0h0a3,3,0,0,0,.79-.23h0c.23-.11.39-.26.39-.45h0a1.06,1.06,0,0,1,.56-.8h0a1.89,1.89,0,0,1,.93-.35h0a.37.37,0,0,0,.36-.22h0c.23.17.53.43.54.68h0a.29.29,0,0,1-.09.21h0a.41.41,0,0,0-.15.27h0c0,.09.06.16.19.22h0a1.45,1.45,0,0,0,.52.08h0a0,0,0,0,1,0,0h0c0,.1,0,.73-.91.8h0l-.2.28h0a1.23,1.23,0,0,0-.2.48h0a.12.12,0,0,0,0,.09h0c.17.16.59.45.59.83h0a.41.41,0,0,1,0,.11h0a5.36,5.36,0,0,0-.29,1.25h0a4.39,4.39,0,0,0,0,.53h0a.69.69,0,0,1-.23.52h0a7.67,7.67,0,0,1-2.24,1.53h0a6.69,6.69,0,0,1-.76.24h0a.12.12,0,0,1-.12-.07Zm0-4.5c0,.28.07.61.07,1h0c0,.59-.08.53-.08,1.24h0a1,1,0,0,0,.18.65h0a.74.74,0,0,1,.19.49h0a.82.82,0,0,1-.18.51h0a.76.76,0,0,0-.16.45h0a.62.62,0,0,0,0,.18h0a.08.08,0,0,0,.08,0h0a7.28,7.28,0,0,0,.75-.24h0a7.74,7.74,0,0,0,2.21-1.51h0a.65.65,0,0,0,.2-.48h0c0-.16,0-.33,0-.53h0a5.63,5.63,0,0,1,.3-1.26h0a.34.34,0,0,0,0-.1h0c0-.34-.4-.62-.57-.79h0a.19.19,0,0,1,0-.13h0a2.24,2.24,0,0,1,.42-.81h0c.8-.07.86-.59.87-.72h0a1.28,1.28,0,0,1-.52-.09h0a.32.32,0,0,1-.22-.27h0a.45.45,0,0,1,.16-.31h0a.25.25,0,0,0,.07-.17h0c0-.19-.26-.44-.48-.61h0a.41.41,0,0,1-.4.22h0a1.81,1.81,0,0,0-.9.34h0a1,1,0,0,0-.53.75h0c0,.23-.18.39-.43.51h0a2.88,2.88,0,0,1-.76.22h0a2.43,2.43,0,0,1,.08.53h0a.62.62,0,0,1-.13.42h0a.68.68,0,0,0-.18.53Z"/><path class="cls-1" d="M49.64,30.76c-.21-.21-.45-.21-.45,0s-.5.65-.62.94a.46.46,0,0,0,.37.59c.2,0,.14.59.51.59a1.65,1.65,0,0,0,.59-.14.67.67,0,0,1,.28-.43,2.27,2.27,0,0,0-.36-.77C49.7,31.31,49.86,31,49.64,30.76Z"/><path class="cls-1" d="M49.15,32.72c-.06-.1-.09-.23-.13-.31h0s-.05-.07-.08-.07h0a.51.51,0,0,1-.43-.48h0a.4.4,0,0,1,0-.15h0a2.14,2.14,0,0,1,.36-.5h0c.14-.17.27-.33.26-.43h0a.25.25,0,0,1,.05-.15h0a.17.17,0,0,1,.13-.05h0a.49.49,0,0,1,.33.16h0l0,0,0,0a.71.71,0,0,1,.15.41h0a.56.56,0,0,0,.16.39h0a2.06,2.06,0,0,1,.36.78h0s0,0,0,0h0a.69.69,0,0,0-.26.42h0l0,0h0a1.65,1.65,0,0,1-.6.14h0a.32.32,0,0,1-.3-.21Zm-.07-.34c0,.06.05.14.08.21h0c.05.15.12.28.29.28h0a1.7,1.7,0,0,0,.56-.13h0a.72.72,0,0,1,.27-.42h0a1.91,1.91,0,0,0-.35-.73h0a.73.73,0,0,1-.18-.44h0a.5.5,0,0,0-.13-.36h0a.43.43,0,0,0-.28-.15h0c-.07,0-.11,0-.11.14h0a1,1,0,0,1-.28.47h0a2.13,2.13,0,0,0-.35.48h0a.31.31,0,0,0,0,.13h0a.46.46,0,0,0,.13.29h0a.39.39,0,0,0,.24.13h0a.17.17,0,0,1,.14.1Z"/><path class="cls-1" d="M48.73,29.83c-.33,0-1,.31-1,.53s.22.7.22,1,.1.55.61.5a.4.4,0,0,1,0-.15c.12-.29.62-.7.62-.94a.19.19,0,0,1,.08-.16C49.19,30.37,49,29.83,48.73,29.83Z"/><path class="cls-1" d="M48,31.74a.61.61,0,0,1-.1-.37h0c0-.3-.22-.79-.22-1h0c0-.14.19-.27.4-.38h0a1.78,1.78,0,0,1,.65-.18h0v.06a1.69,1.69,0,0,0-.62.18h0c-.21.1-.37.24-.37.32h0c0,.2.22.69.22,1h0c0,.25.07.47.47.48h.08a.61.61,0,0,1,0-.13h0a2.14,2.14,0,0,1,.36-.5h0c.14-.17.27-.33.26-.43h0a.2.2,0,0,1,.08-.17h0a2.21,2.21,0,0,0-.2-.46h0c-.09-.17-.21-.29-.31-.29h0V29.8c.15,0,.26.15.36.32h0a2.65,2.65,0,0,1,.21.49h0s0,0,0,0h0s-.06.06-.06.13h0a1,1,0,0,1-.28.47h0a2.13,2.13,0,0,0-.35.48h0a.61.61,0,0,0,0,.13h0a0,0,0,0,1,0,0h-.12a.52.52,0,0,1-.43-.17Z"/><path class="cls-1" d="M51.15,29.89c-.2-.37-.44-.34-.88-.78a.84.84,0,0,1-.24-.77,5.5,5.5,0,0,1-.42-.4c-.27-.28-1.08-.65-1.08.11s0,.41-.41.82a2.06,2.06,0,0,1-1.29.38c0-.79-.67-.67-.67-.08a2.3,2.3,0,0,1-.14,1c.29.21.7.58.44.84s0,.62.59.62c0,0,0,.71-.9.78,0,0-.55.72-.37.9s.66.51.57.92a5.68,5.68,0,0,0-.3,1.25c0,.21.05.39,0,.56.3,0,.79-.06,1.06-.06s.49.17.84,0a.74.74,0,0,1-.22-.08c-.12-1.22,1.65-2.32,2.35-2.71a.43.43,0,0,1-.1-.32.59.59,0,0,1,0-.14,1.65,1.65,0,0,1-.59.14c-.37,0-.31-.59-.51-.59a.48.48,0,0,1-.4-.44c-.51.05-.61-.22-.61-.5s-.22-.8-.22-1,.69-.53,1-.53.46.54.54.79a.38.38,0,0,1,.37.14c.22.22.06.55.32.8a2.27,2.27,0,0,1,.36.77c.34-.28.9-.39,1-.84a1.26,1.26,0,0,1,.4-.69A6.15,6.15,0,0,0,51.15,29.89Z"/><path class="cls-1" d="M47.15,36c-.26,0-.76,0-1,.06h0v0h0v0h0c0-.16,0-.33,0-.53h0a5.63,5.63,0,0,1,.3-1.26h0a.34.34,0,0,0,0-.1h0c0-.34-.4-.62-.57-.79h0a.19.19,0,0,1,0-.13h0a2.24,2.24,0,0,1,.42-.81h0c.8-.07.86-.59.87-.72h0a1.28,1.28,0,0,1-.52-.09h0a.32.32,0,0,1-.22-.27h0a.45.45,0,0,1,.16-.31h0a.25.25,0,0,0,.07-.17h0c0-.2-.28-.46-.51-.63h0s0,0,0,0h0a2.19,2.19,0,0,0,.14-1h0c0-.31.18-.51.37-.51h0c.19,0,.36.19.36.56h0a1.93,1.93,0,0,0,1.23-.37h0a2.71,2.71,0,0,1,.36-.28h0s0-.14,0-.52h0a.54.54,0,0,1,.11-.37h0a.36.36,0,0,1,.28-.11h0a1.3,1.3,0,0,1,.75.34h0c.11.12.26.28.4.41h0a0,0,0,0,1,0,0h0a.77.77,0,0,0,0,.15h0a.86.86,0,0,0,.25.6h0c.43.43.68.4.88.78h0l0,0h0c-.19-.36-.43-.33-.87-.77h0a.88.88,0,0,1-.27-.64h0s0-.09,0-.14h0a5,5,0,0,1-.4-.39h0a1.18,1.18,0,0,0-.7-.33h0c-.19,0-.32.1-.33.42h0c0,.38,0,.49-.06.56h0c-.06.08-.15.08-.36.28h0a2,2,0,0,1-1.27.39h0a0,0,0,0,1,0,0h0c0-.38-.15-.53-.3-.53h0c-.14,0-.31.16-.31.45h0a2.48,2.48,0,0,1-.13,1h0c.23.17.51.42.52.66h0a.29.29,0,0,1-.09.21h0a.41.41,0,0,0-.15.27h0c0,.09.06.16.19.22h0a1.45,1.45,0,0,0,.52.08h0a0,0,0,0,1,0,0h0c0,.1,0,.73-.91.8h0l-.2.28h0a1.23,1.23,0,0,0-.2.48h0a.12.12,0,0,0,0,.09h0c.17.16.59.45.59.83h0a.41.41,0,0,1,0,.11h0a5.36,5.36,0,0,0-.29,1.25h0c0,.19,0,.36,0,.53h0c.3,0,.77-.06,1-.06h0c.23,0,.39.09.59.09h0a.36.36,0,0,0,.14,0h0a.36.36,0,0,1-.12,0h0a0,0,0,0,1,0,0h0s0-.09,0-.13h0c0-1.18,1.64-2.21,2.34-2.6h0A.52.52,0,0,1,50,32.9h0s0-.06,0-.09h0a1.64,1.64,0,0,1-.55.12h0a.33.33,0,0,1-.3-.21h0c-.06-.1-.09-.23-.13-.31h0s-.05-.07-.08-.07h0a.52.52,0,0,1-.42-.43h-.09a.52.52,0,0,1-.43-.17h0a.61.61,0,0,1-.1-.37h0c0-.3-.22-.79-.22-1h0c0-.14.19-.27.4-.38h0a1.78,1.78,0,0,1,.65-.18h0c.15,0,.26.15.36.32h0a2.47,2.47,0,0,1,.2.46h.05a.49.49,0,0,1,.33.16h0a.71.71,0,0,1,.15.41h0a.56.56,0,0,0,.16.39h0a2.11,2.11,0,0,1,.35.74h0c.36-.26.87-.39,1-.79h0a1.28,1.28,0,0,1,.39-.7h0a8.92,8.92,0,0,0-.56-.89h0l0,0a6.62,6.62,0,0,1,.58.92h0a.06.06,0,0,1,0,0h0a1.12,1.12,0,0,0-.39.67h0c-.11.47-.68.58-1,.85h0l0,0h0a2.09,2.09,0,0,0-.36-.75h0a.73.73,0,0,1-.18-.44h0a.55.55,0,0,0-.13-.36h0a.43.43,0,0,0-.28-.15h-.08l0,0h0a2.92,2.92,0,0,0-.2-.48h0c-.09-.17-.21-.29-.31-.29h0a1.69,1.69,0,0,0-.62.18h0c-.21.1-.37.24-.37.32h0c0,.2.22.69.22,1h0c0,.25.07.47.47.48h.11s0,0,0,0h0l0,0h0a.44.44,0,0,0,.36.41h0a.17.17,0,0,1,.14.1h0c0,.06.05.14.08.21h0c.05.15.12.28.29.28h0a1.65,1.65,0,0,0,.58-.14h0a.1.1,0,0,1,0,0h0a.53.53,0,0,0,0,.13h0c0,.16,0,.25.08.29h0a0,0,0,0,1,0,0h0v0h0c-.68.38-2.35,1.43-2.34,2.57h0v.1h0A.62.62,0,0,0,48,36h0l0,0h0s0,0,0,0h0a.66.66,0,0,1-.26.05h0c-.22,0-.38-.09-.59-.09Z"/><path class="cls-1" d="M55.08,40a2.67,2.67,0,0,1-.75-.77c-.22-.48-.42-1.89-1.06-1.89s-1.3-.18-1-.52l.16-.17c-.39-.15-1,.8-1.34.91A2.15,2.15,0,0,1,50,37.49a.93.93,0,0,0-.65,0l.61.62c.27.27.43.11.76.23s.48,1.27.74,1.27.89-.5,1.09-.29.55.76,0,.82-.68.13-.59.44a6,6,0,0,0,.84,1.14s.38-.1.5.12a2.5,2.5,0,0,1,1.29.16A3.67,3.67,0,0,1,55.08,40Z"/><path class="cls-1" d="M54.58,42.08a2.58,2.58,0,0,0-.94-.18h0a2,2,0,0,0-.34,0h0a.28.28,0,0,0-.28-.13h0a.83.83,0,0,0-.18,0h0a6.11,6.11,0,0,1-.84-1.15h0a.4.4,0,0,1,0-.15h0a.24.24,0,0,1,.16-.23h0a1.59,1.59,0,0,1,.48-.1h0c.18,0,.23-.11.23-.21h0a1,1,0,0,0-.29-.56h0a.16.16,0,0,0-.12,0h0a1.27,1.27,0,0,0-.48.17h0a1.51,1.51,0,0,1-.47.17h0c-.09,0-.15-.09-.21-.2h0c-.05-.11-.11-.26-.16-.41h0c-.11-.3-.24-.62-.38-.66h0a1.25,1.25,0,0,0-.4-.06h0a.55.55,0,0,1-.38-.18h0l-.6-.62h0a0,0,0,0,1,0,0h0l0,0h0a1,1,0,0,1,.37-.08h0l.29,0h0a3.47,3.47,0,0,0,.79.14h0a1.24,1.24,0,0,0,.37-.06h0a2,2,0,0,0,.6-.5h0c.22-.22.45-.43.66-.43h0a.2.2,0,0,1,.1,0h0l0,0h0v0h0l-.16.17h0a.22.22,0,0,0-.08.15h0c0,.09.11.17.31.23h0a2.55,2.55,0,0,0,.71.09h0c.35,0,.56.37.71.78h0c.16.42.27.89.37,1.13h0a2.93,2.93,0,0,0,.75.76h0l0,0,0,0s0,0,0,0h0a3.87,3.87,0,0,0-.49,1.75h0a2.44,2.44,0,0,0,0,.27h0s0,0,0,0h0Zm0-.08a1.62,1.62,0,0,1,0-.22h0A3.83,3.83,0,0,1,55,40h0a2.77,2.77,0,0,1-.74-.77h0c-.11-.25-.22-.72-.37-1.12h0c-.16-.42-.37-.75-.66-.75h0a2.7,2.7,0,0,1-.73-.09h0c-.2-.06-.35-.15-.36-.29h0a.34.34,0,0,1,.1-.2h0a1.58,1.58,0,0,0,.13-.13h0c-.17,0-.4.2-.61.42h0a2.09,2.09,0,0,1-.64.51h0a1.26,1.26,0,0,1-.38.06h0a3.45,3.45,0,0,1-.8-.14h0l-.28,0h0a.85.85,0,0,0-.31.06h0l.58.59h0a.48.48,0,0,0,.34.16h0a1.39,1.39,0,0,1,.41.06h0a.84.84,0,0,1,.33.47h0c.09.22.17.47.25.63h0c0,.11.11.17.15.17h0a1.4,1.4,0,0,0,.44-.17h0a1.46,1.46,0,0,1,.51-.17h0a.19.19,0,0,1,.16.06h0a1.07,1.07,0,0,1,.32.6h0c0,.13-.09.25-.3.27h0a1.66,1.66,0,0,0-.45.09h0c-.09,0-.13.09-.13.18h0a.93.93,0,0,0,0,.14h0a3.52,3.52,0,0,0,.45.67h0l.37.43h0l.18,0h0a.35.35,0,0,1,.32.15h0l.33,0h0a2.79,2.79,0,0,1,.92.17Z"/><path class="cls-1" d="M55.71,40.64c0-.12-.31-.36-.63-.63a3.67,3.67,0,0,0-.49,2,3.23,3.23,0,0,1,.4.18A1.41,1.41,0,0,0,55.71,40.64Z"/><path class="cls-1" d="M55,42.26a4.1,4.1,0,0,0-.4-.18h0s0,0,0,0h0a2.44,2.44,0,0,1,0-.27h0a4,4,0,0,1,.5-1.78h0l0,0h0l.44.37h0a.61.61,0,0,1,.2.28h0c0,.08,0,.22,0,.4h0A1.36,1.36,0,0,1,55,42.26h0Zm0-.06A1.29,1.29,0,0,0,55.71,41h0c0-.17,0-.31,0-.4h0a.56.56,0,0,0-.19-.23h0c-.11-.11-.25-.22-.4-.35h0a3.85,3.85,0,0,0-.48,1.72h0a2.18,2.18,0,0,0,0,.25h0a2.19,2.19,0,0,1,.37.17Z"/><path class="cls-1" d="M42.93,38.82c.23.23.68,1,.88,1.19s.92.92,1.52.92,1.19-.43,1.31-.14a1.27,1.27,0,0,0,.86.86c.51.1.54.19,1-.06s.8-.39.63-.84-1-.54-.8-1a2.44,2.44,0,0,0,.17-1c0-.25.13-.46.29-.29s.34.49.67.33-.06-.89-.3-1.22l-.19.08c-.45.18-.54,0-1-.44s.16-.58.43-.68a.27.27,0,0,0-.13-.51A1.37,1.37,0,0,1,48,36c-.35.13-.53,0-.84,0s-.76,0-1.06.06a.63.63,0,0,1-.21.47A7.68,7.68,0,0,1,43.66,38c-.34.1-.56.2-.7.23C42.88,38.45,42.81,38.69,42.93,38.82Z"/><path class="cls-1" d="M47.49,41.68a1.29,1.29,0,0,1-.88-.88h0a.13.13,0,0,0-.14-.08h0a9.36,9.36,0,0,1-1.14.24h0c-.62,0-1.33-.72-1.54-.93h0c-.21-.21-.66-1-.88-1.19h0a.26.26,0,0,1-.08-.21h0a.92.92,0,0,1,.11-.39h0a0,0,0,0,1,0,0h0c.13,0,.35-.13.69-.23h0a7.74,7.74,0,0,0,2.21-1.51h0a.63.63,0,0,0,.2-.45h0a0,0,0,0,1,0,0h0c.29,0,.79-.06,1.06-.06h0c.23,0,.39.09.59.09h0A.75.75,0,0,0,48,36h0a1.21,1.21,0,0,0,.3,0h0a.32.32,0,0,1,.32.32h0a.25.25,0,0,1-.18.25h0a2.4,2.4,0,0,0-.36.14h0c-.12.06-.2.13-.2.23h0a.42.42,0,0,0,.15.26h0c.32.33.45.5.66.5h0a.75.75,0,0,0,.28-.07h0l.18-.08h0a2.18,2.18,0,0,1,.42,1h0a.27.27,0,0,1-.13.25h0a.42.42,0,0,1-.18,0h0c-.25,0-.39-.25-.52-.38h0a.14.14,0,0,0-.09,0h0s-.07,0-.1.09h0a.52.52,0,0,0-.05.23h0a2.38,2.38,0,0,1-.18,1h0a.44.44,0,0,0,0,.1h0c0,.15.15.26.34.38h0a1.09,1.09,0,0,1,.48.47h0a.53.53,0,0,1,.05.23h0c0,.31-.31.44-.68.65h0a1,1,0,0,1-.49.16h0a3.65,3.65,0,0,1-.55-.1Zm-.82-.9a1.2,1.2,0,0,0,.83.84h0a4.08,4.08,0,0,0,.54.1h0a1,1,0,0,0,.46-.16h0c.38-.2.66-.33.65-.59h0a.59.59,0,0,0,0-.21h0a1.15,1.15,0,0,0-.46-.44h0c-.19-.12-.37-.24-.37-.43h0a.35.35,0,0,1,0-.13h0a2.33,2.33,0,0,0,.17-1h0c0-.19.07-.37.21-.38h0a.21.21,0,0,1,.14.07h0c.14.14.27.36.47.36h0a.28.28,0,0,0,.15,0h0c.07,0,.1-.09.1-.19h0a2.15,2.15,0,0,0-.39-1h0l-.17.07h0a.76.76,0,0,1-.3.07h0c-.25,0-.38-.2-.71-.52h0a.45.45,0,0,1-.16-.3h0c0-.14.11-.22.23-.29h0c.13-.06.27-.1.37-.14h0a.2.2,0,0,0,.14-.19h0a.25.25,0,0,0-.26-.26h0a1.26,1.26,0,0,1-.3,0h0a.92.92,0,0,1-.26,0h0c-.22,0-.38-.09-.59-.09h0c-.26,0-.73,0-1,.06h0a.68.68,0,0,1-.22.46h0a7.67,7.67,0,0,1-2.24,1.53h0c-.32.09-.53.19-.67.23h0a.91.91,0,0,0-.09.35h0a.2.2,0,0,0,.06.17h0l0,0,0,0c.22.23.67,1,.87,1.19h0c.21.2.92.91,1.5.91h0c.44,0,.88-.24,1.14-.24h0a.19.19,0,0,1,.2.12Z"/><path class="cls-1" d="M51.56,46.17c-.38,0-.84.06-.84.49s.09.55-.24.88-.09.77-.31,1a2,2,0,0,0-.38,1.75,1.34,1.34,0,0,1,.63-.28c.3,0,.76,1.07,1,1.65.31-.3.42-.63.76-.74s.33-.7.66-.7.29-.85.49-1.05.7-.86.7-.86a1.57,1.57,0,0,1,.52-1.64,1,1,0,0,0,.21-.38c-2.09.21-1.86-.76-1.86-.76a.72.72,0,0,1-.41-.14C52.24,45.68,51.81,46.17,51.56,46.17Z"/><path class="cls-1" d="M51.41,51.68l0,0h0a7,7,0,0,0-.73-1.47h0c-.09-.1-.17-.16-.23-.16h0a1.22,1.22,0,0,0-.61.28h0l0,0h0a1.1,1.1,0,0,1-.09-.45h0a2.35,2.35,0,0,1,.48-1.33h0a.63.63,0,0,0,.11-.43h0a.75.75,0,0,1,.2-.56h0A.59.59,0,0,0,50.7,47h0c0-.1,0-.22,0-.38h0a.43.43,0,0,1,.29-.43h0a1.64,1.64,0,0,1,.58-.09h0v.07a1.23,1.23,0,0,0-.55.08h0a.36.36,0,0,0-.26.37h0c0,.16,0,.27,0,.38h0a.65.65,0,0,1-.26.52h0a.75.75,0,0,0-.18.52h0a.66.66,0,0,1-.13.48h0a2.29,2.29,0,0,0-.46,1.28h0a.87.87,0,0,0,.08.4h0a1.18,1.18,0,0,1,.61-.27h0c.1,0,.18.07.28.18h0a3.39,3.39,0,0,1,.27.44h0a10.57,10.57,0,0,1,.45,1h0c.28-.29.39-.6.75-.72h0c.15,0,.24-.21.31-.37h0c.08-.16.17-.33.35-.33h0a.18.18,0,0,0,.16-.12h0a.87.87,0,0,0,.1-.31h0a1.55,1.55,0,0,1,.2-.61h0c.18-.18.62-.75.69-.84h0a1.86,1.86,0,0,1-.06-.45h0a1.73,1.73,0,0,1,.6-1.22h0a.78.78,0,0,0,.19-.32h0l-.51,0h0a1.73,1.73,0,0,1-1.13-.29h0a.59.59,0,0,1-.22-.45h0a.09.09,0,0,1,0-.05h0a.69.69,0,0,1-.37-.13h0a4.86,4.86,0,0,1-.44.49h0a1,1,0,0,1-.49.3h0v-.07c.11,0,.28-.11.44-.27h0a5.16,5.16,0,0,0,.46-.51h0a.7.7,0,0,0,.39.13h0v0h0a.24.24,0,0,0,0,.07h0c0,.19.1.67,1.29.68h0l.55,0h0s0,0,0,0h0a0,0,0,0,1,0,0h0a1.13,1.13,0,0,1-.21.39h0A1.64,1.64,0,0,0,54,47.85h0a1.44,1.44,0,0,0,.07.44h0a0,0,0,0,1,0,0h0s-.5.66-.7.86h0a.9.9,0,0,0-.15.4h0a2.21,2.21,0,0,1-.14.51h0a.25.25,0,0,1-.22.15h0c-.14,0-.21.13-.29.29h0c-.08.17-.16.35-.36.41h0c-.33.1-.44.42-.74.73h0Z"/><path class="cls-1" d="M47.65,48.75c.2-.2.2-.31,0-.53s-.24-.46-.46-.68-.19-.5-.34-.64-.15-.14.15-.44.81-.7.6-.91-.45-.27-.55-.6.12-.8-.25-.8-.37.21-.59.21-.5-.18-.72,0-.3.15-.56-.11a2.15,2.15,0,0,0-1.14-.48c-.27,0-.27.24-.27.39s-.79,0-.92.16a1.55,1.55,0,0,0-.39.68c0,.2-.06.63-.06.82s.39,1.06-.05,1.7c0,0,.69.11.4.39s-.8,1.28-.62,1.46,1.19-.08,1.85-.41.86-.54.86-.13,0,1.89.72,1.74h0a1,1,0,0,1,.2-.61c.29-.29.21.49.64.49s0-.49.24-.71a2.4,2.4,0,0,1,1.25-.37C47.57,49.17,47.54,48.86,47.65,48.75Z"/><path class="cls-1" d="M44.62,49.92a5.32,5.32,0,0,1-.08-1h0v0h0a.51.51,0,0,0,0-.16h0s0,0-.05,0h0a4.16,4.16,0,0,0-.74.36h0a4.44,4.44,0,0,1-1.63.47h0a.34.34,0,0,1-.26-.07h0a.16.16,0,0,1-.05-.14h0a2.9,2.9,0,0,1,.67-1.36h0s.06-.08.06-.11h0c0-.06-.1-.13-.22-.17h0a1.49,1.49,0,0,0-.23-.06h0l0,0h0a0,0,0,0,1,0,0h0a1.24,1.24,0,0,0,.21-.73h0a6.11,6.11,0,0,0-.16-1h0c0-.2.06-.63.06-.82h0a1.53,1.53,0,0,1,.4-.7h0a.88.88,0,0,1,.45-.08h0a1.24,1.24,0,0,0,.44,0h0l0,0h0a.64.64,0,0,1,0-.26h0a.25.25,0,0,1,.26-.16h0a2.29,2.29,0,0,1,1.17.49h0c.15.15.23.23.31.23h0s.11,0,.2-.12h0a.39.39,0,0,1,.29-.12h0c.17,0,.33.07.45.07h0c.1,0,.14,0,.22-.1h0a.49.49,0,0,1,.37-.11h0a.19.19,0,0,1,.21.1h0a.47.47,0,0,1,0,.24h0c0,.08,0,.16,0,.23h0a1,1,0,0,0,0,.25h0c.09.31.31.37.54.59h0a.2.2,0,0,1,.06.14h0c0,.25-.41.56-.66.81h0c-.17.17-.24.25-.23.28h0s0,.05.09.11h0c.16.17.11.44.33.65h0c.23.23.26.48.47.68h0a.45.45,0,0,1,.17.3h0a.44.44,0,0,1-.15.27h0a.38.38,0,0,0-.07.26h0a2.33,2.33,0,0,0,0,.37h0a0,0,0,0,1,0,0h0a2.49,2.49,0,0,0-1.23.36h0a.21.21,0,0,0-.06.17h0c0,.11,0,.24,0,.34h0a.2.2,0,0,1,0,.15h0a.25.25,0,0,1-.19.06h0c-.3,0-.37-.34-.45-.49h0c0-.05-.06-.07-.08-.07h0a.21.21,0,0,0-.09.06h0a1,1,0,0,0-.19.6h0a0,0,0,0,1,0,0h-.1c-.34,0-.5-.35-.58-.73Zm0-1.24a.5.5,0,0,1,0,.19h0v0h0a5.18,5.18,0,0,0,.08,1h0c.08.38.23.69.52.68h.07a.91.91,0,0,1,.2-.61h0c.05,0,.09-.08.13-.08h0a.17.17,0,0,1,.13.1h0l.09.2h0c.07.13.15.25.31.25h0c.16,0,.17-.05.18-.14h0c0-.09,0-.22,0-.34h0a.33.33,0,0,1,.07-.21h0a2.41,2.41,0,0,1,1.24-.38h0a2,2,0,0,1,0-.35h0a.41.41,0,0,1,.08-.3h0c.1-.1.14-.17.14-.23h0c0-.07-.05-.15-.16-.26h0c-.22-.22-.25-.46-.47-.68h0c-.23-.24-.19-.52-.33-.64h0a.31.31,0,0,1-.11-.16h0c0-.08.09-.15.26-.32h0c.25-.25.64-.58.64-.77h0a.14.14,0,0,0-.05-.1h0c-.2-.21-.45-.27-.55-.62h0a1.09,1.09,0,0,1,0-.26h0c0-.08,0-.16,0-.23h0a.41.41,0,0,0,0-.21h0a.17.17,0,0,0-.16-.07h0a.53.53,0,0,0-.34.1h0a.39.39,0,0,1-.25.11h0c-.14,0-.3-.07-.45-.07h0a.32.32,0,0,0-.25.1h0a.36.36,0,0,1-.24.14h0c-.12,0-.21-.1-.36-.25h0a2.19,2.19,0,0,0-1.12-.47h0c-.13,0-.18,0-.21.12h0a.66.66,0,0,0,0,.24h0a.09.09,0,0,1-.05.08h0l-.1,0h-.29a1.1,1.1,0,0,0-.49.06h0a1.52,1.52,0,0,0-.38.66h0c0,.2-.06.63-.06.82h0a5.29,5.29,0,0,1,.16,1h0a1.4,1.4,0,0,1-.19.73h0a1.08,1.08,0,0,1,.19.05h0c.12,0,.26.11.26.23h0a.21.21,0,0,1-.07.15h0a2.9,2.9,0,0,0-.66,1.32h0a.13.13,0,0,0,0,.1h0a.35.35,0,0,0,.22,0h0A4.53,4.53,0,0,0,43.7,49h0a3.09,3.09,0,0,1,.77-.37h0a.12.12,0,0,1,.11.07Z"/><path class="cls-1" d="M52.8,41.77A6,6,0,0,1,52,40.63c-.09-.31.08-.39.59-.44s.17-.62,0-.82-.84.29-1.09.29-.41-1.15-.74-1.27-.49,0-.76-.23l-.61-.62-.14.06c.24.33.59,1.08.3,1.22s-.5-.17-.67-.33-.29,0-.29.29a2.44,2.44,0,0,1-.17,1c-.18.43.62.52.8,1s-.16.59-.63.84l-.12.06c.13.12.42.39.63.39s.27.1.27.35a1.83,1.83,0,0,0,.35,1.09c.27.27.51,0,.63.08s-.18.68.06.68.5-.52.72-.52.4.37.79.35l0,0c.23-.24,1.05-1,1.05-1.39a2.17,2.17,0,0,1,.14-.7l.24,0C53.18,41.67,52.8,41.77,52.8,41.77Z"/><path class="cls-1" d="M50.23,44.22a.18.18,0,0,1,0-.11h0c0-.13.07-.33.07-.45h0a.13.13,0,0,0,0-.08h0l-.06,0h0a2.21,2.21,0,0,1-.3.06h0a.34.34,0,0,1-.27-.12h0a1.83,1.83,0,0,1-.36-1.11h0a.5.5,0,0,0,0-.25h0s-.08-.07-.21-.07h0c-.23,0-.52-.27-.65-.4h0v0h0l0,0h0a.34.34,0,0,0,.12-.06h0c.38-.2.66-.33.65-.59h0a.59.59,0,0,0,0-.21h0a1.15,1.15,0,0,0-.46-.44h0c-.19-.12-.37-.24-.37-.43h0a.35.35,0,0,1,0-.13h0a2.33,2.33,0,0,0,.17-1h0c0-.19.07-.37.21-.38h0a.21.21,0,0,1,.14.07h0c.14.14.27.36.47.36h0a.28.28,0,0,0,.15,0h0c.07,0,.1-.09.1-.19h0a2.17,2.17,0,0,0-.41-1h0s0,0,0,0h0s0,0,0,0h0l.15-.06h0l.61.62h0a.48.48,0,0,0,.34.16h0a1.39,1.39,0,0,1,.41.06h0a.84.84,0,0,1,.33.47h0c.09.22.17.47.25.63h0c0,.11.11.17.15.17h0a1.4,1.4,0,0,0,.44-.17h0a1.46,1.46,0,0,1,.51-.17h0a.19.19,0,0,1,.16.06h0a1.07,1.07,0,0,1,.32.6h0c0,.13-.09.25-.3.27h0a1.66,1.66,0,0,0-.45.09h0c-.09,0-.13.09-.13.18h0a.93.93,0,0,0,0,.14h0a3.52,3.52,0,0,0,.45.67h0l.37.43h0l.18,0h0a.35.35,0,0,1,.33.17h0a0,0,0,0,1,0,0h0l-.22,0h0a2.32,2.32,0,0,0-.13.67h0a1.56,1.56,0,0,1-.45.76h0c-.23.27-.49.53-.61.65h0a.05.05,0,0,0,0,0h-.06a.77.77,0,0,1-.47-.18h0c-.12-.09-.22-.18-.29-.17h0c-.08,0-.21.12-.33.25h0c-.13.13-.25.27-.39.27h0a.11.11,0,0,1-.09-.05Zm.06-.68a.16.16,0,0,1,0,.12h0c0,.14-.07.33-.07.45h0c0,.08,0,.1.07.1h0c.09,0,.22-.12.34-.25h0c.13-.13.25-.27.38-.27h0c.11,0,.2.09.32.18h0a.72.72,0,0,0,.44.17h0l0,0h0c.11-.12.38-.38.61-.65h0a1.63,1.63,0,0,0,.43-.72h0a2.27,2.27,0,0,1,.14-.71h0a0,0,0,0,1,0,0h0l.2,0h0a.35.35,0,0,0-.26-.09h0a.83.83,0,0,0-.18,0h0a6.11,6.11,0,0,1-.84-1.15h0a.4.4,0,0,1,0-.15h0a.24.24,0,0,1,.16-.23h0a1.59,1.59,0,0,1,.48-.1h0c.18,0,.23-.11.23-.21h0a1,1,0,0,0-.29-.56h0a.16.16,0,0,0-.12,0h0a1.27,1.27,0,0,0-.48.17h0a1.51,1.51,0,0,1-.47.17h0c-.09,0-.15-.09-.21-.2h0c-.05-.11-.11-.26-.16-.41h0c-.11-.3-.24-.62-.38-.66h0a1.25,1.25,0,0,0-.4-.06h0a.55.55,0,0,1-.38-.18h0l-.59-.61h0l-.09,0h0a2.17,2.17,0,0,1,.4,1h0a.27.27,0,0,1-.13.25h0a.39.39,0,0,1-.18,0h0c-.25,0-.39-.25-.52-.38h0a.14.14,0,0,0-.09,0h0s-.07,0-.1.09h0a.52.52,0,0,0-.05.23h0a2.38,2.38,0,0,1-.18,1h0a.44.44,0,0,0,0,.1h0c0,.15.15.26.34.38h0a1.09,1.09,0,0,1,.48.47h0a.53.53,0,0,1,.05.23h0c0,.31-.31.44-.68.65h0l-.08,0h0A1.16,1.16,0,0,0,49,42h0c.14,0,.22,0,.26.09h0c0,.07,0,.16,0,.29h0a1.75,1.75,0,0,0,.35,1.07h0a.29.29,0,0,0,.22.1h0c.11,0,.21-.06.3-.06h0a.12.12,0,0,1,.09,0Zm2.51-1.77,0,0,0,0Z"/><path class="cls-1" d="M47.71,44.58a3.48,3.48,0,0,1,1.5-.71,1.13,1.13,0,0,0,.61-.28.44.44,0,0,1-.18-.11,1.83,1.83,0,0,1-.35-1.09c0-.25,0-.35-.27-.35s-.5-.27-.63-.39c-.36.18-.43.09-.89,0a1.27,1.27,0,0,1-.86-.86c-.12-.29-.7.14-1.31.14S44,40.22,43.81,40l-.13-.16a3.41,3.41,0,0,0-1.14.16.65.65,0,0,0,.06.74c.17.17,0,.37-.23.37s-.16.72.17.72c0,0,.57-.09.49.49s-.05,1.14-.41,1.21-1.44,0-1.44.31a1.64,1.64,0,0,0,1,1.31V45a1.55,1.55,0,0,1,.39-.68c.13-.13.92,0,.92-.16s0-.39.27-.39a2.15,2.15,0,0,1,1.14.48c.26.26.33.33.56.11s.51,0,.72,0,.22-.21.59-.21.15.46.25.8l.06.15C47.5,45.07,47.5,44.79,47.71,44.58Z"/><path class="cls-1" d="M42.18,45.19a1.67,1.67,0,0,1-1-1.34h0c0-.1.08-.16.19-.2h0a1.26,1.26,0,0,1,.42-.08h0c.32,0,.68,0,.86-.06h0c.16,0,.23-.17.28-.39h0c.05-.21.06-.5.1-.79h0a.38.38,0,0,0,0-.1h0a.33.33,0,0,0-.38-.36h-.09c-.23,0-.32-.28-.32-.5h0a.58.58,0,0,1,0-.19h0a.13.13,0,0,1,.12-.09h0a.3.3,0,0,0,.18-.06h0a.21.21,0,0,0,.08-.15h0a.15.15,0,0,0-.05-.11h0a.69.69,0,0,1-.16-.46h0a.46.46,0,0,1,.1-.32h0a1.09,1.09,0,0,1,.46-.12h0c.22,0,.48,0,.7,0h0l.13.16h0c.21.2.92.91,1.5.91h0c.44,0,.88-.24,1.14-.24h0a.2.2,0,0,1,.2.12h0a1.2,1.2,0,0,0,.83.84h0a4.08,4.08,0,0,0,.54.1h0a.67.67,0,0,0,.34-.1h0c.12.12.41.38.6.38h0c.14,0,.22,0,.26.09h0c0,.07,0,.16,0,.29h0a1.75,1.75,0,0,0,.35,1.07h0a.35.35,0,0,0,.16.1h0a0,0,0,0,1,0,0h0a0,0,0,0,1,0,0h0a1.17,1.17,0,0,1-.63.29h0a3.56,3.56,0,0,0-1.48.7h0c-.2.19-.21.49-.63.53h0s0,0,0,0h0A.48.48,0,0,1,47,45h0a1.09,1.09,0,0,1,0-.26h0c0-.08,0-.16,0-.23h0a.41.41,0,0,0,0-.21h0a.17.17,0,0,0-.16-.07h0a.53.53,0,0,0-.34.1h0a.39.39,0,0,1-.25.11h0c-.14,0-.3-.07-.45-.07h0a.32.32,0,0,0-.25.1h0a.36.36,0,0,1-.24.14h0c-.12,0-.21-.1-.36-.25h0a2.19,2.19,0,0,0-1.12-.47h0c-.13,0-.18,0-.21.12h0a.66.66,0,0,0,0,.24h0a.09.09,0,0,1-.05.08h0l-.1,0h-.29a1.1,1.1,0,0,0-.49.06h0a1.52,1.52,0,0,0-.38.66h0v.12h0a0,0,0,0,1,0,0h0Zm.72-3.31a.38.38,0,0,1,.17.35h0a.45.45,0,0,1,0,.11h0c0,.29-.05.57-.1.8h0c0,.22-.13.39-.33.43h0a9.6,9.6,0,0,0-1.27.13h0q-.15.06-.15.15h0a1.64,1.64,0,0,0,.95,1.27h0V45h0a1.53,1.53,0,0,1,.4-.7h0a.88.88,0,0,1,.45-.08h0a1.24,1.24,0,0,0,.44,0h0l0,0h0a.64.64,0,0,1,0-.26h0a.25.25,0,0,1,.26-.16h0a2.29,2.29,0,0,1,1.17.49h0c.15.15.23.23.31.23h0s.11,0,.2-.12h0a.39.39,0,0,1,.29-.12h0c.17,0,.33.07.45.07h0c.1,0,.14,0,.22-.1h0a.49.49,0,0,1,.37-.11h0a.19.19,0,0,1,.21.1h0a.47.47,0,0,1,0,.24h0c0,.08,0,.16,0,.23h0a1,1,0,0,0,0,.25h0a.5.5,0,0,0,0,.13h0c.37,0,.36-.29.58-.52h0a3.62,3.62,0,0,1,1.52-.71h0a1.08,1.08,0,0,0,.54-.24h0a.5.5,0,0,1-.13-.1h0a1.83,1.83,0,0,1-.36-1.11h0a.5.5,0,0,0,0-.25h0s-.08-.07-.21-.07h0a1.14,1.14,0,0,1-.63-.38h0a.75.75,0,0,1-.35.09h0a3.65,3.65,0,0,1-.55-.1h0a1.29,1.29,0,0,1-.88-.88h0a.13.13,0,0,0-.14-.08h0a9.36,9.36,0,0,1-1.14.24h0c-.62,0-1.33-.72-1.54-.93h0a1.08,1.08,0,0,1-.13-.15h0l-.67,0h0a1.19,1.19,0,0,0-.43.1h0a.44.44,0,0,0-.08.28h0a.68.68,0,0,0,.14.42h0a.21.21,0,0,1,.07.15h0a.31.31,0,0,1-.32.27h0s0,0-.06.06h0a.38.38,0,0,0,0,.16h0a.6.6,0,0,0,.07.3h0a.21.21,0,0,0,.19.14h.09a.49.49,0,0,1,.27.07Z"/><path class="cls-1" d="M51.84,44.07c-.39,0-.61-.35-.79-.35s-.49.52-.72.52.05-.56-.06-.68-.26.07-.45,0a1.13,1.13,0,0,1-.61.28,3.48,3.48,0,0,0-1.5.71c-.21.21-.21.49-.62.52.12.2.31.27.49.45s-.3.6-.6.91-.29.29-.15.44.11.42.34.64.25.47.46.68.22.33,0,.53-.08.42,0,.66a.9.9,0,0,1,.68.2c.45.45-.45,1-.06.89a2.21,2.21,0,0,1,1.23-.17.37.37,0,0,0,.32,0,2,2,0,0,1,.38-1.75c.22-.22,0-.66.31-1s.24-.45.24-.88.46-.49.84-.49.68-.49.92-.79A1.49,1.49,0,0,1,51.84,44.07Z"/><path class="cls-1" d="M48.12,50.55a.06.06,0,0,1,0,0h0a.19.19,0,0,1,0-.1h0l.1-.14h0a.73.73,0,0,0,.14-.37h0a.41.41,0,0,0-.12-.27h0a.87.87,0,0,0-.62-.19h0a0,0,0,0,1,0,0h0a2.33,2.33,0,0,1,0-.38h0a.41.41,0,0,1,.08-.3h0c.1-.1.14-.17.14-.23h0c0-.07-.05-.15-.16-.26h0c-.22-.22-.25-.46-.47-.68h0c-.23-.24-.19-.52-.33-.64h0a.31.31,0,0,1-.11-.16h0c0-.08.09-.15.26-.32h0c.25-.25.64-.58.64-.77h0a.14.14,0,0,0-.05-.1h0c-.17-.17-.36-.24-.48-.46h0a0,0,0,0,1,0,0h0c.39,0,.38-.29.6-.52h0a3.62,3.62,0,0,1,1.52-.71h0a1.14,1.14,0,0,0,.59-.28h0s0,0,0,0h.06c.11,0,.21-.06.3-.06h0a.13.13,0,0,1,.1,0h0a.16.16,0,0,1,0,.12h0c0,.14-.07.33-.07.45h0c0,.08,0,.1.07.1h0c.09,0,.22-.12.34-.25h0c.13-.13.25-.27.38-.27h0c.11,0,.2.09.32.18h0a.72.72,0,0,0,.44.17h0a0,0,0,0,1,0,0h0s0,0,0,0h0a.21.21,0,0,0,0,.12h0a1.67,1.67,0,0,0,.66,1.15h0a0,0,0,0,1,0,0h0v0h0a4,4,0,0,1-.45.51h0a1,1,0,0,1-.49.3h0a1.23,1.23,0,0,0-.55.08h0a.36.36,0,0,0-.26.37h0c0,.16,0,.27,0,.38h0a.65.65,0,0,1-.26.52h0a.75.75,0,0,0-.18.52h0a.66.66,0,0,1-.13.48h0a2.29,2.29,0,0,0-.46,1.28h0a1,1,0,0,0,.09.43h0s0,0,0,0h0a.51.51,0,0,1-.24.07h0l-.11,0h0a.71.71,0,0,0-.26,0h0a3.25,3.25,0,0,0-1,.21h0l-.09,0h0Zm.2-1a.41.41,0,0,1,.14.31h0a1.2,1.2,0,0,1-.28.59h0a3,3,0,0,1,1-.22h0a.82.82,0,0,1,.28,0h0l.09,0h0a.41.41,0,0,0,.18,0h0a1,1,0,0,1-.08-.43h0a2.35,2.35,0,0,1,.48-1.33h0a.63.63,0,0,0,.11-.43h0a.75.75,0,0,1,.2-.56h0A.59.59,0,0,0,50.7,47h0c0-.1,0-.22,0-.38h0a.43.43,0,0,1,.29-.43h0a1.64,1.64,0,0,1,.58-.09h0c.11,0,.28-.11.44-.27h0a6.21,6.21,0,0,0,.44-.48h0a1.75,1.75,0,0,1-.66-1.18h0s0-.07,0-.11h0a.73.73,0,0,1-.45-.18h0c-.12-.09-.22-.18-.29-.17h0c-.08,0-.21.12-.33.25h0c-.13.13-.25.27-.39.27h0s-.08,0-.1-.05h0a.18.18,0,0,1,0-.11h0c0-.13.07-.33.07-.45h0a.13.13,0,0,0,0-.08h0l-.06,0h0a2.21,2.21,0,0,1-.3.06h-.06a1.13,1.13,0,0,1-.62.28h0a3.56,3.56,0,0,0-1.48.7h0c-.19.18-.21.47-.58.52h0c.11.17.28.24.45.41h0a.2.2,0,0,1,.06.14h0c0,.25-.41.56-.66.81h0c-.17.17-.24.25-.23.28h0s0,.05.09.11h0c.16.17.11.44.33.65h0c.23.23.26.48.47.68h0a.45.45,0,0,1,.17.3h0a.44.44,0,0,1-.15.27h0a.38.38,0,0,0-.07.26h0a2.07,2.07,0,0,0,0,.35h0a.91.91,0,0,1,.66.21Z"/><path class="cls-1" d="M45.29,50.61c-.72.15-.72-1.33-.72-1.74s-.19-.2-.86.13-1.66.6-1.85.41h0a2.8,2.8,0,0,1-.59.4c-.37.16,0,.84-.8.69s-.86.23-1.37.33a1.26,1.26,0,0,0-.66.4c.18.33.41,1,.19,1.24a2.86,2.86,0,0,0-.44.72c.43.13,1,.09,1.07.15a2.07,2.07,0,0,1,.09.85c0,.38.85.55,1.09.79s1.19-.34,1.49-.34.58.58.58.3.41-.13.41-.13v0c.38-.47,1-1.05,1.37-1.41.54-.54.51-.88.8-1.64a4.21,4.21,0,0,0,.21-1.18Z"/><path class="cls-1" d="M40.41,55a3.44,3.44,0,0,0-.63-.34h0c-.24-.12-.47-.25-.47-.47h0c0-.18,0-.38,0-.53h0a.75.75,0,0,0-.06-.3h-.11l-.27,0h0a2.73,2.73,0,0,1-.68-.1h0a0,0,0,0,1,0,0h0a3.46,3.46,0,0,1,.45-.74h0a.34.34,0,0,0,.08-.26h0a2.39,2.39,0,0,0-.27-.93h0a0,0,0,0,1,0,0h0a1.25,1.25,0,0,1,.68-.41h0c.4-.08.52-.37,1-.37h0a1.48,1.48,0,0,1,.34,0h0l.21,0h0A.3.3,0,0,0,41,50.2h0c0-.15.06-.35.24-.43h0a2.46,2.46,0,0,0,.59-.4h0s0,0,0,0h0a.35.35,0,0,0,.22,0h0A4.53,4.53,0,0,0,43.7,49h0a3.09,3.09,0,0,1,.77-.37h0a.14.14,0,0,1,.11.07h0a.5.5,0,0,1,0,.19h0v0h0a5.18,5.18,0,0,0,.08,1h0c.08.38.23.69.52.68h.12s0,0,0,0h0a4.33,4.33,0,0,1-.21,1.18h0c-.29.76-.27,1.11-.81,1.65h0c-.36.36-1,.95-1.37,1.41h0s0,0,0,0h0s0,0,0,0h0v0h0l-.15,0h0c-.09,0-.16,0-.16.14h0a.15.15,0,0,1,0,.07h0a.07.07,0,0,1-.05,0h0s-.07,0-.11-.07h0l-.13-.13h0a.56.56,0,0,0-.31-.18h0a2.55,2.55,0,0,0-.6.2h0a2.2,2.2,0,0,1-.71.2h0a.27.27,0,0,1-.2-.07Zm-1.29-1.72c.07,0,.12,0,.15,0h0a.58.58,0,0,1,.08.33h0a4.7,4.7,0,0,1,0,.54h0c0,.16.19.3.44.42h0a3,3,0,0,1,.65.35h0a.21.21,0,0,0,.15,0h0a2.24,2.24,0,0,0,.69-.2h0a2.26,2.26,0,0,1,.62-.2h0c.23,0,.43.3.53.37h0a.43.43,0,0,0,0,0h0a.19.19,0,0,1,.07-.16h0a.21.21,0,0,1,.15,0h0a1,1,0,0,1,.24,0h0c.39-.46,1-1,1.33-1.36h0c.53-.53.5-.86.79-1.63h0a4.19,4.19,0,0,0,.21-1.13H45.2c-.34,0-.5-.35-.58-.73h0a5.32,5.32,0,0,1-.08-1h0v0h0a.51.51,0,0,0,0-.16h0s0,0-.05,0h0a4.16,4.16,0,0,0-.74.36h0a4.44,4.44,0,0,1-1.63.47h0a.4.4,0,0,1-.26-.06h0a2.41,2.41,0,0,1-.57.39h0c-.15.06-.17.22-.21.39h0a.36.36,0,0,1-.39.32h0l-.22,0h0a1.47,1.47,0,0,0-.33,0h0c-.48,0-.58.28-1,.37h0a1.18,1.18,0,0,0-.63.38h0a2.28,2.28,0,0,1,.27.94h0a.42.42,0,0,1-.1.31h0a3.2,3.2,0,0,0-.42.68h0a4.85,4.85,0,0,0,.9.11Z"/><path class="cls-1" d="M39.09,50.82c.51-.1.57-.49,1.37-.33s.43-.53.8-.69a2.8,2.8,0,0,0,.59-.4c-.15-.22.36-1.18.63-1.45s-.4-.39-.4-.39a1.45,1.45,0,0,0,.19-1,1.11,1.11,0,0,1-.55-.31,4.35,4.35,0,0,0-1.38-.89c-.18,0-.52.34-.85.67s-.71-.3-.93-.09.24.39.24.9a1,1,0,0,1-1,.81c.13.16-.38.12-.82.12a1.6,1.6,0,0,0-1.09.41c-.24.25.26.86.47.65s.68.21.68.6-.45.31-.45.47.36.47.26.8.1.47.47.35a1.23,1.23,0,0,1,1,0,.48.48,0,0,1,.1.15A1.26,1.26,0,0,1,39.09,50.82Z"/><path class="cls-1" d="M38.43,51.26l0,0h0l-.1-.15h0a.68.68,0,0,0-.45-.11h0a2,2,0,0,0-.55.08h0a.81.81,0,0,1-.25,0h0a.3.3,0,0,1-.21-.07h0a.25.25,0,0,1-.08-.2h0a.55.55,0,0,1,0-.16h0a.41.41,0,0,0,0-.11h0a.79.79,0,0,0-.13-.38h0a1.11,1.11,0,0,1-.14-.3h0c0-.06.05-.09.09-.11h0l.16-.06h0a.29.29,0,0,0,.2-.3h0a.7.7,0,0,0-.17-.43h0a.54.54,0,0,0-.34-.2h0a.21.21,0,0,0-.12,0h0a.15.15,0,0,1-.13.05h0c-.21,0-.45-.3-.45-.55h0a.26.26,0,0,1,.07-.19h0A1.59,1.59,0,0,1,37,47.72h.42a1,1,0,0,0,.37,0h0l0,0h0v0h0l0,0h.06a1,1,0,0,0,.65-.24h0a.76.76,0,0,0,.28-.54h0a.86.86,0,0,0-.14-.46h0a.62.62,0,0,1-.15-.32h0a.16.16,0,0,1,.06-.14h0a.19.19,0,0,1,.13-.06h0c.19,0,.4.24.6.24h0a.3.3,0,0,0,.2-.09h0c.16-.17.33-.34.48-.47h0a.75.75,0,0,1,.39-.21h0a1.8,1.8,0,0,1,.63.31h0a5.12,5.12,0,0,1,.78.59h0a1,1,0,0,0,.53.3h0l0,0h0a2.45,2.45,0,0,1,0,.27h0a1.4,1.4,0,0,1-.19.73h0a1.08,1.08,0,0,1,.19.05h0c.12,0,.26.11.26.23h0a.21.21,0,0,1-.07.15h0a2.9,2.9,0,0,0-.66,1.32h0a.2.2,0,0,0,0,.09h0a0,0,0,0,1,0,0h0a2.92,2.92,0,0,1-.6.41h0c-.15.06-.17.22-.21.39h0a.36.36,0,0,1-.39.32h0l-.22,0h0a1.47,1.47,0,0,0-.33,0h0c-.48,0-.58.28-1,.37h0a1.16,1.16,0,0,0-.64.4h0Zm-.08-.21a.62.62,0,0,1,.09.12h0a1.27,1.27,0,0,1,.65-.38h0c.4-.08.52-.37,1-.37h0a1.48,1.48,0,0,1,.34,0h0l.21,0h0A.3.3,0,0,0,41,50.2h0c0-.15.06-.35.24-.43h0a2.57,2.57,0,0,0,.57-.38h0a.36.36,0,0,1,0-.1h0a2.9,2.9,0,0,1,.67-1.36h0s.06-.08.06-.11h0c0-.06-.1-.13-.22-.17h0a1.49,1.49,0,0,0-.23-.06h0l0,0h0a0,0,0,0,1,0,0h0a1.24,1.24,0,0,0,.21-.73h0c0-.08,0-.16,0-.24h0a1.19,1.19,0,0,1-.55-.32h0a5,5,0,0,0-.76-.58h0a1.72,1.72,0,0,0-.6-.3h0c-.07,0-.2.08-.35.2h0l-.48.46h0a.32.32,0,0,1-.24.11h0c-.23,0-.46-.24-.6-.23h0a.11.11,0,0,0-.08,0h0a.14.14,0,0,0-.05.1h0c0,.07.06.16.14.29h0a1,1,0,0,1,.15.49h0a1,1,0,0,1-1,.85h0s0,0,0,.07h0l-.1,0h0a1.32,1.32,0,0,1-.3,0H37a1.48,1.48,0,0,0-1.07.4h0a.19.19,0,0,0,0,.14h0a.55.55,0,0,0,.13.33h0a.4.4,0,0,0,.26.16h0a.14.14,0,0,0,.09,0h0a.2.2,0,0,1,.16-.07h0a.73.73,0,0,1,.57.69h0c0,.32-.28.36-.39.41h0s0,0,0,.06h0s.06.15.13.27h0a1,1,0,0,1,.14.41h0a.59.59,0,0,1,0,.13h0a.39.39,0,0,0,0,.14h0a.2.2,0,0,0,.23.21h0a.7.7,0,0,0,.23,0h0a2.19,2.19,0,0,1,.57-.09h0a.7.7,0,0,1,.49.14Z"/><path class="cls-1" d="M40.94,41.69a9.3,9.3,0,0,0-.52,1.23c-.24.5-.41,1.28-.88,1.28s-.9-.6-1.29-.21-.57,1.14-.35,1.37l.64.59,0,0c.22-.21.6.42.93.09s.67-.67.85-.67a4.35,4.35,0,0,1,1.38.89,1.11,1.11,0,0,0,.55.31c0-.32-.14-.58-.14-.68s0-.49.06-.7a1.64,1.64,0,0,1-1-1.31c0-.33,1.08-.24,1.44-.31s.33-.62.41-1.21-.49-.49-.49-.49a.24.24,0,0,1-.14-.05A4.6,4.6,0,0,0,40.94,41.69Z"/><path class="cls-1" d="M42.27,46.57a1.08,1.08,0,0,1-.57-.32h0a5,5,0,0,0-.76-.58h0a1.72,1.72,0,0,0-.6-.3h0c-.07,0-.2.08-.35.2h0l-.48.46h0a.32.32,0,0,1-.24.11h0c-.23,0-.46-.24-.6-.23h0a.11.11,0,0,0-.08,0h0l0,0h0l-.64-.59h0a.47.47,0,0,1-.11-.34h0A1.68,1.68,0,0,1,38.23,44h0a.44.44,0,0,1,.31-.14h0c.33,0,.66.35,1,.34h0c.21,0,.37-.18.5-.43h0c.13-.26.23-.58.35-.84h0a8.22,8.22,0,0,1,.53-1.23h0a.37.37,0,0,1,.24-.05h0a9.57,9.57,0,0,1,1.24.14h0a.16.16,0,0,0,.12,0h.09a.49.49,0,0,1,.27.07h0a.38.38,0,0,1,.17.35h0a.45.45,0,0,1,0,.11h0c0,.29-.05.57-.1.8h0c0,.22-.13.39-.33.43h0a9.6,9.6,0,0,0-1.27.13h0q-.15.06-.15.15h0a1.64,1.64,0,0,0,1,1.28h0a0,0,0,0,1,0,0h0c0,.22-.06.54-.06.7h0c0,.09.1.36.14.68h0a0,0,0,0,1,0,0h0Zm-1.29-1a5.54,5.54,0,0,1,.77.59h0a1,1,0,0,0,.49.29h0c-.05-.29-.14-.53-.14-.64h0c0-.16,0-.46.06-.68h0a1.66,1.66,0,0,1-1-1.33h0c0-.1.08-.16.19-.2h0a1.26,1.26,0,0,1,.42-.08h0c.32,0,.68,0,.86-.06h0c.16,0,.23-.17.28-.39h0c.05-.21.06-.5.1-.79h0a.38.38,0,0,0,0-.1h0a.33.33,0,0,0-.38-.36h-.09a.25.25,0,0,1-.15,0h0a9.64,9.64,0,0,0-1.23-.14h0a.38.38,0,0,0-.19,0h0l0,0,0,0a9.42,9.42,0,0,0-.53,1.22h0c-.11.25-.21.57-.35.83h0c-.13.26-.3.47-.55.48h0c-.37,0-.71-.36-1-.35h0a.37.37,0,0,0-.27.12h0a1.69,1.69,0,0,0-.44,1h0a.43.43,0,0,0,.09.29h0l.62.58h0a.19.19,0,0,1,.13-.06h0c.19,0,.4.24.6.24h0a.3.3,0,0,0,.2-.09h0c.16-.17.33-.34.48-.47h0a.75.75,0,0,1,.39-.21h0a1.91,1.91,0,0,1,.64.31Z"/><path class="cls-1" d="M37.67,36.75c.2.21.89.67,1.21.35a.94.94,0,0,0,0-1.15c-.19-.32.76-1,1.17-1.64a4.51,4.51,0,0,1-.51-.46c-.37-.37-.21-1.29-.65-1.29s-.52,1.14-.79,1.4a4,4,0,0,1-1.26.53,6.7,6.7,0,0,1,.55.84C37.61,35.68,37.46,36.55,37.67,36.75Z"/><path class="cls-1" d="M38.6,37.24a1.65,1.65,0,0,1-1-.47h0l0,0,0,0a1.67,1.67,0,0,0,.91.45h0a.32.32,0,0,0,.25-.1h0a.69.69,0,0,0,.21-.52h0a1.15,1.15,0,0,0-.17-.59h0a.2.2,0,0,1,0-.11h0c0-.2.22-.45.47-.72h0a10.66,10.66,0,0,0,.72-.83h0a4.23,4.23,0,0,1-.49-.44h0c-.29-.29-.27-.88-.42-1.15h0a.23.23,0,0,0-.21-.13h0c-.18,0-.32.26-.43.58h0a2.83,2.83,0,0,1-.33.82h0a4,4,0,0,1-1.23.51h0a8.52,8.52,0,0,1,.52.82h0a2.16,2.16,0,0,1,.11.77h0a1.17,1.17,0,0,0,.12.64h0l0,0,0,0a1.12,1.12,0,0,1-.14-.67h0a2.29,2.29,0,0,0-.1-.76h0c-.12-.22-.38-.6-.55-.84h0s0,0,0,0h0l0,0h0a3.87,3.87,0,0,0,1.24-.52h0a2.54,2.54,0,0,0,.32-.79h0c.12-.31.24-.62.49-.62h0a.31.31,0,0,1,.27.16h0a1.62,1.62,0,0,1,.11.37h0a1.66,1.66,0,0,0,.29.77h0a4.43,4.43,0,0,0,.51.45h0a0,0,0,0,1,0,0h0a9.33,9.33,0,0,1-.75.85h0c-.25.27-.45.52-.45.68h0a.24.24,0,0,0,0,.08h0a1.27,1.27,0,0,1,.18.62h0a.78.78,0,0,1-.22.57h0a.41.41,0,0,1-.3.11Z"/><path class="cls-1" d="M30.42,43.33c0-.82-.83-1.33-1.05-1.93s-.38,0-.38,0a1.57,1.57,0,0,1-2.31.35A2.1,2.1,0,0,0,24.86,41a5.66,5.66,0,0,1-3.74-1.79c-.41-.41-.18-1,.32-1.46a1.75,1.75,0,0,0,.29-1.3.33.33,0,0,1-.29-.11c-.45-.45-1-.19-2-.19a8.55,8.55,0,0,0-3.16.51c-.9.39-1.33,0-2.38,0s-1,.68-1.25.42-2.26,0-1.87.36c.24.24-.39.53-.91.71-.06.51.45,1.38.28,1.55s-.85-.1-1.06.11.13.66.13,1.08-.63.61-.41.83,1,.34,1.34.68.85.94.85.94c.42-.32,1.41.33,1.69.33s.31.55.75.71a.48.48,0,0,0,.61-.16s-.09.88.53,1,.91.73,1.29,1.12,1,0,1.36.41,1.45.11,1.67.11.37.44.62.44.76-.79.76-.79a1.51,1.51,0,0,0,1.74,0s0,.83.72.83a1.14,1.14,0,0,0,1.14-.86c.57.09,1.71-.87,1.71-.87.68.35,1.45-.46,1.45,0a1.09,1.09,0,0,0,.51.82c.27.27.84.15,1.21.15a.77.77,0,0,1,.37.17,3.5,3.5,0,0,0,.26.44c.53-.29,1-1.58,1.17-1.58a.12.12,0,0,1,.09.06C30.75,45,30.42,44,30.42,43.33Z"/><path class="cls-1" d="M22.14,47a1.26,1.26,0,0,1-.1-.38h0a1.47,1.47,0,0,1-.79.23h0a1.66,1.66,0,0,1-.91-.29h0c0,.06-.15.22-.28.38h0c-.16.2-.34.4-.49.4h0c-.15,0-.25-.12-.34-.23h0c-.1-.11-.19-.21-.28-.21h0c-.12,0-.55.09-.95.09h0a1.08,1.08,0,0,1-.74-.2h0a.88.88,0,0,0-.65-.2h0a1,1,0,0,1-.71-.22h0c-.39-.39-.68-1-1.28-1.11h0a.57.57,0,0,1-.46-.38h0a1.28,1.28,0,0,1-.09-.51h0v0h0a.52.52,0,0,1-.35.14h0a.75.75,0,0,1-.24,0h0A.94.94,0,0,1,13,44h0c-.1-.16-.17-.28-.29-.28h0a2.18,2.18,0,0,1-.61-.21h0a2.34,2.34,0,0,0-.77-.21h0a.48.48,0,0,0-.29.09h0a0,0,0,0,1,0,0h0s-.52-.6-.86-.94h0a2.12,2.12,0,0,0-.7-.38h0a2.06,2.06,0,0,1-.63-.3h0a.14.14,0,0,1-.06-.12h0c0-.11.13-.21.24-.32H9a.6.6,0,0,0,.22-.41h0A8.7,8.7,0,0,0,9,40H9a.32.32,0,0,1,.08-.2h0a.47.47,0,0,1,.32-.09h0l.52,0h0c.1,0,.18,0,.21,0h0s0-.05,0-.09h0c0-.26-.31-.89-.31-1.34h0v-.11h0l0,0h0a3.74,3.74,0,0,0,.64-.28h0c.18-.1.3-.21.3-.29h0a.12.12,0,0,0,0-.09h0a.17.17,0,0,1-.06-.12h0c0-.08.06-.13.14-.18h0a1.78,1.78,0,0,1,.33-.12h0a4.33,4.33,0,0,1,.89-.1h0a1.09,1.09,0,0,1,.61.12h0s.06.05.08.05h0s.13-.11.28-.24h0a1.38,1.38,0,0,1,.87-.25h0c.71,0,1.13.18,1.6.18h0a1.86,1.86,0,0,0,.77-.17h0a8.64,8.64,0,0,1,3.17-.51h0c.49,0,.88-.07,1.21-.07h0a1,1,0,0,1,.76.27h0a.3.3,0,0,0,.22.1h.07v0h0a2.71,2.71,0,0,1,0,.29h0a1.5,1.5,0,0,1-.31,1h0a1.49,1.49,0,0,0-.52,1h0a.64.64,0,0,0,.2.46h0a5.37,5.37,0,0,0,1.65,1.22h0a5.27,5.27,0,0,0,2.07.55h0a2.17,2.17,0,0,1,1.84.74h0a1.43,1.43,0,0,0,1,.36h0A1.33,1.33,0,0,0,29,41.39h0a.47.47,0,0,1,.05-.14h0c0-.07.08-.15.16-.15h0c.08,0,.15.08.23.28h0c.21.59,1.05,1.11,1.05,1.95h0c0,.61.28,1.48.28,2.24h0v.18h0l0,0h0s0-.05-.06-.05h0s-.1.06-.17.19h0c-.08.12-.17.29-.27.47h0a2.45,2.45,0,0,1-.71.92h0a3.68,3.68,0,0,1-.27-.44h0l-.1-.08h0a.53.53,0,0,0-.24-.08h0c-.17,0-.38,0-.59,0h0a.83.83,0,0,1-.62-.19h0a1.1,1.1,0,0,1-.52-.84h0c0-.12,0-.13-.1-.14h0a5.58,5.58,0,0,1-.93.22h0a.78.78,0,0,1-.38-.09h0a3.78,3.78,0,0,1-1.64.88H24a1.19,1.19,0,0,1-1.17.85h0a.68.68,0,0,1-.65-.43Zm-.06-.46s0,0,0,0h0a1.09,1.09,0,0,0,.09.4h0a.63.63,0,0,0,.6.4h0a1.11,1.11,0,0,0,1.07-.7h0a.93.93,0,0,0,0-.13h0s0,0,0,0H24a2.27,2.27,0,0,0,1-.44h0a5.58,5.58,0,0,0,.59-.44h0a.84.84,0,0,0,.37.09h0a7.22,7.22,0,0,0,.93-.22h0a.13.13,0,0,1,.12,0h0a.21.21,0,0,1,0,.15h0a.86.86,0,0,0,.25.58h0a1.06,1.06,0,0,0,.24.21h0a.82.82,0,0,0,.58.17h0c.21,0,.42,0,.59,0h0a.75.75,0,0,1,.39.18h0s.1.19.25.41h0c.37-.22.71-1,.93-1.35h0c.09-.13.14-.22.23-.22h0a.07.07,0,0,1,.06,0h0v-.11h0c0-.75-.28-1.61-.28-2.24h0c0-.8-.82-1.31-1.05-1.92h0c-.07-.2-.14-.25-.17-.25h0s-.08.05-.11.12h0a.48.48,0,0,0,0,.12h0a1.35,1.35,0,0,1-1.3.73h0a1.54,1.54,0,0,1-1.06-.37h0a2,2,0,0,0-1.79-.72h0a5.45,5.45,0,0,1-2.09-.56h0a5.6,5.6,0,0,1-1.68-1.24h0a.68.68,0,0,1-.21-.5h0a1.5,1.5,0,0,1,.54-1h0a1.45,1.45,0,0,0,.29-1h0a2,2,0,0,0,0-.25h0a.37.37,0,0,1-.26-.12h0a.94.94,0,0,0-.72-.25h0c-.32,0-.71.07-1.21.07h0a8.92,8.92,0,0,0-3.15.5h0a1.94,1.94,0,0,1-.79.18h0c-.48,0-.91-.17-1.6-.17h0a1.26,1.26,0,0,0-.83.23h0c-.15.12-.21.24-.32.25h0a.17.17,0,0,1-.12-.06h0a.91.91,0,0,0-.57-.1h0a3,3,0,0,0-1.19.2h0c-.08.05-.11.09-.11.13h0s0,0,0,.07h0a.2.2,0,0,1,.06.14h0c0,.13-.14.24-.33.35h0a4.59,4.59,0,0,1-.63.27h0v.08h0c0,.43.31,1,.31,1.34h0a.18.18,0,0,1,0,.13h0a.35.35,0,0,1-.26.07h0l-.52,0h0a.45.45,0,0,0-.28.07h0a.24.24,0,0,0-.05.16h0c0,.22.19.57.2.9h0a.7.7,0,0,1-.25.45h0c-.11.12-.22.22-.22.28h0a.1.1,0,0,0,0,.08h0a2.17,2.17,0,0,0,.61.29h0a2,2,0,0,1,.73.39h0c.3.3.74.81.84.92h0a.5.5,0,0,1,.3-.08h0a2.44,2.44,0,0,1,.8.21h0a2.32,2.32,0,0,0,.58.21h0c.17,0,.25.16.34.31h0a.86.86,0,0,0,.42.4h0a.64.64,0,0,0,.22,0h0a.42.42,0,0,0,.34-.16h0l0,0h0s0,0,0,0h0s0,0,0,0h0v.1h0a1.3,1.3,0,0,0,.08.48h0a.54.54,0,0,0,.42.35h0c.64.09.94.75,1.32,1.13h0a.9.9,0,0,0,.66.2h0a1,1,0,0,1,.7.21h0a1,1,0,0,0,.69.19h0c.4,0,.81-.09.95-.09h0c.13,0,.23.13.32.23h0c.1.11.2.21.3.21h0c.09,0,.29-.18.45-.38h0c.16-.2.29-.39.29-.39h0a0,0,0,0,1,0,0h0a1.6,1.6,0,0,0,.9.29h0a1.31,1.31,0,0,0,.58-.13h0a1.16,1.16,0,0,0,.22-.12h0Z"/><path class="cls-1" d="M42.54,40a3.41,3.41,0,0,1,1.14-.16c-.23-.3-.56-.85-.75-1s0-.37,0-.57c-.14,0-.19,0-.19-.24,0-.44.34-.5.34-1s-.37-.41-.37-1.14.08-.66.08-1.24-.21-1.18.11-1.51.13-.62,0-.94a3.77,3.77,0,0,1-.47.05c-.32,0-.45.36-.79.7s-.51,1-.87,1.4-.49.13-.75-.06c-.28.41-.82.88-1.07,1.24l1.12.48c.32.12.72.44.49.66s-.65.72-.91,1-.8.21-.94.55.26.75,0,1-.16.56-.56.56-.45.8-.18,1.06,2.48.53,2.82.93l0-.05a4.6,4.6,0,0,1,1.46.1c-.19-.17-.19-.67,0-.67s.4-.2.23-.37A.65.65,0,0,1,42.54,40Z"/><path class="cls-1" d="M42.4,41.82a9.77,9.77,0,0,0-1.24-.14h0a.38.38,0,0,0-.19,0h0a.1.1,0,0,0,0,0h0a2.41,2.41,0,0,0-1-.39h0c-.45-.12-1-.23-1.34-.34h0a1.42,1.42,0,0,1-.52-.2h0a.79.79,0,0,1-.17-.52h0c0-.29.12-.59.38-.59h0a.34.34,0,0,0,.32-.18h0a1.33,1.33,0,0,1,.22-.37h0a.25.25,0,0,0,.06-.16h0c0-.17-.14-.41-.14-.64h0a.55.55,0,0,1,0-.17h0a.65.65,0,0,1,.44-.31h0a1.23,1.23,0,0,0,.5-.24h0c.27-.26.69-.75.92-1h0a.17.17,0,0,0,.06-.12h0c0-.17-.29-.4-.54-.49h0c-.24-.09-.84-.36-1.12-.48h0l0,0h0a0,0,0,0,1,0,0h0c.25-.36.79-.83,1.07-1.24h0a.8.8,0,0,0,.44.19h0a.35.35,0,0,0,.26-.12h0c.36-.35.54-1.06.88-1.4h0c.33-.33.46-.71.81-.71h0l.46-.05h0l0,0h0a2.62,2.62,0,0,1,.09.56h0a.62.62,0,0,1-.13.42h0a.68.68,0,0,0-.18.53h0c0,.28.07.61.07,1h0c0,.59-.08.53-.08,1.24h0a1,1,0,0,0,.18.65h0a.74.74,0,0,1,.19.49h0a.82.82,0,0,1-.18.51h0a.76.76,0,0,0-.16.45h0a.62.62,0,0,0,0,.18h0a.08.08,0,0,0,.08,0H43a0,0,0,0,1,0,0h0a1.05,1.05,0,0,0-.09.37h0a.2.2,0,0,0,.06.17h0c.18.19.52.73.74,1h0a0,0,0,0,1,0,0h0l0,0h0c-.22,0-.48,0-.69,0h0a1.19,1.19,0,0,0-.43.1h0a.44.44,0,0,0-.08.28h0a.68.68,0,0,0,.14.42h0a.21.21,0,0,1,.07.15h0a.31.31,0,0,1-.32.27h0s0,0-.06.06h0a.38.38,0,0,0,0,.16h0a.57.57,0,0,0,.14.4h0s0,0,0,0h0l0,0Zm-.08-.07a.72.72,0,0,1-.1-.38h0a.58.58,0,0,1,0-.19h0a.13.13,0,0,1,.12-.09h0a.3.3,0,0,0,.18-.06h0a.21.21,0,0,0,.08-.15h0a.15.15,0,0,0-.05-.11h0a.69.69,0,0,1-.16-.46h0a.46.46,0,0,1,.1-.32h0a1.09,1.09,0,0,1,.46-.12h0l.64,0h0c-.23-.31-.54-.81-.71-1h0a.3.3,0,0,1-.08-.21h0a1.05,1.05,0,0,1,.08-.34h0a.13.13,0,0,1-.13-.07h0a.55.55,0,0,1,0-.21h0a.84.84,0,0,1,.17-.49h0a.74.74,0,0,0,.17-.47h0a.72.72,0,0,0-.18-.46h0a1,1,0,0,1-.19-.68h0c0-.72.08-.66.08-1.24h0c0-.33-.07-.66-.07-1h0a.79.79,0,0,1,.19-.58h0a.51.51,0,0,0,.11-.37h0a2.4,2.4,0,0,0-.07-.52h0l-.45,0h0c-.29,0-.42.35-.76.69h0c-.33.33-.51,1-.88,1.41h0a.43.43,0,0,1-.31.13h0a.86.86,0,0,1-.45-.18h0c-.28.4-.78.84-1,1.19h0c.29.13.86.38,1.08.46h0c.26.1.57.32.58.55h0a.25.25,0,0,1-.08.17h0c-.22.22-.65.71-.91,1h0a1.46,1.46,0,0,1-.53.26h0a.58.58,0,0,0-.4.28h0a.32.32,0,0,0,0,.14h0c0,.21.14.44.14.64h0a.26.26,0,0,1-.08.2h0a1.47,1.47,0,0,0-.21.36h0a.38.38,0,0,1-.37.21h0a.26.26,0,0,0-.23.16h0a.7.7,0,0,0-.09.37h0a.71.71,0,0,0,.16.48h0a1.5,1.5,0,0,0,.48.19h0l.88.21h0a4.32,4.32,0,0,1,1.44.5h0s0,0,0,0h0a.37.37,0,0,1,.24-.05h0a8.35,8.35,0,0,1,1.16.13Z"/><path class="cls-1" d="M30,40.4c.22-.22,1.23,0,1.9,0s.73.73,1,.45.57-.57.89-.57.76-.29.56-.49-1.55-.41-1.55-.68.61,0,1,0,0-.35,0-.9.59-.59,1-1-.21-.91-.35-1.37a2,2,0,0,0-1-1.26,11.81,11.81,0,0,1-2.4-1.52c-.46-.47-.64-.09-1.63.17a2.52,2.52,0,0,1-1.88-.2c-.37-.11-1-.34-1.4-.49a.63.63,0,0,1-.54.39c-.5,0-3,.43-3,1.09s.54,1.21.31,1.45-.75,1-1.19,1a1.75,1.75,0,0,1-.29,1.3c-.5.49-.73,1-.32,1.46A5.66,5.66,0,0,0,24.86,41a2.1,2.1,0,0,1,1.82.73A1.57,1.57,0,0,0,29,41.4C29,40.84,29.82,40.62,30,40.4Z"/><path class="cls-1" d="M27.71,42.14a1.54,1.54,0,0,1-1.06-.37h0a2,2,0,0,0-1.79-.72h0a5.45,5.45,0,0,1-2.09-.56h0a5.6,5.6,0,0,1-1.68-1.24h0a.68.68,0,0,1-.21-.5h0a1.5,1.5,0,0,1,.54-1h0a1.45,1.45,0,0,0,.29-1h0a2.44,2.44,0,0,0,0-.28h0a0,0,0,0,1,0,0h0c.41,0,1-.8,1.17-1h0a.17.17,0,0,0,.05-.13h0c0-.25-.37-.73-.37-1.29h0c0-.18.17-.34.41-.48h0a4.67,4.67,0,0,1,.92-.34h0a8.51,8.51,0,0,1,1.7-.3h0a.6.6,0,0,0,.51-.38h0s0,0,0,0h0c.41.15,1,.38,1.4.49h0a3.5,3.5,0,0,0,1.16.31h0a2.61,2.61,0,0,0,.7-.11h0c.65-.17.94-.39,1.22-.4h0a.63.63,0,0,1,.45.24h0a10.79,10.79,0,0,0,2.39,1.51h0a2,2,0,0,1,1,1.28h0c.1.34.47.73.48,1.09h0a.41.41,0,0,1-.14.31h0a3.13,3.13,0,0,1-.63.42h0a.6.6,0,0,0-.33.53h0a3.78,3.78,0,0,0,.19.79h0a.13.13,0,0,1-.06.11h0a.26.26,0,0,1-.16,0h0c-.27,0-.61-.09-.82-.09h0l-.13,0h0a.07.07,0,0,0,0,.07h0s.07.11.2.16h0a2.92,2.92,0,0,0,.48.17h0a3.26,3.26,0,0,1,.86.32h0a.22.22,0,0,1,.06.14h0a.38.38,0,0,1-.22.29h0a.89.89,0,0,1-.42.12h0c-.3,0-.59.29-.87.57h0a.21.21,0,0,1-.14.07h0c-.12,0-.2-.15-.33-.27h0a.72.72,0,0,0-.56-.25h0c-.45,0-1.05-.1-1.46-.1h0a.68.68,0,0,0-.42.09h0l0,0,0,0c-.24.23-1,.45-1,1h0a1.35,1.35,0,0,1-1.3.73Zm-1-.42a1.43,1.43,0,0,0,1,.36h0A1.33,1.33,0,0,0,29,41.39h0c0-.59.86-.8,1.06-1h0a.65.65,0,0,1,.46-.11h0c.42,0,1,.1,1.46.1h0a.83.83,0,0,1,.61.27h0c.13.13.21.25.28.25h0s.06,0,.1-.06h0c.28-.27.57-.57.91-.58h0a.77.77,0,0,0,.39-.11h0a.34.34,0,0,0,.19-.24h0a.12.12,0,0,0,0-.09h0a1.83,1.83,0,0,0-.57-.23h0a6.78,6.78,0,0,1-.76-.25h0c-.13-.06-.23-.12-.23-.22h0a.14.14,0,0,1,.07-.12h0a.27.27,0,0,1,.16,0h0c.22,0,.57.09.82.09h0A.31.31,0,0,0,34,39h0s0,0,0-.06h0a4.31,4.31,0,0,1-.18-.79h0a.66.66,0,0,1,.36-.58h0a3.69,3.69,0,0,0,.62-.41h0a.39.39,0,0,0,.11-.27h0c0-.32-.36-.71-.47-1.07h0a1.94,1.94,0,0,0-1-1.24h0A11.5,11.5,0,0,1,31,33.08h0a.54.54,0,0,0-.4-.21h0a11.78,11.78,0,0,0-1.21.39h0a2.56,2.56,0,0,1-.71.11h0a3.73,3.73,0,0,1-1.18-.31h0c-.36-.11-1-.33-1.38-.48h0a.65.65,0,0,1-.55.38h0A7.74,7.74,0,0,0,23,33.6h0c-.24.13-.38.28-.38.42h0c0,.54.37,1,.37,1.29h0a.24.24,0,0,1-.07.18h0c-.18.18-.71.92-1.18,1h0a2.17,2.17,0,0,1,0,.26h0a1.5,1.5,0,0,1-.31,1h0a1.49,1.49,0,0,0-.52,1h0a.64.64,0,0,0,.2.46h0a5.37,5.37,0,0,0,1.65,1.22h0a5.27,5.27,0,0,0,2.07.55h0a2.17,2.17,0,0,1,1.83.74Z"/><path class="cls-1" d="M34.94,39.33c.75.19,1,1,1.33,1s.54.49.94.88.66-.06.92-.31l-.05,0c-.27-.26-.22-1.06.18-1.06s.33-.33.56-.56-.18-.64,0-1,.67-.29.94-.55.69-.75.91-1-.17-.54-.49-.66L39,35.55c-.11.16-.16.3-.1.4a.94.94,0,0,1,0,1.15c-.32.32-1-.14-1.21-.35s-.06-1.07-.24-1.42a6.7,6.7,0,0,0-.55-.84,4.5,4.5,0,0,1-.9.18c-.44,0-.56-.94.12-1.09a.52.52,0,0,0,0-1c-.5,0-.57.34-1.41.41s0,.76-.44.76-.35-.91-.93-.91-.71-1-.71-1c.53-.53.27-.91-.17-1.08s-.76.4-1.52.4-.13-1.41-.41-1.69a1.71,1.71,0,0,1-.2-1,6.29,6.29,0,0,0-.64.09c-.82,1.65-1.69.3-2.11,1a3.1,3.1,0,0,1-1.79,1.06c.78.35,0,.86.35,1.17a.67.67,0,0,1,0,.74c.41.15,1,.38,1.4.49a2.52,2.52,0,0,0,1.88.2c1-.26,1.17-.64,1.63-.17a11.81,11.81,0,0,0,2.4,1.52,2,2,0,0,1,1,1.26c.14.46.73,1,.35,1.37s-1,.41-1,1,.41.9,0,.9-1-.23-1,0,.86.39,1.31.55C34.33,39.46,34.47,39.21,34.94,39.33Z"/><path class="cls-1" d="M37.19,41.18c-.4-.4-.57-.87-.92-.87h0c-.21,0-.36-.2-.55-.41h0a1.62,1.62,0,0,0-.79-.54h0V39.3a1.67,1.67,0,0,1,.82.56h0c.19.22.34.4.5.39h0c.41,0,.57.5,1,.89h0a.27.27,0,0,0,.2.08h0a1.09,1.09,0,0,0,.65-.37h0l0,0h0a.79.79,0,0,1-.17-.52h0c0-.29.12-.59.38-.59h0a.34.34,0,0,0,.32-.18h0a1.33,1.33,0,0,1,.22-.37h0a.25.25,0,0,0,.06-.16h0c0-.17-.14-.41-.14-.64h0a.55.55,0,0,1,0-.17h0a.65.65,0,0,1,.44-.31h0a1.23,1.23,0,0,0,.5-.24h0c.27-.26.69-.75.92-1h0a.17.17,0,0,0,.06-.12h0c0-.17-.29-.4-.54-.49h0L39,35.59h0a.53.53,0,0,0-.11.27h0a.24.24,0,0,0,0,.08h0a1.27,1.27,0,0,1,.18.62h0a.78.78,0,0,1-.22.57h0a.41.41,0,0,1-.3.11h0a1.65,1.65,0,0,1-1-.47h0a1.12,1.12,0,0,1-.14-.67h0a2.29,2.29,0,0,0-.1-.76h0a8.21,8.21,0,0,0-.54-.82h0a4.31,4.31,0,0,1-.89.18h0c-.25,0-.39-.26-.39-.52h0a.63.63,0,0,1,.5-.63h0a.48.48,0,0,0,.42-.48h0a.45.45,0,0,0-.41-.48h0a1.19,1.19,0,0,0-.57.17h0a2,2,0,0,1-.84.24h0c-.3,0-.35.13-.36.24h0c0,.12.09.28.09.39h0a.13.13,0,0,1,0,.1h0a.23.23,0,0,1-.13,0h0c-.24,0-.33-.25-.44-.47h0c-.11-.23-.22-.44-.49-.44h0a.68.68,0,0,1-.6-.51h0a2.12,2.12,0,0,1-.14-.51h0v0h0a.81.81,0,0,0,.29-.53h0c0-.23-.19-.4-.45-.51h0l-.16,0h0c-.34,0-.68.44-1.35.45h0a.36.36,0,0,1-.34-.18h0a.78.78,0,0,1-.09-.41h0c0-.28.06-.61.06-.84h0a.46.46,0,0,0-.06-.28h0a1.65,1.65,0,0,1-.21-1h0a4.64,4.64,0,0,0-.59.08h0c-.35.71-.73.87-1.07.87h0c-.26,0-.49-.09-.68-.09h0a.4.4,0,0,0-.35.21h0a3,3,0,0,1-1.73,1.05h0a.47.47,0,0,1,.31.43h0c0,.19-.1.38-.1.53h0a.27.27,0,0,0,.07.18h0a.5.5,0,0,1,.13.36h0a1,1,0,0,1-.08.38h0c.41.15,1,.37,1.37.48h0a3.5,3.5,0,0,0,1.16.31h0a2.61,2.61,0,0,0,.7-.11h0c.65-.17.94-.39,1.22-.4h0a.63.63,0,0,1,.45.24h0a10.79,10.79,0,0,0,2.39,1.51h0a2,2,0,0,1,1,1.28h0c.1.34.47.73.48,1.09h0a.41.41,0,0,1-.14.31h0a3.13,3.13,0,0,1-.63.42h0a.6.6,0,0,0-.33.53h0a3.78,3.78,0,0,0,.19.79h0a.13.13,0,0,1-.06.11h0a.26.26,0,0,1-.16,0h0c-.27,0-.61-.09-.82-.09h0l-.13,0h0a.07.07,0,0,0,0,.07h0s0,.08.13.13h0a2,2,0,0,0,.34.14h0c.26.08.58.17.8.25h0a.69.69,0,0,1,.56-.36h0l.24,0h0v.06l-.22,0h0c-.28,0-.38.19-.52.35h0s0,0,0,0h0a10.66,10.66,0,0,1-1.17-.4h0c-.09,0-.16-.1-.16-.18h0a.14.14,0,0,1,.07-.12h0a.27.27,0,0,1,.16,0h0c.22,0,.57.09.82.09h0A.31.31,0,0,0,34,39h0s0,0,0-.06h0a4.31,4.31,0,0,1-.18-.79h0a.66.66,0,0,1,.36-.58h0a3.69,3.69,0,0,0,.62-.41h0a.39.39,0,0,0,.11-.27h0c0-.32-.36-.71-.47-1.07h0a1.94,1.94,0,0,0-1-1.24h0A11.5,11.5,0,0,1,31,33.08h0a.54.54,0,0,0-.4-.21h0a11.78,11.78,0,0,0-1.21.39h0a2.56,2.56,0,0,1-.71.11h0a3.73,3.73,0,0,1-1.18-.31h0c-.37-.11-1-.34-1.4-.49h0s0,0,0,0h0v0h0a.85.85,0,0,0,.09-.38h0a.45.45,0,0,0-.11-.32h0A.29.29,0,0,1,26,31.6h0c0-.18.1-.36.1-.53h0c0-.14-.07-.28-.35-.41h0s0,0,0,0h0a0,0,0,0,1,0,0h0a4.67,4.67,0,0,0,.72-.23h0a2.3,2.3,0,0,0,1.06-.81h0a.43.43,0,0,1,.4-.24h0c.21,0,.44.09.68.09h0c.32,0,.67-.14,1-.86h0c.09,0,.34-.06.65-.09h0v0h0a1.77,1.77,0,0,0,.19,1h0a.49.49,0,0,1,.09.32h0c0,.24-.06.57-.06.84h0a.65.65,0,0,0,.07.38h0a.3.3,0,0,0,.29.14h0c.65,0,1-.43,1.35-.44h0a.39.39,0,0,1,.18,0h0a.64.64,0,0,1,.49.56h0a.87.87,0,0,1-.29.56h0a2.59,2.59,0,0,0,.12.47h0c.11.25.27.48.55.48h0c.31,0,.44.25.55.47h0c.1.23.19.44.38.44h0c.1,0,.1,0,.11-.07h0a3.34,3.34,0,0,1-.09-.39h0c0-.15.1-.28.42-.3h0a2.2,2.2,0,0,0,.82-.23h0a1.18,1.18,0,0,1,.59-.18h0a.51.51,0,0,1,.47.54h0a.55.55,0,0,1-.47.54h0a.56.56,0,0,0-.45.57h0a.63.63,0,0,0,.09.32h0a.3.3,0,0,0,.24.14h0a4.64,4.64,0,0,0,.9-.18h0s0,0,0,0h0a7.21,7.21,0,0,1,.55.85h0a2.16,2.16,0,0,1,.11.77h0a1.17,1.17,0,0,0,.12.64h0a1.67,1.67,0,0,0,.91.45h0a.32.32,0,0,0,.25-.1h0a.69.69,0,0,0,.21-.52h0a1.15,1.15,0,0,0-.17-.59h0a.2.2,0,0,1,0-.11h0a.58.58,0,0,1,.14-.33h0l1.12.48h0c.26.1.57.32.58.55h0a.25.25,0,0,1-.08.17h0c-.22.22-.65.71-.91,1h0a1.46,1.46,0,0,1-.53.26h0a.58.58,0,0,0-.4.28h0a.32.32,0,0,0,0,.14h0c0,.21.14.44.14.64h0a.26.26,0,0,1-.08.2h0a1.47,1.47,0,0,0-.21.36h0a.38.38,0,0,1-.37.21h0a.26.26,0,0,0-.23.16h0a.7.7,0,0,0-.09.37h0a.71.71,0,0,0,.16.48h0l0,0h0v0h0a0,0,0,0,1,0,0h0a1.28,1.28,0,0,1-.72.42h0a.34.34,0,0,1-.24-.11Z"/><path class="cls-1" d="M38.13,40.85c-.26.25-.67.56-.92.31s-.56-.88-.94-.88-.58-.76-1.33-1c-.47-.12-.61.13-.78.33a1,1,0,0,1,.24.13c.2.2-.23.49-.56.49s-.61.3-.89.57-.34-.45-1-.45-1.68-.22-1.9,0-1.05.44-1.05,1c0,0,.16-.6.38,0s1.05,1.11,1.05,1.93.33,1.63.28,2.42c.16.22.24,1,.41,1.17s.57-.57.82-.57,0,.51,0,.82.57.12.64.41.56.69.82,1,.66,1.32.94,1a4,4,0,0,1,.8-.55,3.86,3.86,0,0,1,.92-2.53c.33-.34.58.33.87.62s.3-.29.53-.29.1.62.27.8h0a1,1,0,0,0,1-.81c0-.49-.41-.67-.26-.87l-.64-.59c-.22-.23,0-1,.35-1.37s.82.21,1.29.21.64-.78.88-1.28.35-1,.48-1.18C40.57,41.36,38.55,41.09,38.13,40.85Z"/><path class="cls-1" d="M34.27,49.65c-.17,0-.31-.23-.46-.47h0a4,4,0,0,0-.4-.62h0c-.26-.27-.74-.66-.82-1h0c0-.1-.11-.13-.22-.16h0a1.07,1.07,0,0,1-.32-.08h0a.18.18,0,0,1-.11-.18h0c0-.2.09-.48.09-.65h0c0-.1,0-.14-.1-.14h0c-.08,0-.22.14-.35.29h0c-.13.15-.26.31-.39.31h0a.13.13,0,0,1-.1,0h0a1.46,1.46,0,0,1-.22-.58h0a1.8,1.8,0,0,0-.2-.59h0v0h0v-.17h0c0-.75-.28-1.61-.28-2.24h0c0-.8-.82-1.31-1.05-1.92h0c-.07-.2-.14-.25-.17-.25h0s-.08.05-.11.12h0a.48.48,0,0,0,0,.12h0s0,0,0,0h0l0,0h0c0-.59.86-.81,1.06-1h0a.65.65,0,0,1,.46-.11h0c.42,0,1,.1,1.46.1h0a.83.83,0,0,1,.61.27h0c.13.13.21.25.28.25h0s.06,0,.1-.06h0c.28-.27.57-.58.91-.58h0a.77.77,0,0,0,.39-.11h0a.34.34,0,0,0,.19-.24h0a.12.12,0,0,0,0-.09h0a.59.59,0,0,0-.23-.12h0l0,0h0a0,0,0,0,1,0,0h0c.13-.15.26-.37.57-.37h0l.24,0h0a1.67,1.67,0,0,1,.82.56h0c.19.22.34.4.5.39h0c.41,0,.57.5,1,.89h0a.27.27,0,0,0,.2.08h0a1.17,1.17,0,0,0,.68-.39h0a7.61,7.61,0,0,0,1.41.39h0a3.59,3.59,0,0,1,1.37.51h0s0,0,0,0h0c-.13.19-.27.71-.49,1.17h0c-.11.25-.21.57-.35.83h0c-.13.26-.3.47-.55.47h0c-.37,0-.71-.35-1-.34h0a.37.37,0,0,0-.27.12h0a1.69,1.69,0,0,0-.44,1h0a.43.43,0,0,0,.09.29h0l.64.6h0a0,0,0,0,1,0,0h0a.11.11,0,0,0,0,.07h0a.73.73,0,0,0,.14.29h0a1,1,0,0,1,.15.49h0a1,1,0,0,1-1,.85h-.1c-.14-.16-.09-.54-.16-.71h0c0-.06,0-.08-.09-.08h0c-.07,0-.12.08-.17.17h0c-.06.09-.1.2-.21.2h0a.26.26,0,0,1-.17-.09h0a4.07,4.07,0,0,1-.34-.45h0c-.11-.15-.23-.26-.33-.25h0a.22.22,0,0,0-.16.08h0a4.23,4.23,0,0,0-.93,2.26h0a2,2,0,0,0,0,.25h0s0,0,0,0h0s-.12.06-.29.17h0a2.94,2.94,0,0,0-.5.37h0a.16.16,0,0,1-.12.06Zm-2.21-3.27a.32.32,0,0,1,0,.14h0c0,.19-.09.46-.09.65h0a.13.13,0,0,0,.08.13h0a.64.64,0,0,0,.19.05h0c.15,0,.33,0,.37.22h0c.07.27.55.68.82.94h0a4.55,4.55,0,0,1,.4.64h0c.15.24.3.44.41.44h0a.12.12,0,0,0,.08,0h0a3.33,3.33,0,0,1,.79-.54h0a1,1,0,0,1,0-.24h0a4.27,4.27,0,0,1,1-2.31h0a.28.28,0,0,1,.2-.09h0c.14,0,.26.13.38.28h0a3.93,3.93,0,0,0,.34.44h0a.15.15,0,0,0,.12.07h0s.1-.07.15-.17h0c.05-.09.11-.2.23-.2h0c.08,0,.12.05.15.12h0a1.33,1.33,0,0,1,0,.24h0c0,.18,0,.38.11.45h.05a1,1,0,0,0,.65-.24h0a.76.76,0,0,0,.28-.54h0a.86.86,0,0,0-.14-.46h0c-.07-.12-.15-.21-.15-.32h0a.11.11,0,0,1,0-.08h0l-.62-.58h0a.47.47,0,0,1-.11-.34h0A1.68,1.68,0,0,1,38.23,44h0a.44.44,0,0,1,.31-.14h0c.33,0,.66.35,1,.34h0c.21,0,.37-.18.5-.43h0c.13-.26.23-.58.35-.84h0c.2-.44.34-.94.48-1.16h0a4.22,4.22,0,0,0-1.33-.47h0a9.4,9.4,0,0,1-1.4-.38h0a1.31,1.31,0,0,1-.71.4h0a.34.34,0,0,1-.24-.11h0c-.4-.4-.57-.87-.92-.87h0c-.21,0-.36-.2-.55-.41h0a1.62,1.62,0,0,0-.79-.54h0l-.22,0h0c-.26,0-.37.16-.5.32h0a.66.66,0,0,1,.21.11h0a.22.22,0,0,1,.06.14h0a.38.38,0,0,1-.22.29h0a.89.89,0,0,1-.42.12h0c-.3,0-.59.29-.87.57h0a.21.21,0,0,1-.14.07h0c-.12,0-.2-.14-.33-.27h0a.72.72,0,0,0-.56-.25h0c-.45,0-1.05-.1-1.46-.1h0a.68.68,0,0,0-.42.09h0c-.19.19-.76.37-1,.71h0a.11.11,0,0,1,.08,0h0c.08,0,.15.08.23.28h0c.21.59,1.05,1.11,1.05,1.95h0c0,.61.28,1.48.28,2.24h0v.17h0a2.32,2.32,0,0,1,.2.6h0a1.64,1.64,0,0,0,.2.55h0l.06,0h0c.08,0,.21-.14.34-.29h0c.14-.15.26-.31.4-.31h0a.15.15,0,0,1,.13.06Zm6-5.5,0,0,0,0Z"/><circle class="cls-2" cx="30.73" cy="40.85" r="1.19"/><circle class="cls-3" cx="29.64" cy="48.23" r="0.81"/><circle class="cls-4" cx="48.73" cy="31.75" r="3.22"/><circle class="cls-4" cx="42.58" cy="41.12" r="2.09"/><circle class="cls-2" cx="35.07" cy="43.78" r="1.26"/><circle class="cls-3" cx="39.66" cy="46.55" r="1.55"/><circle class="cls-2" cx="46.17" cy="45.74" r="1.58"/><circle class="cls-2" cx="45.71" cy="36.47" r="1.12"/><circle class="cls-3" cx="52.23" cy="37.78" r="2.18"/><circle class="cls-3" cx="47.61" cy="40.89" r="1.86"/><circle class="cls-2" cx="50.28" cy="49.65" r="1.86"/><circle class="cls-2" cx="42.56" cy="50.09" r="1.09"/><circle class="cls-3" cx="46.74" cy="49.65" r="0.87"/><circle class="cls-3" cx="36.85" cy="38.17" r="0.87"/><circle class="cls-3" cx="51.72" cy="28.45" r="0.87"/><circle class="cls-4" cx="51.98" cy="44.33" r="2.08"/></svg>