<svg id="图层_1" data-name="图层 1" xmlns="http://www.w3.org/2000/svg" viewBox="0 0 70 70"><defs><style>.cls-1{fill:#69b5e1;}.cls-2{fill:#67e0e3;}.cls-3{fill:#ff9f80;}.cls-4{fill:#ea6a6a;}</style></defs><title>llheat</title><path class="cls-1" d="M56.19,48.45c-.31-.11-1,.27-1,1s-.6,1.16-.6,1.82a.8.8,0,0,0,.43.83c.14.14,0,.62.37.73s.29-.23.44-.63.42-.7.42-1.09.11-1.09-.07-1.27S56.63,48.6,56.19,48.45Z"/><path class="cls-1" d="M43.38,56.18c.14-.15.71.25.56.67a4.71,4.71,0,0,1-.48,1.2c-.2.19-.33.44-.49.6a1.36,1.36,0,0,1-1.18-.21c-.24-.25-.73-.45-.42-1,0,0,.52-1,.92-.92A1.37,1.37,0,0,0,43.38,56.18Z"/><path class="cls-1" d="M37.69,50.84a1.27,1.27,0,0,0-1,0c-.38.12-.58,0-.48-.36s-.25-.65-.25-.81.45-.08.45-.48-.47-.83-.69-.61-.73-.41-.48-.66a1.63,1.63,0,0,1,1.11-.41c.46,0,1,0,.82-.14s0-.82-.28-.82-.24.6-.54.3-.55-1-.89-.63a3.91,3.91,0,0,0-.93,2.58,3.73,3.73,0,0,0-.82.55c-.28.29-.68-.78-.95-1.05s-.75-.67-.83-1-.65-.1-.65-.42.21-.83,0-.83-.63.78-.84.57-.28-1.25-.51-1.25-.65,1.32-1.18,1.61a2.25,2.25,0,0,0,.24.3A3.07,3.07,0,0,1,29.23,49c0,.56-.85,1.1-.85,1.1s-.84.42-.51,1.18.94.24,1.21.51.05.77.38,1.1.72.05.89.22-.44,1-.27,1.2.4,0,.47.07l.78.78c.27.27.71-.31.91-.31s.32.65.67.51-.25-1.08,0-1.29a6.41,6.41,0,0,1,1.54-.5,3.78,3.78,0,0,0,2.05-.39,1.2,1.2,0,0,1,.72-.36.74.74,0,0,0,.35.19,3.37,3.37,0,0,1,.46-.74C38.26,52,37.86,51,37.69,50.84Z"/><path class="cls-1" d="M32.47,55.11c-.09-.13-.17-.26-.23-.25h0a1,1,0,0,0-.32.19h0a.84.84,0,0,1-.42.19h0a.24.24,0,0,1-.19-.08h0c-.27-.26-.72-.71-.78-.78h0c-.05,0-.13,0-.22,0h0a.32.32,0,0,1-.22-.08h0a.16.16,0,0,1,0-.12h0c0-.26.33-.8.33-1h0a.12.12,0,0,0,0-.07h0a.24.24,0,0,0-.18,0h-.24a.66.66,0,0,1-.48-.18h0a.9.9,0,0,1-.22-.59h0a.78.78,0,0,0-.16-.51h0a.31.31,0,0,0-.24-.07H28.5a.66.66,0,0,1-.66-.46h0a1,1,0,0,1-.08-.36h0a1.12,1.12,0,0,1,.61-.86h0a2.89,2.89,0,0,0,.42-.33h0A1.14,1.14,0,0,0,29.2,49h0a3.14,3.14,0,0,0-.32-1.69h0a2.34,2.34,0,0,1-.25-.3h0v0h0l0,0h0c.39-.21.74-1,1-1.39h0c.08-.13.14-.22.23-.23h0c.08,0,.13.09.18.19h0c0,.1.08.24.12.38h0a2.08,2.08,0,0,0,.23.69h0l.06,0h0c.08,0,.22-.14.35-.3h0c.14-.15.26-.31.41-.31h0a.13.13,0,0,1,.12.06h0a.24.24,0,0,1,0,.15h0c0,.18-.08.46-.08.65h0a.13.13,0,0,0,.07.13h0a.8.8,0,0,0,.2.06h0c.15,0,.33,0,.38.22h0c.07.28.56.69.82,1h0a3.94,3.94,0,0,1,.42.64h0c.14.25.3.46.41.45h0a.1.1,0,0,0,.08,0h0a3.69,3.69,0,0,1,.8-.55h0a1.94,1.94,0,0,1,0-.24h0a4.27,4.27,0,0,1,1-2.34h0a.31.31,0,0,1,.21-.11h0c.14,0,.26.14.38.29h0c.11.15.23.33.34.45h0a.18.18,0,0,0,.13.07h0s.1-.07.16-.17h0c0-.09.11-.2.23-.21h0c.07,0,.12.06.15.13h0a1.33,1.33,0,0,1,0,.24h0a.91.91,0,0,0,.11.46h0a.12.12,0,0,1,0,.08h0a.08.08,0,0,1,0,.07h0l-.1,0H36.3a1.52,1.52,0,0,0-1.09.41h0a.2.2,0,0,0-.05.15h0a.53.53,0,0,0,.14.33h0a.38.38,0,0,0,.26.16h0l.09,0h0a.2.2,0,0,1,.16-.07h0a.74.74,0,0,1,.58.7h0c0,.33-.28.36-.4.42h0s-.05,0-.05.06h0s.06.15.13.27h0a.84.84,0,0,1,.14.42h0a.3.3,0,0,1,0,.13h0a1,1,0,0,0,0,.15h0c0,.14.07.21.23.21h0a.7.7,0,0,0,.23,0h0a1.9,1.9,0,0,1,.58-.09h0a.73.73,0,0,1,.5.14h0l0,0,0,0a2.16,2.16,0,0,1,.4,1.13h0a.47.47,0,0,1-.1.32h0a3.28,3.28,0,0,0-.45.73h0s0,0,0,0h0a.89.89,0,0,1-.36-.19h0l-.21.05h0a1.29,1.29,0,0,0-.47.3h0a3.71,3.71,0,0,1-2.07.4h0l-.68.17h0a3,3,0,0,0-.84.32h0a.17.17,0,0,0,0,.12h0c0,.24.21.67.21.94h0a.23.23,0,0,1-.14.24h0a.18.18,0,0,1-.1,0h0c-.16,0-.27-.15-.35-.28Zm.05,0c.08.13.18.25.3.25h0l.08,0h0c.07,0,.1-.08.1-.18h0c0-.25-.21-.68-.21-.94h0a.23.23,0,0,1,.06-.16h0a2.61,2.61,0,0,1,.86-.34h0c.36-.1.69-.17.69-.17h0a3.76,3.76,0,0,0,2-.39h0a1.22,1.22,0,0,1,.73-.36h0a.81.81,0,0,0,.32.17h0a3,3,0,0,1,.45-.73h0a.4.4,0,0,0,.08-.27h0a2.19,2.19,0,0,0-.38-1.09h0a.69.69,0,0,0-.46-.12h0a1.77,1.77,0,0,0-.56.09h0a.77.77,0,0,1-.25,0h0a.28.28,0,0,1-.21-.07h0a.24.24,0,0,1-.08-.2h0a1.11,1.11,0,0,1,0-.17h0a.36.36,0,0,0,0-.11h0a.9.9,0,0,0-.13-.39h0a.93.93,0,0,1-.15-.3h0c0-.06.05-.09.09-.11h0l.16-.07h0a.29.29,0,0,0,.21-.3h0a.66.66,0,0,0-.18-.43h0a.49.49,0,0,0-.34-.21h0a.17.17,0,0,0-.12.05h0a.17.17,0,0,1-.13,0h0c-.22,0-.46-.3-.47-.55h0a.28.28,0,0,1,.08-.2h0a1.63,1.63,0,0,1,1.13-.42h.42a1.06,1.06,0,0,0,.38,0h0s0,0,0,0h0c-.15-.16-.09-.55-.16-.72h0c0-.06,0-.08-.09-.08h0c-.07,0-.13.07-.18.17h0c0,.09-.1.2-.21.21h0a.24.24,0,0,1-.17-.1h0a4.12,4.12,0,0,1-.35-.45h0c-.11-.15-.23-.27-.33-.26h0a.24.24,0,0,0-.17.08h0a4.27,4.27,0,0,0-.94,2.3h0a1,1,0,0,0,0,.25h0s0,0,0,0h0L34.2,49h0a2.71,2.71,0,0,0-.51.38h0a.19.19,0,0,1-.13.06h0c-.17,0-.31-.23-.46-.48h0a5,5,0,0,0-.41-.63h0c-.27-.27-.75-.67-.84-1h0c0-.1-.11-.13-.22-.16h0a1.59,1.59,0,0,1-.33-.08h0a.22.22,0,0,1-.11-.19h0c0-.21.09-.48.09-.65h0c0-.11,0-.15-.09-.15h0c-.09,0-.23.14-.36.29h0c-.14.16-.26.31-.4.32h0a.14.14,0,0,1-.1,0h0a1.31,1.31,0,0,1-.2-.51h0c-.06-.21-.11-.44-.17-.59h0c0-.1-.09-.15-.12-.14h0s-.1.06-.17.19h0c-.08.13-.17.3-.27.48h0a2.5,2.5,0,0,1-.7.91h0a2.75,2.75,0,0,0,.22.26h0A3.11,3.11,0,0,1,29.26,49h0c0,.59-.86,1.12-.86,1.12h0a2.42,2.42,0,0,0-.29.21h0a.86.86,0,0,0-.29.6h0a.93.93,0,0,0,.08.34h0a.59.59,0,0,0,.6.42h0l.31,0h0a.38.38,0,0,1,.29.1h0a.94.94,0,0,1,.18.54h0a.8.8,0,0,0,.2.55h0a.59.59,0,0,0,.43.17h.24a.29.29,0,0,1,.22.07h0a.15.15,0,0,1,0,.11h0c0,.26-.33.8-.33,1h0a.1.1,0,0,0,0,.07h0a.26.26,0,0,0,.18.07h0l.22,0h0a.11.11,0,0,1,.07,0h0l.78.78h0a.22.22,0,0,0,.15.06h0a.84.84,0,0,0,.39-.18h0c.13-.1.25-.2.35-.2h0c.13,0,.19.15.28.28Z"/><path class="cls-1" d="M50,49.75c-.42,0-.66.45-1,.33a2.27,2.27,0,0,0-1.25.18c-.4.14.51-.45.06-.91s-1.75,0-2,.18.2.71-.24.71-.35-.79-.65-.49-.12,1-.42,1.82-.26,1.12-.81,1.67c-.36.36-1,1-1.39,1.43a2.29,2.29,0,0,0,.07,1,.78.78,0,0,0,1,.21c.18-.18-.31-.32-.31-.63s.92-.69,1.9-.8a2.12,2.12,0,0,0,1.47-1.18c.69.17.69-.36.69-.36.82.81,1.72-.4,2.41-.52A2.58,2.58,0,0,0,51,51.44h0C50.76,50.83,50.29,49.75,50,49.75Z"/><path class="cls-1" d="M42.39,55.67a1.51,1.51,0,0,1-.09-.61h0a3.25,3.25,0,0,1,0-.39h0v0c.4-.48,1-1.07,1.4-1.43h0c.54-.54.5-.88.8-1.66h0c.3-.76.11-1.51.43-1.83h0a.21.21,0,0,1,.14-.08h0a.17.17,0,0,1,.13.1h0l.09.2h0c.07.14.15.26.31.26h0c.16,0,.18-.05.18-.14h0c0-.1,0-.23,0-.35h0a.29.29,0,0,1,.08-.21h0a2.52,2.52,0,0,1,1.34-.4h0a1,1,0,0,1,.67.22h0a.44.44,0,0,1,.14.32h0a1.24,1.24,0,0,1-.29.6h0l.06,0h0a3.38,3.38,0,0,1,1-.22h0a.66.66,0,0,1,.28.05h.09c.24,0,.48-.35.87-.35h0v.06c-.35,0-.57.35-.87.36h0a.27.27,0,0,1-.12,0h0a.93.93,0,0,0-.25,0h0a3.32,3.32,0,0,0-1,.22h0l-.1,0h0l0,0h0a.47.47,0,0,1,0-.1h0l.1-.14h0a.7.7,0,0,0,.15-.38h0a.4.4,0,0,0-.13-.28h0a.87.87,0,0,0-.62-.19h0a2.58,2.58,0,0,0-1.3.37h0a.25.25,0,0,0-.05.17h0c0,.11,0,.24,0,.35h0a.22.22,0,0,1-.06.15h0a.26.26,0,0,1-.19.05h0c-.3,0-.37-.34-.46-.49h0c0-.05,0-.07-.07-.07h0s-.05,0-.1.06h0c-.28.27-.11,1-.41,1.81h0c-.29.77-.27,1.13-.82,1.68h0c-.36.36-1,1-1.38,1.43h0a3,3,0,0,0,0,.37h0a1.51,1.51,0,0,0,.09.58h0a.68.68,0,0,0,.61.29h0a.49.49,0,0,0,.34-.1h0a.09.09,0,0,0,0,0h0c0-.05-.07-.12-.16-.21h0a.49.49,0,0,1-.19-.34h0c0-.19.25-.35.6-.5h0A4.72,4.72,0,0,1,45,54.4h0a1.75,1.75,0,0,0,1.09-.63h0a2.34,2.34,0,0,0,.36-.54h0l0,0h0a.81.81,0,0,0,.25,0h0a.37.37,0,0,0,.35-.18h0a.41.41,0,0,0,0-.18h0s0,0,0,0h0a0,0,0,0,1,0,0h0a.86.86,0,0,0,.6.27h0c.61,0,1.25-.7,1.79-.8h0A2.49,2.49,0,0,0,51,51.42h0A7.21,7.21,0,0,0,50.22,50h0a.41.41,0,0,0-.23-.17h0v-.06c.09,0,.18.07.27.19h0a2.23,2.23,0,0,1,.28.44h0A8.72,8.72,0,0,1,51,51.42h0a0,0,0,0,1,0,0h0a2.64,2.64,0,0,1-1.42.95h0c-.51.07-1.15.78-1.8.79h0A.83.83,0,0,1,47.2,53h0a.58.58,0,0,1-.06.15h0a.41.41,0,0,1-.4.21h0l-.24,0h0A2.13,2.13,0,0,1,45,54.46h0a5,5,0,0,0-1.31.32h0c-.35.15-.56.33-.56.45h0a.44.44,0,0,0,.17.3h0c.08.08.18.15.18.25h0a.14.14,0,0,1,0,.1h0a.57.57,0,0,1-.39.11h0a.75.75,0,0,1-.67-.32Z"/><path class="cls-1" d="M9.73,37c-.4-.39,1.64-.61,1.9-.35s.2-.44,1.27-.44,1.51.4,2.42,0a8.85,8.85,0,0,1,3.21-.51c.95,0,1.53-.26,2,.19s1.26-.67,1.5-.91-.31-.79-.31-1.47,2.53-1.11,3.05-1.11a.76.76,0,0,0,.52-1.15c-.32-.31.43-.83-.36-1.19A3.12,3.12,0,0,0,26.74,29c.43-.71,1.31.66,2.15-1h0a2,2,0,0,0-.58-.84,4.24,4.24,0,0,1-.49-1.05A9.29,9.29,0,0,1,25.91,25c-1.27,0-1.83-.64-1.52-1.16a3.49,3.49,0,0,0,.25-1.56c-.58-.13-.85-1.54-.85-1.54a2.27,2.27,0,0,1-2.05-1.09c-.29.58-1.22.39-1.61.78s-.09,1.7-.69,1.7-1.07-.41-1.85-.41-1.08,1.81-1.46,2.19-1.22,0-1.74,0a.57.57,0,0,0-.49.94c.37.37.12.63,0,1.32s-.82.33-.71,1-.11.85-.78.85a2.23,2.23,0,0,0-1.5.62c-.27.27-.82.09-1.29.09s-.69.6-.69.6c-.7-.31-1.52,0-2.26,0s-.76.76-.89,1.28.13.46.42.75.29.23.16.83-.69.4-.69.76.69.36.69.36-.25.58.13.58.56.78.56,1.07,1.09.58,1.21,1,.69,1.25.58,1.76a.09.09,0,0,0,0,0C9.33,37.53,10,37.24,9.73,37Z"/><path class="cls-1" d="M8.79,37.74s0,0,0,0h0a.13.13,0,0,1,0-.06h0s0-.08,0-.13h0a7.09,7.09,0,0,0-.59-1.61h0c-.07-.28-.71-.53-1-.75h0C7.08,35.09,7,35,7,34.93H7a2,2,0,0,0-.13-.64h0c-.09-.23-.23-.41-.4-.4h0a.21.21,0,0,1-.19-.09h0a.27.27,0,0,1,0-.18h0a1.22,1.22,0,0,1,.06-.32h0a1.37,1.37,0,0,1-.3,0H6c-.18,0-.37-.14-.37-.34h0a.24.24,0,0,1,.1-.21h0a1,1,0,0,1,.21-.11h0a.6.6,0,0,0,.38-.45h0a3.09,3.09,0,0,0,.08-.46h0c0-.12,0-.16-.23-.33h0a2.61,2.61,0,0,0-.31-.25h0a.36.36,0,0,1-.16-.3h0a.75.75,0,0,1,0-.24h0A5.2,5.2,0,0,1,6,29.73H6a.71.71,0,0,1,.7-.46h0c.49,0,1-.14,1.53-.14h0a1.94,1.94,0,0,1,.71.13h0c0-.12.28-.59.71-.59h0c.27,0,.57.06.82.06h0a.6.6,0,0,0,.45-.14h0A2.26,2.26,0,0,1,12.39,28h0a1.11,1.11,0,0,0,.59-.12h0a.47.47,0,0,0,.18-.42h0c0-.08,0-.17,0-.28h0a.69.69,0,0,1,0-.13h0c0-.25.18-.32.34-.39h0a.59.59,0,0,0,.39-.47h0a9.16,9.16,0,0,0,.21-.91h0a.5.5,0,0,0-.18-.38h0a.52.52,0,0,1-.16-.37h0a.65.65,0,0,1,.67-.62h0c.35,0,.82.16,1.21.15h0a.7.7,0,0,0,.51-.16h0a6.07,6.07,0,0,0,.57-1.23h0c.22-.5.49-1,.91-1h0c.79,0,1.26.41,1.85.41h0a.32.32,0,0,0,.28-.2h0a1.48,1.48,0,0,0,.11-.48h0a1.88,1.88,0,0,1,.28-1h0a1.75,1.75,0,0,1,.85-.33h0a1,1,0,0,0,.75-.44h0s0,0,0,0h0a0,0,0,0,1,0,0h0l.11.16h0a2.28,2.28,0,0,0,.35.37h0a2.37,2.37,0,0,0,1.57.54h0a0,0,0,0,1,0,0h0a5.6,5.6,0,0,0,.2.71h0c.14.37.36.74.62.8h0s0,0,0,0h0v.24h0a3,3,0,0,1-.25,1.34h0a.47.47,0,0,0-.08.27h0a.71.71,0,0,0,.39.58h0a2.32,2.32,0,0,0,1.18.26h0s.32.24.72.5h0a5.43,5.43,0,0,0,1.14.59h0a0,0,0,0,1,0,0h0l.16.44h0a2.09,2.09,0,0,0,.33.59h0a2.3,2.3,0,0,1,.57.84h0a0,0,0,0,1,0,0h0c-.36.74-.75.91-1.1.9h0c-.25,0-.49-.08-.68-.08h0a.38.38,0,0,0-.36.21h0A3,3,0,0,1,25,30.06h0a.51.51,0,0,1,.32.44h0c0,.2-.11.39-.11.54h0a.23.23,0,0,0,.08.18h0a.55.55,0,0,1,.13.38h0c0,.37-.27.82-.67.82h0a8,8,0,0,0-2.64.65h0c-.24.14-.39.29-.38.43h0c0,.55.37,1,.37,1.32h0A.22.22,0,0,1,22,35h0c-.19.2-.79,1-1.27,1h0a.38.38,0,0,1-.28-.11h0a.91.91,0,0,0-.72-.27h0c-.33,0-.73.08-1.24.08h0a9,9,0,0,0-3.2.51h0a2,2,0,0,1-.81.18h0c-.48,0-.91-.18-1.62-.18h0a1.26,1.26,0,0,0-.84.24h0c-.16.12-.21.25-.33.26h0a.19.19,0,0,1-.12-.07h0a1.13,1.13,0,0,0-.58-.1h0a3.13,3.13,0,0,0-1.21.21h0c-.08,0-.12.09-.11.12h0a.1.1,0,0,0,0,.08h0l0,0,0,0a.18.18,0,0,1-.06-.13h0c0-.07.07-.13.15-.17h0a1.22,1.22,0,0,1,.34-.12h0a3.82,3.82,0,0,1,.9-.11h0a1,1,0,0,1,.62.13h0s.06,0,.08,0h0s.13-.11.29-.24h0a1.39,1.39,0,0,1,.88-.25h0c.72,0,1.15.18,1.62.18h0a1.94,1.94,0,0,0,.79-.18h0a9,9,0,0,1,3.22-.52h0c.5,0,.9-.07,1.24-.07h0a1,1,0,0,1,.77.28h0a.3.3,0,0,0,.23.1h0c.42,0,1-.81,1.23-1h0a.17.17,0,0,0,.05-.13h0c0-.26-.37-.75-.38-1.32h0c0-.19.18-.34.42-.48h0a4.1,4.1,0,0,1,.94-.35h0a8.31,8.31,0,0,1,1.73-.31h0a.56.56,0,0,0,.44-.25h0a.89.89,0,0,0,.17-.51h0a.47.47,0,0,0-.12-.34h0a.31.31,0,0,1-.09-.22h0c0-.18.11-.36.1-.54h0c0-.14-.06-.29-.35-.42h0s0,0,0,0h0s0,0,0,0h0a4.59,4.59,0,0,0,.73-.23h0A2.42,2.42,0,0,0,26.72,29h0a.41.41,0,0,1,.41-.24h0c.21,0,.44.08.68.08h0c.32,0,.67-.14,1-.82h0v0h0a2.15,2.15,0,0,0-.57-.83h0a4,4,0,0,1-.49-1.05h0A8.7,8.7,0,0,1,25.9,25h0c-1,0-1.62-.44-1.63-.91h0a.58.58,0,0,1,.09-.3h0a2.81,2.81,0,0,0,.25-1.31h0v-.21h0c-.3-.09-.51-.48-.64-.84h0a5.14,5.14,0,0,1-.21-.7h0a2.31,2.31,0,0,1-2-1.06h0a1.11,1.11,0,0,1-.76.43h0a1.85,1.85,0,0,0-.83.31h0c-.28.27-.19,1.08-.38,1.48h0a.36.36,0,0,1-.33.23h0c-.62,0-1.09-.41-1.85-.4h0c-.37,0-.64.43-.85.93h0a5.62,5.62,0,0,1-.58,1.24h0a.77.77,0,0,1-.56.19h0c-.4,0-.88-.16-1.21-.16h0a.61.61,0,0,0-.61.56h0a.44.44,0,0,0,.15.33h0a.54.54,0,0,1,.19.42h0a7.65,7.65,0,0,1-.21.92h0a.66.66,0,0,1-.43.52h0c-.17.07-.29.11-.29.33h0a.49.49,0,0,0,0,.12h0a1.68,1.68,0,0,1,0,.29h0a.53.53,0,0,1-.21.47h0a1.18,1.18,0,0,1-.63.13h0a2.24,2.24,0,0,0-1.48.61h0a.64.64,0,0,1-.49.16h0c-.26,0-.56-.06-.82-.06h0a.64.64,0,0,0-.5.29h0a1.65,1.65,0,0,0-.17.29h0s0,0,0,0h0a0,0,0,0,1,0,0h0a1.69,1.69,0,0,0-.71-.13h0c-.5,0-1,.13-1.53.13h0a.66.66,0,0,0-.64.43H6a5.84,5.84,0,0,0-.22.82h0a1.2,1.2,0,0,0,0,.23h0a.28.28,0,0,0,.12.25h0a3.6,3.6,0,0,1,.33.25h0c.16.17.25.23.25.38h0a3.49,3.49,0,0,1-.09.48h0c-.1.47-.47.48-.61.59h0a.18.18,0,0,0-.08.16h0c0,.15.15.24.32.28H6a1.69,1.69,0,0,0,.34,0h0l0,0h0v0h0a1,1,0,0,0-.08.33h0c0,.12,0,.2.18.2h0c.22,0,.36.22.45.45h0a1.9,1.9,0,0,1,.14.66h0s.06.12.16.19h0a4,4,0,0,0,.39.23h0c.28.16.59.33.66.55h0a7,7,0,0,1,.59,1.63h0a.61.61,0,0,1,0,.14h0a3.51,3.51,0,0,0,.59-.26h0c.19-.1.31-.22.31-.3h0A.11.11,0,0,0,9.7,37h0l0,0,0,0a.2.2,0,0,1,.06.14h0c0,.13-.15.25-.34.35h0a4.27,4.27,0,0,1-.65.29h0Z"/><path class="cls-1" d="M29.74,28.86c.28.29-.36,1.73.41,1.73s1.1-.6,1.55-.42.72.57.18,1.1c0,0,.12,1,.71,1s.51.93,1,.93-.41-.7.44-.78.92-.41,1.43-.41a.53.53,0,0,1,0,1c-.68.15-.57,1.1-.12,1.1a5.77,5.77,0,0,0,2.2-.72c.27-.26.36-1.42.81-1.42s.28.93.65,1.31.91.9,1.28.53.55-1.08.89-1.43.48-.71.81-.71,1.69-.18,1.69-.77,1-1.14,1.49-1.14.53-.65.53-1.24.69-.72.69.08a2.12,2.12,0,0,0,1.31-.38c.41-.42.41-.06.41-.84s.82-.4,1.1-.11.72.83,1.08.47.41-.85.84-.85S54,25.17,54,24.73s-.72-.31-1.1-.69-.23-.89-.71-1.37,1.06-.46.86-1-1-.89-.8-1.42,1.28-1.08,1.64-1.43-.06-.51.17-.75-.29-.83-.29-1.16.74-.83.47-1.1-.44-.62-.89-.62-.54.71-1.37.35-.42-1-1.13-1c-.3,0-.5,0-.63-.36A4.83,4.83,0,0,0,49.78,13l-.09,0c-.35.12-.69,1.28-.51,1.1s.64.46.42.67a3.82,3.82,0,0,0-.78,1.49c-.15.65.32.85.23.94a8.19,8.19,0,0,0-.9.74c-.44.44-.89.09-1.29.09s-.38,1.67-.38,2.2.8.76,1.38.41,1.11-.51,1.39-.23.6,1-.07,1a3.43,3.43,0,0,0-1.87.67c-.26.25-.53,1.57-.83,1.87a2,2,0,0,1-1.19.39c-.26,0-.51.5-.51.5-.84-.53-1.65-.26-1.65.09s.32.49.32.78a6.7,6.7,0,0,1-2.24,2.08c-.37,0-2.23-.18-2.67-.18s-.2.27-.87.47-1.57.91-2,.91-.69-.38-1.09-.53a7.9,7.9,0,0,0-2-.63H30l-.45,0A1.72,1.72,0,0,0,29.74,28.86Z"/><path class="cls-1" d="M34.91,33.66a.61.61,0,0,1,.5-.63h0a.49.49,0,0,0,.43-.5h0a.46.46,0,0,0-.42-.48h0a1.16,1.16,0,0,0-.57.17h0a2,2,0,0,1-.86.24h0c-.31,0-.36.13-.36.25h0c0,.12.08.28.09.4h0a.1.1,0,0,1,0,.09h0a.16.16,0,0,1-.12,0h0c-.26,0-.35-.26-.45-.48h0c-.11-.23-.23-.44-.51-.44h0a.74.74,0,0,1-.61-.53h0a2.39,2.39,0,0,1-.13-.51h0a0,0,0,0,1,0,0h0a.85.85,0,0,0,.29-.54h0c0-.23-.19-.4-.46-.51h0l-.16,0h0c-.34,0-.69.45-1.38.45h0a.36.36,0,0,1-.34-.18h0a.79.79,0,0,1-.09-.42h0c0-.28.06-.61.06-.85h0a.5.5,0,0,0-.06-.29h0l0,0,0,0a.46.46,0,0,1,.09.33h0c0,.24-.06.57-.06.85h0a.67.67,0,0,0,.07.39h0a.31.31,0,0,0,.29.15h0c.66,0,1-.45,1.38-.45h0a.57.57,0,0,1,.18,0h0a.67.67,0,0,1,.5.57h0a.84.84,0,0,1-.3.57h0a2.21,2.21,0,0,0,.13.49h0c.11.25.28.48.55.48h0c.32,0,.46.25.56.48h0c.11.24.2.45.4.45h0c.1,0,.1,0,.1-.07h0c0-.09-.08-.25-.09-.4h0c0-.15.11-.28.43-.31h0a2.2,2.2,0,0,0,.83-.23h0a1.06,1.06,0,0,1,.6-.18h0a.51.51,0,0,1,.48.54h0a.56.56,0,0,1-.47.56h0a.56.56,0,0,0-.46.57h0a.58.58,0,0,0,.09.33h0a.3.3,0,0,0,.24.14h0a5.84,5.84,0,0,0,2.18-.71h0a2.86,2.86,0,0,0,.33-.8h0c.11-.32.24-.63.5-.63h0a.26.26,0,0,1,.26.16h0a1.24,1.24,0,0,1,.12.37h0a1.61,1.61,0,0,0,.29.78h0c.28.29.66.66,1,.66h0a.39.39,0,0,0,.27-.12h0c.36-.36.54-1.08.89-1.43h0c.34-.33.47-.72.83-.72h0a4.32,4.32,0,0,0,1-.16h0c.38-.12.7-.32.7-.58h0a1.1,1.1,0,0,1,.57-.82h0a1.92,1.92,0,0,1,.95-.35h0c.24,0,.35-.14.43-.38h0a3.1,3.1,0,0,0,.07-.83h0c0-.32.19-.51.38-.52h0c.19,0,.36.19.37.57h0a2,2,0,0,0,1.25-.37h0A3.41,3.41,0,0,1,48,28h0s0-.14,0-.53h0a.52.52,0,0,1,.12-.38h0a.36.36,0,0,1,.28-.11h0a1.28,1.28,0,0,1,.76.35h0c.21.22.52.59.79.59h0a.3.3,0,0,0,.23-.11h0a3.18,3.18,0,0,0,.4-.55h0a.55.55,0,0,1,.47-.31h0a3.36,3.36,0,0,0,1.1-.58h0a11.46,11.46,0,0,0,1.42-1.09h0c.24-.23.39-.43.38-.51h0c0-.2-.16-.27-.39-.34h0a1.7,1.7,0,0,1-.7-.32h0c-.38-.4-.25-.91-.71-1.37h0a.27.27,0,0,1-.1-.19h0c0-.1.07-.16.16-.22h0l.34-.15h0c.25-.11.47-.23.47-.41h0a.37.37,0,0,0,0-.09h0a1.83,1.83,0,0,0-.47-.65h0a1,1,0,0,1-.36-.63h0a.45.45,0,0,1,0-.16h0c.19-.56,1.29-1.09,1.64-1.44h0a.4.4,0,0,0,.15-.28h0A2.8,2.8,0,0,0,54,18.2h0a.28.28,0,0,1,.09-.19h0a.17.17,0,0,0,.05-.14h0c0-.26-.35-.71-.36-1h0a1.22,1.22,0,0,1,.28-.5h0a1,1,0,0,0,.26-.46h0a.16.16,0,0,0-.05-.12h0c-.27-.27-.44-.61-.87-.61h0a.62.62,0,0,0-.41.22h0a.85.85,0,0,1-.54.24h0a1,1,0,0,1-.43-.11h0a1.05,1.05,0,0,1-.63-.65h0c-.09-.21-.14-.35-.49-.36h0a.57.57,0,0,1-.66-.38h0A5.08,5.08,0,0,0,49.77,13h0l-.07,0h0a.93.93,0,0,0-.37.48h0a2,2,0,0,0-.17.56h0a.17.17,0,0,1,.1,0h0a.41.41,0,0,1,.28.2h0a.63.63,0,0,1,.15.38h0a.27.27,0,0,1-.06.17h0a3.76,3.76,0,0,0-.78,1.48h0a1.13,1.13,0,0,0,0,.25h0A.81.81,0,0,0,49,17h0c.06.1.13.15.14.22h0a.08.08,0,0,1,0,.05h0a7.79,7.79,0,0,0-.89.74h0a.72.72,0,0,1-.54.23h0c-.28,0-.54-.13-.78-.13h0c-.07,0-.13.06-.18.2h0a2.13,2.13,0,0,0-.11.53h0a11.41,11.41,0,0,0-.06,1.25h0v.19h0c0,.34.34.55.74.55h0a1.21,1.21,0,0,0,.6-.17h0a2.06,2.06,0,0,1,1-.37h0a.51.51,0,0,1,.41.15h0a1.16,1.16,0,0,1,.34.71h0a.35.35,0,0,1-.1.25h0a.5.5,0,0,1-.33.1h0a3.44,3.44,0,0,0-1.85.66h0a3,3,0,0,0-.39.91h0a3.1,3.1,0,0,1-.44,1h0a2,2,0,0,1-1.21.4h0c-.11,0-.23.12-.33.24h0a1.57,1.57,0,0,0-.15.25h0a1.75,1.75,0,0,0-1-.3h0a1.06,1.06,0,0,0-.48.11h0a.33.33,0,0,0-.18.25h0c0,.34.31.47.32.78h0a.76.76,0,0,1-.18.32h0a5.66,5.66,0,0,1-.44.49h0a10.21,10.21,0,0,1-1.12,1h0a1.22,1.22,0,0,1-.53.29h0c-.38,0-2.23-.18-2.67-.18h0a.33.33,0,0,0-.33.15h0a1,1,0,0,1-.53.32h0c-.67.19-1.55.91-2,.91h0c-.42,0-.71-.38-1.1-.53h0a8,8,0,0,0-2-.63H30l-.42,0h0a1.69,1.69,0,0,0,.19.94h0l0,0,0,0a1.67,1.67,0,0,1-.21-1h0a0,0,0,0,1,0,0h0l.45,0h2.59a7.74,7.74,0,0,1,2,.63h0c.41.16.7.54,1.08.53h0c.38,0,1.28-.71,2-.91h0a.9.9,0,0,0,.5-.3h0a.42.42,0,0,1,.38-.17h0c.45,0,2.3.18,2.67.18h0a2.59,2.59,0,0,0,.86-.58h0a10.51,10.51,0,0,0,1.06-1h0a1,1,0,0,0,.28-.43h0c0-.26-.3-.4-.31-.78h0c0-.24.31-.42.72-.42h0a1.81,1.81,0,0,1,1,.29h0l.14-.23h0c.1-.12.23-.26.38-.26h0A2,2,0,0,0,46.46,24h0a3.39,3.39,0,0,0,.42-.94h0a3.47,3.47,0,0,1,.4-.94h0a3.57,3.57,0,0,1,1.9-.67h0c.28,0,.36-.13.36-.29h0a1.1,1.1,0,0,0-.31-.67h0a.52.52,0,0,0-.37-.13h0a2.11,2.11,0,0,0-1,.36h0a1.23,1.23,0,0,1-.63.18h0c-.42,0-.8-.22-.8-.61h0v-.19h0a6.56,6.56,0,0,1,.17-1.8h0c.05-.14.13-.24.24-.25h0c.26,0,.52.14.78.14h0a.66.66,0,0,0,.49-.22h0a9,9,0,0,1,.89-.73h0L48.9,17h0a.84.84,0,0,1-.14-.46h0a1.22,1.22,0,0,1,0-.26h0a3.65,3.65,0,0,1,.79-1.51h0a.21.21,0,0,0,.05-.13h0a.59.59,0,0,0-.14-.34h0a.36.36,0,0,0-.23-.18h0s0,0-.06,0h0a.09.09,0,0,1-.05,0h0a0,0,0,0,1,0,0h0a.09.09,0,0,1,0-.05h0a1.83,1.83,0,0,1,.18-.59h0c.1-.23.24-.45.4-.5h0l.09,0h0s0,0,0,0h0a4.32,4.32,0,0,1,.46,1.15h0c.13.31.3.34.6.34h0a.52.52,0,0,1,.55.39h0a1,1,0,0,0,.59.63h0a1.05,1.05,0,0,0,.41.09h0a.68.68,0,0,0,.49-.22h0a.75.75,0,0,1,.46-.23h0c.47,0,.65.37.91.63h0a.21.21,0,0,1,.07.16h0a1,1,0,0,1-.27.5h0c-.14.17-.27.34-.26.46h0c0,.25.35.7.36,1h0a.26.26,0,0,1-.07.19h0a.16.16,0,0,0-.07.14h0c0,.08,0,.16,0,.28h0a.46.46,0,0,1-.16.32h0c-.37.36-1.47.9-1.63,1.42h0a.35.35,0,0,0,0,.14h0a1,1,0,0,0,.34.59h0a1.82,1.82,0,0,1,.49.67h0a.52.52,0,0,1,0,.11h0c0,.18-.15.29-.32.38h0c-.18.09-.38.16-.52.24h0c-.08,0-.13.1-.13.16h0a.23.23,0,0,0,.08.14h0c.49.49.36,1,.72,1.37h0a1.48,1.48,0,0,0,.67.31h0c.23.06.43.15.44.4h0c0,.13-.17.32-.41.55h0a9.6,9.6,0,0,1-.91.75h0a5.7,5.7,0,0,1-1.65.95h0a.49.49,0,0,0-.42.27h0a3.09,3.09,0,0,1-.4.56h0a.4.4,0,0,1-.28.13h0c-.32,0-.62-.39-.84-.6h0a1.15,1.15,0,0,0-.71-.33h0c-.19,0-.33.09-.33.42h0c0,.39,0,.5-.06.58h0a2.38,2.38,0,0,0-.37.28h0a2.07,2.07,0,0,1-1.29.4h0s0,0,0,0h0c0-.39-.16-.53-.31-.53h0c-.15,0-.31.16-.31.45h0a3.28,3.28,0,0,1-.08.85h0a.5.5,0,0,1-.49.43h0a2,2,0,0,0-.92.33h0a1.08,1.08,0,0,0-.54.77h0c0,.32-.36.51-.74.64h0a3.92,3.92,0,0,1-1,.16h0c-.3,0-.44.35-.79.7h0c-.33.34-.51,1-.89,1.43h0A.41.41,0,0,1,40,34h0c-.35,0-.73-.39-1-.67h0c-.29-.3-.27-.9-.42-1.17h0a.23.23,0,0,0-.21-.13h0c-.2,0-.33.27-.44.59h0a2.86,2.86,0,0,1-.35.83h0a5.7,5.7,0,0,1-2.22.72h0c-.25,0-.39-.26-.39-.53Z"/><path class="cls-1" d="M52.67,41.56a2.19,2.19,0,0,0-.14.71c0,.36-.84,1.17-1.07,1.41s.31,1.52,1,1.52c0,0-.24,1,1.89.76a1.37,1.37,0,0,1,.55-.79c.55-.36.47-1.52.47-2a.91.91,0,0,0-.34-.75.65.65,0,0,1-.53-.48l.1-.06A2.68,2.68,0,0,0,52.67,41.56Z"/><path class="cls-1" d="M52.68,45.74a.59.59,0,0,1-.22-.46h0v-.05h0c-.62,0-1.09-.93-1.09-1.37h0a.3.3,0,0,1,.06-.2h0c.12-.12.39-.38.63-.66h0a1.75,1.75,0,0,0,.44-.73h0a2.29,2.29,0,0,1,.14-.72h0l0,0h0a2.11,2.11,0,0,1,.6-.08h0a2.93,2.93,0,0,1,1.39.38h0l0,0h0s0,0,0,0h0l-.08,0h0v0h0l.07.13h0a.68.68,0,0,0,.43.27h0a1,1,0,0,1,.35.77h0v.46h0c0,.57,0,1.31-.49,1.59h0a1.41,1.41,0,0,0-.53.78h0s0,0,0,0h0a3.87,3.87,0,0,1-.56,0h0a1.77,1.77,0,0,1-1.15-.29Zm-.16-.56s0,0,0,0h0a.28.28,0,0,0,0,.08h0c0,.19.1.68,1.31.68h0l.54,0h0a1.35,1.35,0,0,1,.55-.79h0c.4-.25.46-1,.46-1.54h0c0-.18,0-.34,0-.46h0a.92.92,0,0,0-.27-.68h0l0,0h0a.71.71,0,0,1-.56-.5h0a.05.05,0,0,1,0,0h0l0,0h0a2.78,2.78,0,0,0-1.31-.35h0a2.34,2.34,0,0,0-.57.07h0a2.1,2.1,0,0,0-.13.69h0a1.7,1.7,0,0,1-.46.77h0c-.24.28-.5.54-.62.66h0a.23.23,0,0,0,0,.16h0a1.55,1.55,0,0,0,.32.81h0a1,1,0,0,0,.75.49h0l0,0Z"/><path class="cls-1" d="M47.29,35.45a1.22,1.22,0,0,0,.54.12.27.27,0,0,1,.13.51c-.27.1-.88.25-.43.7s.53.63,1,.44.56-.28,1-.19a2.23,2.23,0,0,0,1.19.08c.4-.11,1-1.08,1.36-.93a4.76,4.76,0,0,0,1-1.43c0-.27.49-.74,1.16-.74s.58-1.09.15-1.09-1.09-.05-1.45-.05-.56.33-1,.72-.66.13-1.07-.56-.93-.13-1.17-.35C49,33.08,47.16,34.21,47.29,35.45Z"/><path class="cls-1" d="M47.51,36.8a.46.46,0,0,1-.17-.31h0c0-.14.11-.23.24-.29h0a2.61,2.61,0,0,1,.37-.15h0a.2.2,0,0,0,.15-.19h0a.26.26,0,0,0-.27-.26h0a1.24,1.24,0,0,1-.55-.12h0v0h0v0l0,0h0a.57.57,0,0,1,0-.13h0c0-1.22,1.72-2.28,2.41-2.66h0a.29.29,0,0,0,.22.06h0l.38,0h0a.61.61,0,0,1,.58.31h0c.27.48.49.73.7.73h0a.46.46,0,0,0,.32-.17h0c.39-.39.6-.72,1-.73h0c.36,0,1,0,1.45,0h0c.24,0,.37.28.37.55h0a.73.73,0,0,1-.12.41h0a.5.5,0,0,1-.4.19h0a1.42,1.42,0,0,0-.81.26h0a.67.67,0,0,0-.32.45h0a1.76,1.76,0,0,1-.34.66h0a9.07,9.07,0,0,1-.62.79H52c-.18,0-.41.2-.63.42h0a2,2,0,0,1-.64.52h0a1.32,1.32,0,0,1-.39.06h0a3.71,3.71,0,0,1-.82-.14h0l-.28,0h0a1.83,1.83,0,0,0-.69.22h0a.84.84,0,0,1-.3.08h0c-.26,0-.4-.21-.72-.53Zm-.06-1.32a1.21,1.21,0,0,0,.38.06h0a.32.32,0,0,1,.33.32h0a.26.26,0,0,1-.18.25h0a3.57,3.57,0,0,0-.38.14h0c-.12.07-.2.14-.2.24h0a.39.39,0,0,0,.15.26h0c.33.34.46.52.68.51h0a.75.75,0,0,0,.28-.07h0a2,2,0,0,1,.71-.23h0a2.08,2.08,0,0,1,.3,0h0a3.55,3.55,0,0,0,.8.14h0a1.19,1.19,0,0,0,.37-.06h0a2,2,0,0,0,.62-.5h0a1.21,1.21,0,0,1,.67-.45h.07a8.63,8.63,0,0,0,.61-.77h0a1.86,1.86,0,0,0,.33-.62h0c0-.3.5-.77,1.19-.77h0c.32,0,.45-.27.46-.54h0a.71.71,0,0,0-.09-.34h0a.24.24,0,0,0-.22-.15h0c-.42,0-1.09-.05-1.45-.05h0c-.33,0-.54.31-.93.71h0a.53.53,0,0,1-.37.19h0c-.26,0-.48-.28-.75-.75h0a.55.55,0,0,0-.53-.29h0l-.38,0h0a.38.38,0,0,1-.24-.06h0c-.71.39-2.37,1.45-2.36,2.6h0v.11h0l.13,0Z"/><path class="cls-1" d="M62.84,18.84c.32-.32-.14-.63-.14-.63.36-.35-.22-.49-.71-.49s-1,.73-1.12.87-1.18.87-1.49-.35-3.08-1.48-3.08-1.48A36.1,36.1,0,0,0,53.67,13a1.7,1.7,0,0,0-1.19-.25c-.47,0-1.16-.13-1.51-.13a4.14,4.14,0,0,0-1.19.42,4.83,4.83,0,0,1,.45,1.14c.13.33.33.36.63.36.71,0,.3.66,1.13,1s.92-.35,1.37-.35.62.35.89.62-.47.78-.47,1.1.53.93.29,1.16.18.39-.17.75-1.46.89-1.64,1.43.61.84.8,1.42a.3.3,0,0,1,0,.16,1,1,0,0,0,.73-.16c.35-.35.39,1.16,1.07,1.16s2.1-.55,2.1,0a.93.93,0,0,0,.87,1c.44,0,0-.44.44-.44s.36.71,1.15.71,1.51-.21,2,0l0,0c.35-.56-.35-1.24-.54-1.43s.12-.52.12-.52c.68-.68,1.37.15,1.69-.17s-.2-1.1.16-1.66S62.51,19.16,62.84,18.84Z"/><path class="cls-1" d="M61.4,24.08a1.37,1.37,0,0,0-.6-.11h0c-.42,0-.92.08-1.37.08h0a.82.82,0,0,1-.74-.36h0c-.13-.19-.22-.35-.41-.35h0a.22.22,0,0,0-.17.05h0a.28.28,0,0,0,0,.14h0a.3.3,0,0,1,0,.16h0a.23.23,0,0,1-.22.09h0a1,1,0,0,1-.9-1h0a.16.16,0,0,0-.09-.16h0a.56.56,0,0,0-.28-.05h0c-.46,0-1.24.24-1.7.24h0c-.49,0-.65-.7-.82-1h0c-.06-.11-.11-.17-.15-.17h0a.1.1,0,0,0-.08.05h0a.81.81,0,0,1-.57.16h-.18l0,0h0s0,0,0,0h0a.09.09,0,0,0,0-.05h0a.29.29,0,0,0,0-.09h0a1.83,1.83,0,0,0-.47-.65h0a1,1,0,0,1-.36-.63h0a.45.45,0,0,1,0-.16h0c.19-.56,1.29-1.09,1.64-1.44h0a.4.4,0,0,0,.15-.28h0A2.8,2.8,0,0,0,54,18.2h0a.28.28,0,0,1,.09-.19h0a.17.17,0,0,0,.05-.14h0c0-.26-.35-.71-.36-1h0a1.22,1.22,0,0,1,.28-.5h0a1,1,0,0,0,.26-.46h0a.16.16,0,0,0-.05-.12h0c-.27-.27-.44-.61-.87-.61h0a.67.67,0,0,0-.42.22h0a.8.8,0,0,1-.53.24h0a1,1,0,0,1-.43-.11h0a1.05,1.05,0,0,1-.63-.65h0c-.09-.21-.14-.35-.49-.36h0a.57.57,0,0,1-.66-.38h0A4.6,4.6,0,0,0,49.75,13h0s0,0,0,0h0a0,0,0,0,1,0,0h0a4.41,4.41,0,0,1,1.2-.42h0c.36,0,1.05.13,1.51.13h.11a1.54,1.54,0,0,1,1.1.26h0a35.77,35.77,0,0,1,2.63,3.8h0a8.1,8.1,0,0,1,1.41.28h0c.73.22,1.51.58,1.68,1.22h0c.13.53.4.67.66.68h0a1.32,1.32,0,0,0,.78-.34h0c.14-.14.62-.87,1.14-.88h0a2,2,0,0,1,.56.07h0c.16,0,.29.12.29.25h0a.3.3,0,0,1-.09.2h0a.51.51,0,0,1,.23.38h0a.37.37,0,0,1-.12.27h0a.25.25,0,0,0-.08.19h0c0,.22.21.51.21.84h0a.66.66,0,0,1-.11.37h0a.94.94,0,0,0-.12.49h0c0,.28.08.57.08.82h0a.44.44,0,0,1-.12.35h0a.31.31,0,0,1-.22.09h0c-.24,0-.54-.18-.87-.18h0a.81.81,0,0,0-.6.27h0a.56.56,0,0,0-.08.11h0a.39.39,0,0,0-.09.22h0a.2.2,0,0,0,.06.14h0a1.9,1.9,0,0,1,.64,1.11h0a.64.64,0,0,1-.1.35h0l0,0h0l0,0h0Zm0-.07h0a.54.54,0,0,0,.09-.32h0a1.75,1.75,0,0,0-.62-1.07h0a.24.24,0,0,1-.07-.18h0a.72.72,0,0,1,.18-.38h0a.89.89,0,0,1,.65-.29h0c.35,0,.66.18.87.18h0a.24.24,0,0,0,.18-.07h0a.38.38,0,0,0,.1-.3h0c0-.23-.08-.53-.08-.82h0a1,1,0,0,1,.13-.52h0a.66.66,0,0,0,.1-.34h0c0-.3-.21-.59-.21-.84h0a.31.31,0,0,1,.09-.23h0a.33.33,0,0,0,.11-.23h0a.42.42,0,0,0-.12-.25h0a.89.89,0,0,0-.12-.1h0s0,0,0,0h0a0,0,0,0,1,0,0h0a.28.28,0,0,0,.1-.18h0c0-.07-.09-.14-.24-.19h0a1.93,1.93,0,0,0-.55-.07h0c-.46,0-1,.71-1.1.87h0a1.4,1.4,0,0,1-.82.35h0c-.29,0-.59-.18-.72-.73h0c-.15-.59-.91-1-1.64-1.17h0a9.13,9.13,0,0,0-1.41-.28h0A36.1,36.1,0,0,0,53.64,13h0a1.51,1.51,0,0,0-1-.24h-.11c-.47,0-1.16-.13-1.51-.13h0a4.1,4.1,0,0,0-1.14.4h0a5.15,5.15,0,0,1,.43,1.12h0c.13.31.3.34.6.34h0a.52.52,0,0,1,.55.39h0a1,1,0,0,0,.59.63h0a1.05,1.05,0,0,0,.41.09h0a.68.68,0,0,0,.49-.22h0a.75.75,0,0,1,.46-.23h0c.47,0,.65.37.91.63h0a.21.21,0,0,1,.07.16h0a1,1,0,0,1-.27.5h0c-.14.17-.27.34-.26.46h0c0,.25.35.7.36,1h0a.26.26,0,0,1-.07.19h0a.16.16,0,0,0-.07.14h0c0,.08,0,.16,0,.28h0a.46.46,0,0,1-.16.32h0c-.37.36-1.47.9-1.63,1.42h0a.35.35,0,0,0,0,.14h0a1,1,0,0,0,.34.59h0a1.82,1.82,0,0,1,.49.67h0a.52.52,0,0,1,0,.11h0v0h.14a.72.72,0,0,0,.52-.15h0a.18.18,0,0,1,.13-.06h0c.09,0,.15.09.2.21h0a4.14,4.14,0,0,1,.18.41h0c.14.31.31.6.59.59h0c.44,0,1.22-.24,1.7-.24h0a.72.72,0,0,1,.31.05h0a.26.26,0,0,1,.12.22h0a.89.89,0,0,0,.84.92h0c.11,0,.15,0,.17-.05h0a.25.25,0,0,0,0-.13h0a.32.32,0,0,1,0-.17h0a.27.27,0,0,1,.22-.08h0c.24,0,.33.19.46.37h0a.79.79,0,0,0,.69.34h0c.44,0,.94-.08,1.37-.08h0a1.43,1.43,0,0,1,.6.1Z"/><path class="cls-1" d="M59.43,24c-.79,0-.72-.71-1.15-.71s0,.44-.44.44a.93.93,0,0,1-.87-1c0-.55-1.43,0-2.1,0s-.72-1.51-1.07-1.16a1,1,0,0,1-.73.16c-.09.43-1.3.45-.87.88s.34,1,.71,1.37,1.1.24,1.1.69a.41.41,0,0,1-.08.19,1.6,1.6,0,0,0,.7.21c.46,0,1.3-.05,1.66.32A2.81,2.81,0,0,1,57,26.64a4.63,4.63,0,0,1,.1,1.17c0,.31-.48.68-.18,1.12a6.9,6.9,0,0,0,1.37-1.75c.11-.11.45.32.8.32s.54-.54.34-.54-.34-.67.2-.83.59-.79.78-1,.33.49.62.49.34-.49.34-.49c.75-.75-.2-.58.09-1.1C60.94,23.81,60.13,24,59.43,24Z"/><path class="cls-1" d="M56.85,29a.54.54,0,0,1-.11-.33h0c0-.32.28-.59.28-.81h0a4.52,4.52,0,0,0-.1-1.16h0a2.86,2.86,0,0,0-.65-1.18h0A2,2,0,0,0,55,25.16h-.33a1.65,1.65,0,0,1-.72-.23h0v0h0v0h0a.3.3,0,0,0,.08-.17h0c0-.2-.16-.27-.39-.34h0a1.7,1.7,0,0,1-.7-.32h0c-.38-.4-.25-.91-.71-1.37h0a.27.27,0,0,1-.1-.19h0c0-.18.24-.26.47-.36h0c.23-.1.46-.21.49-.37h0s0,0,0,0h.17a.72.72,0,0,0,.52-.15h0a.18.18,0,0,1,.13-.06h0c.09,0,.15.09.2.21h0a4.14,4.14,0,0,1,.18.41h0c.14.31.31.6.59.59h0c.44,0,1.22-.24,1.7-.24h0a.72.72,0,0,1,.31.05h0a.26.26,0,0,1,.12.22h0a.89.89,0,0,0,.84.92h0c.11,0,.15,0,.17-.05h0a.25.25,0,0,0,0-.13h0a.32.32,0,0,1,0-.17h0a.27.27,0,0,1,.22-.08h0c.24,0,.33.19.46.37h0a.79.79,0,0,0,.69.34h0v.06a.82.82,0,0,1-.74-.36h0c-.13-.19-.22-.35-.41-.35h0a.22.22,0,0,0-.17.05h0a.28.28,0,0,0,0,.14h0a.3.3,0,0,1,0,.16h0a.23.23,0,0,1-.22.09h0a1,1,0,0,1-.9-1h0a.16.16,0,0,0-.09-.16h0a.56.56,0,0,0-.28-.05h0c-.46,0-1.25.24-1.7.24h0c-.49,0-.65-.7-.82-1h0c-.06-.11-.11-.17-.15-.17h0a.1.1,0,0,0-.08.05h0a.81.81,0,0,1-.57.16H53.1c-.07.19-.31.29-.53.39h0c-.23.09-.44.19-.43.3h0a.23.23,0,0,0,.08.14h0c.49.49.36,1,.72,1.37h0a1.48,1.48,0,0,0,.67.31h0c.23.06.43.15.44.4h0a.6.6,0,0,1-.07.18h0a1.54,1.54,0,0,0,.65.19H55a2.06,2.06,0,0,1,1.36.33h0a2.84,2.84,0,0,1,.66,1.2h0a4.75,4.75,0,0,1,.1,1.18h0c0,.26-.28.52-.28.81h0a.59.59,0,0,0,.08.27h0A3.54,3.54,0,0,0,57.7,28h0c.26-.38.46-.73.52-.79h0a.09.09,0,0,1,.07,0h0a1.15,1.15,0,0,1,.33.17h0a.71.71,0,0,0,.42.16h0a.37.37,0,0,0,.28-.14h0a.45.45,0,0,0,.11-.25h0c0-.06,0-.08,0-.08h0c-.13,0-.21-.17-.21-.36h0a.53.53,0,0,1,.4-.53h0c.51-.14.56-.76.77-1h0a.1.1,0,0,1,.09,0h0c.11,0,.18.15.27.27h0c.08.14.18.26.28.25h0c.13,0,.2-.1.25-.22h0a.9.9,0,0,0,.06-.24h0v0h0c.22-.22.29-.36.29-.45h0a.28.28,0,0,0-.13-.2h0a.37.37,0,0,1-.14-.25h0a.41.41,0,0,1,0-.17h0A1.42,1.42,0,0,0,60.8,24h0c-.42,0-.92.08-1.37.08h0V24c.44,0,.94-.08,1.37-.08h0a1.42,1.42,0,0,1,.63.11h0v0h0v0h0a.35.35,0,0,0,0,.17h0a.27.27,0,0,0,.12.2h0a.39.39,0,0,1,.14.25h0c0,.12-.08.26-.3.49h0a2,2,0,0,1-.06.24h0a.36.36,0,0,1-.31.27h0c-.15,0-.25-.15-.34-.28h0c-.08-.13-.17-.26-.21-.25h0s0,0,0,0h0c-.18.16-.24.82-.79,1h0a.47.47,0,0,0-.36.47h0a.48.48,0,0,0,.05.22h0a.14.14,0,0,0,.1.08h0a.11.11,0,0,1,.09,0h0a.16.16,0,0,1,0,.1h0a.5.5,0,0,1-.45.46h0a1,1,0,0,1-.46-.17h0c-.13-.09-.24-.17-.29-.16h0s-.25.4-.5.78h0a3.3,3.3,0,0,1-.87,1h0Z"/><path class="cls-1" d="M57.05,27.81a4.63,4.63,0,0,0-.1-1.17,2.81,2.81,0,0,0-.66-1.19c-.36-.37-1.2-.32-1.66-.32a1.6,1.6,0,0,1-.7-.21,8.56,8.56,0,0,1-2.85,2c-.43,0-.49.49-.84.85s-.44.11-.66-.06a.89.89,0,0,0,.25.78c.45.44.69.41.89.79a5.65,5.65,0,0,1,.58.93.89.89,0,0,1,.56-.21c.33,0,.33-1,.64-1s.47-.47.9-.25.11.62.11,1a1.49,1.49,0,0,1-.56.91c-.26.26.8.51.37.53a.49.49,0,0,0-.46.46c.37.18.8-.4,1.22-.82s.79-.59.9-.7.83-.16,1-.16.13-.85.71-1a.47.47,0,0,0,.15-.06C56.57,28.49,57.05,28.12,57.05,27.81Z"/><path class="cls-1" d="M52.85,31.67s0,0,0,0h0a.72.72,0,0,1,.07-.23h0a.47.47,0,0,1,.42-.25h.06l-.05,0h0L53.15,31h0c-.13-.08-.26-.16-.27-.28h0a.16.16,0,0,1,0-.11h0a1.49,1.49,0,0,0,.55-.89h0c0-.21.11-.43.11-.62h0a.32.32,0,0,0-.21-.31h0a.45.45,0,0,0-.2-.06h0c-.25,0-.4.3-.68.31h0c-.11,0-.2.22-.28.47h0c-.08.24-.16.5-.36.51h0a.91.91,0,0,0-.54.2h0s0,0,0,0h0l0,0h0a5.83,5.83,0,0,0-.58-.93h0c-.18-.36-.43-.33-.88-.78h0a.9.9,0,0,1-.27-.65h0a.81.81,0,0,1,0-.16h0l0,0h0a.7.7,0,0,0,.38.18h0a.3.3,0,0,0,.23-.11h0a3.18,3.18,0,0,0,.4-.55h0a.55.55,0,0,1,.47-.31h0a4.55,4.55,0,0,0,1.39-.77h0A7.15,7.15,0,0,0,53.9,24.9h0a0,0,0,0,1,.05,0h0a1.51,1.51,0,0,0,.68.21H55a2.06,2.06,0,0,1,1.36.33h0a2.84,2.84,0,0,1,.66,1.2h0a4.75,4.75,0,0,1,.1,1.18h0c0,.26-.28.52-.28.81h0a.48.48,0,0,0,.1.29h0s0,0,0,0h0s0,0,0,0h0a.37.37,0,0,1-.16.07h0c-.41.09-.48.58-.58.83h0c0,.08-.07.15-.14.15h-.38a.94.94,0,0,0-.63.16h0a9.2,9.2,0,0,0-.9.71h0c-.36.35-.73.85-1.09.85h0a.29.29,0,0,1-.16,0Zm.16,0c.3,0,.68-.48,1.05-.84h0a7.92,7.92,0,0,1,.9-.7h0a.93.93,0,0,1,.67-.18H56s.05,0,.08-.11h0c0-.08.06-.19.1-.31h0a.77.77,0,0,1,.52-.56h0l.12,0h0a.58.58,0,0,1-.09-.3h0c0-.32.28-.59.28-.81h0a4.52,4.52,0,0,0-.1-1.16h0a2.86,2.86,0,0,0-.65-1.18h0A2,2,0,0,0,55,25.16h-.33a1.69,1.69,0,0,1-.69-.21h0a7.47,7.47,0,0,1-1.44,1.23h0a4.68,4.68,0,0,1-1.42.79h0a.49.49,0,0,0-.42.27h0a3.09,3.09,0,0,1-.4.56h0a.4.4,0,0,1-.28.13h0a.61.61,0,0,1-.37-.16h0a.34.34,0,0,0,0,.1h0a.83.83,0,0,0,.25.6h0c.44.44.69.41.9.8h0a9.33,9.33,0,0,1,.57.9h0a.87.87,0,0,1,.54-.19h0c.13,0,.22-.22.3-.47h0c.08-.25.15-.51.34-.52h0c.23,0,.38-.29.68-.3h0a.53.53,0,0,1,.23.06h0a.4.4,0,0,1,.24.37h0c0,.21-.11.43-.11.62h0a1.55,1.55,0,0,1-.57.94h0a.09.09,0,0,0,0,.06h0c0,.05.08.13.2.19h0c.1.07.23.12.28.17h0a.07.07,0,0,1,0,.05h0a.08.08,0,0,1-.05.05h-.09a.38.38,0,0,0-.36.22h0a.36.36,0,0,0-.06.19h0l.11,0Z"/><path class="cls-1" d="M42.37,32.63c-.33.33-.12.93-.12,1.53s-.08.53-.08,1.27.38.67.38,1.15-.35.53-.35,1,.21.21.91,0A8,8,0,0,0,45.37,36c.34-.34.18-.63.18-1.05a6,6,0,0,1,.29-1.27c.1-.41-.38-.74-.57-.93s.37-.91.37-.91c1-.08.92-.8.92-.8-.62,0-1-.24-.6-.63s-.15-.64-.45-.86a.41.41,0,0,1-.39.24c-.51,0-1.49.54-1.49,1.14,0,.42-.7.63-1.22.72C42.5,32,42.56,32.44,42.37,32.63Z"/><path class="cls-1" d="M42.21,37.77a.39.39,0,0,1,0-.21h0a.81.81,0,0,1,.18-.5h0a.75.75,0,0,0,.17-.48h0a.72.72,0,0,0-.18-.46h0a1.06,1.06,0,0,1-.2-.69h0c0-.74.08-.68.08-1.27h0c0-.33-.06-.67-.06-1h0a.8.8,0,0,1,.19-.59h0a.54.54,0,0,0,.11-.38h0a2.52,2.52,0,0,0-.08-.55h0s0,0,0,0h0a3.19,3.19,0,0,0,.8-.23h0c.24-.12.4-.27.4-.46h0a1.1,1.1,0,0,1,.57-.82h0a1.92,1.92,0,0,1,.95-.35h0a.37.37,0,0,0,.36-.22h0s0,0,0,0h0c.23.17.54.43.55.69h0a.26.26,0,0,1-.1.21h0a.46.46,0,0,0-.15.27h0c0,.09.07.17.2.23h0a1.48,1.48,0,0,0,.53.08h0l0,0h0v0h0c0,.09-.05.73-.93.81h0s-.11.15-.2.28h0a1.26,1.26,0,0,0-.2.49h0a.12.12,0,0,0,0,.09h0c.16.17.59.45.6.84h0a.5.5,0,0,1,0,.12h0A5.87,5.87,0,0,0,45.58,35h0c0,.2,0,.38,0,.55h0a.69.69,0,0,1-.23.52h0a7.63,7.63,0,0,1-2.28,1.56h0a6.59,6.59,0,0,1-.78.24h0a.12.12,0,0,1-.12-.07Zm0-4.57c0,.28.06.62.06,1h0c0,.6-.08.54-.08,1.27h0a1.06,1.06,0,0,0,.19.65h0a.79.79,0,0,1,.19.5h0a.85.85,0,0,1-.18.52h0a.8.8,0,0,0-.17.46h0a.36.36,0,0,0,0,.18h0a.07.07,0,0,0,.07,0h0a7,7,0,0,0,.77-.24h0A7.83,7.83,0,0,0,45.34,36h0a.59.59,0,0,0,.21-.48h0c0-.16,0-.34,0-.55h0a5.72,5.72,0,0,1,.3-1.27h0a.45.45,0,0,0,0-.11h0c0-.34-.4-.62-.57-.8h0a.15.15,0,0,1,0-.13h0a2.07,2.07,0,0,1,.42-.82h0s0,0,0,0h0c.81-.07.88-.6.88-.73h0A1.45,1.45,0,0,1,46,31h0a.31.31,0,0,1-.23-.28h0a.49.49,0,0,1,.17-.31h0a.25.25,0,0,0,.07-.17h0c0-.2-.26-.45-.49-.62h0a.44.44,0,0,1-.4.23h0a2,2,0,0,0-.92.33h0a1.08,1.08,0,0,0-.54.77h0c0,.23-.19.4-.43.51h0a3.19,3.19,0,0,1-.78.24h0a2.34,2.34,0,0,1,.08.53h0a.58.58,0,0,1-.14.42h0a.77.77,0,0,0-.17.55Z"/><path class="cls-1" d="M49.19,30.19c-.21-.22-.45-.22-.45,0s-.52.66-.64.95a.47.47,0,0,0,.38.6c.2,0,.14.6.52.6a1.6,1.6,0,0,0,.59-.14.75.75,0,0,1,.29-.44,2.24,2.24,0,0,0-.37-.78C49.25,30.75,49.41,30.41,49.19,30.19Z"/><path class="cls-1" d="M48.69,32.18c-.06-.11-.09-.23-.13-.31h0c0-.06-.05-.08-.08-.08h0a.5.5,0,0,1-.43-.49h0a.39.39,0,0,1,0-.15h0a2.56,2.56,0,0,1,.37-.5h0a1,1,0,0,0,.27-.44h0a.22.22,0,0,1,0-.16h0a.19.19,0,0,1,.13-.05h0a.5.5,0,0,1,.33.17h0l0,0,0,0a.71.71,0,0,1,.15.41h0a.64.64,0,0,0,.16.4h0a2.14,2.14,0,0,1,.38.79h0a.06.06,0,0,1,0,0h0a.66.66,0,0,0-.28.42h0s0,0,0,0h0a1.71,1.71,0,0,1-.61.14h0a.34.34,0,0,1-.3-.21Zm-.07-.34c0,.06.05.13.08.21h0c.06.15.13.28.3.28h0a1.82,1.82,0,0,0,.57-.13h0a.7.7,0,0,1,.27-.43h0a2,2,0,0,0-.35-.74h0a.7.7,0,0,1-.18-.44h0a.61.61,0,0,0-.14-.38h0a.46.46,0,0,0-.28-.15h0c-.07,0-.12,0-.12.15h0c0,.14-.14.3-.28.48h0a2.63,2.63,0,0,0-.36.49h0a.5.5,0,0,0,0,.12h0a.42.42,0,0,0,.13.3h0a.36.36,0,0,0,.24.13h0c.07,0,.11.05.14.11Z"/><path class="cls-1" d="M48.26,29.24c-.33,0-1,.32-1,.54s.22.71.22,1,.11.56.63.51a.47.47,0,0,1,0-.16c.12-.29.64-.71.64-.95a.16.16,0,0,1,.08-.16C48.73,29.79,48.52,29.24,48.26,29.24Z"/><path class="cls-1" d="M47.52,31.18a.59.59,0,0,1-.1-.37h0c0-.31-.22-.8-.22-1h0c0-.15.19-.27.41-.38h0a1.63,1.63,0,0,1,.65-.19h0v.06a1.79,1.79,0,0,0-.63.18h0c-.21.11-.37.25-.37.33h0c0,.2.22.7.22,1h0c0,.25.08.48.48.48h.09a.68.68,0,0,1,0-.14h0a2.56,2.56,0,0,1,.37-.5h0a1,1,0,0,0,.27-.44h0a.21.21,0,0,1,.07-.18h0a2.85,2.85,0,0,0-.2-.47h0c-.09-.17-.21-.29-.32-.29h0v-.06c.16,0,.28.15.37.32h0a2.9,2.9,0,0,1,.22.51h0s0,0,0,0h0a.15.15,0,0,0-.06.14h0c0,.14-.14.3-.28.48h0a2.63,2.63,0,0,0-.36.49h0a.5.5,0,0,0,0,.12h0v0h0a0,0,0,0,1,0,0H48a.53.53,0,0,1-.44-.18Z"/><path class="cls-1" d="M50.72,29.3c-.2-.38-.44-.35-.89-.79a.89.89,0,0,1-.25-.78c-.15-.13-.3-.3-.42-.41-.28-.29-1.1-.66-1.1.11s0,.42-.41.84a2.12,2.12,0,0,1-1.31.38c0-.8-.69-.68-.69-.08a2.33,2.33,0,0,1-.14,1c.3.22.71.6.45.86s0,.63.6.63c0,0,0,.72-.92.8,0,0-.56.72-.37.91s.67.52.57.93A6,6,0,0,0,45.55,35c0,.22,0,.4,0,.58.29,0,.8-.06,1.07-.06s.5.17.86,0l-.23-.08c-.13-1.24,1.67-2.37,2.39-2.77a.4.4,0,0,1-.1-.32s0-.1,0-.14a1.6,1.6,0,0,1-.59.14c-.38,0-.32-.6-.52-.6a.48.48,0,0,1-.4-.44c-.52.05-.63-.23-.63-.51s-.22-.82-.22-1,.7-.54,1-.54.47.55.56.81c.09-.05.23,0,.37.14s.06.56.32.81a2.24,2.24,0,0,1,.37.78c.35-.28.91-.4,1-.85a1.31,1.31,0,0,1,.4-.7A5.65,5.65,0,0,0,50.72,29.3Z"/><path class="cls-1" d="M46.66,35.52c-.27,0-.77,0-1.07.06h0s0,0,0,0h0v0h0c0-.16,0-.34,0-.55h0a5.72,5.72,0,0,1,.3-1.27h0a.45.45,0,0,0,0-.11h0c0-.34-.4-.62-.57-.8h0a.15.15,0,0,1,0-.13h0a2.07,2.07,0,0,1,.42-.82h0s0,0,0,0h0c.81-.07.88-.6.88-.73h0A1.45,1.45,0,0,1,46,31h0a.31.31,0,0,1-.23-.28h0a.49.49,0,0,1,.17-.31h0a.25.25,0,0,0,.07-.17h0c0-.2-.29-.47-.52-.64h0a.06.06,0,0,1,0,0h0a2.26,2.26,0,0,0,.14-1h0c0-.32.19-.51.38-.52h0c.19,0,.36.19.37.57h0a1.94,1.94,0,0,0,1.25-.37h0A3.41,3.41,0,0,1,48,28h0s0-.14,0-.53h0a.52.52,0,0,1,.12-.38h0a.36.36,0,0,1,.28-.11h0a1.28,1.28,0,0,1,.76.35h0a5.28,5.28,0,0,0,.41.41h0a0,0,0,0,1,0,0h0c0,.05,0,.1,0,.15h0a.83.83,0,0,0,.25.6h0c.44.44.69.41.9.8h0l0,0h0c-.18-.36-.43-.33-.88-.78h0a.9.9,0,0,1-.27-.65h0a.61.61,0,0,1,0-.14h0c-.15-.13-.29-.29-.41-.4h0a1.22,1.22,0,0,0-.71-.34h0c-.19,0-.33.1-.33.43h0c0,.39,0,.5-.06.58h0a2.38,2.38,0,0,0-.37.28h0a2.07,2.07,0,0,1-1.29.4h0s0,0,0,0h0c0-.39-.16-.53-.31-.53h0c-.15,0-.31.16-.31.45h0a2.58,2.58,0,0,1-.14,1h0c.23.17.52.42.53.67h0a.26.26,0,0,1-.1.21h0a.46.46,0,0,0-.15.27h0c0,.09.07.17.2.23h0a1.48,1.48,0,0,0,.53.08h0l0,0h0v0h0c0,.09-.05.73-.93.81h0s-.11.15-.2.28h0a1.26,1.26,0,0,0-.2.49h0a.12.12,0,0,0,0,.09h0c.17.17.59.45.6.84h0a.5.5,0,0,1,0,.12h0A5.87,5.87,0,0,0,45.58,35h0c0,.2,0,.37,0,.54h0c.3,0,.78,0,1,0h0c.23,0,.4.09.59.09h0l.16,0h0c-.09,0-.13-.05-.13-.06h0l0,0h0a.57.57,0,0,1,0-.13h0c0-1.2,1.67-2.24,2.38-2.64h0a.54.54,0,0,1-.08-.32h0a.28.28,0,0,1,0-.09h0a1.75,1.75,0,0,1-.56.12h0a.34.34,0,0,1-.31-.21h0c-.06-.11-.09-.23-.13-.31h0c0-.06-.05-.08-.08-.08h0a.51.51,0,0,1-.43-.44H48a.53.53,0,0,1-.44-.18h0a.59.59,0,0,1-.1-.37h0c0-.31-.22-.8-.22-1h0c0-.15.19-.27.41-.38h0a1.63,1.63,0,0,1,.65-.19h0c.16,0,.28.15.37.32h0a3.71,3.71,0,0,1,.21.48h0a.5.5,0,0,1,.33.17h0a.71.71,0,0,1,.15.41h0a.64.64,0,0,0,.16.4h0a2,2,0,0,1,.36.75h0c.37-.27.89-.39,1-.8h0a1.23,1.23,0,0,1,.4-.71h0a7.8,7.8,0,0,0-.58-.91h0l0,0a6,6,0,0,1,.58.94h0a0,0,0,0,1,0,0h0a1.25,1.25,0,0,0-.39.69h0c-.12.48-.69.59-1,.87h0a0,0,0,0,1,0,0h0a2.14,2.14,0,0,0-.36-.76h0a.7.7,0,0,1-.18-.44h0a.61.61,0,0,0-.14-.38h0a.46.46,0,0,0-.28-.15h-.08s0,0,0,0h0a3.19,3.19,0,0,0-.21-.5h0c-.09-.17-.21-.29-.32-.29h0a1.79,1.79,0,0,0-.63.18h0c-.21.11-.37.25-.37.33h0c0,.2.22.7.22,1h0c0,.25.08.48.48.48h.14a0,0,0,0,1,0,0h0a.45.45,0,0,0,.37.41h0c.07,0,.11.05.14.11h0c0,.06.05.13.08.21h0c.06.15.13.28.3.28h0a1.59,1.59,0,0,0,.58-.14h0s0,0,0,0h0a0,0,0,0,1,0,0h0s0,.08,0,.13h0a.39.39,0,0,0,.09.3h0a0,0,0,0,1,0,0h0a0,0,0,0,1,0,0h0c-.7.38-2.39,1.45-2.38,2.61h0v.11h0l.2.07h0a0,0,0,0,1,0,0h0l0,0h0a.72.72,0,0,1-.28,0h0c-.21,0-.37-.09-.59-.09Z"/><path class="cls-1" d="M54.72,39.6a2.76,2.76,0,0,1-.76-.79c-.23-.49-.43-1.92-1.08-1.92s-1.32-.19-1-.54a1.36,1.36,0,0,0,.16-.17c-.39-.15-1,.82-1.36.93A2.23,2.23,0,0,1,49.51,37a.93.93,0,0,0-.65,0l.61.63c.28.28.44.12.78.24s.49,1.29.75,1.29.9-.51,1.11-.3.56.77,0,.83-.69.14-.6.46a6.36,6.36,0,0,0,.86,1.15s.38-.1.5.13a2.62,2.62,0,0,1,1.32.15A3.74,3.74,0,0,1,54.72,39.6Z"/><path class="cls-1" d="M54.22,41.69a2.69,2.69,0,0,0-1-.18h0l-.35,0h0l0,0h0a.3.3,0,0,0-.29-.13h0a.79.79,0,0,0-.17,0h0a6.26,6.26,0,0,1-.86-1.16h0a1,1,0,0,1,0-.16h0a.25.25,0,0,1,.17-.24h0a1.87,1.87,0,0,1,.48-.1h0c.19,0,.23-.1.24-.21h0a1.06,1.06,0,0,0-.3-.57h0a.16.16,0,0,0-.12,0h0a1.34,1.34,0,0,0-.5.17h0a1.34,1.34,0,0,1-.47.18h0c-.09,0-.15-.09-.21-.2h0c-.06-.12-.11-.27-.17-.42h0c-.11-.31-.24-.63-.38-.67h0a1.35,1.35,0,0,0-.41-.06h0a.57.57,0,0,1-.38-.19h0l-.62-.63h0s0,0,0,0h0s0,0,0,0h0a1,1,0,0,1,.38-.09h0a2.08,2.08,0,0,1,.3,0h0a3.55,3.55,0,0,0,.8.14h0a1.19,1.19,0,0,0,.37-.06h0a2,2,0,0,0,.62-.5h0a1.21,1.21,0,0,1,.67-.45h0l.09,0h0s0,0,0,0h0s0,0,0,0h0l-.17.18h0a.22.22,0,0,0-.08.15h0c0,.09.12.18.32.24h0a2.63,2.63,0,0,0,.72.09h0c.35,0,.57.38.73.79h0c.16.42.26.91.37,1.15h0a3.19,3.19,0,0,0,.76.77h0l0,0,0,0a.06.06,0,0,1,0,0h0a3.87,3.87,0,0,0-.51,1.78h0a2.45,2.45,0,0,0,0,.27h0a0,0,0,0,1,0,0h0Zm0-.07a1.85,1.85,0,0,1,0-.23h0a4,4,0,0,1,.5-1.79h0a2.71,2.71,0,0,1-.75-.78h0c-.12-.25-.22-.73-.38-1.14h0c-.16-.42-.37-.76-.67-.76h0a2.83,2.83,0,0,1-.74-.09h0c-.2-.06-.36-.15-.36-.3h0a.29.29,0,0,1,.1-.2h0L52,36.2h0c-.18,0-.41.2-.63.42h0a2,2,0,0,1-.64.52h0a1.32,1.32,0,0,1-.39.06h0a3.71,3.71,0,0,1-.82-.14h0l-.28,0h0a.85.85,0,0,0-.31.06h0l.58.6h0a.54.54,0,0,0,.35.17h0a1.5,1.5,0,0,1,.42.06h0c.14,0,.24.25.33.48h0c.09.22.18.47.26.64h0c0,.11.11.17.15.16h0a1.22,1.22,0,0,0,.45-.17h0a1.5,1.5,0,0,1,.52-.17h0a.19.19,0,0,1,.16.06h0a1,1,0,0,1,.32.61h0c0,.13-.09.25-.3.27h0a1.68,1.68,0,0,0-.46.1h0a.18.18,0,0,0-.13.18h0a.93.93,0,0,0,0,.14h0a3,3,0,0,0,.46.68h0c.17.21.33.39.38.44h0l.17,0h0a.39.39,0,0,1,.34.15h0a1.83,1.83,0,0,1,.33,0h0a2.61,2.61,0,0,1,.93.17Z"/><path class="cls-1" d="M55.36,40.24c0-.13-.31-.37-.64-.64a3.74,3.74,0,0,0-.49,2.06l.41.19A1.43,1.43,0,0,0,55.36,40.24Z"/><path class="cls-1" d="M54.62,41.88l-.4-.19h0l0,0h0c0-.1,0-.19,0-.28h0a3.93,3.93,0,0,1,.51-1.81h0l0,0h0l.45.38h0c.11.11.2.2.2.29h0c0,.07,0,.22,0,.4h0a1.36,1.36,0,0,1-.77,1.24h0Zm0-.06a1.3,1.3,0,0,0,.73-1.18h0c0-.17,0-.32,0-.4h0a.57.57,0,0,0-.19-.25h0l-.41-.35h0a4,4,0,0,0-.49,1.75h0a2.11,2.11,0,0,0,0,.25h0a2.13,2.13,0,0,1,.37.18Z"/><path class="cls-1" d="M42.37,38.38c.23.23.69,1,.89,1.21s.94.94,1.55.94,1.21-.44,1.33-.14a1.3,1.3,0,0,0,.87.87c.52.1.56.2,1-.06s.82-.4.64-.85-1-.56-.81-1a2.48,2.48,0,0,0,.17-1c0-.25.13-.46.3-.29s.34.49.68.33-.07-.9-.31-1.24l-.19.08c-.46.19-.55,0-1-.44s.16-.6.43-.7a.27.27,0,0,0-.13-.51,1.3,1.3,0,0,1-.31,0c-.36.13-.55,0-.86,0s-.78,0-1.07.06a.68.68,0,0,1-.22.47,8,8,0,0,1-2.26,1.55c-.34.1-.57.2-.71.23C42.32,38,42.24,38.25,42.37,38.38Z"/><path class="cls-1" d="M47,41.29a1.29,1.29,0,0,1-.9-.89h0a.16.16,0,0,0-.15-.09h0a8.86,8.86,0,0,1-1.15.25h0c-.64,0-1.36-.74-1.57-1h0c-.21-.21-.67-1-.89-1.2h0a.26.26,0,0,1-.08-.21h0a1.12,1.12,0,0,1,.1-.4h0l0,0h0c.13,0,.36-.13.7-.23h0A7.83,7.83,0,0,0,45.34,36h0a.6.6,0,0,0,.21-.45h0a0,0,0,0,1,0,0h0c.3,0,.81-.06,1.08-.06h0c.23,0,.4.09.59.09h0a.91.91,0,0,0,.26,0h0a1.37,1.37,0,0,0,.31,0h0a.32.32,0,0,1,.33.32h0a.26.26,0,0,1-.18.25h0a3.57,3.57,0,0,0-.38.14h0c-.12.07-.2.14-.2.24h0a.39.39,0,0,0,.15.26h0c.33.34.46.52.68.51h0a.75.75,0,0,0,.28-.07h0l.19-.08h0a2.17,2.17,0,0,1,.43,1h0a.26.26,0,0,1-.13.26h0a.49.49,0,0,1-.19.05h0c-.25,0-.39-.26-.52-.39h0a.14.14,0,0,0-.1,0h0s-.07,0-.1.09h0a.5.5,0,0,0,0,.23h0a2.35,2.35,0,0,1-.19,1h0a.44.44,0,0,0,0,.1h0c0,.15.15.26.35.39h0a1.19,1.19,0,0,1,.49.48h0a.68.68,0,0,1,0,.23h0c0,.32-.32.45-.7.66h0a1,1,0,0,1-.5.16h0a3.89,3.89,0,0,1-.55-.1Zm-.84-.92a1.26,1.26,0,0,0,.85.86h0a4.08,4.08,0,0,0,.54.1h0a1,1,0,0,0,.47-.16h0c.39-.21.67-.34.67-.6h0a.63.63,0,0,0-.05-.21h0a1.08,1.08,0,0,0-.47-.45h0c-.19-.12-.37-.24-.37-.44h0a.35.35,0,0,1,0-.13h0a2.44,2.44,0,0,0,.17-1h0c0-.19.07-.38.21-.39h0a.21.21,0,0,1,.14.07h0c.14.15.28.38.48.37h0a.34.34,0,0,0,.16,0h0c.07,0,.1-.09.1-.2h0a2.26,2.26,0,0,0-.4-1h0l-.17.07h0a.84.84,0,0,1-.3.08h0c-.26,0-.4-.21-.72-.53h0a.46.46,0,0,1-.17-.31h0a.34.34,0,0,1,.23-.29h0a3.28,3.28,0,0,1,.38-.15h0a.2.2,0,0,0,.15-.19h0a.26.26,0,0,0-.27-.26h0a1.3,1.3,0,0,1-.31,0h0a.71.71,0,0,1-.27,0h0c-.21,0-.37-.09-.59-.09h0c-.26,0-.74,0-1,.06h0a.68.68,0,0,1-.22.46h0a7.63,7.63,0,0,1-2.28,1.56h0c-.32.09-.54.19-.68.23h0a1,1,0,0,0-.1.36h0a.24.24,0,0,0,.06.17h0l0,0,0,0c.24.24.69,1,.9,1.21h0c.2.21.93.93,1.52.92h0A11.69,11.69,0,0,0,46,40.25h0a.2.2,0,0,1,.2.12Z"/><path class="cls-1" d="M51.14,45.86c-.38,0-.85.06-.85.5s.09.55-.24.89-.09.78-.32,1A2,2,0,0,0,49.35,50a1.3,1.3,0,0,1,.64-.28c.3,0,.77,1.08,1,1.68.31-.31.42-.64.78-.75s.33-.71.67-.71.29-.88.49-1.08.71-.87.71-.87a1.6,1.6,0,0,1,.54-1.67,1,1,0,0,0,.21-.39c-2.13.22-1.89-.76-1.89-.76a.74.74,0,0,1-.42-.15C51.84,45.36,51.4,45.86,51.14,45.86Z"/><path class="cls-1" d="M51,51.46a0,0,0,0,1,0,0h0A7.41,7.41,0,0,0,50.22,50h0a.41.41,0,0,0-.23-.17h0a1.29,1.29,0,0,0-.63.28h0s0,0,0,0h0a1,1,0,0,1-.1-.46h0a2.27,2.27,0,0,1,.49-1.35h0c.1-.1.1-.26.11-.45h0a.76.76,0,0,1,.21-.56h0a.64.64,0,0,0,.24-.49h0c0-.1,0-.22,0-.38h0a.46.46,0,0,1,.31-.44h0a1.41,1.41,0,0,1,.58-.09h0v.06a1.69,1.69,0,0,0-.56.08h0a.39.39,0,0,0-.26.39h0c0,.16,0,.27,0,.38h0a.68.68,0,0,1-.26.53h0a.74.74,0,0,0-.19.53h0a.66.66,0,0,1-.13.48h0a2.4,2.4,0,0,0-.47,1.31h0a1,1,0,0,0,.08.4h0a1.21,1.21,0,0,1,.63-.27h0c.09,0,.18.07.27.19h0a2.23,2.23,0,0,1,.28.44h0a11.12,11.12,0,0,1,.47,1h0c.27-.29.39-.61.75-.72h0c.16,0,.24-.22.32-.38h0c.08-.17.17-.33.36-.34h0a.18.18,0,0,0,.16-.12h0a1.13,1.13,0,0,0,.1-.31h0a1.55,1.55,0,0,1,.21-.63h0c.18-.18.63-.76.7-.85h0a1.5,1.5,0,0,1-.07-.45h0a1.69,1.69,0,0,1,.62-1.24h0a.88.88,0,0,0,.18-.33h0l-.51,0h0a1.77,1.77,0,0,1-1.15-.29h0a.59.59,0,0,1-.22-.46h0v-.05h0a.91.91,0,0,1-.38-.13h0a3.89,3.89,0,0,1-.44.49h0a.88.88,0,0,1-.5.3h0v-.06a.91.91,0,0,0,.46-.28h0a4.17,4.17,0,0,0,.45-.52h.05a.73.73,0,0,0,.4.13h0l0,0h0s0,0,0,0h0a.28.28,0,0,0,0,.08h0c0,.19.1.68,1.31.68h0l.56,0h0v0h0a1,1,0,0,1-.22.4h0a1.7,1.7,0,0,0-.59,1.2h0a2,2,0,0,0,.06.45h0s0,0,0,0h0s-.51.67-.72.88h0a1,1,0,0,0-.15.41h0a1.8,1.8,0,0,1-.15.51h0a.24.24,0,0,1-.21.16h0c-.15,0-.22.13-.3.29h0c-.08.17-.17.36-.36.42h0c-.34.1-.45.42-.76.74h0Z"/><path class="cls-1" d="M47.17,48.48c.2-.2.2-.32,0-.54s-.25-.46-.47-.69-.19-.51-.34-.66-.16-.13.15-.44.82-.71.6-.92-.45-.28-.55-.62.12-.81-.26-.81-.38.22-.6.22-.5-.19-.73,0-.31.14-.57-.11a2.15,2.15,0,0,0-1.16-.49c-.27,0-.27.24-.27.4s-.81,0-.94.16a1.48,1.48,0,0,0-.39.69c0,.2-.06.63-.06.83s.4,1.07-.06,1.73c0,0,.7.11.42.4s-.83,1.29-.64,1.48,1.21-.08,1.89-.41.87-.56.87-.14,0,1.93.73,1.77h0a1,1,0,0,1,.2-.62c.3-.3.22.49.65.49s0-.49.24-.71a2.51,2.51,0,0,1,1.28-.38C47.09,48.91,47.06,48.59,47.17,48.48Z"/><path class="cls-1" d="M44.09,49.67A5.51,5.51,0,0,1,44,48.62h0v0h0a.28.28,0,0,0,0-.16h0s0,0,0,0h0a4.46,4.46,0,0,0-.75.36h0a4.46,4.46,0,0,1-1.65.49h0a.35.35,0,0,1-.27-.08h0a.17.17,0,0,1,0-.15h0a3,3,0,0,1,.68-1.38h0a.14.14,0,0,0,.06-.11h0c0-.06-.1-.13-.22-.17h0l-.24-.06h0a0,0,0,0,1,0,0h0v0h0a1.21,1.21,0,0,0,.22-.74h0a6.27,6.27,0,0,0-.16-1h0c0-.2.06-.64.06-.83h0A1.51,1.51,0,0,1,42,44h0a.82.82,0,0,1,.46-.07h0a1.58,1.58,0,0,0,.45,0h0l0,0h0a.63.63,0,0,1,0-.27h0a.28.28,0,0,1,.27-.16h0a2.24,2.24,0,0,1,1.19.49h0c.15.16.24.24.31.24h0a.36.36,0,0,0,.21-.13h0a.4.4,0,0,1,.3-.12h0c.16,0,.33.08.45.07h0a.3.3,0,0,0,.22-.1h0a.57.57,0,0,1,.38-.11h0a.25.25,0,0,1,.22.1h0a.51.51,0,0,1,0,.25h0v.24h0a.63.63,0,0,0,0,.24h0c.09.32.32.38.54.6h0a.19.19,0,0,1,.07.15h0c0,.25-.42.56-.67.82h0c-.18.18-.25.25-.24.28h0s0,.06.09.12h0c.16.17.12.44.34.66h0c.23.23.26.48.47.69h0a.45.45,0,0,1,.18.3h0a.41.41,0,0,1-.16.28h0a.46.46,0,0,0-.07.27h0a1.57,1.57,0,0,0,.05.37h0a0,0,0,0,1,0,0h0a2.5,2.5,0,0,0-1.26.37h0a.25.25,0,0,0-.05.17h0c0,.11,0,.24,0,.35h0a.22.22,0,0,1-.06.15h0a.26.26,0,0,1-.19.05h0c-.3,0-.37-.34-.46-.49h0c0-.05,0-.07-.07-.07h0s-.05,0-.1.06h0a1,1,0,0,0-.19.61h0l0,0h0l-.11,0h0c-.34,0-.5-.36-.58-.75ZM44,48.41a.44.44,0,0,1,0,.19h0v0h0a5.41,5.41,0,0,0,.08,1h0c.08.38.24.7.52.69h.07a1,1,0,0,1,.21-.62h0a.21.21,0,0,1,.14-.08h0a.17.17,0,0,1,.13.1h0l.09.2h0c.07.14.15.26.31.26h0c.16,0,.18-.05.18-.14h0c0-.1,0-.23,0-.35h0a.29.29,0,0,1,.08-.21h0a2.42,2.42,0,0,1,1.26-.39h0a2.09,2.09,0,0,1,0-.35h0a.43.43,0,0,1,.09-.31h0c.09-.1.14-.17.14-.24h0c0-.07,0-.15-.16-.26h0c-.23-.22-.26-.47-.48-.69h0c-.23-.24-.2-.53-.33-.65h0c-.06-.07-.11-.1-.11-.17h0c0-.08.08-.14.26-.32h0c.25-.26.65-.59.64-.78h0a.13.13,0,0,0,0-.1h0c-.21-.21-.46-.28-.56-.63h0a.77.77,0,0,1,0-.26h0v-.24h0a.39.39,0,0,0,0-.21h0s-.07-.08-.16-.08h0a.53.53,0,0,0-.34.1h0a.4.4,0,0,1-.26.12h0c-.14,0-.3-.08-.45-.08h0a.36.36,0,0,0-.26.11h0a.38.38,0,0,1-.25.14h0c-.11,0-.2-.1-.36-.25h0a2.15,2.15,0,0,0-1.14-.48h0a.19.19,0,0,0-.21.12h0a.69.69,0,0,0,0,.25h0a.09.09,0,0,1,0,.07h0a.35.35,0,0,1-.11,0h0l-.29,0h0A1.07,1.07,0,0,0,42,44h0a1.43,1.43,0,0,0-.39.67h0c0,.2-.06.64-.06.83h0a5.45,5.45,0,0,1,.16,1h0a1.38,1.38,0,0,1-.2.74h0l.2,0h0c.12.05.26.11.27.23h0a.24.24,0,0,1-.08.16h0A3,3,0,0,0,41.27,49h0a.14.14,0,0,0,0,.11h0a.37.37,0,0,0,.23,0h0a4.45,4.45,0,0,0,1.62-.47h0a3.09,3.09,0,0,1,.78-.37h0a.11.11,0,0,1,.11.07Z"/><path class="cls-1" d="M52.41,41.38a6.36,6.36,0,0,1-.86-1.15c-.09-.32.08-.4.6-.46s.17-.62,0-.83-.85.3-1.11.3-.42-1.17-.75-1.29-.5,0-.78-.24l-.61-.63-.15.06c.24.34.6,1.1.31,1.24s-.51-.17-.68-.33-.3,0-.3.29a2.48,2.48,0,0,1-.17,1c-.18.44.63.54.81,1s-.16.59-.64.85l-.12.06c.13.12.43.4.64.4s.28.09.28.35a1.86,1.86,0,0,0,.35,1.11c.27.27.52,0,.64.08s-.18.7.06.7.51-.54.73-.54.41.38.81.36a.05.05,0,0,1,0,0c.23-.24,1.07-1,1.07-1.41a2.19,2.19,0,0,1,.14-.71,1,1,0,0,1,.24-.05C52.79,41.28,52.41,41.38,52.41,41.38Z"/><path class="cls-1" d="M49.79,43.88a.2.2,0,0,1,0-.11h0c0-.14.07-.34.07-.46h0a.17.17,0,0,0,0-.09h0l-.06,0h0a1.85,1.85,0,0,1-.31.07h0a.38.38,0,0,1-.27-.12h0A1.87,1.87,0,0,1,48.81,42h0a.75.75,0,0,0,0-.26h0s-.08-.06-.22-.06h0a1.29,1.29,0,0,1-.66-.41h0a0,0,0,0,1,0,0h0l0,0h0a.67.67,0,0,0,.12-.06h0c.39-.21.67-.34.67-.6h0a.63.63,0,0,0-.05-.21h0a1.08,1.08,0,0,0-.47-.45h0c-.19-.12-.37-.24-.37-.44h0a.35.35,0,0,1,0-.13h0a2.44,2.44,0,0,0,.17-1h0c0-.19.07-.38.21-.39h0a.21.21,0,0,1,.14.07h0c.14.15.28.38.48.37h0a.34.34,0,0,0,.16,0h0c.07,0,.1-.09.1-.2h0a2.2,2.2,0,0,0-.42-1h0v0h0s0,0,0,0h0l.14-.06h0l.61.63h0a.54.54,0,0,0,.35.17h0a1.5,1.5,0,0,1,.42.06h0c.14,0,.24.25.33.48h0c.09.22.18.47.26.64h0c0,.11.11.17.15.16h0a1.22,1.22,0,0,0,.45-.17h0a1.5,1.5,0,0,1,.52-.17h0a.19.19,0,0,1,.16.06h0a1,1,0,0,1,.32.61h0c0,.13-.09.25-.3.27h0a1.68,1.68,0,0,0-.46.1h0a.18.18,0,0,0-.13.18h0a.93.93,0,0,0,0,.14h0a3,3,0,0,0,.46.68h0c.17.21.33.39.38.44h0l.17,0h0a.37.37,0,0,1,.35.17h0v0h0l0,0h0l-.22,0h0a2.1,2.1,0,0,0-.13.69h0a1.7,1.7,0,0,1-.46.77h0c-.24.28-.5.54-.62.66h0l0,0H51.4a.8.8,0,0,1-.48-.18h0c-.13-.1-.23-.18-.3-.18h0c-.08,0-.21.13-.33.26h0c-.13.13-.26.27-.4.28h0a.11.11,0,0,1-.1,0Zm.06-.7a.18.18,0,0,1,0,.13h0c0,.13-.07.33-.07.46h0c0,.07,0,.09.07.1h0c.09,0,.23-.13.35-.26h0c.13-.13.25-.28.38-.28h0c.11,0,.21.1.33.19h0a.78.78,0,0,0,.45.17h0l0,0h0c.12-.12.39-.38.63-.66h0a1.75,1.75,0,0,0,.44-.73h0a2.29,2.29,0,0,1,.14-.72h0l0,0h0l.2-.05h0a.36.36,0,0,0-.27-.09h0a.79.79,0,0,0-.17,0h0a6.26,6.26,0,0,1-.86-1.16h0a1,1,0,0,1,0-.16h0a.25.25,0,0,1,.17-.24h0a1.87,1.87,0,0,1,.48-.1h0c.19,0,.23-.1.24-.21h0a1.06,1.06,0,0,0-.3-.57h0a.16.16,0,0,0-.12,0h0a1.34,1.34,0,0,0-.5.17h0a1.34,1.34,0,0,1-.47.18h0c-.09,0-.15-.09-.21-.2h0c-.06-.12-.11-.27-.17-.42h0c-.11-.31-.24-.63-.38-.67h0a1.35,1.35,0,0,0-.41-.06h0a.57.57,0,0,1-.38-.19h0l-.6-.61h0l-.09,0h0a2.12,2.12,0,0,1,.4,1h0a.26.26,0,0,1-.13.26h0a.49.49,0,0,1-.19.05h0c-.25,0-.39-.26-.52-.39h0a.14.14,0,0,0-.1,0h0s-.07,0-.1.09h0a.5.5,0,0,0,0,.23h0a2.35,2.35,0,0,1-.19,1h0a.44.44,0,0,0,0,.1h0c0,.15.15.26.35.39h0a1.19,1.19,0,0,1,.49.48h0a.68.68,0,0,1,0,.23h0c0,.32-.32.45-.7.66h0l-.08,0h0c.13.13.4.36.58.35h0c.14,0,.23,0,.27.1h0a.6.6,0,0,1,0,.29h0a1.81,1.81,0,0,0,.35,1.09h0a.35.35,0,0,0,.22.11h0c.12,0,.22-.07.31-.07h0a.12.12,0,0,1,.09,0Zm2.56-1.8,0,0,0,0Z"/><path class="cls-1" d="M47.23,44.23a3.66,3.66,0,0,1,1.53-.71,1.18,1.18,0,0,0,.61-.29.62.62,0,0,1-.18-.11A1.86,1.86,0,0,1,48.84,42c0-.26,0-.35-.28-.35s-.51-.28-.64-.4c-.36.18-.44.09-.91,0a1.3,1.3,0,0,1-.87-.87c-.12-.3-.71.14-1.33.14s-1.34-.73-1.55-.94l-.13-.16a3.43,3.43,0,0,0-1.15.16.67.67,0,0,0,.05.76c.17.17,0,.37-.23.37s-.16.74.18.74a.4.4,0,0,1,.49.49c-.08.6,0,1.16-.42,1.23s-1.46,0-1.46.32a1.66,1.66,0,0,0,1,1.33.57.57,0,0,0,0-.12A1.48,1.48,0,0,1,42,44c.13-.13.94,0,.94-.16s0-.4.27-.4a2.15,2.15,0,0,1,1.16.49c.26.25.34.33.57.11s.52,0,.73,0,.22-.22.6-.22.16.47.26.81a.76.76,0,0,0,.06.16C47,44.73,47,44.45,47.23,44.23Z"/><path class="cls-1" d="M41.61,44.86a1.67,1.67,0,0,1-1-1.36h0c0-.1.08-.17.19-.21h0a1.73,1.73,0,0,1,.43-.08h0c.32,0,.69,0,.87-.06h0c.16,0,.24-.17.29-.39h0c0-.22.06-.51.1-.81h0s0-.07,0-.1h0c0-.33-.25-.36-.39-.37H42c-.24,0-.33-.29-.33-.51h0a.54.54,0,0,1,0-.19h0a.13.13,0,0,1,.12-.1h0a.3.3,0,0,0,.18-.06h0a.24.24,0,0,0,.09-.15h0a.2.2,0,0,0-.06-.11h0a.75.75,0,0,1-.16-.48h0a.49.49,0,0,1,.1-.32h0a1.14,1.14,0,0,1,.47-.12h0c.22,0,.49,0,.71-.05h0a1.22,1.22,0,0,0,.14.16h0c.2.21.93.93,1.52.92h0A11.69,11.69,0,0,0,46,40.25h0a.21.21,0,0,1,.21.12h0a1.26,1.26,0,0,0,.85.86h0a4.08,4.08,0,0,0,.54.1h0a.7.7,0,0,0,.35-.1h0c.12.12.42.39.61.38h0c.14,0,.23,0,.27.1h0a.6.6,0,0,1,0,.29h0a1.81,1.81,0,0,0,.35,1.09h0a.28.28,0,0,0,.16.1h0l0,0h0a0,0,0,0,1,0,0h0a1.12,1.12,0,0,1-.63.3h0a3.64,3.64,0,0,0-1.51.71h0c-.2.19-.22.5-.65.54h0l0,0h0l-.06-.16h0a.77.77,0,0,1,0-.26h0v-.24h0a.55.55,0,0,0,0-.21h0a.18.18,0,0,0-.17-.08h0a.53.53,0,0,0-.34.1h0a.4.4,0,0,1-.26.12h0c-.14,0-.3-.08-.45-.08h0a.36.36,0,0,0-.26.11h0a.38.38,0,0,1-.25.14h0c-.11,0-.2-.1-.36-.25h0a2.15,2.15,0,0,0-1.14-.48h0a.19.19,0,0,0-.21.12h0a.69.69,0,0,0,0,.25h0a.09.09,0,0,1,0,.07h0a.35.35,0,0,1-.11,0h0l-.29,0h0A1.07,1.07,0,0,0,42,44h0a1.43,1.43,0,0,0-.39.67h0a.57.57,0,0,1,0,.12h0s0,0,0,0h0Zm.73-3.37a.38.38,0,0,1,.17.36h0a.45.45,0,0,1,0,.11h0c0,.29,0,.58-.1.81h0c0,.23-.14.4-.34.44h0a9.81,9.81,0,0,0-1.28.14h0c-.11,0-.16.09-.16.15h0a1.65,1.65,0,0,0,1,1.29h0a.25.25,0,0,0,0-.08h0A1.51,1.51,0,0,1,42,44h0a.82.82,0,0,1,.46-.07h0a1.58,1.58,0,0,0,.45,0h0l0,0h0a.63.63,0,0,1,0-.27h0a.28.28,0,0,1,.27-.16h0a2.24,2.24,0,0,1,1.19.49h0c.15.16.24.24.31.24h0a.36.36,0,0,0,.21-.13h0a.4.4,0,0,1,.3-.12h0c.16,0,.33.08.45.07h0a.3.3,0,0,0,.22-.1h0a.57.57,0,0,1,.38-.11h0a.25.25,0,0,1,.22.1h0a.51.51,0,0,1,0,.25h0v.24h0a.63.63,0,0,0,0,.24h0a.5.5,0,0,0,0,.13h0c.37,0,.37-.29.59-.52h0a3.58,3.58,0,0,1,1.55-.72h0a1.12,1.12,0,0,0,.55-.25h0a.55.55,0,0,1-.14-.09h0A1.87,1.87,0,0,1,48.81,42h0a.75.75,0,0,0,0-.26h0s-.08-.06-.22-.06h0a1.24,1.24,0,0,1-.64-.39h0a.79.79,0,0,1-.36.09h0a3.89,3.89,0,0,1-.55-.1h0a1.29,1.29,0,0,1-.9-.89h0a.16.16,0,0,0-.15-.09h0a8.86,8.86,0,0,1-1.15.25h0c-.64,0-1.36-.74-1.57-1h0a1.08,1.08,0,0,1-.13-.15h0l-.68,0h0a1.37,1.37,0,0,0-.43.1h0a.41.41,0,0,0-.09.28h0a.62.62,0,0,0,.15.43h0a.28.28,0,0,1,.07.16h0a.33.33,0,0,1-.33.27h0s0,0-.06.06h0a.4.4,0,0,0,0,.17h0a.6.6,0,0,0,.07.3h0a.24.24,0,0,0,.19.15h.09a.51.51,0,0,1,.28.07Z"/><path class="cls-1" d="M51.43,43.72c-.4,0-.62-.36-.81-.36s-.49.54-.73.54.06-.58-.06-.7-.26.07-.46,0a1.18,1.18,0,0,1-.61.29,3.66,3.66,0,0,0-1.53.71c-.21.22-.22.5-.63.54.12.2.31.28.49.46s-.3.61-.6.92-.3.3-.15.44.11.43.34.66.25.47.47.69.22.34,0,.54-.08.43,0,.67a.92.92,0,0,1,.69.2c.45.46-.46,1-.06.91A2.27,2.27,0,0,1,49,50.08a.36.36,0,0,0,.33,0,2,2,0,0,1,.38-1.77c.23-.23,0-.67.32-1s.24-.46.24-.89.47-.5.85-.5.7-.5.94-.81A1.51,1.51,0,0,1,51.43,43.72Z"/><path class="cls-1" d="M47.65,50.31l0,0h0a.47.47,0,0,1,0-.1h0l.1-.14h0a.7.7,0,0,0,.15-.38h0a.4.4,0,0,0-.13-.28h0a.87.87,0,0,0-.62-.19h0a0,0,0,0,1,0,0h0a1.65,1.65,0,0,1,0-.38h0a.43.43,0,0,1,.09-.31h0c.09-.1.14-.17.14-.24h0c0-.07,0-.15-.16-.26h0c-.23-.22-.26-.47-.48-.69h0c-.23-.24-.2-.53-.33-.65h0c-.06-.07-.11-.1-.11-.17h0c0-.08.08-.14.26-.32h0c.25-.26.65-.59.64-.78h0a.13.13,0,0,0,0-.1h0c-.17-.18-.37-.25-.5-.47h0v0h0l0,0h0c.39,0,.38-.29.61-.52h0a3.58,3.58,0,0,1,1.55-.72h0a1.09,1.09,0,0,0,.59-.29h.1c.11,0,.21-.06.3-.06h0a.13.13,0,0,1,.1,0h0a.17.17,0,0,1,0,.12h0c0,.14-.07.34-.07.47h0c0,.07,0,.09.07.1h0c.09,0,.23-.13.35-.26h0c.13-.13.25-.28.38-.28h0c.11,0,.21.1.33.19h0a.78.78,0,0,0,.45.17h0l0,0h0s0,0,0,0h0a.37.37,0,0,0,0,.12h0A1.73,1.73,0,0,0,52.1,45h0v0h0s0,0,0,0h0a4.29,4.29,0,0,1-.46.52h0a.88.88,0,0,1-.5.3h0a1.69,1.69,0,0,0-.56.08h0a.39.39,0,0,0-.26.39h0c0,.16,0,.27,0,.38h0a.68.68,0,0,1-.26.53h0a.74.74,0,0,0-.19.53h0a.66.66,0,0,1-.13.48h0a2.33,2.33,0,0,0-.47,1.31h0a1,1,0,0,0,.09.43h0s0,0,0,0h0a.53.53,0,0,1-.24.08h0a.2.2,0,0,1-.11,0h0a1.09,1.09,0,0,0-.26,0h0a3.32,3.32,0,0,0-1,.22h0a.2.2,0,0,1-.1,0h0Zm.2-1a.44.44,0,0,1,.14.32h0a1.24,1.24,0,0,1-.29.6h0l.06,0h0a3.38,3.38,0,0,1,1-.22h0a.66.66,0,0,1,.28.05h.09a.41.41,0,0,0,.18,0h0a1.22,1.22,0,0,1-.08-.43h0a2.27,2.27,0,0,1,.49-1.35h0c.1-.1.1-.26.11-.45h0a.76.76,0,0,1,.21-.56h0a.64.64,0,0,0,.24-.49h0c0-.1,0-.22,0-.38h0a.46.46,0,0,1,.31-.44h0a1.41,1.41,0,0,1,.58-.09h0a.91.91,0,0,0,.46-.28h0a3.77,3.77,0,0,0,.43-.49h0a1.77,1.77,0,0,1-.66-1.2h0a.41.41,0,0,1,0-.11h0a.76.76,0,0,1-.46-.18h0c-.13-.1-.23-.18-.3-.18h0c-.08,0-.21.13-.33.26h0c-.13.13-.26.27-.4.28h0a.12.12,0,0,1-.1,0h0a.2.2,0,0,1,0-.11h0c0-.14.07-.34.07-.47h0a.15.15,0,0,0,0-.08h0l-.06,0h0a1.94,1.94,0,0,1-.3.07h-.07a1.18,1.18,0,0,1-.62.29h0a3.64,3.64,0,0,0-1.51.71h0c-.19.19-.21.48-.6.53h0c.12.17.29.24.46.41h0a.19.19,0,0,1,.07.15h0c0,.25-.42.56-.67.82h0c-.18.18-.25.25-.24.28h0s0,.06.09.12h0c.16.17.12.44.34.66h0c.23.23.26.48.47.69h0a.45.45,0,0,1,.18.3h0a.41.41,0,0,1-.16.28h0a.46.46,0,0,0-.07.27h0a2,2,0,0,0,0,.34h0a.94.94,0,0,1,.67.22Z"/><path class="cls-1" d="M44.77,50.37C44,50.53,44,49,44,48.6s-.2-.2-.87.14-1.7.6-1.89.41h0a2.92,2.92,0,0,1-.6.41c-.38.16,0,.85-.82.69s-.87.24-1.39.34a1.28,1.28,0,0,0-.66.42c.18.33.41,1,.19,1.25a3.37,3.37,0,0,0-.46.74c.44.13,1,.08,1.1.14a2.4,2.4,0,0,1,.09.87c0,.38.87.56,1.11.81s1.21-.35,1.51-.35.59.59.59.3.42-.13.42-.13v0c.39-.47,1-1.07,1.39-1.43.55-.55.52-.89.81-1.67a4,4,0,0,0,.22-1.2Z"/><path class="cls-1" d="M39.81,54.83a3,3,0,0,0-.64-.35h0c-.25-.12-.48-.26-.49-.48h0c0-.19,0-.38,0-.54h0a.57.57,0,0,0-.07-.3h0l-.08,0h-.27a3.58,3.58,0,0,1-.7-.1h0l0,0h0a0,0,0,0,1,0,0h0a3.19,3.19,0,0,1,.46-.75h0a.4.4,0,0,0,.08-.27h0a2.29,2.29,0,0,0-.28-.94h0a0,0,0,0,1,0,0h0a1.4,1.4,0,0,1,.69-.42h0c.41-.08.53-.37,1-.37h0l.35,0h0l.21,0h0c.25,0,.29-.13.34-.29h0c0-.15.05-.35.24-.43h0a2.57,2.57,0,0,0,.6-.41h0a.37.37,0,0,0,.23,0h0a4.45,4.45,0,0,0,1.62-.47h0a3.09,3.09,0,0,1,.78-.37h0a.11.11,0,0,1,.11.07h0a.44.44,0,0,1,0,.19h0v0h0a5.41,5.41,0,0,0,.08,1h0c.08.38.24.7.52.69h.13v0h0a4.09,4.09,0,0,1-.22,1.2h0c-.29.77-.27,1.13-.82,1.68h0c-.36.36-1,1-1.39,1.43h0s0,0,0,0h0s0,0,0,0h0v0h0l-.14,0h0c-.1,0-.17,0-.17.14h0a.19.19,0,0,1,0,.08h0a.05.05,0,0,1-.05,0h0s-.07,0-.11-.06h0l-.14-.14h0a.53.53,0,0,0-.31-.18h0a2.74,2.74,0,0,0-.61.2h0a2.29,2.29,0,0,1-.72.21h0a.27.27,0,0,1-.2-.07ZM38.5,53.07a.3.3,0,0,1,.15,0h0a.65.65,0,0,1,.08.34h0c0,.17,0,.36,0,.55h0c0,.17.2.31.44.43h0a2.84,2.84,0,0,1,.66.35h0a.21.21,0,0,0,.16.06h0a2.08,2.08,0,0,0,.7-.21h0a2.3,2.3,0,0,1,.63-.2h0c.23,0,.44.31.54.37h0a.2.2,0,0,0,0-.05h0A.2.2,0,0,1,42,54.6h0a.23.23,0,0,1,.16,0h0a.76.76,0,0,1,.23,0h0c.39-.47,1-1,1.35-1.38h0c.54-.54.5-.88.8-1.66h0a4.37,4.37,0,0,0,.22-1.15h-.07c-.34,0-.5-.36-.58-.75h0A5.51,5.51,0,0,1,44,48.62h0v0h0a.28.28,0,0,0,0-.16h0s0,0,0,0h0a4.46,4.46,0,0,0-.75.36h0a4.46,4.46,0,0,1-1.65.49h0a.41.41,0,0,1-.27-.07h0a2.52,2.52,0,0,1-.58.4h0c-.15.06-.17.22-.21.39h0a.37.37,0,0,1-.4.33h0l-.22,0h0l-.34,0h0c-.49,0-.59.28-1,.37h0a1.22,1.22,0,0,0-.64.39h0a2.33,2.33,0,0,1,.28,1h0a.47.47,0,0,1-.1.32h0a3,3,0,0,0-.43.7h0a5.93,5.93,0,0,0,.92.1Z"/><path class="cls-1" d="M38.46,50.58c.52-.1.58-.5,1.39-.34s.44-.53.82-.69a2.92,2.92,0,0,0,.6-.41c-.15-.23.37-1.19.65-1.47s-.42-.4-.42-.4a1.44,1.44,0,0,0,.2-1,1.21,1.21,0,0,1-.56-.32A4.27,4.27,0,0,0,39.73,45c-.17,0-.52.34-.86.68s-.72-.31-.94-.09.24.4.24.91a1,1,0,0,1-1,.83c.13.16-.39.13-.83.13a1.63,1.63,0,0,0-1.11.41c-.25.25.26.88.48.66s.69.22.69.61-.45.32-.45.48.35.47.25.81.1.48.48.36a1.27,1.27,0,0,1,1,0,.61.61,0,0,1,.11.16A1.28,1.28,0,0,1,38.46,50.58Z"/><path class="cls-1" d="M37.79,51a0,0,0,0,1,0,0h0l-.1-.15h0a.69.69,0,0,0-.46-.12h0a1.77,1.77,0,0,0-.56.09h0a.81.81,0,0,1-.25,0h0a.28.28,0,0,1-.21-.07h0a.24.24,0,0,1-.08-.2h0a1.11,1.11,0,0,1,0-.17h0a.43.43,0,0,0,0-.11h0a.9.9,0,0,0-.13-.39h0a.93.93,0,0,1-.15-.3h0c0-.06.05-.09.09-.11h0l.16-.07h0a.29.29,0,0,0,.21-.3h0a.71.71,0,0,0-.18-.44h0a.51.51,0,0,0-.34-.2h0a.17.17,0,0,0-.12.05h0a.17.17,0,0,1-.13,0h0c-.22,0-.46-.3-.47-.55h0a.28.28,0,0,1,.08-.2h0a1.63,1.63,0,0,1,1.13-.42h.42a1.06,1.06,0,0,0,.38,0h0v0h0a0,0,0,0,1,0,0h0l0,0h.06a1,1,0,0,0,.66-.25h0a.74.74,0,0,0,.29-.55h0a.87.87,0,0,0-.15-.46h0c-.07-.13-.15-.22-.15-.32h0a.21.21,0,0,1,.07-.15h0a.16.16,0,0,1,.13-.06h0c.19,0,.41.24.61.24h0a.26.26,0,0,0,.2-.09h0c.17-.17.34-.34.49-.47h0a.78.78,0,0,1,.39-.22h0a1.82,1.82,0,0,1,.65.32h0a5.14,5.14,0,0,1,.78.6h0a1.25,1.25,0,0,0,.55.31h0l0,0h0a2.46,2.46,0,0,1,0,.28h0a1.38,1.38,0,0,1-.2.74h0l.2,0h0c.12.05.26.11.27.23h0a.24.24,0,0,1-.08.16h0A3,3,0,0,0,41.27,49h0a.22.22,0,0,0,0,.1h0a0,0,0,0,1,0,0h0a2.78,2.78,0,0,1-.61.42h0c-.15.06-.17.22-.21.39h0a.37.37,0,0,1-.4.33h0l-.22,0h0l-.34,0h0c-.49,0-.59.28-1,.37h0a1.24,1.24,0,0,0-.65.41h0Zm-.08-.21a.41.41,0,0,1,.09.12h0a1.28,1.28,0,0,1,.66-.39h0c.41-.08.53-.37,1-.37h0l.35,0h0l.21,0h0c.25,0,.29-.13.34-.29h0c0-.15.05-.35.24-.43h0a2.68,2.68,0,0,0,.58-.39h0a.36.36,0,0,1,0-.11h0a3,3,0,0,1,.68-1.38h0a.14.14,0,0,0,.06-.11h0c0-.06-.1-.13-.22-.17h0l-.24-.06h0a0,0,0,0,1,0,0h0v0h0a1.21,1.21,0,0,0,.22-.74h0a2,2,0,0,0,0-.25h0a1.19,1.19,0,0,1-.55-.32h0a5.72,5.72,0,0,0-.77-.59h0a2.2,2.2,0,0,0-.62-.31h0a.76.76,0,0,0-.35.21h0c-.15.12-.32.3-.49.46h0a.32.32,0,0,1-.24.11h0c-.24,0-.47-.24-.61-.23h0l-.09,0h0a.14.14,0,0,0-.05.11h0a.7.7,0,0,0,.15.28h0a1,1,0,0,1,.15.5h0a1,1,0,0,1-1,.87h0a.08.08,0,0,1,0,.07h0l-.1,0H36.3a1.52,1.52,0,0,0-1.09.41h0a.2.2,0,0,0-.05.15h0a.53.53,0,0,0,.14.33h0a.38.38,0,0,0,.26.16h0l.09,0h0a.2.2,0,0,1,.16-.07h0a.74.74,0,0,1,.58.7h0c0,.33-.28.36-.4.42h0s-.05,0-.05.06h0s.06.15.13.27h0a.84.84,0,0,1,.14.42h0a.3.3,0,0,1,0,.13h0a1,1,0,0,0,0,.15h0c0,.14.07.21.23.21h0a.7.7,0,0,0,.23,0h0a1.9,1.9,0,0,1,.58-.09h0a.73.73,0,0,1,.5.14Z"/><path class="cls-1" d="M40.35,41.3a9.24,9.24,0,0,0-.54,1.25c-.23.51-.41,1.31-.89,1.31s-.91-.62-1.31-.22S37,44.8,37.25,45l.65.6,0,0c.22-.22.6.43.94.09s.69-.68.86-.68a4.27,4.27,0,0,1,1.41.91,1.21,1.21,0,0,0,.56.32c0-.33-.14-.6-.14-.7s0-.49,0-.71a1.66,1.66,0,0,1-1-1.33c0-.34,1.1-.25,1.46-.32s.34-.63.42-1.23a.4.4,0,0,0-.49-.49.2.2,0,0,1-.15-.06A4.73,4.73,0,0,0,40.35,41.3Z"/><path class="cls-1" d="M41.69,46.27a1.23,1.23,0,0,1-.57-.33h0a5.72,5.72,0,0,0-.77-.59h0a2.2,2.2,0,0,0-.62-.31h0a.76.76,0,0,0-.35.21h0c-.15.12-.32.3-.49.46h0a.32.32,0,0,1-.24.11h0c-.24,0-.47-.24-.61-.23h0l-.09,0h0l0,0h0l-.65-.61h0a.57.57,0,0,1-.11-.34h0a1.72,1.72,0,0,1,.47-1.09h0a.45.45,0,0,1,.32-.15h0c.33,0,.67.36,1,.36h0c.22,0,.38-.19.51-.45h0c.13-.26.23-.58.35-.84h0a8.58,8.58,0,0,1,.55-1.26h0s.12-.05.24-.05h0a9.65,9.65,0,0,1,1.26.14h0a.17.17,0,0,0,.12,0h.09a.51.51,0,0,1,.28.07h0a.38.38,0,0,1,.17.36h0a.45.45,0,0,1,0,.11h0c0,.29,0,.58-.1.81h0c0,.23-.14.4-.34.44h0a9.81,9.81,0,0,0-1.28.14h0c-.11,0-.16.09-.16.15h0a1.63,1.63,0,0,0,1,1.3h0s0,0,0,0h0c0,.22,0,.55,0,.71h0c0,.09.1.36.14.69h0a0,0,0,0,1,0,0h0Zm-1.31-1a5.14,5.14,0,0,1,.78.6h0a1.14,1.14,0,0,0,.5.3h0c0-.31-.13-.55-.13-.66h0c0-.16,0-.47,0-.69h0a1.68,1.68,0,0,1-1-1.35h0c0-.1.08-.17.19-.21h0a1.73,1.73,0,0,1,.43-.08h0c.32,0,.69,0,.87-.06h0c.16,0,.24-.17.29-.39h0c0-.22.06-.51.1-.81h0s0-.07,0-.1h0c0-.33-.25-.36-.39-.37H42a.2.2,0,0,1-.15-.06h0a10.1,10.1,0,0,0-1.25-.14h0a.49.49,0,0,0-.2,0h0l0,0,0,0a9.41,9.41,0,0,0-.53,1.24h0c-.12.26-.22.58-.36.85h0c-.13.26-.3.48-.56.48h0c-.38,0-.72-.36-1-.35h0a.39.39,0,0,0-.28.12h0a1.66,1.66,0,0,0-.44,1.05h0a.43.43,0,0,0,.09.3h0l.62.58h0a.13.13,0,0,1,.13,0h0c.19,0,.41.23.61.23h0a.26.26,0,0,0,.2-.09h0c.17-.17.34-.34.49-.47h0a.78.78,0,0,1,.39-.22h0a1.82,1.82,0,0,1,.65.32Z"/><path class="cls-1" d="M37,36.28c.2.21.91.68,1.23.36a1,1,0,0,0,0-1.17c-.19-.33.77-1.07,1.19-1.68a4.62,4.62,0,0,1-.52-.46C38.59,33,38.75,32,38.31,32s-.54,1.16-.81,1.42a4.23,4.23,0,0,1-1.28.54,9.53,9.53,0,0,1,.56.85C37,35.19,36.81,36.07,37,36.28Z"/><path class="cls-1" d="M38,36.78a1.75,1.75,0,0,1-1-.48h0l0,0,0,0a1.64,1.64,0,0,0,.92.45h0a.35.35,0,0,0,.26-.09h0a.74.74,0,0,0,.22-.53h0a1.23,1.23,0,0,0-.18-.61h0a.2.2,0,0,1,0-.11h0c0-.2.22-.45.48-.73h0a10.66,10.66,0,0,0,.73-.84h0a5.49,5.49,0,0,1-.5-.45h0c-.29-.3-.27-.9-.42-1.17h0a.23.23,0,0,0-.21-.13h0c-.2,0-.33.27-.44.59h0a2.86,2.86,0,0,1-.35.83h0a3.82,3.82,0,0,1-1.25.52h0a7.29,7.29,0,0,1,.54.83h0a2.28,2.28,0,0,1,.11.79h0a1.24,1.24,0,0,0,.12.65h0l0,0,0,0a1.24,1.24,0,0,1-.13-.69h0a2.22,2.22,0,0,0-.11-.76h0A7.69,7.69,0,0,0,36.2,34h0s0,0,0,0h0l0,0h0a4.21,4.21,0,0,0,1.27-.53h0a2.86,2.86,0,0,0,.33-.8h0c.11-.32.24-.63.5-.63h0a.26.26,0,0,1,.26.16h0a1.24,1.24,0,0,1,.12.37h0a1.61,1.61,0,0,0,.29.78h0a4.6,4.6,0,0,0,.52.47h0s0,0,0,0h0a9.85,9.85,0,0,1-.76.87h0a1.44,1.44,0,0,0-.46.69h0a.19.19,0,0,0,0,.08h0a1.25,1.25,0,0,1,.19.64h0a.8.8,0,0,1-.23.57h0a.43.43,0,0,1-.31.12Z"/><path class="cls-1" d="M29.65,43c0-.83-.85-1.35-1.07-2s-.39,0-.39,0a1.59,1.59,0,0,1-2.35.36A2.12,2.12,0,0,0,24,40.61a5.71,5.71,0,0,1-3.81-1.81c-.42-.42-.18-1,.32-1.49a1.75,1.75,0,0,0,.3-1.32.33.33,0,0,1-.29-.11c-.46-.45-1-.19-2-.19a8.85,8.85,0,0,0-3.21.51c-.91.4-1.35,0-2.42,0s-1,.7-1.27.44-2.3,0-1.9.35c.24.25-.4.54-.92.73-.07.52.45,1.41.27,1.58s-.85-.1-1.07.11.14.67.14,1.09-.65.63-.43.85,1,.35,1.36.69S10,43,10,43c.43-.33,1.43.34,1.72.34s.31.56.76.71a.49.49,0,0,0,.63-.15s-.09.89.53,1,.93.75,1.32,1.14,1,0,1.38.42,1.47.11,1.7.11.38.45.62.45.78-.81.78-.81a1.54,1.54,0,0,0,1.77.05s0,.85.73.85a1.17,1.17,0,0,0,1.16-.87c.58.09,1.74-.9,1.74-.9.69.36,1.47-.46,1.47,0a1.11,1.11,0,0,0,.52.83c.28.28.85.15,1.23.16a.64.64,0,0,1,.37.17,3.79,3.79,0,0,0,.28.44c.53-.29,1-1.61,1.18-1.61,0,0,.06,0,.09.07C30,44.62,29.65,43.65,29.65,43Z"/><path class="cls-1" d="M21.23,46.68a1.42,1.42,0,0,1-.1-.38h0a1.74,1.74,0,0,1-.81.23h0a1.77,1.77,0,0,1-.92-.29h0c0,.06-.15.22-.28.38h0c-.17.2-.36.4-.51.41h0c-.14,0-.24-.12-.34-.24h0c-.1-.11-.19-.21-.28-.21h0c-.13,0-.56.09-1,.09h0a1.06,1.06,0,0,1-.75-.21h0a.92.92,0,0,0-.67-.2h0a1,1,0,0,1-.71-.22h0c-.4-.4-.7-1-1.3-1.13h0a.61.61,0,0,1-.48-.39h0A1.31,1.31,0,0,1,13,44h0v0h0a.5.5,0,0,1-.35.14h0a.79.79,0,0,1-.25-.05h0a.86.86,0,0,1-.45-.43h0c-.1-.16-.18-.28-.3-.28h0a2.33,2.33,0,0,1-.62-.22h0a2.46,2.46,0,0,0-.78-.21h0A.49.49,0,0,0,10,43h0a0,0,0,0,1,0,0h0s-.52-.61-.87-1h0a2,2,0,0,0-.71-.39h0a2.07,2.07,0,0,1-.65-.31h0a.14.14,0,0,1-.06-.12h0c0-.12.13-.21.25-.33h0a.62.62,0,0,0,.23-.42h0c0-.31-.2-.65-.21-.9h0A.28.28,0,0,1,8,39.39H8a.42.42,0,0,1,.32-.09h0l.54,0h0c.1,0,.18,0,.21,0h0a.13.13,0,0,0,0-.1h0c0-.26-.32-.9-.32-1.36h0a.34.34,0,0,1,0-.1h0s0,0,0,0h0a4.74,4.74,0,0,0,.64-.28h0c.19-.1.31-.22.31-.3h0A.11.11,0,0,0,9.7,37h0a.18.18,0,0,1-.06-.13h0c0-.07.07-.13.15-.17h0a1.22,1.22,0,0,1,.34-.12h0a3.82,3.82,0,0,1,.9-.11h0a1,1,0,0,1,.62.13h0s.06,0,.08,0h0s.13-.11.29-.24h0a1.39,1.39,0,0,1,.88-.25h0c.72,0,1.15.18,1.62.18h0a1.94,1.94,0,0,0,.79-.18h0a9,9,0,0,1,3.22-.52h0c.5,0,.9-.07,1.24-.07h0a1,1,0,0,1,.77.28h0a.3.3,0,0,0,.23.1h.06a0,0,0,0,1,0,0h0a2.62,2.62,0,0,1,0,.29h0a1.51,1.51,0,0,1-.31,1h0a1.46,1.46,0,0,0-.53,1h0a.66.66,0,0,0,.2.47h0A5.43,5.43,0,0,0,21.89,40h0a5.43,5.43,0,0,0,2.11.56h0a2.16,2.16,0,0,1,1.86.76h0a1.53,1.53,0,0,0,1,.35h0a1.31,1.31,0,0,0,1.27-.7h0a.81.81,0,0,1,.05-.14h0c0-.07.08-.15.17-.15h0c.08,0,.15.09.23.29h0c.21.59,1.07,1.12,1.07,2h0c0,.63.29,1.51.29,2.28h0a1.21,1.21,0,0,1,0,.19h0l0,0h0s0,0,0,0h0s-.05,0-.07,0h0s-.1.06-.17.19h0c-.08.13-.17.3-.27.48h0a2.46,2.46,0,0,1-.73.93h0s0,0,0,0h0a4.78,4.78,0,0,1-.27-.44h0a.43.43,0,0,0-.11-.08h0a.49.49,0,0,0-.24-.08h0l-.6,0h0a.89.89,0,0,1-.63-.18h0a1.15,1.15,0,0,1-.53-.86h0c0-.12,0-.14-.1-.14h0a7.06,7.06,0,0,1-.94.22h0a.92.92,0,0,1-.39-.09h0a3.92,3.92,0,0,1-1.67.89h-.06a1.19,1.19,0,0,1-1.18.87h0a.69.69,0,0,1-.66-.44Zm-.06-.47s0,0,0,0h0a1.16,1.16,0,0,0,.09.41h0a.65.65,0,0,0,.61.41h0A1.13,1.13,0,0,0,23,46.34h0a.93.93,0,0,0,0-.13h0s0,0,0,0h.07a2.34,2.34,0,0,0,1-.44h0c.34-.23.6-.45.6-.45h0a.85.85,0,0,0,.38.09h0a6.14,6.14,0,0,0,.94-.23h0a.17.17,0,0,1,.12.05h0a.25.25,0,0,1,.05.16h0a.93.93,0,0,0,.24.59h0a1.58,1.58,0,0,0,.25.22h0a.82.82,0,0,0,.59.17h0l.6,0h0a.66.66,0,0,1,.4.18h0a3.14,3.14,0,0,0,.25.42h0c.38-.22.72-1,.95-1.37h0c.08-.13.14-.22.23-.23h0l.06,0h0s0-.07,0-.11h0c0-.75-.29-1.63-.29-2.28h0c0-.81-.84-1.32-1.07-2h0c-.07-.2-.14-.25-.17-.25h0s-.08.05-.11.12h0a.87.87,0,0,0-.05.13h0a1.39,1.39,0,0,1-1.33.74h0a1.54,1.54,0,0,1-1.07-.37h0A2.11,2.11,0,0,0,24,40.65h0a5.61,5.61,0,0,1-2.13-.57h0a5.35,5.35,0,0,1-1.7-1.26h0a.69.69,0,0,1-.23-.51h0a1.56,1.56,0,0,1,.55-1h0a1.43,1.43,0,0,0,.3-1h0a2.17,2.17,0,0,0,0-.26h0a.38.38,0,0,1-.28-.11h0a.91.91,0,0,0-.72-.27h0c-.33,0-.73.08-1.24.08h0a9,9,0,0,0-3.2.51h0a2,2,0,0,1-.81.18h0c-.48,0-.91-.18-1.62-.18h0a1.26,1.26,0,0,0-.84.24h0c-.16.12-.21.25-.33.26h0a.19.19,0,0,1-.12-.07h0a1.13,1.13,0,0,0-.58-.1h0a3.13,3.13,0,0,0-1.21.21h0c-.08,0-.12.09-.11.12h0a.1.1,0,0,0,0,.08h0a.2.2,0,0,1,.06.14h0c0,.13-.15.25-.34.35h0a4,4,0,0,1-.63.28h0a.25.25,0,0,0,0,.08h0c0,.44.32,1.07.32,1.36h0a.2.2,0,0,1,0,.14h0a.37.37,0,0,1-.26.07h0l-.54,0h0a.4.4,0,0,0-.27.07H8A.21.21,0,0,0,8,39.6H8c0,.22.2.57.2.9h0a.68.68,0,0,1-.25.47h0c-.12.11-.23.22-.22.28h0a.1.1,0,0,0,0,.08h0a2.12,2.12,0,0,0,.62.29h0a2.28,2.28,0,0,1,.74.4h0c.3.31.75.83.85.94h0a.53.53,0,0,1,.31-.08h0a2.34,2.34,0,0,1,.81.22h0a3.07,3.07,0,0,0,.59.21h0c.17,0,.25.15.35.31h0a.82.82,0,0,0,.42.4h0a.7.7,0,0,0,.23,0h0a.43.43,0,0,0,.34-.15h0l0,0h0s0,0,0,0h0s0,0,0,0h0a.5.5,0,0,0,0,.11h0a1.38,1.38,0,0,0,.09.49h0a.53.53,0,0,0,.43.35h0c.64.09.94.76,1.33,1.14h0a.89.89,0,0,0,.67.21h0a1,1,0,0,1,.71.22h0a1.07,1.07,0,0,0,.71.19h0c.4,0,.83-.09,1-.09h0c.13,0,.23.12.32.23h0c.1.12.2.22.3.22h0c.1,0,.3-.19.46-.39h0c.16-.2.3-.4.3-.4h0a0,0,0,0,1,0,0h0a1.66,1.66,0,0,0,.91.29h0a1.49,1.49,0,0,0,.59-.12h0a.86.86,0,0,0,.23-.13h0Z"/><path class="cls-1" d="M42,39.59a3.43,3.43,0,0,1,1.15-.16c-.23-.31-.57-.86-.76-1s0-.38,0-.58c-.14,0-.2,0-.2-.24,0-.45.35-.51.35-1s-.38-.42-.38-1.15.08-.68.08-1.27-.21-1.2.12-1.53.13-.63,0-1l-.47,0c-.33,0-.47.37-.81.71s-.52,1.06-.89,1.43-.49.12-.76-.07c-.29.42-.83.9-1.09,1.27.29.12.9.4,1.15.49s.72.44.49.67-.66.73-.93,1-.81.22-1,.56.26.76,0,1-.16.57-.57.57-.45.81-.19,1.08,2.52.54,2.88.94l0-.05a4.73,4.73,0,0,1,1.48.1c-.2-.17-.2-.68,0-.68s.4-.2.23-.37A.67.67,0,0,1,42,39.59Z"/><path class="cls-1" d="M41.82,41.43a9.7,9.7,0,0,0-1.25-.14h0a.49.49,0,0,0-.2,0h0l0,0h0s0,0,0,0h0a2.38,2.38,0,0,0-1-.4h0c-.46-.12-1-.23-1.37-.34h0a1.63,1.63,0,0,1-.52-.2h0a.78.78,0,0,1-.17-.54h0c0-.29.11-.59.38-.6h0a.3.3,0,0,0,.32-.18h0a1.49,1.49,0,0,1,.22-.37h0a.21.21,0,0,0,.07-.16h0c0-.18-.14-.42-.14-.65h0a.47.47,0,0,1,0-.17h0c.07-.19.26-.26.44-.33h0a1.25,1.25,0,0,0,.52-.24h0c.26-.27.7-.76.93-1h0a.18.18,0,0,0,.06-.13h0c0-.17-.3-.4-.55-.49h0l-1.14-.49h0l0,0h0a0,0,0,0,1,0,0h0c.26-.37.8-.85,1.09-1.26h0l0,0h0A.83.83,0,0,0,40,34h0a.39.39,0,0,0,.27-.12h0c.36-.36.54-1.08.89-1.43h0c.34-.33.47-.72.83-.72h0l.46-.05h0a.05.05,0,0,1,0,0h0a2.71,2.71,0,0,1,.09.57h0a.58.58,0,0,1-.14.42h0a.77.77,0,0,0-.17.55h0c0,.28.06.62.06,1h0c0,.6-.08.54-.08,1.27h0a1.06,1.06,0,0,0,.19.65h0a.79.79,0,0,1,.19.5h0a.85.85,0,0,1-.18.52h0a.8.8,0,0,0-.17.46h0a.36.36,0,0,0,0,.18h0a.07.07,0,0,0,.07,0h.1a0,0,0,0,1,0,0h0a1,1,0,0,0-.1.37h0a.24.24,0,0,0,.06.17h0a12.11,12.11,0,0,1,.76,1h0a0,0,0,0,1,0,0h0l0,0h0l-.7,0h0a1.37,1.37,0,0,0-.43.1h0a.41.41,0,0,0-.09.28h0a.62.62,0,0,0,.15.43h0a.28.28,0,0,1,.07.16h0a.33.33,0,0,1-.33.27h0s0,0-.06.06h0a.4.4,0,0,0,0,.17h0a.59.59,0,0,0,.14.4h0a0,0,0,0,1,0,0h0s0,0,0,0h0Zm-.07-.07a.72.72,0,0,1-.1-.38h0a.54.54,0,0,1,0-.19h0a.13.13,0,0,1,.12-.1h0a.3.3,0,0,0,.18-.06h0a.24.24,0,0,0,.09-.15h0a.2.2,0,0,0-.06-.11h0a.75.75,0,0,1-.16-.48h0a.49.49,0,0,1,.1-.32h0a1.14,1.14,0,0,1,.47-.12h0l.65-.05h0c-.23-.32-.55-.82-.72-1h0a.3.3,0,0,1-.08-.22h0a1.11,1.11,0,0,1,.08-.35h0a.11.11,0,0,1-.12-.07h0a.39.39,0,0,1,0-.21h0a.81.81,0,0,1,.18-.5h0a.75.75,0,0,0,.17-.48h0a.72.72,0,0,0-.18-.46h0a1.06,1.06,0,0,1-.2-.69h0c0-.74.08-.68.08-1.27h0c0-.33-.06-.67-.06-1h0a.8.8,0,0,1,.19-.59h0a.54.54,0,0,0,.11-.38h0a1.82,1.82,0,0,0-.08-.52h0a3,3,0,0,1-.44,0h0c-.3,0-.44.35-.79.7h0c-.33.34-.51,1-.89,1.43h0A.41.41,0,0,1,40,34h0a.89.89,0,0,1-.46-.18h0c-.29.4-.8.86-1.05,1.2h0c.3.14.88.39,1.11.48h0c.25.1.57.32.58.55h0a.25.25,0,0,1-.08.17h0c-.22.23-.66.73-.93,1h0a1.18,1.18,0,0,1-.54.26h0c-.18.07-.34.14-.4.29h0a.4.4,0,0,0,0,.15h0c0,.21.14.44.14.65h0a.27.27,0,0,1-.08.2h0a1.35,1.35,0,0,0-.21.36h0a.39.39,0,0,1-.38.22h0a.28.28,0,0,0-.24.16h0a.84.84,0,0,0-.08.37h0a.67.67,0,0,0,.16.49h0a1.2,1.2,0,0,0,.49.19h0l.89.22h0a4.35,4.35,0,0,1,1.46.51h0l0,0h0s.12-.05.24-.05h0a8.6,8.6,0,0,1,1.18.13Z"/><path class="cls-1" d="M29.26,40c.22-.22,1.25,0,1.94,0s.74.74,1,.46.58-.58.91-.58.77-.3.56-.51-1.57-.41-1.57-.68.62,0,1,0,0-.36,0-.92.59-.6,1-1-.21-.93-.36-1.4a2,2,0,0,0-1-1.28,11.39,11.39,0,0,1-2.44-1.55c-.47-.47-.65-.09-1.66.18a2.55,2.55,0,0,1-1.91-.21c-.37-.11-1-.34-1.43-.5a.62.62,0,0,1-.54.4c-.52,0-3.05.44-3.05,1.11s.55,1.23.31,1.47-.76,1-1.21,1a1.75,1.75,0,0,1-.3,1.32c-.5.51-.74,1.07-.32,1.49A5.71,5.71,0,0,0,24,40.61a2.12,2.12,0,0,1,1.84.75A1.59,1.59,0,0,0,28.19,41C28.19,40.44,29,40.21,29.26,40Z"/><path class="cls-1" d="M26.89,41.75a1.54,1.54,0,0,1-1.07-.37h0A2.11,2.11,0,0,0,24,40.65h0a5.61,5.61,0,0,1-2.13-.57h0a5.35,5.35,0,0,1-1.7-1.26h0a.69.69,0,0,1-.23-.51h0a1.56,1.56,0,0,1,.55-1h0a1.43,1.43,0,0,0,.3-1h0a2.71,2.71,0,0,0,0-.29h0a0,0,0,0,1,0,0h0c.42-.05,1-.81,1.19-1h0a.17.17,0,0,0,.05-.13h0c0-.26-.37-.75-.38-1.32h0c0-.19.18-.34.42-.48h0a4.1,4.1,0,0,1,.94-.35h0a8.31,8.31,0,0,1,1.73-.31h0a.61.61,0,0,0,.52-.38h0s0,0,0,0h0c.42.16,1.06.39,1.43.5h0a3.62,3.62,0,0,0,1.18.32h0a2.68,2.68,0,0,0,.71-.11h0a11.84,11.84,0,0,1,1.24-.4h0a.6.6,0,0,1,.45.23h0A11,11,0,0,0,32.75,34h0a2,2,0,0,1,1.06,1.3h0c.11.35.49.75.49,1.11h0a.44.44,0,0,1-.14.32h0a3.42,3.42,0,0,1-.64.43h0a.58.58,0,0,0-.33.53h0a4,4,0,0,0,.19.81h0a.14.14,0,0,1-.06.11h0a.35.35,0,0,1-.16,0h0c-.27,0-.63-.1-.84-.1h0a.23.23,0,0,0-.13,0h0s0,0,0,.07h0s.07.1.2.16h0a4.37,4.37,0,0,0,.49.18h0a3.32,3.32,0,0,1,.88.32h0a.2.2,0,0,1,.06.14h0a.37.37,0,0,1-.22.29h0a.86.86,0,0,1-.43.13h0c-.31,0-.6.29-.89.57h0a.19.19,0,0,1-.14.08h0c-.13,0-.2-.15-.33-.28h0A.8.8,0,0,0,31.2,40h0c-.46,0-1.07-.1-1.49-.1h0a.7.7,0,0,0-.43.09h0l0,0,0,0c-.24.23-1.06.46-1.06,1h0a1.39,1.39,0,0,1-1.33.74Zm-1-.41a1.53,1.53,0,0,0,1,.35h0a1.32,1.32,0,0,0,1.27-.7h0c0-.59.88-.81,1.08-1h0a.68.68,0,0,1,.47-.11h0c.43,0,1,.1,1.49.1h0a.83.83,0,0,1,.61.27h0c.13.14.22.26.29.25h0a.14.14,0,0,0,.1,0h0c.28-.28.58-.59.93-.59h0a.78.78,0,0,0,.39-.12h0c.12-.07.2-.16.2-.24h0a.14.14,0,0,0,0-.09h0a1.81,1.81,0,0,0-.58-.23h0a6.89,6.89,0,0,1-.77-.26h0c-.13-.06-.23-.12-.23-.22h0a.14.14,0,0,1,.07-.13h0a.38.38,0,0,1,.16,0h0c.23,0,.58.1.84.1h0a.31.31,0,0,0,.13,0h0s0,0,0-.06h0a4.91,4.91,0,0,1-.18-.81h0a.66.66,0,0,1,.36-.59h0a3,3,0,0,0,.63-.42h0a.34.34,0,0,0,.12-.27h0c0-.32-.37-.72-.49-1.09h0a2,2,0,0,0-1-1.26h0a10.89,10.89,0,0,1-2.45-1.56h0a.56.56,0,0,0-.41-.21h0a12.57,12.57,0,0,0-1.23.4h0a2.68,2.68,0,0,1-.72.11h0a3.54,3.54,0,0,1-1.2-.32h0c-.37-.11-1-.33-1.4-.49h0a.67.67,0,0,1-.56.39h0a8,8,0,0,0-2.64.65h0c-.24.14-.39.29-.38.43h0c0,.55.37,1,.37,1.32h0A.22.22,0,0,1,22,35h0c-.18.19-.72.94-1.19,1h0v.27h0a1.51,1.51,0,0,1-.31,1h0a1.46,1.46,0,0,0-.53,1h0a.66.66,0,0,0,.2.47h0A5.43,5.43,0,0,0,21.89,40h0a5.43,5.43,0,0,0,2.11.56h0a2.15,2.15,0,0,1,1.85.76Z"/><path class="cls-1" d="M34.24,38.9c.76.2,1,1,1.36,1s.55.49.95.89.67,0,.94-.32l-.06,0c-.26-.27-.22-1.08.19-1.08s.34-.34.57-.57-.18-.65,0-1,.68-.29,1-.56.7-.76.93-1-.18-.55-.49-.67-.86-.37-1.15-.49c-.11.16-.16.31-.1.41a1,1,0,0,1,0,1.17c-.32.32-1-.15-1.23-.36s-.06-1.09-.24-1.45a9.53,9.53,0,0,0-.56-.85,4.77,4.77,0,0,1-.92.18c-.45,0-.56-.95.12-1.1a.53.53,0,0,0,0-1c-.51,0-.58.34-1.43.41s0,.78-.44.78-.36-.93-1-.93-.71-1-.71-1c.54-.53.27-.92-.18-1.1s-.77.42-1.55.42-.13-1.44-.41-1.73a1.72,1.72,0,0,1-.2-1,6.18,6.18,0,0,0-.65.09c-.84,1.68-1.72.31-2.15,1a3.12,3.12,0,0,1-1.82,1.07c.79.36,0,.88.36,1.19a.67.67,0,0,1,0,.75c.42.16,1.06.39,1.43.5a2.55,2.55,0,0,0,1.91.21c1-.27,1.19-.65,1.66-.18a11.39,11.39,0,0,0,2.44,1.55,2,2,0,0,1,1,1.28c.15.47.75,1,.36,1.4s-1,.41-1,1,.42.92,0,.92-1-.24-1,0,.88.39,1.33.56C33.62,39,33.76,38.78,34.24,38.9Z"/><path class="cls-1" d="M36.53,40.79c-.41-.42-.58-.9-.93-.89h0c-.22,0-.37-.2-.56-.42h0a1.64,1.64,0,0,0-.8-.55h0v-.06a1.62,1.62,0,0,1,.83.57h0c.2.22.35.4.52.4h0c.42,0,.58.51,1,.9h0a.29.29,0,0,0,.21.09h0a1.22,1.22,0,0,0,.66-.38h0l0,0h0a.78.78,0,0,1-.17-.54h0c0-.29.11-.59.38-.6h0a.3.3,0,0,0,.32-.18h0a1.49,1.49,0,0,1,.22-.37h0a.21.21,0,0,0,.07-.16h0c0-.18-.14-.42-.14-.65h0a.32.32,0,0,1,0-.17h0c.07-.19.26-.26.44-.33h0a1.25,1.25,0,0,0,.52-.24h0c.26-.27.7-.76.93-1h0a.18.18,0,0,0,.06-.13h0c0-.17-.3-.4-.55-.49h0l-1.11-.48h0a.48.48,0,0,0-.12.27h0a.19.19,0,0,0,0,.08h0a1.25,1.25,0,0,1,.19.64h0a.8.8,0,0,1-.23.57h0a.45.45,0,0,1-.31.12h0a1.82,1.82,0,0,1-1-.48h0a1.24,1.24,0,0,1-.13-.69h0a2.5,2.5,0,0,0-.11-.76h0a7.38,7.38,0,0,0-.54-.84h0a3.84,3.84,0,0,1-.91.18h0c-.25,0-.39-.26-.39-.53h0a.61.61,0,0,1,.5-.63h0a.49.49,0,0,0,.43-.5h0a.46.46,0,0,0-.42-.48h0a1.16,1.16,0,0,0-.57.17h0a2,2,0,0,1-.86.24h0c-.31,0-.36.13-.36.25h0c0,.12.08.28.09.4h0a.1.1,0,0,1,0,.09h0a.16.16,0,0,1-.12,0h0c-.26,0-.35-.26-.45-.48h0c-.11-.23-.23-.44-.51-.44h0a.74.74,0,0,1-.61-.53h0a2.39,2.39,0,0,1-.13-.51h0a0,0,0,0,1,0,0h0a.85.85,0,0,0,.29-.54h0c0-.23-.19-.4-.46-.51h0l-.16,0h0c-.34,0-.69.45-1.38.45h0a.36.36,0,0,1-.34-.18h0a.79.79,0,0,1-.09-.42h0c0-.28.06-.61.06-.85h0a.5.5,0,0,0-.06-.29h0a1.61,1.61,0,0,1-.21-1h0a4.6,4.6,0,0,0-.6.08h0c-.37.72-.75.89-1.1.88h0c-.25,0-.49-.08-.68-.08h0a.38.38,0,0,0-.36.21h0A3,3,0,0,1,25,30.06h0a.51.51,0,0,1,.32.44h0c0,.2-.11.39-.11.54h0a.23.23,0,0,0,.08.18h0a.55.55,0,0,1,.13.38h0a1.08,1.08,0,0,1-.08.38h0c.41.15,1,.37,1.39.48h0a3.62,3.62,0,0,0,1.18.32h0a2.68,2.68,0,0,0,.71-.11h0a11.84,11.84,0,0,1,1.24-.4h0a.6.6,0,0,1,.45.23h0A11,11,0,0,0,32.75,34h0a2,2,0,0,1,1.06,1.3h0c.11.35.49.75.49,1.11h0a.44.44,0,0,1-.14.32h0a3.42,3.42,0,0,1-.64.43h0a.58.58,0,0,0-.33.53h0a4,4,0,0,0,.19.81h0a.14.14,0,0,1-.06.11h0a.35.35,0,0,1-.16,0h0c-.27,0-.63-.1-.84-.1h0a.23.23,0,0,0-.13,0h0s0,0,0,.07h0s0,.08.13.13h0a2.35,2.35,0,0,0,.34.14h0l.82.25h0a.69.69,0,0,1,.57-.36h0l.24,0h0v.06l-.23,0h0c-.28,0-.39.19-.53.36h0c-.34-.13-.92-.26-1.19-.41h0c-.09,0-.16-.1-.16-.18h0a.14.14,0,0,1,.07-.13h0a.38.38,0,0,1,.16,0h0c.23,0,.58.1.84.1h0a.31.31,0,0,0,.13,0h0s0,0,0-.06h0a4.91,4.91,0,0,1-.18-.81h0a.66.66,0,0,1,.36-.59h0a3,3,0,0,0,.63-.42h0a.34.34,0,0,0,.12-.27h0c0-.32-.37-.72-.49-1.09h0a2,2,0,0,0-1-1.26h0a10.89,10.89,0,0,1-2.45-1.56h0a.56.56,0,0,0-.41-.21h0a12.57,12.57,0,0,0-1.23.4h0a2.68,2.68,0,0,1-.72.11h0a3.54,3.54,0,0,1-1.2-.32h0c-.37-.11-1-.34-1.43-.5h0a0,0,0,0,1,0,0h0a.88.88,0,0,0,.09-.38h0a.47.47,0,0,0-.12-.34h0a.31.31,0,0,1-.09-.22h0c0-.18.11-.36.1-.54h0c0-.14-.06-.29-.35-.42h0s0,0,0,0h0s0,0,0,0h0a4.59,4.59,0,0,0,.73-.23h0A2.42,2.42,0,0,0,26.72,29h0a.41.41,0,0,1,.41-.24h0c.21,0,.44.08.68.08h0c.33,0,.69-.14,1.05-.87h0a6.53,6.53,0,0,1,.66-.09h0s0,0,0,0h0s0,0,0,0h0a1.7,1.7,0,0,0,.19,1h0a.46.46,0,0,1,.09.33h0c0,.24-.06.57-.06.85h0a.76.76,0,0,0,.07.39h0a.31.31,0,0,0,.29.15h0c.66,0,1-.45,1.38-.45h0a.57.57,0,0,1,.18,0h0a.67.67,0,0,1,.5.57h0a.84.84,0,0,1-.3.57h0a2.21,2.21,0,0,0,.13.49h0c.11.25.28.48.55.48h0c.32,0,.46.25.56.48h0c.11.24.2.45.4.45h0c.1,0,.1,0,.1-.07h0c0-.09-.08-.25-.09-.4h0c0-.15.11-.28.43-.31h0a2.2,2.2,0,0,0,.83-.23h0a1.06,1.06,0,0,1,.6-.18h0a.51.51,0,0,1,.48.54h0a.56.56,0,0,1-.47.56h0a.56.56,0,0,0-.46.57h0a.58.58,0,0,0,.09.33h0a.3.3,0,0,0,.24.14h0a4.57,4.57,0,0,0,.91-.18h0s0,0,0,0h0a8.38,8.38,0,0,1,.56.86h0a2.28,2.28,0,0,1,.11.79h0a1.24,1.24,0,0,0,.12.65h0a1.64,1.64,0,0,0,.92.45h0a.33.33,0,0,0,.26-.09h0a.74.74,0,0,0,.22-.53h0a1.23,1.23,0,0,0-.18-.61h0a.2.2,0,0,1,0-.11h0a.66.66,0,0,1,.14-.33h0s0,0,0,0h0c.28.13.9.4,1.14.49h0c.25.1.57.32.58.55h0a.25.25,0,0,1-.08.17h0c-.22.23-.66.73-.93,1h0a1.18,1.18,0,0,1-.54.26h0c-.18.07-.34.14-.4.29h0a.4.4,0,0,0,0,.15h0c0,.21.14.44.14.65h0a.27.27,0,0,1-.08.2h0a1.35,1.35,0,0,0-.21.36h0a.39.39,0,0,1-.38.22h0a.28.28,0,0,0-.24.16h0a.84.84,0,0,0-.08.37h0a.67.67,0,0,0,.16.49h0l0,0h0l0,0h0a0,0,0,0,1,0,0h0a1.28,1.28,0,0,1-.73.42h0a.35.35,0,0,1-.25-.1Z"/><path class="cls-1" d="M37.49,40.44c-.27.27-.68.58-.94.32s-.56-.89-.95-.89-.6-.77-1.36-1c-.48-.12-.62.14-.79.34a.65.65,0,0,1,.24.12c.21.21-.23.51-.56.51s-.63.3-.91.58-.34-.46-1-.46-1.72-.22-1.94,0-1.07.45-1.07,1c0,0,.16-.61.39,0s1.07,1.13,1.07,2,.34,1.66.28,2.47c.17.22.24,1,.42,1.18s.58-.57.84-.57,0,.51,0,.83.57.12.65.42.56.7.83,1,.67,1.34.95,1.05a3.73,3.73,0,0,1,.82-.55,3.91,3.91,0,0,1,.93-2.58c.34-.34.6.33.89.63s.3-.3.54-.3.1.64.28.82h0a1,1,0,0,0,1-.83c0-.49-.42-.67-.27-.88l-.65-.6c-.22-.23,0-1,.36-1.39s.83.22,1.31.22.66-.8.89-1.31.36-1,.5-1.2C40,41,37.91,40.69,37.49,40.44Z"/><path class="cls-1" d="M33.56,49.39c-.17,0-.31-.23-.46-.48h0a5,5,0,0,0-.41-.63h0c-.27-.27-.75-.67-.84-1h0c0-.1-.11-.13-.22-.16h0a1.59,1.59,0,0,1-.33-.08h0a.22.22,0,0,1-.11-.19h0c0-.21.09-.48.09-.65h0c0-.11,0-.15-.09-.15h0c-.09,0-.23.14-.36.29h0c-.14.16-.26.31-.4.32h0a.14.14,0,0,1-.1,0h0a1.57,1.57,0,0,1-.22-.6h0a2.59,2.59,0,0,0-.2-.6h0s0,0,0,0h0c0-.06,0-.12,0-.18h0c0-.75-.29-1.63-.29-2.28h0c0-.81-.84-1.32-1.07-2h0c-.07-.2-.14-.25-.17-.25h0s-.08.05-.11.12h0a.87.87,0,0,0-.05.13h0s0,0,0,0h0a0,0,0,0,1,0,0h0c0-.6.87-.82,1.08-1h0a.68.68,0,0,1,.47-.11h0c.43,0,1,.1,1.49.1h0a.83.83,0,0,1,.61.27h0c.13.14.22.26.29.25h0a.14.14,0,0,0,.1,0h0c.28-.28.58-.59.93-.59h0a.78.78,0,0,0,.39-.12h0c.12-.07.2-.16.2-.24h0a.14.14,0,0,0,0-.09h0a.59.59,0,0,0-.23-.12h0l0,0h0a0,0,0,0,1,0,0h0c.13-.16.26-.38.58-.38h0l.24,0h0a1.62,1.62,0,0,1,.83.57h0c.2.22.35.4.52.4h0c.42,0,.58.51,1,.9h0a.29.29,0,0,0,.21.09h0a1.26,1.26,0,0,0,.69-.41h0a0,0,0,0,1,0,0h0a10,10,0,0,0,1.44.4h0a3.64,3.64,0,0,1,1.39.51h0a0,0,0,0,1,0,0h0c-.13.19-.27.72-.49,1.19h0c-.12.26-.22.58-.36.85h0c-.13.26-.3.48-.56.48h0c-.38,0-.72-.36-1-.35h0a.4.4,0,0,0-.28.12h0a1.66,1.66,0,0,0-.44,1.05h0a.43.43,0,0,0,.09.3h0l.64.6h0a0,0,0,0,1,0,0h0a.13.13,0,0,0,0,.08h0a.7.7,0,0,0,.15.28h0a1,1,0,0,1,.15.5h0a1,1,0,0,1-1,.87h-.06l0,0h0c-.15-.16-.09-.55-.16-.72h0c0-.06,0-.08-.09-.08h0c-.07,0-.13.07-.18.17h0c0,.09-.1.2-.21.21h0a.24.24,0,0,1-.17-.1h0a4.12,4.12,0,0,1-.35-.45h0c-.11-.15-.23-.27-.33-.26h0a.24.24,0,0,0-.17.08h0a4.27,4.27,0,0,0-.94,2.3h0a1,1,0,0,0,0,.25h0s0,0,0,0h0L34.2,49h0a2.71,2.71,0,0,0-.51.38h0a.18.18,0,0,1-.13.06Zm-2.25-3.32a.24.24,0,0,1,0,.15h0c0,.18-.08.46-.08.65h0a.13.13,0,0,0,.07.13h0a.8.8,0,0,0,.2.06h0c.15,0,.33,0,.38.22h0c.07.28.56.69.82,1h0a3.94,3.94,0,0,1,.42.64h0c.14.25.3.46.41.45h0a.1.1,0,0,0,.08,0h0a3.69,3.69,0,0,1,.8-.55h0a1.94,1.94,0,0,1,0-.24h0a4.27,4.27,0,0,1,1-2.34h0a.31.31,0,0,1,.21-.11h0c.14,0,.26.14.38.29h0c.11.15.23.33.34.45h0a.18.18,0,0,0,.13.07h0s.1-.07.16-.17h0c0-.09.11-.2.23-.21h0c.07,0,.12.06.15.13h0a1.33,1.33,0,0,1,0,.24h0a.91.91,0,0,0,.11.46h0a1,1,0,0,0,.66-.25h0a.74.74,0,0,0,.29-.55h0a.87.87,0,0,0-.15-.46h0c-.07-.13-.15-.22-.15-.32h0a.29.29,0,0,1,0-.09h0l-.63-.59h0a.57.57,0,0,1-.11-.34h0a1.72,1.72,0,0,1,.47-1.09h0a.45.45,0,0,1,.32-.15h0c.33,0,.67.36,1,.36h0c.22,0,.38-.19.51-.45h0c.13-.26.23-.58.35-.85h0c.21-.45.35-1,.49-1.18h0a4,4,0,0,0-1.35-.47h0a9.52,9.52,0,0,1-1.43-.4h0a1.19,1.19,0,0,1-.71.41h0a.35.35,0,0,1-.25-.1h0c-.41-.42-.58-.9-.93-.89h0c-.22,0-.37-.2-.56-.42h0a1.64,1.64,0,0,0-.8-.55h0l-.23,0h0a.61.61,0,0,0-.5.33h0a.68.68,0,0,1,.21.11h0a.2.2,0,0,1,.06.14h0a.37.37,0,0,1-.22.29h0a.86.86,0,0,1-.43.13h0c-.31,0-.6.29-.89.57h0a.19.19,0,0,1-.14.08h0c-.13,0-.2-.15-.33-.28h0A.8.8,0,0,0,31.2,40h0c-.46,0-1.07-.1-1.49-.1h0a.7.7,0,0,0-.43.09h0c-.19.19-.78.37-1,.72h0a.11.11,0,0,1,.08,0h0c.08,0,.15.09.23.29h0c.21.59,1.07,1.12,1.07,2h0c0,.63.29,1.51.29,2.28h0a1.09,1.09,0,0,1,0,.18h0a2,2,0,0,1,.21.61h0a1.63,1.63,0,0,0,.2.56h0l.06,0h0c.08,0,.22-.14.35-.3h0c.14-.15.26-.31.41-.31h0a.13.13,0,0,1,.12.06Zm6.16-5.6,0,0,0,0Z"/><path class="cls-2" d="M52.44,20.92s.2,3.3-1.62,4.34-6.81.42-6.75,2.65-2.38,5.24-5.82,6.27-5.88,1.58-5.88,3,2.23,3.45-2.64,3.36-9.64-.73-6.69,1.65,5.64-.15,6,3.36.81,9.74,6,6.78,4.08-1.39,6.53.86,6.6.37,9.1-2.85,4.21-5.09,4.17-7.82S53.77,40.13,51.71,36,49,32.35,53,29s6-4.46,4.75-6.33S55.89,19.77,52.44,20.92Z"/><path class="cls-2" d="M22.81,26.44a1.44,1.44,0,0,0-1.87.6,2.29,2.29,0,0,1-.72.75c-1,.66-2.71,1.32-1.46,2s5.52.69,5-.87C23.34,27.78,23.66,26.87,22.81,26.44Z"/><path class="cls-3" d="M22.7,27.83a.71.71,0,0,0-.93.28,1.27,1.27,0,0,1-.34.37c-.48.32-1.32.64-.71,1s2.67.33,2.41-.42C22.94,28.48,23.09,28,22.7,27.83Z"/><path class="cls-2" d="M14.82,36.23A1.08,1.08,0,0,0,13,36.5a5.45,5.45,0,0,1-.37.72c-.43.7-.86,1.57.35,1.35s2.51-1.52,1.86-2.32Z"/><path class="cls-2" d="M14,29.68a1.3,1.3,0,0,0-1.76.35,1.6,1.6,0,0,0-.41,1.31c.26.79,3.3.65,3.44,0C15.33,30.91,14.69,30.13,14,29.68Z"/><path class="cls-3" d="M14,30.36a.78.78,0,0,0-1.27.34.39.39,0,0,0,0,.24c.12.37,1.54.31,1.6,0C14.35,30.8,14.19,30.56,14,30.36Z"/><path class="cls-3" d="M49.49,26.54a4.16,4.16,0,0,0-2.36,1.52c-.91,1.28-2.24,3.52.22,2.77,3.39-1,6.93-3.22,5.25-3.83A4.69,4.69,0,0,0,49.49,26.54Z"/><path class="cls-4" d="M49.83,27.16a2.61,2.61,0,0,0-1.45.93c-.54.77-1.3,2.07.14,1.62,2-.61,4.11-1.9,3.11-2.26A2.81,2.81,0,0,0,49.83,27.16Z"/><path class="cls-3" d="M36.63,47.76a1.5,1.5,0,0,0-1.34-1.27c-1.7-.2-5.68-.48-5.17,1.44.65,2.43,3.15,4.46,4.72,2.73C36,49.42,36.75,48.65,36.63,47.76Z"/><path class="cls-3" d="M53.29,39.62a1.17,1.17,0,0,0-1.37,1.07c-.15,1.77-1,6.39-5.56,7.89-5.72,1.86-5.81,5.45-2.21,5.28s4.17-3.82,5.16-6.4,4.48-1.18,4.95-4.72C54.55,40.58,54,39.76,53.29,39.62Z"/><path class="cls-4" d="M46.93,50.11a.81.81,0,0,0-1-.33c-.89.29-2.91,1.06-2.22,1.89.88,1,2.58,1.48,3,.27C47,51.08,47.18,50.52,46.93,50.11Z"/><path class="cls-4" d="M53.25,40.93a.7.7,0,0,0-.64.66,3.54,3.54,0,0,1-.28,1.18c-.39.95-1.42,2.84.12,1.45s1.57-2.45,1.25-3A.48.48,0,0,0,53.25,40.93Z"/><path class="cls-3" d="M45.16,34.76a2.4,2.4,0,0,0-2.69,1.56,6.32,6.32,0,0,1-2,2.83C38,41,33.8,42.9,36.84,44.77s13.5,2,12.16-2.45C47.84,38.5,49.19,35.55,45.16,34.76Z"/><path class="cls-4" d="M45.79,37.25a2,2,0,0,0-2.88.9,4,4,0,0,1-1.14,1.44c-1.51,1.17-4.14,2.34-2.24,3.51s8.43,1.24,7.59-1.53C46.53,39.62,47,38,45.79,37.25Z"/><path class="cls-4" d="M36.06,48.16a1,1,0,0,0-.87-.82c-1.08-.13-3.6-.3-3.28.91.42,1.55,2,2.84,3,1.74C35.62,49.21,36.12,48.72,36.06,48.16Z"/></svg>