<svg id="图层_1" data-name="图层 1" xmlns="http://www.w3.org/2000/svg" viewBox="0 0 70 70"><defs><style>.cls-1{fill:#c6c6cb;}.cls-2{fill:#ea6a6a;}.cls-3{fill:#ff9f80;}.cls-4{fill:#69b5e1;}</style></defs><title>llrect</title><path class="cls-1" d="M56,48.67c-.3-.11-1,.26-1,1s-.58,1.13-.58,1.77a.8.8,0,0,0,.41.81c.14.14,0,.6.36.71s.28-.23.43-.62.41-.68.41-1.05S56.13,50.2,56,50,56.42,48.82,56,48.67Z"/><path class="cls-1" d="M43.54,56.18c.14-.14.69.24.54.66A4.33,4.33,0,0,1,43.61,58c-.19.19-.32.43-.47.58s-.91,0-1.14-.2-.71-.44-.41-1c0,0,.5-1,.89-.88A1.36,1.36,0,0,0,43.54,56.18Z"/><path class="cls-1" d="M38,51a1.28,1.28,0,0,0-1,0c-.37.12-.56,0-.47-.35s-.25-.63-.25-.79.45-.07.45-.46-.47-.81-.68-.6-.7-.39-.46-.63a1.54,1.54,0,0,1,1.08-.41c.44,0,1,0,.79-.13s0-.79-.27-.79-.23.58-.52.29-.54-.95-.87-.62A3.87,3.87,0,0,0,34.88,49a3.8,3.8,0,0,0-.79.54c-.28.28-.66-.77-.92-1s-.74-.65-.81-.94-.64-.1-.64-.41.21-.81,0-.81-.6.77-.81.56-.27-1.21-.5-1.21-.62,1.28-1.15,1.56a2.17,2.17,0,0,0,.24.29,3,3,0,0,1,.32,1.67c0,.54-.82,1.06-.82,1.06s-.82.41-.5,1.15.91.24,1.17.5.06.75.37,1.06.71.06.87.22-.42,1-.26,1.17.39,0,.45.06l.76.76c.26.26.7-.3.89-.3s.31.63.65.5-.25-1,0-1.26a6,6,0,0,1,1.5-.48,3.58,3.58,0,0,0,2-.39,1.19,1.19,0,0,1,.7-.34.79.79,0,0,0,.34.18,3.43,3.43,0,0,1,.45-.72C38.56,52.1,38.17,51.15,38,51Z"/><path class="cls-1" d="M32.93,55.14c-.08-.13-.16-.25-.22-.24h0a1,1,0,0,0-.31.18h0a.81.81,0,0,1-.41.19h0a.25.25,0,0,1-.19-.08h0L31,54.44h0l-.21,0h0a.26.26,0,0,1-.21-.08h0a.15.15,0,0,1,0-.11h0c0-.25.32-.78.32-1h0a.1.1,0,0,0,0-.07h0a.24.24,0,0,0-.18-.05h-.23A.6.6,0,0,1,30,53h0a.82.82,0,0,1-.21-.57h0a.78.78,0,0,0-.16-.49h0a.32.32,0,0,0-.24-.08h0l-.3,0h0a.65.65,0,0,1-.64-.45h0a.93.93,0,0,1-.08-.35h0a1.11,1.11,0,0,1,.59-.84h0a2.19,2.19,0,0,0,.41-.32h0a1.06,1.06,0,0,0,.4-.71h0a2.91,2.91,0,0,0-.31-1.65h0a2.17,2.17,0,0,1-.24-.29h0a0,0,0,0,1,0,0h0l0,0h0c.38-.21.71-1,.94-1.35h0c.08-.13.14-.21.22-.22h0c.08,0,.13.08.18.18h0a2.36,2.36,0,0,1,.11.37h0a1.94,1.94,0,0,0,.23.67h0a.09.09,0,0,0,.06,0h0c.08,0,.21-.14.34-.29h0c.13-.15.26-.3.39-.31h0a.13.13,0,0,1,.12.07h0a.2.2,0,0,1,0,.14h0c0,.18-.09.45-.09.63h0a.14.14,0,0,0,.07.13h0a.53.53,0,0,0,.2.05h0c.14,0,.32,0,.37.22h0c.07.27.54.67.8.93h0a3.87,3.87,0,0,1,.4.63h0c.14.24.3.44.4.43h0a.1.1,0,0,0,.08,0h0a3.54,3.54,0,0,1,.78-.53h0a1.79,1.79,0,0,1,0-.23h0a4.09,4.09,0,0,1,.94-2.28h0a.26.26,0,0,1,.2-.1h0c.14,0,.26.13.37.28h0a4,4,0,0,0,.34.43h0c0,.06.09.08.12.08h0c.05,0,.1-.08.15-.17h0c0-.09.11-.2.23-.2h0a.15.15,0,0,1,.14.12h0a.56.56,0,0,1,0,.23h0a1,1,0,0,0,.11.45h0a.12.12,0,0,1,0,.08h0a.06.06,0,0,1,0,.06h0a.12.12,0,0,1-.09,0h0l-.3,0h-.41a1.48,1.48,0,0,0-1.06.4h0a.2.2,0,0,0-.06.15h0a.57.57,0,0,0,.14.32h0a.42.42,0,0,0,.25.16h0a.11.11,0,0,0,.09,0h0a.23.23,0,0,1,.16-.06h0a.73.73,0,0,1,.57.68h0c0,.31-.28.35-.4.41h0s-.05,0-.05.05h0a.87.87,0,0,0,.13.27h0a.84.84,0,0,1,.14.41h0a.5.5,0,0,1,0,.12h0a1,1,0,0,0,0,.15h0c0,.14.07.2.23.2h0a.69.69,0,0,0,.22,0h0a2.1,2.1,0,0,1,.56-.08h0A.7.7,0,0,1,38,51h0l0,0,0,0a2.21,2.21,0,0,1,.38,1.1h0a.43.43,0,0,1-.09.31h0a3.1,3.1,0,0,0-.44.71h0s0,0,0,0h0a.89.89,0,0,1-.35-.18h0a.64.64,0,0,0-.21,0h0a1.23,1.23,0,0,0-.46.28h0a3.69,3.69,0,0,1-2,.4h0s-.34.07-.67.16h0a2.71,2.71,0,0,0-.81.31h0a.17.17,0,0,0,0,.12h0c0,.23.19.65.19.92h0a.21.21,0,0,1-.13.23h0l-.1,0h0c-.16,0-.26-.15-.34-.28Zm0,0c.08.13.17.25.29.25h0l.08,0h0c.07,0,.09-.08.09-.17h0c0-.25-.19-.67-.2-.92h0a.23.23,0,0,1,.06-.16h0a2.59,2.59,0,0,1,.84-.33h0l.67-.16h0a3.67,3.67,0,0,0,2-.38h0a1.19,1.19,0,0,1,.71-.35h0a.66.66,0,0,0,.31.17h0a3.24,3.24,0,0,1,.43-.7h0a.36.36,0,0,0,.08-.27h0A2.12,2.12,0,0,0,38,51h0a.74.74,0,0,0-.45-.11h0A2,2,0,0,0,37,51h0a.74.74,0,0,1-.23,0h0a.32.32,0,0,1-.22-.07h0a.24.24,0,0,1-.07-.19h0a.88.88,0,0,1,0-.16h0a.52.52,0,0,0,0-.11h0a.72.72,0,0,0-.13-.38h0a.72.72,0,0,1-.14-.3h0a.13.13,0,0,1,.09-.11h0l.15-.06h0a.28.28,0,0,0,.2-.29h0a.63.63,0,0,0-.17-.42h0a.5.5,0,0,0-.33-.2h0a.15.15,0,0,0-.12.05h0a.19.19,0,0,1-.13,0h0a.6.6,0,0,1-.45-.54h0a.24.24,0,0,1,.08-.19h0a1.55,1.55,0,0,1,1.1-.42h.41a1,1,0,0,0,.37,0h0s0,0,0,0h0c-.15-.15-.1-.53-.17-.7h0c0-.06,0-.08-.08-.08h0c-.07,0-.12.07-.18.17h0c0,.09-.09.19-.2.2h0a.24.24,0,0,1-.16-.09h0a4.12,4.12,0,0,1-.35-.45h0c-.11-.14-.22-.25-.32-.25h0a.22.22,0,0,0-.16.08h0a4.16,4.16,0,0,0-.92,2.24h0a1.94,1.94,0,0,0,0,.24h0a0,0,0,0,1,0,0h0l-.29.17h0a2.94,2.94,0,0,0-.5.37h0a.18.18,0,0,1-.12,0h0c-.16,0-.3-.22-.45-.46h0a4.11,4.11,0,0,0-.39-.61h0c-.26-.27-.74-.66-.82-1h0a.27.27,0,0,0-.21-.16h0a1.07,1.07,0,0,1-.32-.08h0a.18.18,0,0,1-.11-.18h0c0-.2.09-.47.08-.63h0c0-.1,0-.14-.09-.15h0c-.08,0-.22.14-.35.29h0c-.13.15-.25.3-.38.31h0a.14.14,0,0,1-.1-.05h0a1.16,1.16,0,0,1-.19-.48h0c-.06-.21-.11-.44-.17-.58h0c0-.09-.09-.14-.12-.14h0s-.09.06-.17.19h0l-.26.47h0a2.49,2.49,0,0,1-.67.88h0a1.71,1.71,0,0,0,.21.26h0a2.93,2.93,0,0,1,.33,1.69h0c0,.57-.83,1.08-.84,1.09h0a1.35,1.35,0,0,0-.28.2h0a.82.82,0,0,0-.27.58h0a.85.85,0,0,0,.07.33h0a.58.58,0,0,0,.58.41h0l.3,0h0a.35.35,0,0,1,.28.1h0a.81.81,0,0,1,.18.53h0a.8.8,0,0,0,.19.53h0a.57.57,0,0,0,.42.16h.23a.29.29,0,0,1,.22.07h0a.12.12,0,0,1,0,.11h0c0,.25-.32.77-.32,1h0a.12.12,0,0,0,0,.07h0a.22.22,0,0,0,.17.06h0l.21,0h0a.12.12,0,0,1,.08,0h0l.75.76h0a.18.18,0,0,0,.15.06h0a.82.82,0,0,0,.38-.18h0c.13-.09.24-.19.34-.19h0c.12,0,.19.15.27.27Z"/><path class="cls-1" d="M50,49.93c-.4,0-.64.44-.94.33a2.17,2.17,0,0,0-1.22.17c-.38.14.5-.44.06-.89s-1.7,0-1.91.18.19.69-.23.69-.35-.77-.64-.48-.11,1-.4,1.77-.26,1.09-.79,1.62c-.35.35-1,.94-1.36,1.4a2.5,2.5,0,0,0,.07,1,.77.77,0,0,0,1,.2c.17-.18-.3-.31-.3-.61s.89-.67,1.84-.78a2.08,2.08,0,0,0,1.43-1.15c.67.17.67-.35.67-.35.8.79,1.67-.39,2.35-.5a2.4,2.4,0,0,0,1.36-.91h0C50.71,51,50.26,49.93,50,49.93Z"/><path class="cls-1" d="M42.58,55.69a1.46,1.46,0,0,1-.1-.6h0c0-.16,0-.3,0-.37h0v0c.38-.47,1-1.05,1.36-1.4h0c.52-.52.49-.85.78-1.61h0c.29-.74.11-1.47.41-1.78h0a.25.25,0,0,1,.14-.08h0c.06,0,.09.05.12.11h0a1.72,1.72,0,0,1,.09.19h0c.07.13.15.25.31.25h0c.15,0,.17-.05.17-.14h0c0-.09,0-.22,0-.33h0a.26.26,0,0,1,.08-.21h0a2.43,2.43,0,0,1,1.3-.39h0a.91.91,0,0,1,.65.21h0a.44.44,0,0,1,.14.31h0a1.2,1.2,0,0,1-.28.59h0l0,0h0a3.24,3.24,0,0,1,1-.21h0a.82.82,0,0,1,.28,0h0l.09,0h0c.23,0,.46-.35.84-.35h0V50c-.34,0-.55.34-.84.35h0l-.11,0h0a.71.71,0,0,0-.26,0h0a3.26,3.26,0,0,0-.94.21h0l-.09,0h0s0,0,0,0h0s0-.06,0-.1h0l.1-.14h0a.73.73,0,0,0,.14-.37h0a.33.33,0,0,0-.12-.26h0a.84.84,0,0,0-.61-.19h0a2.36,2.36,0,0,0-1.26.36h0a.24.24,0,0,0-.06.17h0c0,.1,0,.23,0,.33h0a.21.21,0,0,1-.05.15h0a.3.3,0,0,1-.18,0h0c-.3,0-.37-.33-.45-.47h0s-.05-.08-.07-.07h0s-.05,0-.1.05h0c-.27.26-.1,1-.39,1.76h0c-.29.75-.26,1.1-.8,1.63h0c-.35.36-1,.93-1.35,1.39h0c0,.07,0,.21,0,.36h0a1.42,1.42,0,0,0,.09.57h0a.67.67,0,0,0,.6.28h0a.54.54,0,0,0,.33-.09h0s0,0,0-.06h0s-.08-.12-.16-.2h0a.46.46,0,0,1-.18-.33h0c0-.18.23-.34.58-.49h0a4.51,4.51,0,0,1,1.29-.32h0a1.69,1.69,0,0,0,1.05-.61h0a2.23,2.23,0,0,0,.35-.52h0s0,0,0,0h0l.24,0h0a.34.34,0,0,0,.34-.17h0a.41.41,0,0,0,0-.18h0l0,0h0a.78.78,0,0,0,.57.26h0c.6,0,1.22-.68,1.74-.77h0a2.36,2.36,0,0,0,1.34-.89h0a6.46,6.46,0,0,0-.72-1.44h0C50.1,50,50,50,50,50h0V49.9c.09,0,.18.08.27.18h0a3.39,3.39,0,0,1,.27.44h0a11.24,11.24,0,0,1,.47,1h0s0,0,0,0h0a2.5,2.5,0,0,1-1.38.92h0c-.49.08-1.11.77-1.75.77h0a.81.81,0,0,1-.57-.23h0a.48.48,0,0,1,0,.14h0a.44.44,0,0,1-.4.21h0a.7.7,0,0,1-.23,0h0a2,2,0,0,1-1.45,1.15h0a4.82,4.82,0,0,0-1.27.31h0c-.34.14-.55.32-.54.44h0a.43.43,0,0,0,.16.29h0c.08.08.17.14.18.24h0a.16.16,0,0,1,0,.1h0a.58.58,0,0,1-.37.11h0a.71.71,0,0,1-.65-.31Z"/><path class="cls-1" d="M10.82,37.53c-.38-.38,1.6-.6,1.85-.34s.19-.43,1.24-.43,1.46.39,2.35,0a8.83,8.83,0,0,1,3.12-.5c.93,0,1.49-.25,1.93.19s1.23-.65,1.47-.88-.31-.78-.31-1.43,2.46-1.08,3-1.08a.74.74,0,0,0,.5-1.12c-.31-.31.42-.81-.35-1.16a3.09,3.09,0,0,0,1.77-1c.42-.69,1.27.64,2.09-1h0a2.11,2.11,0,0,0-.57-.82,3.89,3.89,0,0,1-.48-1,9,9,0,0,1-1.82-1.06c-1.23,0-1.78-.63-1.47-1.13a3.41,3.41,0,0,0,.24-1.52c-.57-.13-.83-1.5-.83-1.5a2.22,2.22,0,0,1-2-1.06c-.29.57-1.19.38-1.57.76s-.08,1.65-.67,1.65-1-.39-1.8-.39-1,1.76-1.41,2.12-1.19,0-1.69,0a.55.55,0,0,0-.48.91c.36.36.11.6,0,1.28s-.8.32-.69.95-.11.83-.76.83a2.18,2.18,0,0,0-1.46.6c-.26.26-.8.09-1.25.09s-.68.59-.68.59c-.67-.31-1.47,0-2.19,0s-.73.73-.86,1.23.13.46.41.74.28.22.15.8-.67.39-.67.74.67.35.67.35-.24.56.13.56.54.76.54,1,1.06.57,1.17,1,.68,1.21.57,1.71a.09.09,0,0,0,0,.05C10.44,38.06,11.06,37.77,10.82,37.53Z"/><path class="cls-1" d="M9.91,38.26a0,0,0,0,1,0,0h0a.11.11,0,0,1,0,0h0a.53.53,0,0,0,0-.13h0a6.63,6.63,0,0,0-.58-1.57h0c-.06-.26-.68-.5-1-.72h0c-.1-.07-.18-.15-.18-.24h0A1.85,1.85,0,0,0,8,34.91H8c-.09-.23-.22-.4-.38-.4h0a.23.23,0,0,1-.19-.08h0a.27.27,0,0,1,0-.18h0a.73.73,0,0,1,.07-.3h0l-.3-.05h0c-.17,0-.36-.13-.36-.33h0a.22.22,0,0,1,.1-.2h0a1,1,0,0,1,.2-.11h0a.55.55,0,0,0,.37-.43h0a2.89,2.89,0,0,0,.08-.46h0c0-.11,0-.15-.22-.32h0a3.83,3.83,0,0,0-.31-.24h0a.34.34,0,0,1-.15-.29h0a.8.8,0,0,1,0-.24h0a5.38,5.38,0,0,1,.21-.81h0A.67.67,0,0,1,7.83,30h0c.47,0,1-.14,1.49-.14h0A1.66,1.66,0,0,1,10,30h0c.05-.13.27-.58.69-.58h0c.26,0,.55.06.79.06h0a.6.6,0,0,0,.44-.14h0a2.24,2.24,0,0,1,1.48-.61h0a1.07,1.07,0,0,0,.58-.12h0a.43.43,0,0,0,.17-.41h0c0-.07,0-.16,0-.26h0a.69.69,0,0,1,0-.13h0c0-.25.17-.32.33-.38h0a.58.58,0,0,0,.38-.46h0c.08-.42.21-.67.21-.88h0a.5.5,0,0,0-.18-.37h0a.52.52,0,0,1-.16-.37h0a.64.64,0,0,1,.66-.59h0c.33,0,.8.14,1.18.14h0a.66.66,0,0,0,.49-.16h0a5.69,5.69,0,0,0,.55-1.19h0c.22-.48.48-.94.88-.94h0c.77,0,1.23.39,1.8.39h0a.28.28,0,0,0,.27-.19h0a1.78,1.78,0,0,0,.12-.47h0a1.8,1.8,0,0,1,.26-1h0a1.7,1.7,0,0,1,.84-.32h0a1,1,0,0,0,.72-.43h0s0,0,0,0h0a0,0,0,0,1,0,0h0l.11.16h0a1.8,1.8,0,0,0,.34.36h0a2.3,2.3,0,0,0,1.52.52h0a0,0,0,0,1,0,0h0a5.33,5.33,0,0,0,.2.69h0c.13.36.34.72.6.78h0a0,0,0,0,1,0,0h0v.24h0a2.84,2.84,0,0,1-.25,1.3h0A.61.61,0,0,0,25,25h0a.69.69,0,0,0,.39.56h0a2.28,2.28,0,0,0,1.14.26h0s.32.24.71.48h0a4.56,4.56,0,0,0,1.1.58h0a0,0,0,0,1,0,0h0s.07.2.16.43h0a2.19,2.19,0,0,0,.31.58h0a2.18,2.18,0,0,1,.57.81h0a0,0,0,0,1,0,0h0c-.35.72-.72.88-1.06.88h0c-.26,0-.48-.09-.67-.09h0a.4.4,0,0,0-.35.21h0a2.9,2.9,0,0,1-1.71,1h0a.5.5,0,0,1,.31.43h0c0,.19-.1.37-.1.52h0a.22.22,0,0,0,.07.18h0a.5.5,0,0,1,.13.36h0c0,.37-.27.81-.65.81h0a7.78,7.78,0,0,0-2.57.63h0c-.23.13-.38.28-.37.42h0c0,.53.36,1,.36,1.28h0a.27.27,0,0,1-.06.17h0c-.2.18-.77,1-1.25,1h0a.37.37,0,0,1-.26-.12h0a.92.92,0,0,0-.71-.25h0c-.31,0-.7.07-1.2.07h0a8.74,8.74,0,0,0-3.11.5h0a1.9,1.9,0,0,1-.78.17h0c-.48,0-.9-.17-1.58-.17h0a1.29,1.29,0,0,0-.82.23h0c-.15.12-.21.24-.32.25h0a.17.17,0,0,1-.12-.06h0a1,1,0,0,0-.56-.1h0a3.18,3.18,0,0,0-1.18.2h0c-.07,0-.11.09-.11.12h0a.12.12,0,0,0,0,.08h0l0,0,0,0a.14.14,0,0,1-.06-.12h0c0-.07.06-.12.14-.17h0a1.28,1.28,0,0,1,.33-.11h0a3.71,3.71,0,0,1,.88-.1h0a1.07,1.07,0,0,1,.6.11h0a.15.15,0,0,0,.08.05h0c.05,0,.13-.11.28-.23h0a1.29,1.29,0,0,1,.86-.25h0c.7,0,1.12.17,1.58.17h0a1.85,1.85,0,0,0,.76-.17h0a8.63,8.63,0,0,1,3.13-.5h0c.49,0,.88-.07,1.2-.07h0a1,1,0,0,1,.75.27h0a.3.3,0,0,0,.22.1h0c.42,0,1-.79,1.2-1h0a.13.13,0,0,0,.05-.12h0c0-.26-.36-.73-.36-1.28h0c0-.19.16-.34.41-.47h0a4.12,4.12,0,0,1,.91-.35h0A8.82,8.82,0,0,1,25.44,33h0a.56.56,0,0,0,.42-.24h0a.89.89,0,0,0,.17-.51h0a.48.48,0,0,0-.11-.32h0a.27.27,0,0,1-.09-.22h0c0-.17.1-.35.1-.52h0c0-.14-.07-.28-.35-.41h0s0,0,0,0h0s0,0,0,0h0a3.45,3.45,0,0,0,.71-.23h0a2.28,2.28,0,0,0,1.05-.79h0a.43.43,0,0,1,.4-.24h0c.2,0,.43.09.67.09h0c.31,0,.64-.14,1-.8h0v0h0a2.13,2.13,0,0,0-.56-.81h0a3.74,3.74,0,0,1-.48-1h0a9.18,9.18,0,0,1-1.81-1.06h0c-1,0-1.57-.43-1.58-.88h0a.58.58,0,0,1,.09-.3h0a2.72,2.72,0,0,0,.24-1.26h0v-.22h0c-.29-.08-.49-.45-.63-.81h0a3.94,3.94,0,0,1-.19-.68h0a2.25,2.25,0,0,1-2-1h0a1.09,1.09,0,0,1-.74.42h0a1.62,1.62,0,0,0-.8.3h0c-.27.26-.19,1-.37,1.44h0a.35.35,0,0,1-.33.22h0c-.6,0-1.05-.39-1.8-.39h0c-.35,0-.61.42-.82.91h0a5.32,5.32,0,0,1-.57,1.21h0a.74.74,0,0,1-.53.17h0c-.4,0-.86-.14-1.18-.14h0a.58.58,0,0,0-.6.53h0a.49.49,0,0,0,.14.33h0a.57.57,0,0,1,.2.41h0a7.45,7.45,0,0,1-.21.89h0a.61.61,0,0,1-.41.5h0c-.17.08-.29.12-.29.33h0a.57.57,0,0,0,0,.12h0c0,.1,0,.19,0,.27h0a.5.5,0,0,1-.2.46h0a1.13,1.13,0,0,1-.61.13h0A2.14,2.14,0,0,0,12,29.4h0a.68.68,0,0,1-.49.16h0c-.25,0-.54-.06-.79-.06h0a.64.64,0,0,0-.49.28h0a1.57,1.57,0,0,0-.16.29h0a0,0,0,0,1,0,0h0A1.63,1.63,0,0,0,9.32,30h0c-.49,0-1,.14-1.49.14h0a.62.62,0,0,0-.62.41h0a5.57,5.57,0,0,0-.22.8H7a1,1,0,0,0,0,.22H7a.27.27,0,0,0,.13.24h0A3.78,3.78,0,0,1,7.4,32h0c.16.16.24.22.24.36h0a2.79,2.79,0,0,1-.08.47h0c-.1.46-.46.47-.6.57H7a.2.2,0,0,0-.07.16h0c0,.15.14.23.31.27h0a1.26,1.26,0,0,0,.33,0h0a0,0,0,0,1,0,0h0a1,1,0,0,0-.08.32h0c0,.12,0,.2.18.2h0c.21,0,.35.21.44.43h0a2,2,0,0,1,.13.64h0s.06.12.16.19h0c.1.07.23.14.37.22h0c.28.16.58.32.64.54h0A6.2,6.2,0,0,1,10,38.05h0a.61.61,0,0,1,0,.14h0a4.4,4.4,0,0,0,.58-.25h0c.18-.1.3-.22.29-.3h0a.16.16,0,0,0,0-.09h0l0,0,0,0a.19.19,0,0,1,.06.13h0c0,.14-.14.24-.32.35h0a5.36,5.36,0,0,1-.64.28h0Z"/><path class="cls-1" d="M30.28,29.63c.27.27-.35,1.67.4,1.67s1.07-.57,1.5-.4.7.55.18,1.07c0,0,.11,1,.69,1s.49.9.93.9-.39-.68.43-.75.9-.41,1.39-.41a.52.52,0,0,1,0,1c-.67.14-.55,1.07-.12,1.07a5.63,5.63,0,0,0,2.14-.7c.26-.26.35-1.39.78-1.39s.28.91.64,1.28.88.88,1.24.52.54-1.06.87-1.39.46-.7.78-.7,1.65-.17,1.65-.75,1-1.1,1.45-1.1.52-.63.52-1.21.66-.7.66.08a2.07,2.07,0,0,0,1.28-.37c.4-.41.4-.06.4-.81s.8-.39,1.07-.12.69.81,1,.47.41-.83.83-.83,2.85-1.72,2.85-2.15-.71-.31-1.08-.67-.23-.87-.69-1.33,1-.45.84-1-1-.87-.78-1.39,1.24-1,1.59-1.39-.06-.49.17-.72-.29-.81-.29-1.13.73-.81.47-1.07-.44-.61-.87-.61-.52.7-1.33.35-.41-1-1.1-1c-.29,0-.49,0-.61-.36a4.75,4.75,0,0,0-.44-1.11l-.09,0c-.34.11-.67,1.24-.49,1.06s.61.45.41.65a3.61,3.61,0,0,0-.76,1.46c-.15.63.3.82.22.91a7.8,7.8,0,0,0-.87.71c-.44.44-.87.09-1.26.09s-.37,1.63-.37,2.15.78.74,1.35.39,1.07-.49,1.34-.22.59,1-.06,1a3.43,3.43,0,0,0-1.83.65c-.25.25-.51,1.53-.8,1.82a1.93,1.93,0,0,1-1.16.38c-.25,0-.49.49-.49.49-.82-.52-1.6-.26-1.6.09s.3.47.3.75a6.39,6.39,0,0,1-2.17,2c-.37,0-2.17-.17-2.6-.17s-.2.26-.85.45-1.51.89-1.91.89-.67-.37-1.06-.52a7.82,7.82,0,0,0-2-.6h-3A1.67,1.67,0,0,0,30.28,29.63Z"/><path class="cls-1" d="M35.3,34.29a.59.59,0,0,1,.49-.61h0a.5.5,0,0,0,.42-.48h0a.46.46,0,0,0-.41-.48h0a1.06,1.06,0,0,0-.56.18h0a2.15,2.15,0,0,1-.83.23h0c-.3,0-.35.12-.35.23h0c0,.13.08.28.08.39h0a.13.13,0,0,1,0,.1h0a.21.21,0,0,1-.12,0h0c-.25,0-.33-.25-.44-.47h0c-.1-.22-.22-.43-.49-.43h0a.68.68,0,0,1-.59-.51h0a2.24,2.24,0,0,1-.13-.5h0s0,0,0,0h0a.79.79,0,0,0,.28-.52h0c0-.23-.19-.4-.45-.5h0a.4.4,0,0,0-.15,0h0c-.34,0-.67.43-1.34.43h0a.34.34,0,0,1-.34-.17h0a.86.86,0,0,1-.08-.41h0c0-.27.06-.6.06-.83h0a.37.37,0,0,0-.07-.27h0l0,0,0,0a.48.48,0,0,1,.08.31h0c0,.24-.06.56-.06.83h0a.83.83,0,0,0,.07.38h0a.31.31,0,0,0,.29.14h0c.64,0,1-.43,1.34-.43h0l.18,0h0a.67.67,0,0,1,.48.56h0a.83.83,0,0,1-.29.55h0a2,2,0,0,0,.13.47h0c.1.24.26.47.53.47h0c.31,0,.44.25.55.47h0c.1.23.19.43.38.43h0c.09,0,.1,0,.1-.07h0a3.7,3.7,0,0,1-.08-.39h0c0-.14.1-.27.41-.29h0a2.14,2.14,0,0,0,.81-.23h0a1.17,1.17,0,0,1,.58-.18h0a.51.51,0,0,1,.47.54h0a.53.53,0,0,1-.46.53h0a.56.56,0,0,0-.45.56h0a.55.55,0,0,0,.09.32h0a.29.29,0,0,0,.23.13h0a5.51,5.51,0,0,0,2.12-.68h0a2.86,2.86,0,0,0,.32-.78h0c.11-.31.24-.61.48-.62h0a.29.29,0,0,1,.26.17h0a1.09,1.09,0,0,1,.12.36h0a1.57,1.57,0,0,0,.28.75h0c.28.28.65.64.94.64h0a.32.32,0,0,0,.26-.12h0c.36-.35.53-1,.87-1.38h0c.33-.33.46-.7.8-.71h0a3.89,3.89,0,0,0,.94-.15h0c.37-.12.68-.31.68-.57h0a1.07,1.07,0,0,1,.55-.79h0a1.83,1.83,0,0,1,.93-.34h0c.23,0,.34-.14.41-.37h0a2.89,2.89,0,0,0,.08-.81h0c0-.31.18-.5.37-.5h0c.18,0,.34.18.35.55h0A1.85,1.85,0,0,0,47.66,29h0a2.71,2.71,0,0,1,.36-.28h0s0-.13,0-.51h0a.54.54,0,0,1,.11-.37h0a.36.36,0,0,1,.28-.11h0a1.19,1.19,0,0,1,.73.34h0c.21.22.51.57.77.57h0a.31.31,0,0,0,.23-.11h0a2.91,2.91,0,0,0,.38-.53h0a.54.54,0,0,1,.47-.3h0a3.84,3.84,0,0,0,1.07-.56h0a11.46,11.46,0,0,0,1.37-1.07h0c.23-.21.38-.41.37-.49h0c0-.2-.15-.26-.37-.33h0a1.61,1.61,0,0,1-.69-.32h0c-.37-.38-.24-.88-.69-1.33h0a.24.24,0,0,1-.1-.18h0a.26.26,0,0,1,.16-.21h0l.33-.15h0c.24-.1.46-.22.46-.4h0a.31.31,0,0,0,0-.08h0a1.9,1.9,0,0,0-.46-.64h0a1,1,0,0,1-.35-.61h0a.5.5,0,0,1,0-.16h0c.19-.54,1.26-1.06,1.6-1.4h0a.37.37,0,0,0,.14-.27h0c0-.09-.05-.17-.05-.27h0a.24.24,0,0,1,.08-.18h0a.17.17,0,0,0,.05-.14h0c0-.25-.34-.69-.35-1h0a1,1,0,0,1,.27-.48h0a1,1,0,0,0,.25-.45h0a.15.15,0,0,0-.05-.12h0c-.26-.26-.43-.6-.84-.6h0a.65.65,0,0,0-.4.22h0a.81.81,0,0,1-.52.23h0a1.06,1.06,0,0,1-.42-.1h0a1,1,0,0,1-.61-.64h0c-.09-.2-.14-.34-.48-.34h0c-.29,0-.51,0-.64-.38h0a5.49,5.49,0,0,0-.42-1.08h0l-.07,0h0c-.12,0-.26.24-.36.46h0a1.77,1.77,0,0,0-.16.55h0a.11.11,0,0,1,.09,0h0a.44.44,0,0,1,.28.2h0a.68.68,0,0,1,.14.37h0a.27.27,0,0,1-.06.17h0a3.57,3.57,0,0,0-.75,1.44h0a1,1,0,0,0,0,.23h0a.75.75,0,0,0,.12.42h0c.06.1.13.15.14.22h0a.08.08,0,0,1,0,.05h0a6.47,6.47,0,0,0-.87.72h0a.7.7,0,0,1-.52.22h0c-.27,0-.53-.13-.76-.13h0c-.07,0-.13.07-.18.2h0a2.63,2.63,0,0,0-.11.51h0c0,.41-.05.9-.05,1.22h0v.19h0c0,.32.33.53.72.53h0a1.05,1.05,0,0,0,.58-.17h0a2,2,0,0,1,1-.36h0a.55.55,0,0,1,.4.15h0a1.12,1.12,0,0,1,.33.69h0a.31.31,0,0,1-.1.24h0a.44.44,0,0,1-.31.1h0a3.37,3.37,0,0,0-1.8.64h0A3,3,0,0,0,47,24h0a3.08,3.08,0,0,1-.43.94h0a1.87,1.87,0,0,1-1.18.39h0c-.1,0-.22.11-.31.23h0a1.77,1.77,0,0,0-.15.24h0a0,0,0,0,1,0,0h0a1.84,1.84,0,0,0-.92-.29h0a1,1,0,0,0-.47.11h0a.31.31,0,0,0-.17.25h0c0,.32.29.45.3.75h0a.64.64,0,0,1-.17.31h0c-.11.14-.26.3-.43.48h0a9.58,9.58,0,0,1-1.08,1h0a1.2,1.2,0,0,1-.52.28h0c-.37,0-2.17-.17-2.6-.17h0a.32.32,0,0,0-.32.14h0a.91.91,0,0,1-.52.31h0c-.64.19-1.5.89-1.92.89h0c-.41,0-.69-.37-1.07-.52h0a7.48,7.48,0,0,0-2-.6H30.11a1.64,1.64,0,0,0,.19.92h0l0,0,0,0a1.78,1.78,0,0,1-.2-1h0s0,0,0,0h0l.44,0H33a8.2,8.2,0,0,1,2,.61h0c.4.16.68.53,1,.52h0c.37,0,1.25-.69,1.9-.89h0a.77.77,0,0,0,.49-.29h0a.41.41,0,0,1,.37-.16h0c.44,0,2.24.17,2.6.17h0a2.38,2.38,0,0,0,.83-.55h0a11.07,11.07,0,0,0,1-1h0a1,1,0,0,0,.28-.42h0c0-.25-.3-.39-.3-.75h0c0-.24.3-.42.7-.42h0a1.72,1.72,0,0,1,.92.29h0a.85.85,0,0,1,.14-.22h0a.51.51,0,0,1,.36-.26h0a1.92,1.92,0,0,0,1.14-.37h0a3,3,0,0,0,.41-.92h0a3.28,3.28,0,0,1,.39-.9h0a3.39,3.39,0,0,1,1.85-.66h0c.27,0,.35-.12.35-.28h0a1.1,1.1,0,0,0-.31-.65h0a.48.48,0,0,0-.36-.13h0a1.92,1.92,0,0,0-1,.36h0a1.25,1.25,0,0,1-.61.17h0c-.41,0-.78-.22-.78-.59h0v-.19h0a6.23,6.23,0,0,1,.17-1.75h0c.05-.14.12-.24.23-.24h0c.25,0,.51.13.76.13h0a.66.66,0,0,0,.48-.21h0a9,9,0,0,1,.86-.71h0l-.13-.18h0a.81.81,0,0,1-.13-.46h0a1.21,1.21,0,0,1,0-.25h0a3.54,3.54,0,0,1,.77-1.47h0a.16.16,0,0,0,0-.12h0a.58.58,0,0,0-.13-.33h0a.36.36,0,0,0-.23-.18h0a.05.05,0,0,0,0,0h0l-.05,0h0a.06.06,0,0,1,0,0h0v0h0a1.79,1.79,0,0,1,.17-.57h0c.1-.23.24-.45.4-.5h0l.08,0h0a4.34,4.34,0,0,1,.44,1.12h0c.13.31.3.33.59.34h0a.48.48,0,0,1,.53.38h0a1,1,0,0,0,.58.6h0a1,1,0,0,0,.4.1h0a.72.72,0,0,0,.48-.22h0a.68.68,0,0,1,.44-.23h0c.45,0,.63.37.89.62h0a.23.23,0,0,1,.06.16h0a.92.92,0,0,1-.26.48h0a1.08,1.08,0,0,0-.26.45h0c0,.24.35.68.35,1h0a.24.24,0,0,1-.07.18h0a.2.2,0,0,0-.06.14h0c0,.08,0,.16,0,.27h0a.43.43,0,0,1-.16.31h0c-.35.36-1.42.88-1.58,1.38h0a.39.39,0,0,0,0,.14h0a.9.9,0,0,0,.34.57h0a2.09,2.09,0,0,1,.47.66h0a.44.44,0,0,1,0,.1h0c0,.18-.15.28-.32.37h0c-.17.09-.37.16-.5.23h0c-.08.05-.13.11-.13.16h0a.23.23,0,0,0,.08.14h0c.47.48.35,1,.7,1.33h0a1.55,1.55,0,0,0,.65.3h0c.22.06.42.15.43.39h0c0,.13-.17.31-.4.54h0a10.36,10.36,0,0,1-.88.72h0a5.21,5.21,0,0,1-1.6.92h0a.49.49,0,0,0-.42.27h0a3.32,3.32,0,0,1-.39.55h0a.37.37,0,0,1-.27.12h0c-.31,0-.6-.38-.81-.59h0a1.23,1.23,0,0,0-.69-.32h0c-.19,0-.32.09-.33.42h0c0,.37,0,.48-.06.55h0a4.28,4.28,0,0,0-.35.28h0a2,2,0,0,1-1.26.39h0a0,0,0,0,1,0,0h0c0-.38-.15-.52-.29-.52h0c-.15,0-.31.16-.31.44h0a3.12,3.12,0,0,1-.08.83h0a.48.48,0,0,1-.47.41h0a1.78,1.78,0,0,0-.89.33h0a1,1,0,0,0-.53.74h0c0,.32-.35.51-.72.62h0a3.67,3.67,0,0,1-1,.16h0c-.29,0-.42.35-.76.69h0c-.32.32-.49,1-.86,1.39h0a.45.45,0,0,1-.31.13h0c-.34,0-.7-.38-1-.65h0c-.28-.29-.26-.88-.41-1.13h0a.23.23,0,0,0-.21-.14h0c-.18,0-.32.26-.42.58h0a2.67,2.67,0,0,1-.33.8h0a5.67,5.67,0,0,1-2.17.71h0c-.24,0-.38-.26-.38-.52Z"/><path class="cls-1" d="M52.56,42a2.21,2.21,0,0,0-.13.69c0,.35-.81,1.14-1,1.37s.31,1.47,1,1.47c0,0-.23,1,1.84.75a1.31,1.31,0,0,1,.53-.77c.54-.35.46-1.48.46-2a.87.87,0,0,0-.33-.72.66.66,0,0,1-.52-.47l.1-.05A2.6,2.6,0,0,0,52.56,42Z"/><path class="cls-1" d="M52.58,46a.56.56,0,0,1-.22-.44h0v-.06h0c-.6,0-1-.89-1.06-1.32h0a.26.26,0,0,1,.07-.2h0c.11-.12.37-.37.6-.64h0a1.67,1.67,0,0,0,.43-.71h0a2.17,2.17,0,0,1,.14-.7h0a0,0,0,0,1,0,0h0a2,2,0,0,1,.58-.08h0a2.88,2.88,0,0,1,1.35.37h0l0,0h0a0,0,0,0,1,0,0h0l-.07,0h0v0h0a.42.42,0,0,0,.07.13h0a.65.65,0,0,0,.41.26h0a.91.91,0,0,1,.34.74h0V44h0c0,.54,0,1.26-.47,1.54h0a1.27,1.27,0,0,0-.52.76h0s0,0,0,0h0l-.55,0h0A1.69,1.69,0,0,1,52.58,46Zm-.16-.54s0,0,0,0h0a.28.28,0,0,0,0,.08h0c0,.18.1.66,1.27.66h0l.53,0h0a1.31,1.31,0,0,1,.54-.77h0c.39-.24.44-1,.44-1.49h0V43.5h0a.86.86,0,0,0-.27-.65h0l0,0h0a.69.69,0,0,1-.54-.49h0a.05.05,0,0,1,0,0h0l.05,0h0a2.81,2.81,0,0,0-1.28-.34h0a2.13,2.13,0,0,0-.55.07h0a2,2,0,0,0-.13.67h0a1.54,1.54,0,0,1-.44.75h0c-.23.27-.5.53-.61.64h0a.22.22,0,0,0,0,.16h0a1.59,1.59,0,0,0,.31.79h0a1,1,0,0,0,.73.47h0a0,0,0,0,1,0,0Z"/><path class="cls-1" d="M47.34,36a1.22,1.22,0,0,0,.52.11.27.27,0,0,1,.13.51c-.27.09-.85.24-.42.67s.52.62,1,.43.54-.28,1-.18a2.21,2.21,0,0,0,1.16.08c.38-.12.94-1.06,1.32-.91a4.66,4.66,0,0,0,.93-1.39c0-.26.47-.72,1.12-.72s.57-1.06.16-1.06-1.07,0-1.41,0-.56.31-.94.69-.65.13-1-.54-.91-.13-1.14-.34C49,33.73,47.22,34.82,47.34,36Z"/><path class="cls-1" d="M47.55,37.34a.52.52,0,0,1-.17-.3h0a.36.36,0,0,1,.24-.28h0a2.4,2.4,0,0,1,.36-.14h0a.2.2,0,0,0,.14-.19h0a.25.25,0,0,0-.26-.26h0a1.37,1.37,0,0,1-.54-.11h0l0,0h0l0,0s0,0,0,0h0a.49.49,0,0,1,0-.12h0c0-1.19,1.67-2.22,2.35-2.6h0a.33.33,0,0,0,.21.06h0l.37,0h0a.6.6,0,0,1,.57.3h0c.26.46.48.71.68.71h0a.46.46,0,0,0,.31-.17h0c.38-.38.59-.7,1-.7h0c.35,0,1,0,1.41,0h0c.23,0,.35.27.35.54h0a.67.67,0,0,1-.12.39h0a.44.44,0,0,1-.39.19h0a1.33,1.33,0,0,0-.79.26h0a.66.66,0,0,0-.3.43h0a1.92,1.92,0,0,1-.33.64h0a8.63,8.63,0,0,1-.61.77h-.11c-.16,0-.39.19-.6.41h0a2.1,2.1,0,0,1-.63.51h0a1.22,1.22,0,0,1-.37,0h0a3.41,3.41,0,0,1-.8-.13h0a1,1,0,0,0-.28,0h0a1.85,1.85,0,0,0-.66.22h0a.79.79,0,0,1-.3.07h0c-.25,0-.38-.19-.7-.51Zm-.06-1.28a1.22,1.22,0,0,0,.37,0h0a.32.32,0,0,1,.32.32h0a.25.25,0,0,1-.18.24h0c-.1,0-.24.08-.36.14h0c-.11.06-.2.14-.19.23h0a.37.37,0,0,0,.14.26h0c.32.32.45.5.66.49h0a.83.83,0,0,0,.27-.06h0a1.73,1.73,0,0,1,.69-.23h0a1.06,1.06,0,0,1,.29,0h0a3.42,3.42,0,0,0,.79.13h0a1.16,1.16,0,0,0,.36-.05h0a2.13,2.13,0,0,0,.59-.49h0c.22-.22.44-.43.65-.43H52c.18-.21.41-.49.59-.75h0a2,2,0,0,0,.32-.61h0c0-.29.49-.74,1.15-.75h0a.46.46,0,0,0,.45-.52h0a.71.71,0,0,0-.08-.34h0a.26.26,0,0,0-.21-.14h0c-.42,0-1.07,0-1.41,0h0c-.33,0-.53.3-.91.68h0a.53.53,0,0,1-.36.19h0c-.26,0-.47-.28-.73-.74h0a.54.54,0,0,0-.52-.27h0l-.37,0h0a.35.35,0,0,1-.23-.06h0c-.69.38-2.3,1.41-2.3,2.53h0a.38.38,0,0,0,0,.1h0l.12.05Z"/><path class="cls-1" d="M62.45,19.88c.32-.31-.13-.6-.13-.6.35-.35-.22-.48-.69-.48s-1,.7-1.09.84-1.15.85-1.45-.34-3-1.43-3-1.43a34.81,34.81,0,0,0-2.56-3.71,1.65,1.65,0,0,0-1.15-.24c-.46,0-1.13-.13-1.48-.13a4.64,4.64,0,0,0-1.15.4,4.75,4.75,0,0,1,.44,1.11c.12.32.32.36.61.36.69,0,.29.63,1.1,1s.89-.35,1.33-.35.61.35.87.61-.47.75-.47,1.07.52.9.29,1.13.18.38-.17.72-1.42.87-1.59,1.39.59.83.78,1.39a.26.26,0,0,1,0,.15.91.91,0,0,0,.7-.15c.35-.34.39,1.13,1,1.13s2-.54,2,0a.89.89,0,0,0,.85.92c.42,0,0-.42.42-.42s.35.69,1.12.69a5.33,5.33,0,0,1,1.93,0v0c.34-.54-.33-1.2-.52-1.38s.11-.5.11-.5c.66-.66,1.34.14,1.65-.18s-.19-1.06.15-1.6S62.14,20.2,62.45,19.88Z"/><path class="cls-1" d="M61.05,25a1.44,1.44,0,0,0-.58-.1h0c-.41,0-.89.08-1.33.08h0a.79.79,0,0,1-.71-.36h0c-.14-.18-.22-.33-.41-.33h0c-.1,0-.14,0-.16,0h0a.25.25,0,0,0,0,.13h0a.3.3,0,0,1,0,.16h0a.24.24,0,0,1-.21.08h0a.92.92,0,0,1-.88-.95h0a.16.16,0,0,0-.09-.16h0a.5.5,0,0,0-.27-.05h0c-.45,0-1.21.24-1.66.24h0c-.47,0-.63-.69-.79-1h0c0-.12-.11-.18-.15-.17h0s0,0-.08,0h0a.74.74,0,0,1-.55.16h-.19a0,0,0,0,1,0,0h0a.43.43,0,0,0,0,0h0a.31.31,0,0,0,0-.08h0a1.9,1.9,0,0,0-.46-.64h0a1,1,0,0,1-.35-.61h0a.5.5,0,0,1,0-.16h0c.19-.54,1.26-1.06,1.6-1.4h0a.37.37,0,0,0,.14-.27h0c0-.09-.05-.17-.05-.27h0a.24.24,0,0,1,.08-.18h0a.17.17,0,0,0,.05-.14h0c0-.25-.34-.69-.35-1h0a1,1,0,0,1,.27-.48h0a1,1,0,0,0,.25-.45h0a.15.15,0,0,0-.05-.12h0c-.26-.26-.43-.6-.84-.6h0a.65.65,0,0,0-.4.22h0a.81.81,0,0,1-.52.23h0a1.06,1.06,0,0,1-.42-.1h0a1,1,0,0,1-.61-.64h0c-.09-.2-.14-.34-.48-.34h0c-.29,0-.51,0-.64-.38h0a4.52,4.52,0,0,0-.44-1.1h0s0,0,0,0h0l0,0h0a4.57,4.57,0,0,1,1.16-.4h0c.35,0,1,.13,1.48.13h.11a1.51,1.51,0,0,1,1.06.24h0a35,35,0,0,1,2.55,3.71h0a7.79,7.79,0,0,1,1.38.26h0c.71.22,1.47.57,1.63,1.19h0c.13.52.39.66.64.66h0a1.25,1.25,0,0,0,.76-.33h0c.14-.13.6-.85,1.11-.85h0a2.38,2.38,0,0,1,.55.06h0c.15.05.28.12.28.25h0a.3.3,0,0,1-.09.19h0a.54.54,0,0,1,.22.38h0a.33.33,0,0,1-.12.25h0a.28.28,0,0,0-.07.19h0c0,.21.2.5.2.82h0a.76.76,0,0,1-.1.36h0a.77.77,0,0,0-.12.47h0c0,.27.08.56.08.79h0a.47.47,0,0,1-.12.35h0a.3.3,0,0,1-.22.08h0c-.23,0-.52-.17-.84-.17h0a.8.8,0,0,0-.59.26h0a.56.56,0,0,0-.08.11h0a.42.42,0,0,0-.08.22h0a.19.19,0,0,0,.06.13h0a1.85,1.85,0,0,1,.62,1.08h0a.63.63,0,0,1-.1.34h0l0,0h0l0,0h0Zm0-.06h0a.61.61,0,0,0,.09-.31h0a1.76,1.76,0,0,0-.61-1h0a.23.23,0,0,1-.07-.17h0a.63.63,0,0,1,.18-.37h0a.83.83,0,0,1,.63-.28h0c.34,0,.64.17.84.17h0a.24.24,0,0,0,.18-.07h0a.4.4,0,0,0,.1-.3h0c0-.22-.08-.51-.09-.79h0a.94.94,0,0,1,.14-.51h0a.58.58,0,0,0,.09-.32h0c0-.3-.2-.58-.21-.82h0a.32.32,0,0,1,.1-.23h0a.29.29,0,0,0,.1-.21h0a.38.38,0,0,0-.11-.25h0a.89.89,0,0,0-.12-.1h0v0h0a0,0,0,0,1,0,0h0a.28.28,0,0,0,.1-.17h0c0-.08-.09-.14-.24-.19h0a2.2,2.2,0,0,0-.53-.06h0c-.45,0-.92.69-1.07.84h0a1.33,1.33,0,0,1-.8.34h0c-.28,0-.57-.17-.7-.71h0c-.14-.57-.88-.93-1.59-1.14h0a7.44,7.44,0,0,0-1.38-.26h0s0,0,0,0h0a33.08,33.08,0,0,0-2.56-3.7h0a1.42,1.42,0,0,0-1-.23h-.11c-.46,0-1.14-.13-1.48-.13h0a4.12,4.12,0,0,0-1.11.39h0a4.54,4.54,0,0,1,.42,1.08h0c.13.31.3.33.59.34h0a.48.48,0,0,1,.53.38h0a1,1,0,0,0,.58.6h0a1,1,0,0,0,.4.1h0a.72.72,0,0,0,.48-.22h0a.68.68,0,0,1,.44-.23h0c.45,0,.63.37.89.62h0a.25.25,0,0,1,.06.16h0a.92.92,0,0,1-.26.48h0a1.08,1.08,0,0,0-.26.45h0c0,.24.35.68.35,1h0a.24.24,0,0,1-.07.18h0a.2.2,0,0,0-.06.14h0c0,.08,0,.16,0,.27h0a.43.43,0,0,1-.16.31h0c-.35.36-1.42.88-1.58,1.38h0a.39.39,0,0,0,0,.14h0a.9.9,0,0,0,.34.57h0a2.09,2.09,0,0,1,.47.66h0a.44.44,0,0,1,0,.1h0v0h.14a.76.76,0,0,0,.51-.14h0a.17.17,0,0,1,.12-.06h0c.09,0,.15.09.2.2h0c.06.11.11.26.18.41h0c.13.29.29.57.56.57h0c.43,0,1.2-.24,1.66-.24h0a.67.67,0,0,1,.3.05h0a.25.25,0,0,1,.12.22h0a.87.87,0,0,0,.82.89h0c.1,0,.14,0,.16-.05h0a.25.25,0,0,0,0-.13h0a.3.3,0,0,1,0-.16h0A.23.23,0,0,1,58,24.2h0c.23,0,.33.19.45.36h0a.74.74,0,0,0,.67.33h0c.43,0,.91-.08,1.33-.08h0a1.31,1.31,0,0,1,.58.1Z"/><path class="cls-1" d="M59.14,24.92c-.77,0-.7-.69-1.12-.69s0,.42-.42.42a.89.89,0,0,1-.85-.92c0-.54-1.39,0-2,0s-.69-1.47-1-1.13a.91.91,0,0,1-.7.15c-.09.41-1.27.44-.85.86s.33,1,.69,1.33,1.08.23,1.08.67a.33.33,0,0,1-.09.18,1.51,1.51,0,0,0,.68.21c.45,0,1.27-.05,1.62.31a2.77,2.77,0,0,1,.64,1.16,4.4,4.4,0,0,1,.1,1.14c0,.3-.47.66-.18,1.08.55-.32,1.23-1.6,1.33-1.7s.44.31.78.31.52-.52.33-.52-.33-.65.19-.8.58-.77.76-1,.33.48.61.48S61,26,61,26c.73-.73-.19-.57.09-1.07A5.33,5.33,0,0,0,59.14,24.92Z"/><path class="cls-1" d="M56.63,29.71a.57.57,0,0,1-.1-.31h0c0-.32.27-.59.26-.79h0a4.75,4.75,0,0,0-.09-1.13h0a2.76,2.76,0,0,0-.63-1.15h0A1.92,1.92,0,0,0,54.8,26h-.33a1.51,1.51,0,0,1-.69-.21h0l0,0h0a0,0,0,0,1,0,0h0c0-.07.08-.13.07-.16h0c0-.2-.15-.26-.37-.33h0a1.61,1.61,0,0,1-.69-.32h0c-.37-.38-.24-.88-.69-1.33h0a.24.24,0,0,1-.1-.18h0c0-.17.24-.25.46-.35h0c.23-.09.45-.21.48-.36h0l0,0h.17a.76.76,0,0,0,.51-.14h0a.17.17,0,0,1,.12-.06h0c.09,0,.15.09.2.2h0c.06.11.11.26.18.41h0c.13.29.29.57.56.57h0c.43,0,1.2-.24,1.66-.24h0a.67.67,0,0,1,.3.05h0a.25.25,0,0,1,.12.22h0a.87.87,0,0,0,.82.89h0c.1,0,.14,0,.16-.05h0a.25.25,0,0,0,0-.13h0a.3.3,0,0,1,0-.16h0A.23.23,0,0,1,58,24.2h0c.23,0,.33.19.45.36h0a.74.74,0,0,0,.67.33h0V25a.79.79,0,0,1-.71-.36h0c-.14-.18-.22-.33-.41-.33h0c-.1,0-.14,0-.16,0h0a.25.25,0,0,0,0,.13h0a.3.3,0,0,1,0,.16h0a.24.24,0,0,1-.21.08h0a.92.92,0,0,1-.88-.95h0a.16.16,0,0,0-.09-.16h0a.5.5,0,0,0-.27-.05h0c-.45,0-1.21.24-1.66.24h0c-.47,0-.63-.69-.79-1h0c0-.12-.11-.18-.15-.17h0s0,0-.08,0h0a.74.74,0,0,1-.55.16H53c-.06.18-.29.28-.51.38h0c-.22.09-.43.19-.42.29h0a.23.23,0,0,0,.08.14h0c.47.48.35,1,.7,1.33h0a1.55,1.55,0,0,0,.65.3h0c.23.06.42.15.43.39h0a.47.47,0,0,1-.07.17h0a1.33,1.33,0,0,0,.63.19h.33a2,2,0,0,1,1.31.32h0a2.72,2.72,0,0,1,.65,1.17h0a4.48,4.48,0,0,1,.1,1.15h0c0,.25-.28.5-.27.79h0a.5.5,0,0,0,.07.25h0a3.33,3.33,0,0,0,.8-.91h0c.25-.37.44-.71.5-.77h0A.08.08,0,0,1,58,28h0a.79.79,0,0,1,.32.16h0a.84.84,0,0,0,.41.16h0a.37.37,0,0,0,.28-.14h0a.47.47,0,0,0,.1-.25h0c0-.05,0-.07,0-.07h0c-.13,0-.2-.17-.2-.35h0a.51.51,0,0,1,.39-.51h0c.49-.15.55-.74.74-.95h0a.12.12,0,0,1,.09,0h0c.11,0,.17.14.26.27h0c.08.12.18.24.28.24h0c.12,0,.2-.11.24-.22h0A1.89,1.89,0,0,0,61,26h0v0h0c.22-.22.29-.35.29-.44h0c0-.08-.06-.13-.12-.19h0a.39.39,0,0,1-.14-.25h0A.34.34,0,0,1,61,25h0a1.32,1.32,0,0,0-.55-.09h0c-.41,0-.89.08-1.33.08h0v-.06c.43,0,.91-.08,1.33-.08h0a1.31,1.31,0,0,1,.61.11h0s0,0,0,0h0v0h0a.47.47,0,0,0-.05.16h0a.3.3,0,0,0,.12.2h0a.35.35,0,0,1,.14.24h0c0,.12-.08.26-.3.47h0a.72.72,0,0,1,0,.24h0c-.05.12-.14.26-.3.26h0c-.15,0-.24-.14-.33-.27h0c-.08-.13-.17-.25-.21-.24h0a.06.06,0,0,0,0,0h0c-.17.17-.23.8-.77,1h0a.45.45,0,0,0-.34.46h0a.6.6,0,0,0,0,.21h0a.14.14,0,0,0,.1.08h0s.07,0,.08,0h0a.14.14,0,0,1,0,.09h0a.49.49,0,0,1-.44.45h0a.88.88,0,0,1-.44-.17h0c-.13-.08-.24-.16-.29-.15h0s-.24.39-.49.76h0a3.41,3.41,0,0,1-.84.94h0Z"/><path class="cls-1" d="M56.83,28.61a4.4,4.4,0,0,0-.1-1.14,2.77,2.77,0,0,0-.64-1.16C55.74,26,54.92,26,54.47,26a1.51,1.51,0,0,1-.68-.21,8.23,8.23,0,0,1-2.76,2c-.42,0-.48.48-.83.83-.2.2-.43.1-.63-.07a.84.84,0,0,0,.24.76c.43.43.67.41.86.77a6.15,6.15,0,0,1,.57.91.84.84,0,0,1,.54-.21c.32,0,.32-.95.63-.95s.45-.46.87-.24.1.6.1.93a1.49,1.49,0,0,1-.54.89c-.25.25.78.49.36.51a.47.47,0,0,0-.45.44c.36.18.78-.39,1.19-.79a9.51,9.51,0,0,1,.88-.68c.22-.23.8-.15,1-.15s.13-.83.7-1l.14-.06C56.36,29.27,56.83,28.91,56.83,28.61Z"/><path class="cls-1" d="M52.74,32.36s0,0,0,0h0a.72.72,0,0,1,.07-.23h0a.47.47,0,0,1,.41-.24h.06l0,0h0L53,31.73h0c-.13-.07-.26-.15-.27-.27h0a.14.14,0,0,1,0-.1h0c.25-.25.54-.56.53-.87h0c0-.2.11-.42.11-.6h0a.33.33,0,0,0-.2-.31h0a.39.39,0,0,0-.2,0h0c-.24,0-.38.29-.65.3h0c-.12,0-.2.21-.28.45h0c-.08.24-.15.49-.35.5h0a.83.83,0,0,0-.52.2h0l0,0h0a5.71,5.71,0,0,0-.56-.9h0c-.19-.36-.42-.33-.86-.77h0a.84.84,0,0,1-.26-.63h0a.71.71,0,0,1,0-.15h0l0,0h0a.62.62,0,0,0,.36.17h0a.31.31,0,0,0,.23-.11h0a2.91,2.91,0,0,0,.38-.53h0a.54.54,0,0,1,.47-.3h0A4.53,4.53,0,0,0,52.37,27h0a7.11,7.11,0,0,0,1.4-1.21h0a1.59,1.59,0,0,0,.66.2h.33a2,2,0,0,1,1.31.32h0a2.72,2.72,0,0,1,.65,1.17h0a4.48,4.48,0,0,1,.1,1.15h0c0,.25-.28.5-.27.79h0a.44.44,0,0,0,.09.27h0s0,0,0,0h0s0,0,0,0h0a.44.44,0,0,1-.16.06h0c-.39.09-.47.56-.56.81h0c0,.08-.06.14-.14.15h0l-.37,0h0a.87.87,0,0,0-.6.16h0a10,10,0,0,0-.88.68h0c-.35.35-.71.83-1.06.84h0a.29.29,0,0,1-.16,0Zm.16,0c.29,0,.66-.47,1-.82h0a7.85,7.85,0,0,1,.87-.68h0a.94.94,0,0,1,.65-.18h0l.37,0h0s.06,0,.09-.12h0c0-.07.05-.18.09-.29h0a.74.74,0,0,1,.51-.55h0l.11,0h0a.52.52,0,0,1-.08-.28h0c0-.32.27-.59.26-.79h0a4.75,4.75,0,0,0-.09-1.13h0a2.76,2.76,0,0,0-.63-1.15h0A1.92,1.92,0,0,0,54.8,26h-.33a1.46,1.46,0,0,1-.67-.2h0A7.24,7.24,0,0,1,52.41,27h0a4.33,4.33,0,0,1-1.38.76h0a.49.49,0,0,0-.42.27h0a3.32,3.32,0,0,1-.39.55h0a.37.37,0,0,1-.27.12h0a.62.62,0,0,1-.36-.15h0v.09h0a.81.81,0,0,0,.24.59h0c.42.43.67.4.87.78h0a6.5,6.5,0,0,1,.55.87h0a.93.93,0,0,1,.53-.19h0c.13,0,.22-.22.29-.46h0c.08-.23.15-.49.34-.5h0c.22,0,.37-.29.65-.29h0a.53.53,0,0,1,.23.06h0a.39.39,0,0,1,.23.36h0c0,.2-.11.42-.11.6h0a1.49,1.49,0,0,1-.55.91h0a.09.09,0,0,0,0,.06h0c0,.05.08.13.19.19h0l.28.16h0a.06.06,0,0,1,0,.05h0s0,0,0,.05H53.2a.38.38,0,0,0-.35.21h0a.52.52,0,0,0-.06.18h0a.2.2,0,0,0,.11,0Z"/><path class="cls-1" d="M42.56,33.29c-.32.32-.12.91-.12,1.49s-.08.52-.08,1.23.37.65.37,1.12-.34.52-.34.95.21.2.88,0a7.73,7.73,0,0,0,2.2-1.5c.34-.34.17-.62.17-1a5.57,5.57,0,0,1,.29-1.24c.1-.4-.37-.72-.56-.9s.37-.89.37-.89c.92-.08.89-.77.89-.77-.6,0-1-.24-.58-.62s-.15-.62-.44-.83a.42.42,0,0,1-.38.23c-.49,0-1.45.52-1.45,1.1,0,.42-.68.62-1.19.71C42.68,32.68,42.74,33.1,42.56,33.29Z"/><path class="cls-1" d="M42.4,38.29a.41.41,0,0,1,0-.21h0a.75.75,0,0,1,.18-.48h0a.8.8,0,0,0,.16-.47h0a.64.64,0,0,0-.18-.45h0a1.06,1.06,0,0,1-.19-.67h0c0-.72.08-.66.08-1.23h0c0-.33-.06-.65-.06-.94h0a.76.76,0,0,1,.19-.57h0a.56.56,0,0,0,.11-.37h0a2,2,0,0,0-.09-.54h0v0h0s0,0,0,0h0a3,3,0,0,0,.77-.23h0c.23-.11.39-.26.39-.45h0a1.07,1.07,0,0,1,.55-.79h0a1.83,1.83,0,0,1,.93-.34h0a.36.36,0,0,0,.35-.22h.05c.22.17.52.43.53.68h0a.28.28,0,0,1-.09.2h0a.39.39,0,0,0-.15.27h0c0,.08.07.16.19.21h0a1.21,1.21,0,0,0,.52.09h0a0,0,0,0,1,0,0h0c0,.09,0,.71-.91.79h0l-.19.28h0a1,1,0,0,0-.19.47h0s0,.07,0,.08h0c.16.17.58.45.58.82h0a.49.49,0,0,1,0,.12h0a5.62,5.62,0,0,0-.29,1.23h0c0,.19,0,.36,0,.52h0a.67.67,0,0,1-.22.52h0a7.66,7.66,0,0,1-2.21,1.51h0a6.69,6.69,0,0,1-.76.24h0a.12.12,0,0,1-.11-.07Zm0-4.45c0,.28.06.61.06.94h0c0,.58-.08.52-.08,1.23h0a1.08,1.08,0,0,0,.18.64h0a.71.71,0,0,1,.19.48h0a.82.82,0,0,1-.17.5h0a.7.7,0,0,0-.17.45h0a.36.36,0,0,0,0,.18h0a.07.07,0,0,0,.07,0h0a6.65,6.65,0,0,0,.74-.24h0a7.94,7.94,0,0,0,2.19-1.49h0a.65.65,0,0,0,.2-.48h0c0-.15,0-.32,0-.52h0a6.12,6.12,0,0,1,.29-1.25h0a.31.31,0,0,0,0-.1h0c0-.33-.39-.6-.56-.77h0a.21.21,0,0,1-.05-.13h0a2.1,2.1,0,0,1,.41-.8h0c.79-.07.85-.58.85-.71h0a1.66,1.66,0,0,1-.5-.09h0c-.14-.06-.23-.15-.23-.27h0a.46.46,0,0,1,.17-.31h0A.23.23,0,0,0,46.1,31h0c0-.19-.26-.44-.48-.61h0a.42.42,0,0,1-.39.22h0a1.78,1.78,0,0,0-.89.33h0a1,1,0,0,0-.53.74h0c0,.23-.18.39-.42.51h0a2.88,2.88,0,0,1-.76.22h0a2.25,2.25,0,0,1,.08.52h0a.56.56,0,0,1-.13.41h0a.72.72,0,0,0-.17.53Z"/><path class="cls-1" d="M49.19,30.92c-.21-.21-.44-.21-.44,0s-.5.63-.62.92a.45.45,0,0,0,.37.58c.19,0,.13.59.5.59a1.55,1.55,0,0,0,.58-.14.7.7,0,0,1,.27-.43,1.91,1.91,0,0,0-.35-.75C49.25,31.46,49.4,31.13,49.19,30.92Z"/><path class="cls-1" d="M48.7,32.86c-.05-.11-.08-.24-.12-.31h0c0-.06,0-.08-.08-.08h0a.49.49,0,0,1-.43-.47h0a.4.4,0,0,1,0-.15h0a2.34,2.34,0,0,1,.36-.49h0a1,1,0,0,0,.26-.42h0a.21.21,0,0,1,0-.15h0a.18.18,0,0,1,.13-.06h0a.48.48,0,0,1,.32.17h0l0,0,0,0a.6.6,0,0,1,.15.4h0a.61.61,0,0,0,.16.39h0a1.82,1.82,0,0,1,.36.77h0s0,0,0,0h0a.64.64,0,0,0-.26.41h0a0,0,0,0,1,0,0h0a1.6,1.6,0,0,1-.59.14h0a.35.35,0,0,1-.3-.2Zm-.07-.34c0,.06,0,.13.08.2h0c.06.15.12.28.29.28h0a1.7,1.7,0,0,0,.55-.13h0a.75.75,0,0,1,.27-.42h0a2.08,2.08,0,0,0-.34-.72h0a.65.65,0,0,1-.18-.43h0a.57.57,0,0,0-.13-.36h0a.46.46,0,0,0-.28-.15h0c-.07,0-.11,0-.11.15h0a1.07,1.07,0,0,1-.28.46h0a2,2,0,0,0-.34.48h0a.27.27,0,0,0,0,.12h0a.46.46,0,0,0,.13.29h0a.35.35,0,0,0,.24.12h0c.06,0,.1.05.13.11Z"/><path class="cls-1" d="M48.28,30c-.32,0-1,.31-1,.52s.21.7.21,1,.11.54.61.49a.44.44,0,0,1,0-.15c.12-.29.62-.69.62-.92a.17.17,0,0,1,.07-.16C48.74,30.53,48.54,30,48.28,30Z"/><path class="cls-1" d="M47.57,31.88a.57.57,0,0,1-.11-.36h0c0-.3-.21-.78-.21-1h0c0-.13.18-.26.4-.36h0a1.55,1.55,0,0,1,.63-.19h0V30a1.71,1.71,0,0,0-.61.18h0c-.21.1-.37.24-.36.31h0c0,.2.21.69.21,1h0c0,.24.08.47.47.47h.08a.35.35,0,0,1,0-.14h0a2.34,2.34,0,0,1,.36-.49h0a1,1,0,0,0,.26-.42h0a.18.18,0,0,1,.07-.17h0a2.21,2.21,0,0,0-.2-.46h0c-.09-.17-.2-.29-.31-.29h0V30c.15,0,.27.15.36.32h0a2.4,2.4,0,0,1,.21.49h0s0,0,0,0h0s-.06.05-.06.13h0a1.07,1.07,0,0,1-.28.46h0a1.86,1.86,0,0,0-.34.48h0a.27.27,0,0,0,0,.12h0s0,0,0,0H48a.5.5,0,0,1-.42-.17Z"/><path class="cls-1" d="M50.67,30.05c-.19-.36-.43-.34-.86-.77a.84.84,0,0,1-.24-.76,5.22,5.22,0,0,1-.41-.4c-.27-.27-1.07-.63-1.07.12s0,.4-.4.81a2.07,2.07,0,0,1-1.28.37c0-.78-.66-.66-.66-.08a2.26,2.26,0,0,1-.14,1c.29.21.69.58.44.83s0,.62.58.62c0,0,0,.69-.89.77,0,0-.55.7-.37.89s.66.5.56.9a5.57,5.57,0,0,0-.29,1.24c0,.21,0,.39,0,.56.29,0,.78-.06,1-.06s.49.16.84,0a1.4,1.4,0,0,1-.22-.08c-.12-1.21,1.62-2.3,2.32-2.69a.39.39,0,0,1-.09-.31.61.61,0,0,1,0-.14A1.55,1.55,0,0,1,49,33c-.37,0-.31-.59-.5-.59a.47.47,0,0,1-.4-.43c-.5.05-.61-.22-.61-.49s-.21-.79-.21-1,.68-.52,1-.52.46.54.54.79c.09-.05.23,0,.37.14s.06.54.31.79a1.91,1.91,0,0,1,.35.75c.35-.27.89-.38,1-.82a1.18,1.18,0,0,1,.39-.68A6.15,6.15,0,0,0,50.67,30.05Z"/><path class="cls-1" d="M46.72,36.1c-.26,0-.75,0-1,.06h0a0,0,0,0,1,0,0h0v0h0c0-.15,0-.32,0-.52h0a6.12,6.12,0,0,1,.29-1.25h0a.31.31,0,0,0,0-.1h0c0-.33-.39-.6-.56-.77h0a.21.21,0,0,1-.05-.13h0a2.1,2.1,0,0,1,.41-.8h0c.79-.07.85-.58.85-.71h0a1.66,1.66,0,0,1-.5-.09h0c-.14-.06-.23-.15-.23-.27h0a.46.46,0,0,1,.17-.31h0A.23.23,0,0,0,46.1,31h0c0-.2-.28-.46-.51-.63h0s0,0,0,0h0a2.12,2.12,0,0,0,.14-1h0c0-.31.18-.5.37-.5h0c.18,0,.34.18.35.55h0A1.85,1.85,0,0,0,47.66,29h0a2.71,2.71,0,0,1,.36-.28h0s0-.13,0-.51h0a.54.54,0,0,1,.11-.37h0a.36.36,0,0,1,.28-.11h0a1.19,1.19,0,0,1,.73.34h0a5.22,5.22,0,0,0,.41.4h0s0,0,0,0h0a.61.61,0,0,0,0,.14h0a.81.81,0,0,0,.24.59h0c.42.43.67.4.87.78h0l0,0c-.19-.36-.42-.33-.86-.77h0a.84.84,0,0,1-.26-.63h0v-.14h0a4.78,4.78,0,0,1-.39-.39h0a1.23,1.23,0,0,0-.69-.32h0c-.19,0-.32.09-.33.42h0c0,.37,0,.48-.06.55h0a4.28,4.28,0,0,0-.35.28h0a2,2,0,0,1-1.26.39h0a0,0,0,0,1,0,0h0c0-.38-.15-.52-.29-.52h0c-.15,0-.31.16-.31.44h0a2.43,2.43,0,0,1-.13,1h0c.22.17.5.41.51.66h0a.28.28,0,0,1-.09.2h0a.39.39,0,0,0-.15.27h0c0,.08.07.16.19.21h0a1.21,1.21,0,0,0,.52.09h0s0,0,0,0h0c0,.09,0,.71-.91.79h0l-.19.28h0a1,1,0,0,0-.19.47h0s0,.07,0,.08h0c.16.17.58.45.58.82h0a.49.49,0,0,1,0,.12h0a5.62,5.62,0,0,0-.29,1.23h0c0,.19,0,.36,0,.52h0c.29,0,.76-.05,1-.05h0c.23,0,.39.09.58.08h.15l-.13-.06h0v0h0a.49.49,0,0,1,0-.12h0c0-1.17,1.62-2.19,2.31-2.58h0a.47.47,0,0,1-.07-.3h0v-.09h0a1.63,1.63,0,0,1-.54.12h0a.35.35,0,0,1-.3-.2h0c-.05-.11-.08-.24-.12-.31h0c0-.06,0-.08-.08-.08h0a.49.49,0,0,1-.42-.42H48a.5.5,0,0,1-.42-.17h0a.57.57,0,0,1-.11-.36h0c0-.3-.21-.78-.21-1h0c0-.13.18-.26.4-.36h0a1.55,1.55,0,0,1,.63-.19h0c.15,0,.27.15.36.32h0a2.21,2.21,0,0,1,.2.46h0a.48.48,0,0,1,.32.17h0a.6.6,0,0,1,.15.4h0a.61.61,0,0,0,.16.39h0a2,2,0,0,1,.35.72h0c.36-.26.86-.38,1-.78h0A1.27,1.27,0,0,1,51.2,31h0a6,6,0,0,0-.55-.88h0l0,0h0a5.25,5.25,0,0,1,.57.91h0a0,0,0,0,1,0,0h0a1.15,1.15,0,0,0-.38.67h0c-.12.46-.67.57-1,.84h0s0,0,0,0h0a1.93,1.93,0,0,0-.34-.74h0a.65.65,0,0,1-.18-.43h0a.57.57,0,0,0-.13-.36h0a.43.43,0,0,0-.28-.15h0l0,0h0s0,0,0,0h0a3.06,3.06,0,0,0-.21-.48h0c-.09-.17-.2-.29-.31-.29h0a1.71,1.71,0,0,0-.61.18h0c-.21.1-.37.24-.36.31h0c0,.2.21.69.21,1h0c0,.24.08.47.47.47h.13v0h0a.44.44,0,0,0,.37.4h0c.06,0,.1.05.13.11h0c0,.06,0,.13.08.2h0c.06.15.12.28.29.28h0a1.54,1.54,0,0,0,.57-.14h0a0,0,0,0,1,0,0h0a.53.53,0,0,0,0,.13h0a.38.38,0,0,0,.08.29h0a0,0,0,0,1,0,0h0v0h0c-.68.37-2.32,1.41-2.32,2.54h0a.38.38,0,0,0,0,.1h0l.2.07h0s0,0,0,0h0l0,0h0a.93.93,0,0,1-.27,0h0c-.21,0-.36-.08-.58-.08Z"/><path class="cls-1" d="M54.56,40.06a2.74,2.74,0,0,1-.74-.76c-.22-.48-.41-1.87-1-1.87s-1.29-.18-1-.52l.16-.17c-.38-.15-.94.79-1.32.91a2.21,2.21,0,0,1-1.16-.08.9.9,0,0,0-.64,0l.6.62c.27.27.42.11.75.23s.48,1.25.73,1.25.88-.49,1.08-.29.54.75,0,.81-.67.14-.58.45a6.28,6.28,0,0,0,.83,1.11s.38-.09.49.13a2.47,2.47,0,0,1,1.28.15A3.58,3.58,0,0,1,54.56,40.06Z"/><path class="cls-1" d="M54.07,42.1a2.52,2.52,0,0,0-.93-.18h0a1.84,1.84,0,0,0-.33,0h0a.05.05,0,0,1,0,0h0a.3.3,0,0,0-.28-.13h0a.79.79,0,0,0-.17,0h0s0,0,0,0h0a5.56,5.56,0,0,1-.83-1.13h0a.4.4,0,0,1,0-.15h0a.26.26,0,0,1,.16-.23h0a1.87,1.87,0,0,1,.47-.1h0c.18,0,.23-.1.23-.21h0a1,1,0,0,0-.29-.55h0a.18.18,0,0,0-.11,0h0a1.21,1.21,0,0,0-.48.17h0a1.51,1.51,0,0,1-.47.17h0c-.08,0-.14-.09-.2-.19h0c-.05-.12-.11-.26-.16-.41h0c-.11-.3-.24-.61-.38-.65h0a1.2,1.2,0,0,0-.39-.06h0a.53.53,0,0,1-.37-.18h0l-.6-.61h0a0,0,0,0,1,0,0h0l0,0h0a.8.8,0,0,1,.36-.09h0a1.06,1.06,0,0,1,.29,0h0a3.42,3.42,0,0,0,.79.13h0a1.16,1.16,0,0,0,.36-.05h0a2.13,2.13,0,0,0,.59-.49h0c.22-.22.44-.43.65-.43H52l0,0h0a0,0,0,0,1,0,0h0l-.16.17h0a.22.22,0,0,0-.08.15h0c0,.09.11.17.31.23h0a2.5,2.5,0,0,0,.71.09h0c.34,0,.54.37.7.77h0c.16.41.26.88.37,1.11h0a2.67,2.67,0,0,0,.73.76h0l0,0,0,0a0,0,0,0,1,0,0h0a3.82,3.82,0,0,0-.49,1.73h0a2.44,2.44,0,0,0,0,.27h0a0,0,0,0,1,0,0h0Zm0-.07a1.77,1.77,0,0,1,0-.23h0a3.82,3.82,0,0,1,.48-1.73h0a2.84,2.84,0,0,1-.73-.76h0c-.11-.25-.21-.71-.37-1.12h0c-.15-.4-.36-.73-.64-.73h0a2.7,2.7,0,0,1-.73-.09h0c-.2-.06-.34-.15-.35-.29h0a.26.26,0,0,1,.1-.19h0l.12-.13h0c-.16,0-.39.19-.6.41h0a2.1,2.1,0,0,1-.63.51h0a1.18,1.18,0,0,1-.37,0h0a3.41,3.41,0,0,1-.8-.13h0a1,1,0,0,0-.28,0h0a.87.87,0,0,0-.3.07h0l.57.57h0a.46.46,0,0,0,.34.17h0a1.33,1.33,0,0,1,.4.06h0c.14,0,.24.25.33.46h0c.09.22.17.47.25.63h0c.05.11.11.16.14.16h0a1.4,1.4,0,0,0,.44-.17h0a1.46,1.46,0,0,1,.51-.17h0a.25.25,0,0,1,.16.06h0a1,1,0,0,1,.3.59h0c0,.14-.08.25-.28.27h0a1.51,1.51,0,0,0-.45.1h0c-.09,0-.13.09-.13.17h0a.93.93,0,0,0,0,.14h0a3.08,3.08,0,0,0,.45.66h0c.16.21.32.38.36.43h0l.17,0h0a.4.4,0,0,1,.33.14h0l.32,0h0a2.68,2.68,0,0,1,.91.17Z"/><path class="cls-1" d="M55.18,40.68c0-.12-.3-.35-.62-.62a3.58,3.58,0,0,0-.48,2,2.52,2.52,0,0,1,.4.19A1.4,1.4,0,0,0,55.18,40.68Z"/><path class="cls-1" d="M54.46,42.28a3,3,0,0,0-.39-.18h0a0,0,0,0,1,0,0h0a2.72,2.72,0,0,1,0-.28h0a3.87,3.87,0,0,1,.49-1.75h0l0,0h0c.16.13.32.25.43.36h0c.12.11.2.2.2.28h0c0,.08,0,.22,0,.4h0a1.32,1.32,0,0,1-.75,1.2h0Zm0-.06a1.26,1.26,0,0,0,.7-1.14h0c0-.17,0-.31,0-.4h0s-.06-.13-.18-.23h0l-.4-.34h0a3.72,3.72,0,0,0-.47,1.69h0a2,2,0,0,0,0,.25h0l.37.17Z"/><path class="cls-1" d="M42.56,38.88c.22.22.66,1,.86,1.18s.91.9,1.51.9,1.17-.42,1.29-.13a1.26,1.26,0,0,0,.85.85c.5.09.54.19,1-.06s.79-.39.62-.83-1-.54-.79-1a2.42,2.42,0,0,0,.17-1c0-.25.13-.45.29-.29s.33.49.66.33-.06-.88-.3-1.2l-.19.07c-.44.19-.53,0-1-.43s.15-.58.42-.67a.27.27,0,0,0-.13-.51,1.26,1.26,0,0,1-.3,0c-.35.12-.53,0-.84,0s-.75,0-1,.06a.62.62,0,0,1-.21.46,7.73,7.73,0,0,1-2.2,1.5c-.33.1-.55.2-.68.23C42.5,38.51,42.43,38.76,42.56,38.88Z"/><path class="cls-1" d="M47.06,41.71a1.28,1.28,0,0,1-.87-.87h0c0-.06-.06-.08-.14-.08h0a9.22,9.22,0,0,1-1.12.23h0c-.62,0-1.32-.71-1.53-.91h0c-.2-.21-.65-1-.86-1.18h0a.26.26,0,0,1-.08-.21h0a1.07,1.07,0,0,1,.1-.38h0a0,0,0,0,1,0,0h0c.13,0,.35-.13.68-.23h0a7.94,7.94,0,0,0,2.19-1.49h0a.67.67,0,0,0,.2-.45h0l0,0h0c.29,0,.78-.05,1-.05h0c.23,0,.39.09.58.08h0a.77.77,0,0,0,.25,0h0a1.23,1.23,0,0,0,.29,0h0a.32.32,0,0,1,.32.32h0a.24.24,0,0,1-.18.24h0c-.1,0-.24.08-.36.14h0c-.11.06-.2.14-.19.23h0a.37.37,0,0,0,.14.26h0c.32.32.45.5.66.49h0a.83.83,0,0,0,.27-.06h0l.19-.08h0s0,0,0,0h0a2.21,2.21,0,0,1,.42,1h0a.26.26,0,0,1-.13.25h0a.45.45,0,0,1-.18,0h0c-.25,0-.38-.25-.51-.37h0a.14.14,0,0,0-.09,0h0s-.07,0-.1.08h0a.52.52,0,0,0,0,.23h0a2.46,2.46,0,0,1-.17,1h0a.22.22,0,0,0,0,.1h0c0,.14.15.25.34.38h0a1.18,1.18,0,0,1,.48.46h0a.68.68,0,0,1,.05.23h0c0,.31-.31.43-.68.64h0a1,1,0,0,1-.48.16h0a3.65,3.65,0,0,1-.55-.1Zm-.81-.89a1.19,1.19,0,0,0,.82.83h0a4.08,4.08,0,0,0,.54.1h0a1,1,0,0,0,.45-.16h0c.38-.2.65-.33.65-.58h0a.63.63,0,0,0-.05-.21h0a1,1,0,0,0-.45-.43h0c-.19-.12-.36-.24-.37-.43h0a.27.27,0,0,1,0-.12h0a2.36,2.36,0,0,0,.17-1h0c0-.19.07-.37.21-.38h0a.21.21,0,0,1,.13.07h0c.14.14.27.37.47.36h0a.31.31,0,0,0,.15,0h0c.07,0,.09-.09.1-.19h0a2.16,2.16,0,0,0-.39-.95h0l-.16.07h0a.79.79,0,0,1-.3.07h0c-.25,0-.38-.19-.7-.51h0a.52.52,0,0,1-.17-.3h0a.36.36,0,0,1,.24-.28h0a2.4,2.4,0,0,1,.36-.14h0a.2.2,0,0,0,.14-.19h0a.25.25,0,0,0-.26-.26h0a1.32,1.32,0,0,1-.3,0h0a.82.82,0,0,1-.26,0h0c-.21,0-.36-.08-.58-.08h0c-.25,0-.72,0-1,0h0a.68.68,0,0,1-.22.46h0a7.66,7.66,0,0,1-2.21,1.51h0c-.32.09-.53.19-.67.23h0a.91.91,0,0,0-.09.34h0a.24.24,0,0,0,.06.17h0l0,0,0,0c.23.23.67,1,.87,1.18h0c.2.2.9.9,1.48.89h0c.44,0,.86-.23,1.12-.23h0a.18.18,0,0,1,.19.12Z"/><path class="cls-1" d="M51.08,46.15c-.37,0-.83.06-.83.48s.1.54-.23.87-.09.76-.31,1a2,2,0,0,0-.37,1.73,1.27,1.27,0,0,1,.62-.28c.3,0,.75,1.06,1,1.64.3-.31.41-.63.75-.73s.33-.7.65-.7.28-.84.48-1,.69-.85.69-.85A1.56,1.56,0,0,1,54,46.63a.89.89,0,0,0,.21-.38c-2.07.21-1.84-.75-1.84-.75a.79.79,0,0,1-.41-.13C51.76,45.66,51.34,46.15,51.08,46.15Z"/><path class="cls-1" d="M50.93,51.6s0,0,0,0h0a6.64,6.64,0,0,0-.73-1.46h0C50.1,50,50,50,50,50h0a1.27,1.27,0,0,0-.61.28h0l0,0h0a.91.91,0,0,1-.09-.44h0a2.29,2.29,0,0,1,.47-1.32h0a.58.58,0,0,0,.1-.43h0a.78.78,0,0,1,.21-.55h0a.59.59,0,0,0,.23-.48h0c0-.09,0-.21,0-.37h0a.45.45,0,0,1,.3-.43h0a1.46,1.46,0,0,1,.56-.08h0v.06a1.57,1.57,0,0,0-.54.08h0a.37.37,0,0,0-.26.37h0c0,.16,0,.27,0,.37h0a.62.62,0,0,1-.25.52h0a.66.66,0,0,0-.18.51h0a.71.71,0,0,1-.13.48h0a2.19,2.19,0,0,0-.45,1.27h0a1,1,0,0,0,.07.39h0A1.18,1.18,0,0,1,50,49.9h0c.09,0,.18.08.27.18h0a3.39,3.39,0,0,1,.27.44h0a9.34,9.34,0,0,1,.45,1h0c.27-.28.39-.59.73-.7h0c.16-.05.24-.21.32-.38h0c.08-.15.16-.32.34-.32h0A.18.18,0,0,0,52.5,50h0a1.75,1.75,0,0,0,.1-.3h0a1.55,1.55,0,0,1,.2-.61h0c.17-.18.61-.74.68-.83h0a1.85,1.85,0,0,1-.06-.44h0a1.64,1.64,0,0,1,.59-1.2h0a.94.94,0,0,0,.19-.32h0l-.51,0h0A1.69,1.69,0,0,1,52.58,46h0a.56.56,0,0,1-.22-.44h0v-.06h0a.67.67,0,0,1-.36-.12h0a6,6,0,0,1-.43.48h0a.86.86,0,0,1-.49.29h0v-.06a.8.8,0,0,0,.44-.27h0a6.33,6.33,0,0,0,.45-.5h0s0,0,0,0h0a.7.7,0,0,0,.39.13h0a0,0,0,0,1,0,0h0s0,0,0,0h0a.28.28,0,0,0,0,.08h0c0,.18.1.66,1.27.66h0l.55,0h0v0h0a1,1,0,0,1-.21.39h0a1.61,1.61,0,0,0-.58,1.16h0a1.85,1.85,0,0,0,.06.44h0s0,0,0,0h0s-.5.65-.7.85h0a1,1,0,0,0-.14.4h0a2.11,2.11,0,0,1-.15.5h0a.23.23,0,0,1-.21.15h0c-.14,0-.21.13-.29.29h0c-.08.16-.16.34-.35.4h0c-.33.1-.44.42-.74.73h0Z"/><path class="cls-1" d="M47.22,48.7c.2-.2.2-.31,0-.52s-.24-.46-.46-.68-.18-.49-.33-.64-.15-.13.15-.43.8-.68.59-.9-.45-.27-.54-.59.11-.79-.25-.79-.37.21-.58.21-.49-.19-.72,0-.3.14-.55-.11a2.1,2.1,0,0,0-1.12-.47c-.27,0-.27.23-.27.38s-.78,0-.91.16a1.39,1.39,0,0,0-.39.67c0,.2,0,.62,0,.81s.38,1-.06,1.68c0,0,.68.11.4.39s-.8,1.26-.61,1.44,1.17-.08,1.83-.4.85-.54.85-.14,0,1.88.71,1.73h0a1,1,0,0,1,.19-.61c.29-.29.22.48.64.48s0-.48.23-.69a2.39,2.39,0,0,1,1.24-.37C47.14,49.11,47.11,48.81,47.22,48.7Z"/><path class="cls-1" d="M44.23,49.85a5.18,5.18,0,0,1-.08-1h0v0h0a.51.51,0,0,0,0-.16h0a.07.07,0,0,0-.06,0h0a4.19,4.19,0,0,0-.73.35h0a4.31,4.31,0,0,1-1.6.47h0c-.12,0-.21,0-.26-.07h0a.16.16,0,0,1,0-.14h0a3,3,0,0,1,.66-1.35h0a.14.14,0,0,0,.06-.1h0c0-.07-.1-.13-.22-.17h0a1.49,1.49,0,0,0-.23-.06h0s0,0,0,0h0v0h0a1.21,1.21,0,0,0,.21-.72h0a6.53,6.53,0,0,0-.15-.94h0c0-.19,0-.62,0-.81h0a1.5,1.5,0,0,1,.4-.69h0a.84.84,0,0,1,.44-.08h0a1.24,1.24,0,0,0,.44,0h0l0,0h0a.83.83,0,0,1,0-.26h0a.26.26,0,0,1,.27-.15h0a2.16,2.16,0,0,1,1.15.48h0c.14.15.23.23.3.23h0s.11,0,.2-.13h0a.42.42,0,0,1,.29-.11h0c.17,0,.33.07.45.07h0c.09,0,.13,0,.21-.1h0a.49.49,0,0,1,.37-.11h0a.2.2,0,0,1,.21.1h0a.47.47,0,0,1,0,.24h0v.23h0a.66.66,0,0,0,0,.24h0c.09.31.31.36.53.58h0a.2.2,0,0,1,.06.14h0c0,.25-.4.55-.65.8h0c-.18.17-.24.25-.23.28h0s0,.05.08.11h0c.16.17.12.43.33.64h0c.23.23.26.47.47.67h0a.49.49,0,0,1,.17.3h0a.41.41,0,0,1-.16.27h0a.41.41,0,0,0-.06.26h0a2.33,2.33,0,0,0,0,.36h0s0,0,0,0h0a0,0,0,0,1,0,0h0a2.31,2.31,0,0,0-1.22.36h0a.24.24,0,0,0-.06.17h0c0,.1,0,.23,0,.33h0a.21.21,0,0,1-.05.15h0a.3.3,0,0,1-.18,0h0c-.3,0-.37-.33-.45-.47h0s-.05-.08-.07-.07h0s-.05,0-.1.05h0a1.08,1.08,0,0,0-.18.59h0s0,0,0,0h-.11c-.33,0-.49-.35-.56-.73Zm0-1.22a.42.42,0,0,1,0,.18h0v0h0a5,5,0,0,0,.08,1h0c.07.38.22.68.5.68h.07a1,1,0,0,1,.2-.6h0a.25.25,0,0,1,.14-.08h0c.06,0,.09.05.12.11h0a1.72,1.72,0,0,1,.09.19h0c.07.13.15.25.31.25h0c.15,0,.17-.05.17-.14h0c0-.09,0-.22,0-.33h0a.26.26,0,0,1,.08-.21h0a2.33,2.33,0,0,1,1.22-.38h0a2,2,0,0,1,0-.34h0a.42.42,0,0,1,.08-.31h0c.09-.09.14-.16.13-.22h0c0-.07,0-.15-.15-.25h0c-.22-.22-.25-.47-.46-.68h0c-.23-.23-.2-.51-.33-.63h0c-.06-.07-.1-.1-.11-.16h0c0-.08.08-.15.26-.32h0c.25-.25.63-.57.63-.76h0a.14.14,0,0,0-.05-.09h0c-.2-.21-.44-.27-.54-.62h0a.72.72,0,0,1,0-.25h0v-.23h0a.58.58,0,0,0,0-.21h0s-.07-.07-.16-.07h0a.49.49,0,0,0-.33.1h0a.41.41,0,0,1-.25.11h0c-.15,0-.3-.07-.45-.07h0a.29.29,0,0,0-.24.1h0c-.1.09-.17.14-.25.14h0c-.11,0-.2-.1-.35-.25h0a2.14,2.14,0,0,0-1.1-.46h0a.2.2,0,0,0-.21.11h0a.66.66,0,0,0,0,.24h0s0,.06,0,.08h0l-.1,0h0a1.28,1.28,0,0,1-.29,0h0a1,1,0,0,0-.48.06h0a1.49,1.49,0,0,0-.38.65h0c0,.2-.05.62-.05.81h0a5.63,5.63,0,0,1,.15.94h0a1.28,1.28,0,0,1-.19.72h0a.9.9,0,0,1,.19,0h0c.12,0,.26.11.26.23h0a.21.21,0,0,1-.07.15h0a2.86,2.86,0,0,0-.65,1.3h0a.13.13,0,0,0,0,.1h0a.35.35,0,0,0,.22.05h0a4.39,4.39,0,0,0,1.57-.46h0a3.32,3.32,0,0,1,.76-.36h0a.12.12,0,0,1,.1.07Z"/><path class="cls-1" d="M52.31,41.79a6.28,6.28,0,0,1-.83-1.11c-.09-.31.08-.39.58-.45s.17-.61,0-.81-.82.29-1.08.29-.4-1.14-.73-1.25-.48,0-.75-.23l-.6-.62-.14.07c.24.32.59,1.07.3,1.2s-.5-.16-.66-.33-.29,0-.29.29a2.42,2.42,0,0,1-.17,1c-.18.42.62.52.79,1s-.16.58-.62.83l-.11.06c.12.12.4.38.61.38s.27.1.27.35a1.8,1.8,0,0,0,.35,1.08c.26.26.5,0,.62.08s-.18.67,0,.67.51-.52.72-.52.39.37.78.35l0,0c.23-.23,1-1,1-1.37a2.21,2.21,0,0,1,.13-.69,1,1,0,0,1,.24,0C52.69,41.7,52.31,41.79,52.31,41.79Z"/><path class="cls-1" d="M49.77,44.22a.2.2,0,0,1,0-.11h0c0-.13.07-.33.06-.44h0a.09.09,0,0,0,0-.08h0s0,0-.06,0h0a2.21,2.21,0,0,1-.3.06h0a.36.36,0,0,1-.26-.12h0a1.8,1.8,0,0,1-.36-1.1h0a.5.5,0,0,0,0-.25h0s-.07-.07-.21-.07h0c-.23,0-.51-.27-.64-.39h0s0,0,0,0h0s0,0,0,0h0l.12-.06h0c.38-.2.65-.33.65-.58h0a.63.63,0,0,0-.05-.21h0a1,1,0,0,0-.45-.43h0c-.19-.13-.36-.24-.37-.43h0a.27.27,0,0,1,0-.12h0a2.36,2.36,0,0,0,.17-1h0c0-.19.07-.37.21-.38h0a.21.21,0,0,1,.13.07h0c.14.14.27.37.47.36h0a.31.31,0,0,0,.15,0h0c.07,0,.09-.09.1-.19h0a2.23,2.23,0,0,0-.41-1h0v0h0a0,0,0,0,1,0,0h0l.14-.06h0a0,0,0,0,1,0,0h0c.17.18.43.45.6.61h0a.46.46,0,0,0,.34.17h0a1.33,1.33,0,0,1,.4.06h0c.14,0,.24.25.33.46h0c.09.22.17.47.25.63h0c.05.11.11.16.14.16h0a1.4,1.4,0,0,0,.44-.17h0a1.46,1.46,0,0,1,.51-.17h0a.25.25,0,0,1,.16.06h0a1,1,0,0,1,.3.59h0c0,.14-.08.25-.28.27h0a1.51,1.51,0,0,0-.45.1h0c-.09,0-.13.09-.13.17h0a.93.93,0,0,0,0,.14h0a3.08,3.08,0,0,0,.45.66h0c.16.21.32.38.36.43h0l.17,0h0a.36.36,0,0,1,.34.16h0v0h0s0,0,0,0h0l-.22,0h0a2,2,0,0,0-.13.67h0a1.54,1.54,0,0,1-.44.75h0c-.23.27-.5.53-.61.64h0a.05.05,0,0,0,0,0h-.06a.82.82,0,0,1-.47-.18h0c-.12-.09-.21-.17-.28-.17h0c-.08,0-.21.12-.33.25h0c-.12.13-.25.27-.39.27h0a.09.09,0,0,1-.09-.05Zm.06-.67a.16.16,0,0,1,0,.12h0c0,.13-.07.32-.07.44h0c0,.08,0,.1.06.1h0c.1,0,.23-.12.35-.25h0c.12-.13.24-.26.37-.27h0c.11,0,.2.1.32.18h0a.72.72,0,0,0,.43.17h0l0,0h0c.11-.12.37-.37.6-.64h0a1.67,1.67,0,0,0,.43-.71h0a2.17,2.17,0,0,1,.14-.7h0a0,0,0,0,1,0,0h0l.19,0h0a.33.33,0,0,0-.26-.09h0a.79.79,0,0,0-.17,0h0s0,0,0,0h0a5.56,5.56,0,0,1-.83-1.13h0a.4.4,0,0,1,0-.15h0a.26.26,0,0,1,.16-.23h0a1.87,1.87,0,0,1,.47-.1h0c.18,0,.23-.1.23-.21h0a1,1,0,0,0-.29-.55h0a.16.16,0,0,0-.11,0h0a1.21,1.21,0,0,0-.48.17h0a1.51,1.51,0,0,1-.47.17h0c-.08,0-.14-.09-.2-.19h0c-.05-.12-.11-.26-.16-.41h0c-.11-.3-.24-.61-.38-.65h0a1.2,1.2,0,0,0-.39-.06h0a.53.53,0,0,1-.37-.18h0l-.59-.6h0l-.09,0h0a2.16,2.16,0,0,1,.4,1h0a.26.26,0,0,1-.13.25h0a.45.45,0,0,1-.18,0h0c-.25,0-.38-.25-.51-.37h0a.14.14,0,0,0-.09,0h0s-.07,0-.1.08h0a.52.52,0,0,0,0,.23h0a2.46,2.46,0,0,1-.17,1h0a.22.22,0,0,0,0,.1h0c0,.14.15.25.34.38h0a1.18,1.18,0,0,1,.48.46h0a.68.68,0,0,1,.05.23h0c0,.31-.31.43-.68.64h0l-.08,0h0c.13.13.39.35.56.34h0c.14,0,.22,0,.26.1h0a.48.48,0,0,1,0,.28h0a1.8,1.8,0,0,0,.34,1.06h0a.29.29,0,0,0,.22.1h0c.11,0,.21-.06.3-.06h0a.12.12,0,0,1,.09,0Zm2.48-1.76,0,0,0,0Z"/><path class="cls-1" d="M47.28,44.57a3.47,3.47,0,0,1,1.49-.69,1.09,1.09,0,0,0,.59-.29.34.34,0,0,1-.17-.1,1.8,1.8,0,0,1-.35-1.08c0-.25,0-.35-.27-.35s-.49-.26-.61-.38c-.36.17-.44.09-.89,0a1.26,1.26,0,0,1-.85-.85c-.12-.29-.69.13-1.29.13s-1.3-.7-1.51-.9l-.13-.16a3.31,3.31,0,0,0-1.12.16.64.64,0,0,0,.06.73c.16.16,0,.37-.23.37s-.16.71.17.71a.39.39,0,0,1,.48.48c-.07.58,0,1.13-.4,1.2s-1.43,0-1.43.31a1.64,1.64,0,0,0,1,1.29V45a1.39,1.39,0,0,1,.39-.67c.13-.13.91,0,.91-.16s0-.38.27-.38a2.1,2.1,0,0,1,1.12.47c.25.25.33.33.55.11s.51,0,.72,0,.21-.21.58-.21.15.46.25.79a.47.47,0,0,0,.06.15C47.07,45.05,47.07,44.78,47.28,44.57Z"/><path class="cls-1" d="M41.81,45.18a1.68,1.68,0,0,1-1-1.32h0c0-.11.09-.17.19-.21h0a2.09,2.09,0,0,1,.42-.08h0c.31,0,.67,0,.84,0h0c.16,0,.24-.17.29-.38h0c0-.22,0-.5.09-.79h0a.38.38,0,0,0,0-.1h0c0-.32-.23-.35-.37-.36h-.09c-.23,0-.32-.28-.32-.49h0a.5.5,0,0,1,0-.19h0a.13.13,0,0,1,.12-.09h0a.31.31,0,0,0,.18-.07h0a.19.19,0,0,0,.08-.14h0a.15.15,0,0,0,0-.11h0a.65.65,0,0,1-.16-.46h0a.45.45,0,0,1,.1-.31h0a.94.94,0,0,1,.45-.12h0c.22,0,.48,0,.69-.05h0l.13.16h0c.2.2.9.9,1.48.89h0c.44,0,.86-.23,1.12-.23h0a.19.19,0,0,1,.2.12h0a1.19,1.19,0,0,0,.82.83h0a4.08,4.08,0,0,0,.54.1h0a.79.79,0,0,0,.33-.1h0c.11.12.41.38.59.37h0c.14,0,.22,0,.26.1h0a.48.48,0,0,1,0,.28h0a1.8,1.8,0,0,0,.34,1.06h0a.38.38,0,0,0,.16.09h0a0,0,0,0,1,0,0h0s0,0,0,0h0a1.23,1.23,0,0,1-.61.29h0a3.43,3.43,0,0,0-1.47.68h0c-.19.19-.21.49-.63.53h0l0,0h0a.59.59,0,0,1-.06-.16h0a.72.72,0,0,1,0-.25h0v-.23h0a.58.58,0,0,0,0-.21h0s-.07-.07-.16-.07h0a.49.49,0,0,0-.33.1h0a.41.41,0,0,1-.25.11h0c-.15,0-.3-.07-.45-.07h0a.29.29,0,0,0-.24.1h0c-.1.09-.17.14-.25.14h0c-.11,0-.2-.1-.35-.25h0a2.14,2.14,0,0,0-1.1-.46h0a.2.2,0,0,0-.21.11h0a.66.66,0,0,0,0,.24h0s0,.06,0,.08h0l-.1,0h0a1.28,1.28,0,0,1-.29,0h0a1,1,0,0,0-.48.06h0a1.49,1.49,0,0,0-.38.65h0v.12h0s0,0,0,0h0Zm.72-3.28a.39.39,0,0,1,.16.35h0a.45.45,0,0,1,0,.11h0c0,.28,0,.57-.09.79h0c-.05.22-.14.39-.34.43h0a7.8,7.8,0,0,0-1.24.13h0c-.11,0-.16.08-.16.15h0a1.64,1.64,0,0,0,.94,1.25h0V45h0a1.5,1.5,0,0,1,.4-.69h0a.84.84,0,0,1,.44-.08h0a1.24,1.24,0,0,0,.44,0h0l0,0h0a.83.83,0,0,1,0-.26h0a.26.26,0,0,1,.27-.15h0a2.16,2.16,0,0,1,1.15.48h0c.14.15.23.23.3.23h0s.11,0,.2-.13h0a.42.42,0,0,1,.29-.11h0c.17,0,.32.07.45.07h0c.09,0,.13,0,.21-.1h0a.49.49,0,0,1,.37-.11h0a.2.2,0,0,1,.21.1h0a.47.47,0,0,1,0,.24h0v.23h0a.66.66,0,0,0,0,.24h0a.5.5,0,0,0,0,.13h0c.36,0,.35-.29.57-.51h0a3.4,3.4,0,0,1,1.51-.7h0a1,1,0,0,0,.53-.25h0a.34.34,0,0,1-.13-.09h0a1.8,1.8,0,0,1-.36-1.1h0a.5.5,0,0,0,0-.25h0s-.07-.07-.21-.07h0c-.22,0-.49-.25-.62-.37h0a.86.86,0,0,1-.34.09h0a3.45,3.45,0,0,1-.55-.1h0a1.28,1.28,0,0,1-.87-.87h0c0-.06-.06-.08-.14-.08h0a9.66,9.66,0,0,1-1.12.23h0c-.62,0-1.32-.71-1.53-.91h0s-.08-.09-.12-.15h0c-.21,0-.46,0-.67,0h0a.94.94,0,0,0-.42.1h0a.41.41,0,0,0-.08.27h0a.63.63,0,0,0,.14.42h0a.21.21,0,0,1,.07.15h0a.31.31,0,0,1-.32.27h0s0,0-.06.05h0a.4.4,0,0,0,0,.17h0a.59.59,0,0,0,.07.29h0a.21.21,0,0,0,.19.14h.09a.6.6,0,0,1,.27.07Z"/><path class="cls-1" d="M51.36,44.07c-.39,0-.6-.35-.78-.35s-.48.52-.72.52.06-.56,0-.67-.26.06-.45,0a1.09,1.09,0,0,1-.59.29,3.47,3.47,0,0,0-1.49.69c-.21.21-.21.48-.61.52.11.2.3.27.48.44s-.29.6-.59.9-.29.29-.15.43.11.42.33.64.25.46.46.68.22.32,0,.52-.08.41,0,.65a.9.9,0,0,1,.67.19c.44.45-.44,1-.06.89A2.17,2.17,0,0,1,49,50.26a.37.37,0,0,0,.32,0,2,2,0,0,1,.37-1.73c.22-.22,0-.65.31-1s.23-.44.23-.87.46-.48.83-.48.68-.49.91-.78C51.54,45.06,51.24,44.32,51.36,44.07Z"/><path class="cls-1" d="M47.69,50.47s0,0,0,0h0s0-.06,0-.1h0l.1-.14h0a.73.73,0,0,0,.14-.37h0a.33.33,0,0,0-.12-.26h0a.8.8,0,0,0-.61-.19h0a0,0,0,0,1,0,0h0a2.33,2.33,0,0,1,0-.37h0a.42.42,0,0,1,.08-.31h0c.09-.09.14-.16.13-.22h0c0-.07,0-.15-.15-.25h0c-.22-.22-.25-.47-.46-.68h0c-.23-.23-.2-.51-.33-.63h0a.31.31,0,0,1-.11-.16h0c0-.08.09-.15.26-.32h0c.25-.25.63-.57.63-.76h0a.14.14,0,0,0-.05-.09h0c-.16-.17-.36-.25-.48-.46h0v0h0c.38,0,.37-.29.59-.51h0a3.4,3.4,0,0,1,1.51-.7h0a1.15,1.15,0,0,0,.58-.28h.08c.11,0,.21-.06.3-.06h0a.13.13,0,0,1,.1,0h0a.16.16,0,0,1,0,.12h0c0,.13-.07.32-.07.44h0c0,.08,0,.1.06.1h0c.1,0,.22-.12.35-.25h0c.12-.13.24-.26.37-.27h0c.11,0,.2.1.32.18h0a.72.72,0,0,0,.43.17h0a0,0,0,0,1,0,0h0a0,0,0,0,1,0,0h0a.21.21,0,0,0,0,.12h0A1.65,1.65,0,0,0,52,45.34h0v0h0v0h0c-.12.14-.29.34-.45.5h0a.86.86,0,0,1-.49.29h0a1.57,1.57,0,0,0-.54.08h0a.37.37,0,0,0-.26.37h0c0,.16,0,.27,0,.37h0a.65.65,0,0,1-.25.52h0a.66.66,0,0,0-.18.51h0a.71.71,0,0,1-.13.48h0a2.19,2.19,0,0,0-.45,1.27h0a1,1,0,0,0,.08.42h0a0,0,0,0,1,0,0h0a.48.48,0,0,1-.23.07h0l-.11,0h0a.71.71,0,0,0-.26,0h0a3.26,3.26,0,0,0-.94.21h0l-.09,0h0Zm.19-.95a.44.44,0,0,1,.14.31h0a1.2,1.2,0,0,1-.28.59h0l0,0h0a3.24,3.24,0,0,1,1-.21h0a.82.82,0,0,1,.28,0h0l.09,0h0a.41.41,0,0,0,.18,0h0a1,1,0,0,1-.08-.42h0a2.29,2.29,0,0,1,.47-1.32h0a.58.58,0,0,0,.1-.43h0a.78.78,0,0,1,.21-.55h0a.59.59,0,0,0,.23-.48h0c0-.09,0-.21,0-.37h0a.45.45,0,0,1,.3-.43h0a1.46,1.46,0,0,1,.56-.08h0a.8.8,0,0,0,.44-.27h0a3.72,3.72,0,0,0,.43-.48h0a1.73,1.73,0,0,1-.65-1.16h0a.43.43,0,0,1,0-.11h0a.76.76,0,0,1-.46-.18h0c-.12-.09-.21-.17-.28-.17h0c-.08,0-.21.12-.33.25h0c-.12.13-.25.27-.39.27h0a.11.11,0,0,1-.09-.05h0a.2.2,0,0,1,0-.11h0c0-.13.07-.33.06-.44h0a.09.09,0,0,0,0-.08h0s0,0-.06,0h0a2.21,2.21,0,0,1-.3.06h-.06a1.2,1.2,0,0,1-.6.29h0a3.43,3.43,0,0,0-1.47.68h0c-.19.19-.21.47-.58.52h0a3,3,0,0,0,.45.4h0a.2.2,0,0,1,.06.14h0c0,.25-.4.55-.65.8h0c-.17.17-.24.25-.23.28h0s0,.05.08.11h0c.16.17.12.43.33.64h0c.23.23.26.47.47.67h0a.49.49,0,0,1,.17.3h0a.41.41,0,0,1-.16.27h0a.41.41,0,0,0-.06.26h0a1.84,1.84,0,0,0,0,.33h0a.91.91,0,0,1,.65.21Z"/><path class="cls-1" d="M44.89,50.54c-.72.15-.71-1.32-.71-1.73s-.2-.19-.85.14-1.65.58-1.83.4h0a2.88,2.88,0,0,1-.58.4c-.37.15,0,.83-.79.67s-.85.23-1.35.33a1.19,1.19,0,0,0-.65.4c.18.33.4,1,.19,1.22a3.43,3.43,0,0,0-.45.72c.43.13,1,.08,1.07.14a2.37,2.37,0,0,1,.08.85c0,.37.85.54,1.09.78s1.17-.34,1.46-.34.58.58.58.29.41-.13.41-.13v0c.38-.46,1-1,1.36-1.4.53-.53.5-.86.79-1.62a4.14,4.14,0,0,0,.21-1.16Z"/><path class="cls-1" d="M40.07,54.87a3.19,3.19,0,0,0-.63-.34h0c-.24-.12-.46-.25-.47-.46h0c0-.19,0-.38,0-.53h0a.57.57,0,0,0-.07-.3h-.37a4,4,0,0,1-.67-.1h0l0,0h0s0,0,0,0h0a2.94,2.94,0,0,1,.44-.73h0a.36.36,0,0,0,.08-.27h0a2.15,2.15,0,0,0-.27-.91h0a.06.06,0,0,1,0,0h0a1.25,1.25,0,0,1,.66-.41h0c.41-.07.52-.36,1-.36h0l.34,0h0a.82.82,0,0,0,.21,0h0c.24,0,.28-.11.33-.27h0c0-.15.05-.34.24-.42h0a2.38,2.38,0,0,0,.57-.4h0s0,0,0,0h0a.35.35,0,0,0,.22.05h0a4.39,4.39,0,0,0,1.57-.46h0a3.32,3.32,0,0,1,.76-.36h0a.11.11,0,0,1,.11.07h0a.42.42,0,0,1,0,.18h0v0h0a5,5,0,0,0,.08,1h0c.07.38.22.68.5.68h.1s0,0,0,0h0v0h0a4.2,4.2,0,0,1-.21,1.17h0c-.29.75-.26,1.1-.8,1.63h0c-.35.36-1,.94-1.35,1.4h0l0,0h0v0h0l0,0h0l-.14,0h0c-.09,0-.16,0-.16.14h0s0,.06,0,.08h0a.05.05,0,0,1,0,0h0c-.05,0-.07,0-.11-.06h0l-.13-.13h0a.53.53,0,0,0-.31-.18h0a2.51,2.51,0,0,0-.59.2h0a2.1,2.1,0,0,1-.69.2h0a.27.27,0,0,1-.2-.07Zm-1.28-1.71a.3.3,0,0,1,.15,0h0a.71.71,0,0,1,.08.33h0c0,.16,0,.35,0,.54h0c0,.15.2.29.44.41h0a2.87,2.87,0,0,1,.64.35h0a.22.22,0,0,0,.16.05h0a2.14,2.14,0,0,0,.67-.2h0a2.33,2.33,0,0,1,.61-.2h0c.23,0,.43.3.53.36h0a.2.2,0,0,0,0-.05h0a.18.18,0,0,1,.07-.16h0a.26.26,0,0,1,.15,0h0a.7.7,0,0,1,.23,0h0c.39-.46,1-1,1.32-1.35h0c.52-.52.49-.85.78-1.61h0a4.48,4.48,0,0,0,.21-1.11h-.07c-.33,0-.49-.35-.56-.73h0a5.18,5.18,0,0,1-.08-1h0v0h0a.51.51,0,0,0,0-.16h0a.07.07,0,0,0-.06,0h0a4.19,4.19,0,0,0-.73.35h0a4.31,4.31,0,0,1-1.6.47h0a.39.39,0,0,1-.26-.06h0a2.36,2.36,0,0,1-.57.38h0c-.14.06-.16.22-.2.39h0a.36.36,0,0,1-.39.31h0a.86.86,0,0,1-.22,0h0l-.33,0h0c-.47,0-.57.27-1,.36h0a1.13,1.13,0,0,0-.61.38h0a2.34,2.34,0,0,1,.26.92h0a.43.43,0,0,1-.09.31h0a3.06,3.06,0,0,0-.42.68h0a5.6,5.6,0,0,0,.89.1Z"/><path class="cls-1" d="M38.76,50.74c.5-.1.56-.48,1.35-.33s.42-.52.79-.67a2.88,2.88,0,0,0,.58-.4c-.14-.22.36-1.16.63-1.43s-.4-.39-.4-.39a1.41,1.41,0,0,0,.19-1,1.28,1.28,0,0,1-.54-.31A4.12,4.12,0,0,0,40,45.32c-.17,0-.51.34-.84.67s-.7-.3-.91-.09.23.39.23.89a.93.93,0,0,1-1,.8c.13.16-.37.12-.8.12a1.54,1.54,0,0,0-1.08.41c-.24.24.25.85.46.63s.68.22.68.6-.45.31-.45.46.35.47.25.79.1.47.47.35a1.28,1.28,0,0,1,1,0,.76.76,0,0,1,.1.15A1.19,1.19,0,0,1,38.76,50.74Z"/><path class="cls-1" d="M38.11,51.17h0A.83.83,0,0,0,38,51h0a.74.74,0,0,0-.45-.11h0A2,2,0,0,0,37,51h0a.75.75,0,0,1-.24,0h0a.31.31,0,0,1-.21-.07h0a.24.24,0,0,1-.07-.19h0a.88.88,0,0,1,0-.16h0a.52.52,0,0,0,0-.11h0a.72.72,0,0,0-.13-.38h0a.72.72,0,0,1-.14-.3h0a.13.13,0,0,1,.09-.11h0l.15-.06h0a.28.28,0,0,0,.2-.29h0a.63.63,0,0,0-.17-.42h0a.5.5,0,0,0-.33-.2h0a.15.15,0,0,0-.12.05h0a.19.19,0,0,1-.13,0h0a.6.6,0,0,1-.45-.54h0a.24.24,0,0,1,.08-.19h0a1.55,1.55,0,0,1,1.1-.42h.41a1,1,0,0,0,.37,0h0v0h0a0,0,0,0,1,0,0h0l0,0h.06a1,1,0,0,0,.64-.24h0a.74.74,0,0,0,.28-.53h0a.86.86,0,0,0-.14-.46h0c-.07-.12-.15-.21-.15-.31h0a.17.17,0,0,1,.07-.14h0a.16.16,0,0,1,.12-.06h0c.19,0,.4.24.6.23h0a.26.26,0,0,0,.19-.08h0a6.6,6.6,0,0,1,.48-.46h0a.73.73,0,0,1,.38-.22h0a2,2,0,0,1,.63.31h0a4.46,4.46,0,0,1,.76.59h0a1.08,1.08,0,0,0,.53.3h0l0,0h0a1.23,1.23,0,0,1,0,.27h0a1.28,1.28,0,0,1-.19.72h0a.9.9,0,0,1,.19,0h0c.12,0,.26.11.26.23h0a.21.21,0,0,1-.07.15h0a2.86,2.86,0,0,0-.65,1.3h0a.2.2,0,0,0,0,.09h0a0,0,0,0,1,0,0h0a2.37,2.37,0,0,1-.59.4h0c-.14.06-.16.22-.2.39h0a.36.36,0,0,1-.39.31h0a.86.86,0,0,1-.22,0h0l-.33,0h0c-.47,0-.57.27-1,.36h0a1.26,1.26,0,0,0-.63.39h0s0,0,0,0ZM38,51s0,.07.09.12h0a1.21,1.21,0,0,1,.63-.38h0c.41-.07.52-.36,1-.36h0l.34,0h0a.82.82,0,0,0,.21,0h0c.24,0,.28-.11.33-.27h0c0-.15.05-.34.24-.42h0a2.77,2.77,0,0,0,.56-.38h0a.18.18,0,0,1,0-.1h0a3,3,0,0,1,.66-1.35h0a.14.14,0,0,0,.06-.1h0c0-.07-.1-.13-.22-.17h0a1.49,1.49,0,0,0-.23-.06h0a0,0,0,0,1,0,0h0v0h0a1.21,1.21,0,0,0,.21-.72h0a1.93,1.93,0,0,0,0-.24h0a1.09,1.09,0,0,1-.54-.31h0a5.44,5.44,0,0,0-.75-.58h0a2.21,2.21,0,0,0-.6-.3h0a.79.79,0,0,0-.34.2h0c-.14.13-.31.29-.47.46h0a.36.36,0,0,1-.24.1h0c-.24,0-.46-.23-.6-.22h0a.09.09,0,0,0-.08,0h0a.14.14,0,0,0,0,.1h0a.79.79,0,0,0,.14.28h0a1,1,0,0,1,.15.49h0a1,1,0,0,1-1,.84h0a.06.06,0,0,1,0,.06h0a.14.14,0,0,1-.09,0h0l-.3,0h-.41a1.48,1.48,0,0,0-1.06.4h0a.2.2,0,0,0-.06.15h0a.57.57,0,0,0,.14.32h0a.42.42,0,0,0,.25.16h0a.11.11,0,0,0,.09,0h0a.23.23,0,0,1,.16-.06h0a.73.73,0,0,1,.57.68h0c0,.31-.28.35-.4.41h0s-.05,0-.05.05h0a.87.87,0,0,0,.13.27h0a.84.84,0,0,1,.14.41h0a.5.5,0,0,1,0,.12h0a1,1,0,0,0,0,.15h0c0,.14.07.2.22.2h0a.7.7,0,0,0,.23,0h0a2.1,2.1,0,0,1,.56-.08h0A.7.7,0,0,1,38,51Z"/><path class="cls-1" d="M40.59,41.72a9.31,9.31,0,0,0-.52,1.21c-.23.5-.4,1.27-.87,1.27s-.88-.59-1.27-.21-.57,1.13-.35,1.35l.63.59,0,0c.21-.21.59.41.91.09s.67-.67.84-.67a4.12,4.12,0,0,1,1.37.89,1.28,1.28,0,0,0,.54.31c0-.32-.13-.58-.13-.68s0-.48,0-.69a1.64,1.64,0,0,1-1-1.29c0-.33,1.07-.24,1.43-.31s.33-.62.4-1.2a.39.39,0,0,0-.48-.48.24.24,0,0,1-.14,0A4.49,4.49,0,0,0,40.59,41.72Z"/><path class="cls-1" d="M41.9,46.55a1.21,1.21,0,0,1-.56-.32h0a5.44,5.44,0,0,0-.75-.58h0a2.21,2.21,0,0,0-.6-.3h0a.79.79,0,0,0-.34.2h0c-.14.13-.31.29-.47.46h0a.36.36,0,0,1-.24.1h0c-.24,0-.46-.23-.6-.22h0a.09.09,0,0,0-.08,0h0s0,0,0,0h-.05l-.63-.59h0a.47.47,0,0,1-.1-.33h0A1.64,1.64,0,0,1,37.91,44h0a.42.42,0,0,1,.31-.14h0c.32,0,.65.35,1,.34h0c.21,0,.37-.17.5-.43h0c.12-.25.23-.57.34-.82h0a8.72,8.72,0,0,1,.53-1.23h0a.43.43,0,0,1,.23,0h0a9.26,9.26,0,0,1,1.23.14h0a.17.17,0,0,0,.12.05h.09a.6.6,0,0,1,.27.07h0a.39.39,0,0,1,.16.35h0a.45.45,0,0,1,0,.11h0c0,.28,0,.57-.09.79h0c-.05.22-.14.39-.34.43h0a7.8,7.8,0,0,0-1.24.13h0c-.11,0-.16.08-.16.15h0a1.62,1.62,0,0,0,1,1.26h0s0,0,0,0h0c0,.21-.05.54-.05.69h0c0,.09.09.35.13.67h0s0,0,0,0h0Zm-1.28-.95a4.46,4.46,0,0,1,.76.59h0a1.18,1.18,0,0,0,.49.29h0c0-.3-.13-.53-.13-.64h0c0-.16,0-.46,0-.67h0a1.68,1.68,0,0,1-1-1.31h0c0-.11.09-.17.19-.21h0a2.09,2.09,0,0,1,.42-.08h0c.31,0,.67,0,.84,0h0c.16,0,.24-.17.29-.38h0c0-.22,0-.5.09-.79h0a.38.38,0,0,0,0-.1h0c0-.32-.24-.35-.37-.36h-.09a.2.2,0,0,1-.15-.06h0a11.11,11.11,0,0,0-1.22-.13h0a.42.42,0,0,0-.19,0h0l0,0,0,0a10.25,10.25,0,0,0-.51,1.2h0c-.12.25-.22.57-.35.83h0c-.13.26-.3.46-.55.46h0c-.37,0-.7-.34-1-.34h0A.37.37,0,0,0,38,44h0a1.65,1.65,0,0,0-.43,1h0a.46.46,0,0,0,.08.29h0l.61.57h0a.16.16,0,0,1,.12-.06h0c.19,0,.4.24.6.23h0a.26.26,0,0,0,.19-.08h0a6.6,6.6,0,0,1,.48-.46h0a.73.73,0,0,1,.38-.22h0a2,2,0,0,1,.63.31Z"/><path class="cls-1" d="M37.35,36.84c.2.2.89.65,1.2.35a.93.93,0,0,0,0-1.14c-.19-.32.75-1,1.16-1.63a5.64,5.64,0,0,1-.51-.45c-.36-.37-.2-1.28-.64-1.28s-.52,1.13-.78,1.39a4,4,0,0,1-1.24.52,6.5,6.5,0,0,1,.54.83C37.29,35.78,37.15,36.64,37.35,36.84Z"/><path class="cls-1" d="M38.27,37.32a1.64,1.64,0,0,1-.94-.46h0l0,0,0,0a1.63,1.63,0,0,0,.9.44h0a.35.35,0,0,0,.26-.1h0a.7.7,0,0,0,.2-.51h0a1.29,1.29,0,0,0-.17-.59h0a.2.2,0,0,1,0-.11h0c0-.19.21-.44.46-.71h0a10.24,10.24,0,0,0,.72-.81h0a4.23,4.23,0,0,1-.49-.44h0c-.28-.29-.26-.88-.41-1.13h0a.23.23,0,0,0-.21-.14h0c-.18,0-.32.26-.42.58h0a2.67,2.67,0,0,1-.33.8h0a3.94,3.94,0,0,1-1.22.51h0a7.78,7.78,0,0,1,.52.81h0a2.37,2.37,0,0,1,.11.77h0a1.19,1.19,0,0,0,.11.63h0l0,0,0,0c-.12-.12-.12-.39-.14-.67h0a2.27,2.27,0,0,0-.1-.75h0a7.2,7.2,0,0,0-.54-.82h0v0h0a0,0,0,0,1,0,0h0a4.19,4.19,0,0,0,1.23-.51h0a2.86,2.86,0,0,0,.32-.78h0c.11-.31.24-.61.48-.62h0a.29.29,0,0,1,.26.17h0a1.09,1.09,0,0,1,.12.36h0a1.57,1.57,0,0,0,.28.75h0a4.51,4.51,0,0,0,.51.46h0s0,0,0,0h0a7.82,7.82,0,0,1-.73.84h0c-.25.27-.45.52-.45.67h0a.19.19,0,0,0,0,.08h0a1.27,1.27,0,0,1,.18.62h0a.77.77,0,0,1-.22.56h0a.41.41,0,0,1-.3.11Z"/><path class="cls-1" d="M30.19,43.34c0-.81-.83-1.32-1-1.91s-.38,0-.38,0a1.54,1.54,0,0,1-2.28.34,2.08,2.08,0,0,0-1.8-.72A5.66,5.66,0,0,1,21,39.29c-.4-.41-.17-1,.32-1.45a1.76,1.76,0,0,0,.29-1.29.3.3,0,0,1-.29-.1c-.44-.44-1-.19-1.93-.19a8.83,8.83,0,0,0-3.12.5c-.89.39-1.31,0-2.35,0s-1,.68-1.24.43-2.23,0-1.85.34-.38.53-.89.71c-.07.5.44,1.36.27,1.53s-.84-.09-1,.11.13.65.13,1.06-.63.61-.42.83,1,.33,1.33.67.84.93.84.93c.42-.32,1.39.33,1.67.33s.31.54.74.69a.49.49,0,0,0,.61-.15s-.09.87.52,1,.9.72,1.28,1.1,1,.05,1.34.41,1.44.11,1.65.11.37.44.61.44.76-.78.76-.78a1.5,1.5,0,0,0,1.71,0s0,.82.72.82a1.14,1.14,0,0,0,1.13-.84c.56.08,1.69-.87,1.69-.87.67.35,1.43-.46,1.43,0a1.08,1.08,0,0,0,.5.81c.27.27.83.15,1.2.15a.72.72,0,0,1,.36.17,3.06,3.06,0,0,0,.26.43c.53-.28,1-1.56,1.15-1.56a.1.1,0,0,1,.09.06C30.52,45,30.19,44,30.19,43.34Z"/><path class="cls-1" d="M22,46.94a1.08,1.08,0,0,1-.09-.37h0a1.5,1.5,0,0,1-.79.23h0a1.63,1.63,0,0,1-.89-.28h0c0,.06-.15.21-.28.37h0c-.16.19-.34.39-.49.4h0a.55.55,0,0,1-.34-.23h0c-.09-.11-.18-.21-.27-.21h0c-.12,0-.54.09-.94.09h0a1.07,1.07,0,0,1-.73-.2h0a.86.86,0,0,0-.65-.2h0a.94.94,0,0,1-.69-.22h0c-.39-.38-.68-1-1.27-1.09h0a.6.6,0,0,1-.46-.38h0a1.47,1.47,0,0,1-.09-.5h0v0h0a.47.47,0,0,1-.34.14h0a.79.79,0,0,1-.24,0h0A.82.82,0,0,1,13,44h0c-.1-.15-.17-.27-.29-.27h0a2.7,2.7,0,0,1-.6-.21h0a2.13,2.13,0,0,0-.76-.21h0a.48.48,0,0,0-.29.09h0a0,0,0,0,1,0,0h0s-.51-.59-.84-.93h0a2.21,2.21,0,0,0-.7-.37h0a2.06,2.06,0,0,1-.63-.3h0a.21.21,0,0,1,0-.12h0c0-.11.12-.2.24-.32H9a.6.6,0,0,0,.22-.41h0c0-.3-.2-.63-.2-.88h0a.29.29,0,0,1,.07-.2h0a.47.47,0,0,1,.32-.09h0l.52,0h0a.31.31,0,0,0,.21,0h0a.14.14,0,0,0,0-.09h0c0-.26-.31-.88-.31-1.32h0a.41.41,0,0,1,0-.11h0l0,0h0a5.19,5.19,0,0,0,.63-.27h0c.18-.1.3-.22.29-.3h0a.16.16,0,0,0,0-.09h0a.14.14,0,0,1-.06-.12h0c0-.07.06-.12.14-.17h0a1.78,1.78,0,0,1,.33-.12h0a4.31,4.31,0,0,1,.88-.09h0a1.07,1.07,0,0,1,.6.11h0a.15.15,0,0,0,.08.05h0c.05,0,.13-.11.28-.23h0a1.29,1.29,0,0,1,.86-.25h0c.7,0,1.12.17,1.58.17h0a1.85,1.85,0,0,0,.76-.17h0a8.63,8.63,0,0,1,3.13-.5h0c.49,0,.88-.07,1.2-.07h0a1,1,0,0,1,.75.27h0a.3.3,0,0,0,.22.1h.07v0h0a2.53,2.53,0,0,1,0,.28h0a1.46,1.46,0,0,1-.31,1h0a1.52,1.52,0,0,0-.52,1h0a.64.64,0,0,0,.2.46h0a5.43,5.43,0,0,0,1.64,1.2h0a5.16,5.16,0,0,0,2,.55h0a2.13,2.13,0,0,1,1.82.73h0a1.44,1.44,0,0,0,1,.35h0a1.28,1.28,0,0,0,1.23-.68h0a1.3,1.3,0,0,1,.05-.14h0c0-.06.08-.14.16-.15h0c.09,0,.15.09.23.29h0c.2.57,1,1.08,1,1.92h0c0,.61.28,1.46.28,2.21h0a1.09,1.09,0,0,1,0,.18h0s0,0,0,0h0s-.05,0-.07,0h0s-.09.06-.17.19h0l-.26.47h0a2.35,2.35,0,0,1-.7.9h0s0,0,0,0h0a2.37,2.37,0,0,1-.26-.43h0l-.11-.08h0a.45.45,0,0,0-.23-.08h0c-.17,0-.38,0-.58,0h0a.85.85,0,0,1-.62-.18h0a1.09,1.09,0,0,1-.51-.84h0c0-.12,0-.13-.1-.14h0a5.67,5.67,0,0,1-.92.22h0a.9.9,0,0,1-.38-.08h0a3.79,3.79,0,0,1-1.62.86H23.8a1.16,1.16,0,0,1-1.15.84h0a.68.68,0,0,1-.65-.43ZM22,46.49a0,0,0,0,1,0,0h0a1.25,1.25,0,0,0,.1.4h0a.6.6,0,0,0,.59.39h0a1.08,1.08,0,0,0,1.05-.69h0l.05-.13h0s0,0,0,0h.07a2.21,2.21,0,0,0,1-.43h0c.33-.22.59-.43.59-.43h0a.72.72,0,0,0,.37.09h0a6,6,0,0,0,.92-.22h0a.18.18,0,0,1,.12.05h0a.24.24,0,0,1,0,.15h0a.86.86,0,0,0,.24.57h0a1.32,1.32,0,0,0,.24.22h0a.82.82,0,0,0,.58.17h0c.2,0,.41,0,.58,0h0a.7.7,0,0,1,.38.18h0a2.93,2.93,0,0,0,.24.4h0c.37-.22.7-1,.92-1.33h0c.08-.13.14-.21.22-.22h0l.07,0h0v-.11h0c0-.74-.28-1.59-.28-2.21h0c0-.79-.81-1.29-1-1.9h0c-.07-.2-.14-.25-.17-.25h0s-.07.05-.1.12h0a1,1,0,0,0-.05.12h0a1.36,1.36,0,0,1-1.29.72h0a1.51,1.51,0,0,1-1-.36h0a2.05,2.05,0,0,0-1.78-.72h0a5.29,5.29,0,0,1-2.06-.55h0A5.5,5.5,0,0,1,21,39.31h0a.69.69,0,0,1-.22-.5h0a1.52,1.52,0,0,1,.54-1h0a1.42,1.42,0,0,0,.29-1h0a1.85,1.85,0,0,0,0-.24h0a.37.37,0,0,1-.26-.12h0a.92.92,0,0,0-.71-.25h0c-.32,0-.7.07-1.2.07h0a8.74,8.74,0,0,0-3.11.5h0a1.9,1.9,0,0,1-.78.17h0c-.48,0-.9-.17-1.58-.17h0a1.29,1.29,0,0,0-.82.23h0c-.15.12-.21.24-.32.25h0a.17.17,0,0,1-.12-.06h0a1.07,1.07,0,0,0-.56-.1h0a3.18,3.18,0,0,0-1.18.2h0c-.07,0-.11.09-.11.12h0a.12.12,0,0,0,0,.08h0a.19.19,0,0,1,.06.13h0c0,.14-.14.24-.32.35h0a5,5,0,0,1-.62.27h0a.19.19,0,0,0,0,.08h0c0,.42.31,1,.31,1.32h0a.18.18,0,0,1,0,.13h0a.34.34,0,0,1-.25.07h0l-.52,0h0a.4.4,0,0,0-.27.07h0a.23.23,0,0,0-.06.16h0c0,.22.2.56.2.88h0a.67.67,0,0,1-.24.45h0c-.12.12-.23.22-.22.28h0a.1.1,0,0,0,0,.08h0a2,2,0,0,0,.6.28h0a2.08,2.08,0,0,1,.72.39h0c.3.3.73.8.83.91h0a.5.5,0,0,1,.3-.08h0a2.33,2.33,0,0,1,.78.21h0a2.63,2.63,0,0,0,.58.21h0c.17,0,.25.15.34.3h0a.82.82,0,0,0,.41.39h0a.68.68,0,0,0,.22,0h0a.41.41,0,0,0,.33-.16h0s0,0,0,0h0s0,0,0,0h0s0,0,0,0h0a.63.63,0,0,0,0,.11h0a1.33,1.33,0,0,0,.09.48h0a.54.54,0,0,0,.41.34h0c.63.09.93.74,1.3,1.11h0a.9.9,0,0,0,.66.2h0a.94.94,0,0,1,.68.21h0a1,1,0,0,0,.69.19h0c.4,0,.81-.09.94-.09h0c.13,0,.23.12.32.23h0c.09.11.19.21.29.21h0c.09,0,.29-.19.45-.38h0l.28-.39h0s0,0,0,0h0a1.55,1.55,0,0,0,.88.29h0a1.31,1.31,0,0,0,.58-.13h0a.88.88,0,0,0,.21-.12h0Z"/><path class="cls-1" d="M42.17,40.06a3.31,3.31,0,0,1,1.12-.16c-.22-.3-.55-.84-.73-1s-.06-.37,0-.56c-.14,0-.2,0-.2-.24,0-.43.34-.49.34-.95s-.37-.41-.37-1.12.08-.66.08-1.23-.2-1.17.12-1.49.12-.61,0-.93a3.38,3.38,0,0,1-.46,0c-.32,0-.45.37-.78.7s-.5,1-.87,1.39c-.21.21-.47.12-.73-.07-.28.41-.81.87-1.06,1.23.28.12.88.39,1.11.47s.7.44.48.66-.64.7-.9,1-.79.22-.93.54.26.75,0,1-.16.55-.55.55-.44.79-.18,1.05,2.45.53,2.79.92l0-.05a4.49,4.49,0,0,1,1.44.1c-.19-.17-.19-.66,0-.66s.39-.21.23-.37A.64.64,0,0,1,42.17,40.06Z"/><path class="cls-1" d="M42,41.85a9.64,9.64,0,0,0-1.23-.14h0a.42.42,0,0,0-.19,0h0l0,0h0l0,0h0a2.42,2.42,0,0,0-1-.39h0l-1.33-.33h0a1.55,1.55,0,0,1-.51-.2h0a.79.79,0,0,1-.17-.52h0c0-.28.12-.58.38-.58h0a.29.29,0,0,0,.31-.18h0a1.29,1.29,0,0,1,.22-.36h0a.25.25,0,0,0,.06-.16h0c0-.17-.14-.4-.14-.63h0a.51.51,0,0,1,0-.17h0a.63.63,0,0,1,.44-.31h0a1.13,1.13,0,0,0,.49-.24h0c.26-.26.69-.74.91-1h0a.17.17,0,0,0,.06-.12h0c0-.17-.29-.4-.53-.49h0c-.24-.09-.83-.35-1.11-.47h0s0,0,0,0h0a0,0,0,0,1,0,0h0c.25-.36.78-.82,1-1.23h.05a.87.87,0,0,0,.43.18h0a.32.32,0,0,0,.26-.12h0c.36-.35.53-1,.87-1.38h0c.33-.33.46-.7.8-.71h0a3.38,3.38,0,0,0,.46,0h0s0,0,0,0h0a2,2,0,0,1,.09.55h0a.56.56,0,0,1-.13.41h0a.72.72,0,0,0-.17.53h0c0,.28.06.61.06.94h0c0,.58-.08.52-.08,1.23h0a1,1,0,0,0,.18.63h0a.76.76,0,0,1,.19.49h0a.82.82,0,0,1-.17.5h0a.7.7,0,0,0-.17.45h0a.36.36,0,0,0,0,.18h0a.07.07,0,0,0,.07,0h.09a0,0,0,0,1,0,0h0a.85.85,0,0,0-.1.36h0a.24.24,0,0,0,.06.17h0c.19.19.51.72.74,1h0v0h0l0,0h0c-.21,0-.46,0-.68,0h0a.94.94,0,0,0-.42.1h0a.41.41,0,0,0-.08.27h0a.63.63,0,0,0,.14.42h0a.21.21,0,0,1,.07.15h0a.31.31,0,0,1-.32.27h0s0,0-.06.05h0a.38.38,0,0,0,0,.16h0a.53.53,0,0,0,.14.39h0a.06.06,0,0,1,0,0h0l0,0ZM42,41.77a.66.66,0,0,1-.1-.37h0a.48.48,0,0,1,0-.18h0a.13.13,0,0,1,.12-.09h0a.31.31,0,0,0,.18-.07h0a.19.19,0,0,0,.08-.14h0a.15.15,0,0,0,0-.11h0a.65.65,0,0,1-.16-.46h0a.45.45,0,0,1,.1-.31h0a.94.94,0,0,1,.45-.12h0l.63-.05h0c-.22-.31-.53-.8-.69-1h0a.26.26,0,0,1-.08-.21h0a.76.76,0,0,1,.08-.33h0a.12.12,0,0,1-.12-.07h0a.41.41,0,0,1,0-.21h0a.75.75,0,0,1,.18-.48h0a.8.8,0,0,0,.16-.47h0a.64.64,0,0,0-.18-.45h0a1.09,1.09,0,0,1-.19-.67h0c0-.72.08-.66.08-1.23h0c0-.32-.06-.65-.06-.94h0a.76.76,0,0,1,.19-.57h0a.56.56,0,0,0,.11-.37h0a2.26,2.26,0,0,0-.08-.51h0a3,3,0,0,1-.44,0h0c-.29,0-.42.35-.76.69h0c-.32.32-.49,1-.86,1.39h0a.43.43,0,0,1-.31.13h0a.73.73,0,0,1-.44-.18h0c-.28.4-.78.84-1,1.18h0l1.07.46h0c.25.09.56.31.57.54h0a.24.24,0,0,1-.08.16h0c-.22.22-.64.7-.9,1h0a1.39,1.39,0,0,1-.52.25h0c-.19.06-.34.13-.4.28h0a.32.32,0,0,0,0,.14h0c0,.2.14.43.14.63h0a.27.27,0,0,1-.08.2h0a1.37,1.37,0,0,0-.2.35h0a.37.37,0,0,1-.37.21h0a.26.26,0,0,0-.23.15h0a.72.72,0,0,0-.09.37h0a.71.71,0,0,0,.16.48h0a1.34,1.34,0,0,0,.48.18h0c.24.07.55.14.86.21h0a4.34,4.34,0,0,1,1.43.5h0l0,0h0a.43.43,0,0,1,.23,0h0a9.58,9.58,0,0,1,1.15.12Z"/><path class="cls-1" d="M29.81,40.44c.22-.21,1.22,0,1.88,0s.73.73,1,.45.56-.56.88-.56.75-.29.55-.49-1.53-.41-1.53-.67.61,0,1,0,0-.34,0-.89.58-.58,1-1-.21-.9-.35-1.36a2,2,0,0,0-1-1.24,10.83,10.83,0,0,1-2.38-1.51c-.46-.46-.63-.08-1.61.18a2.51,2.51,0,0,1-1.86-.2c-.36-.11-1-.34-1.39-.49a.6.6,0,0,1-.52.39c-.51,0-3,.42-3,1.08s.54,1.19.31,1.43-.74.93-1.18,1a1.76,1.76,0,0,1-.29,1.29c-.49.49-.72,1-.32,1.45a5.66,5.66,0,0,0,3.7,1.76,2.08,2.08,0,0,1,1.8.72,1.54,1.54,0,0,0,2.28-.34C28.77,40.88,29.6,40.66,29.81,40.44Z"/><path class="cls-1" d="M27.51,42.16a1.51,1.51,0,0,1-1-.36h0a2.05,2.05,0,0,0-1.78-.72h0a5.29,5.29,0,0,1-2.06-.55h0A5.5,5.5,0,0,1,21,39.31h0a.69.69,0,0,1-.22-.5h0a1.52,1.52,0,0,1,.54-1h0a1.42,1.42,0,0,0,.29-1h0c0-.09,0-.19,0-.27h0a.05.05,0,0,1,0,0h0c.42,0,1-.78,1.16-1h0a.13.13,0,0,0,.05-.12h0c0-.26-.36-.73-.36-1.28h0c0-.19.16-.34.41-.47h0a4.12,4.12,0,0,1,.91-.35h0A8.82,8.82,0,0,1,25.44,33h0a.61.61,0,0,0,.5-.37h0s0,0,0,0h0c.4.15,1,.38,1.38.49h0a3.68,3.68,0,0,0,1.15.3h0a2.85,2.85,0,0,0,.69-.1h0a9.93,9.93,0,0,1,1.21-.39h0a.62.62,0,0,1,.44.22h0a10.57,10.57,0,0,0,2.36,1.5h0a2,2,0,0,1,1,1.26h0c.1.35.47.73.47,1.08h0a.43.43,0,0,1-.13.31h0a3.13,3.13,0,0,1-.63.42h0a.58.58,0,0,0-.32.52h0a4.86,4.86,0,0,0,.18.78h0a.12.12,0,0,1-.05.11h0a.35.35,0,0,1-.16,0h0c-.26,0-.61-.09-.81-.09h0l-.13,0h0a.07.07,0,0,0,0,.07h0s.07.1.19.16h0c.13.06.3.11.48.17h0a3.08,3.08,0,0,1,.85.31h0a.22.22,0,0,1,.06.14h0a.36.36,0,0,1-.21.28h0a.83.83,0,0,1-.42.13h0c-.3,0-.58.28-.86.55h0a.19.19,0,0,1-.14.07h0c-.12,0-.2-.14-.32-.26h0a.78.78,0,0,0-.56-.25h0c-.44,0-1-.09-1.44-.09h0a.62.62,0,0,0-.42.09h0l0,0,0,0c-.23.22-1,.44-1,1h0a1.36,1.36,0,0,1-1.29.72Zm-1-.41a1.44,1.44,0,0,0,1,.35h0a1.29,1.29,0,0,0,1.23-.68h0c0-.58.85-.79,1.05-1h0a.71.71,0,0,1,.46-.1h0c.41,0,1,.09,1.44.09h0a.81.81,0,0,1,.6.27h0c.13.13.22.25.28.24h0a.14.14,0,0,0,.1-.05h0c.27-.27.56-.57.9-.57h0a.81.81,0,0,0,.39-.12h0c.11-.07.19-.16.18-.23h0a.12.12,0,0,0,0-.09h0a1.74,1.74,0,0,0-.56-.23h0a5.06,5.06,0,0,1-.75-.25h0c-.13-.06-.23-.12-.23-.21h0a.14.14,0,0,1,.07-.12h0a.26.26,0,0,1,.16,0h0c.22,0,.56.09.81.09h0a.31.31,0,0,0,.13,0h0a.08.08,0,0,0,0-.06h0a3.61,3.61,0,0,1-.18-.78h0a.64.64,0,0,1,.35-.57h0a3.43,3.43,0,0,0,.61-.41h0a.35.35,0,0,0,.12-.27h0c0-.31-.36-.7-.47-1.06h0a1.88,1.88,0,0,0-1-1.22h0a11.62,11.62,0,0,1-2.38-1.51h0a.53.53,0,0,0-.39-.21h0a9.15,9.15,0,0,0-1.2.39h0a2.92,2.92,0,0,1-.7.1h0a3.25,3.25,0,0,1-1.16-.31h0c-.36-.1-1-.32-1.37-.47h0a.65.65,0,0,1-.54.38h0a7.78,7.78,0,0,0-2.57.63h0c-.23.13-.38.28-.37.42h0c0,.53.36,1,.36,1.28h0a.27.27,0,0,1-.06.17h0c-.19.18-.71.91-1.17,1h0a2.09,2.09,0,0,1,0,.25h0a1.46,1.46,0,0,1-.31,1h0a1.52,1.52,0,0,0-.52,1h0a.64.64,0,0,0,.2.46h0a5.43,5.43,0,0,0,1.64,1.2h0a5.16,5.16,0,0,0,2,.55h0a2.1,2.1,0,0,1,1.8.73Z"/><path class="cls-1" d="M34.66,39.39c.73.19.94.94,1.31.94s.54.48.93.87.65-.06.91-.31l-.05,0c-.26-.26-.22-1.05.18-1.05s.33-.33.55-.55-.17-.64,0-1,.67-.28.93-.54.68-.74.9-1-.17-.54-.48-.66-.83-.35-1.11-.47c-.11.16-.16.3-.1.4a.93.93,0,0,1,0,1.14c-.31.3-1-.15-1.2-.35s-.06-1.06-.23-1.41a6.5,6.5,0,0,0-.54-.83,4.5,4.5,0,0,1-.9.18c-.43,0-.55-.93.12-1.07a.52.52,0,0,0,0-1c-.49,0-.56.34-1.39.41s0,.75-.43.75-.35-.9-.93-.9-.69-1-.69-1c.52-.52.26-.9-.18-1.07s-.75.4-1.5.4-.13-1.4-.4-1.67a1.67,1.67,0,0,1-.2-1,5.94,5.94,0,0,0-.63.09c-.82,1.63-1.67.3-2.09,1a3.09,3.09,0,0,1-1.77,1c.77.35,0,.85.35,1.16a.66.66,0,0,1,0,.73c.41.15,1,.38,1.39.49a2.51,2.51,0,0,0,1.86.2c1-.26,1.15-.64,1.61-.18a10.83,10.83,0,0,0,2.38,1.51,2,2,0,0,1,1,1.24c.14.46.72,1,.35,1.36s-1,.41-1,1,.41.89,0,.89-1-.23-1,0,.85.38,1.3.55C34.05,39.52,34.19,39.27,34.66,39.39Z"/><path class="cls-1" d="M36.88,41.22c-.4-.4-.56-.87-.91-.86h0c-.21,0-.35-.2-.54-.41h0a1.55,1.55,0,0,0-.78-.53h0v-.06a1.58,1.58,0,0,1,.81.55h0c.19.21.34.39.5.39h0c.41,0,.56.49,1,.87h0a.28.28,0,0,0,.2.09h0a1.16,1.16,0,0,0,.64-.37h0l0,0h0a.79.79,0,0,1-.17-.52h0c0-.28.12-.58.38-.58h0a.29.29,0,0,0,.31-.18h0a1.29,1.29,0,0,1,.22-.36h0a.25.25,0,0,0,.06-.16h0c0-.17-.14-.4-.14-.63h0a.51.51,0,0,1,0-.17h0a.63.63,0,0,1,.44-.31h0a1.13,1.13,0,0,0,.49-.24h0c.26-.26.69-.74.91-1h0a.17.17,0,0,0,.06-.12h0c0-.17-.29-.4-.53-.49h0c-.23-.08-.8-.34-1.09-.46h0a.5.5,0,0,0-.11.26h0a.19.19,0,0,0,0,.08h0a1.27,1.27,0,0,1,.18.62h0a.77.77,0,0,1-.22.56h0a.41.41,0,0,1-.3.11h0a1.64,1.64,0,0,1-.94-.46h0c-.12-.12-.12-.39-.14-.67h0a2.27,2.27,0,0,0-.1-.75h0c-.11-.21-.36-.57-.52-.81h0a4.31,4.31,0,0,1-.89.18h0c-.24,0-.38-.26-.38-.52h0a.59.59,0,0,1,.49-.61h0a.5.5,0,0,0,.42-.48h0a.46.46,0,0,0-.41-.48h0a1.06,1.06,0,0,0-.56.18h0a2.15,2.15,0,0,1-.83.23h0c-.3,0-.35.12-.35.23h0c0,.13.08.28.08.39h0a.13.13,0,0,1,0,.1h0a.21.21,0,0,1-.12,0h0c-.25,0-.33-.25-.44-.47h0c-.1-.22-.22-.43-.49-.43h0a.68.68,0,0,1-.59-.51h0a2.24,2.24,0,0,1-.13-.5h0s0,0,0,0h0a.79.79,0,0,0,.28-.52h0c0-.23-.19-.4-.45-.5h0a.4.4,0,0,0-.15,0h0c-.34,0-.67.43-1.34.43h0a.34.34,0,0,1-.34-.17h0a.86.86,0,0,1-.08-.41h0c0-.27.06-.6.06-.83h0a.37.37,0,0,0-.07-.27h0a1.72,1.72,0,0,1-.2-.95h0a4.41,4.41,0,0,0-.58.08h0c-.35.7-.73.86-1.06.86h0c-.25,0-.48-.09-.67-.09h0a.4.4,0,0,0-.35.21h0a2.9,2.9,0,0,1-1.71,1h0a.5.5,0,0,1,.31.43h0c0,.19-.1.37-.1.52h0a.22.22,0,0,0,.07.18h0a.5.5,0,0,1,.13.36h0a1,1,0,0,1-.08.37h0c.4.15,1,.37,1.35.48h0a3.68,3.68,0,0,0,1.15.3h0a2.85,2.85,0,0,0,.69-.1h0a9.93,9.93,0,0,1,1.21-.39h0a.62.62,0,0,1,.44.22h0a10.57,10.57,0,0,0,2.36,1.5h0a2,2,0,0,1,1,1.26h0c.1.35.47.73.47,1.08h0a.43.43,0,0,1-.13.31h0a3.13,3.13,0,0,1-.63.42h0a.58.58,0,0,0-.32.52h0a4.86,4.86,0,0,0,.18.78h0a.12.12,0,0,1-.05.11h0a.35.35,0,0,1-.16,0h0c-.26,0-.61-.09-.81-.09h0l-.13,0h0a.07.07,0,0,0,0,.07h0s0,.08.12.12h0a1.84,1.84,0,0,0,.34.14h0c.26.09.58.17.8.25h0a.65.65,0,0,1,.55-.35h0l.23,0h0v.06l-.22,0h0c-.28,0-.38.18-.52.35h0a9.84,9.84,0,0,1-1.16-.39h0c-.09-.05-.16-.1-.16-.18h0a.14.14,0,0,1,.07-.12h0a.27.27,0,0,1,.16,0h0c.22,0,.56.09.81.09h0a.22.22,0,0,0,.12,0h0a.06.06,0,0,0,0-.06h0a3.61,3.61,0,0,1-.18-.78h0a.64.64,0,0,1,.35-.57h0a3.43,3.43,0,0,0,.61-.41h0a.35.35,0,0,0,.12-.27h0c0-.31-.36-.7-.47-1.06h0a1.88,1.88,0,0,0-1-1.22h0a11.62,11.62,0,0,1-2.38-1.51h0a.53.53,0,0,0-.39-.21h0a9.15,9.15,0,0,0-1.2.39h0a2.92,2.92,0,0,1-.7.1h0a3.25,3.25,0,0,1-1.16-.31h0c-.37-.11-1-.33-1.4-.48h0v0h0s0,0,0,0h0a.85.85,0,0,0,.09-.38h0a.48.48,0,0,0-.11-.32h0a.27.27,0,0,1-.09-.22h0c0-.17.1-.35.1-.52h0c0-.14-.07-.28-.35-.41h0s0,0,0,0h0s0,0,0,0h0a3.45,3.45,0,0,0,.71-.23h0a2.28,2.28,0,0,0,1.05-.79h0a.43.43,0,0,1,.4-.24h0c.2,0,.43.09.67.09h0c.31,0,.66-.14,1-.85h0a6.29,6.29,0,0,1,.64-.09h0a0,0,0,0,1,0,0h0a1.65,1.65,0,0,0,.19.95h0a.48.48,0,0,1,.08.31h0c0,.24-.06.56-.06.83h0a.83.83,0,0,0,.07.38h0a.31.31,0,0,0,.29.14h0c.64,0,1-.43,1.34-.43h0l.18,0h0a.67.67,0,0,1,.48.56h0a.83.83,0,0,1-.29.55h0a2,2,0,0,0,.13.47h0c.1.24.26.47.53.47h0c.31,0,.44.25.55.47h0c.1.23.19.43.38.43h0c.09,0,.1,0,.1-.07h0a3.7,3.7,0,0,1-.08-.39h0c0-.14.1-.27.41-.29h0a2.14,2.14,0,0,0,.81-.23h0a1.17,1.17,0,0,1,.58-.18h0a.51.51,0,0,1,.47.54h0a.53.53,0,0,1-.46.53h0a.55.55,0,0,0-.45.56h0a.55.55,0,0,0,.09.32h0a.29.29,0,0,0,.23.13h0a3.77,3.77,0,0,0,.89-.17h0a0,0,0,0,1,0,0h0a8,8,0,0,1,.55.84h0a2.37,2.37,0,0,1,.11.77h0a1.19,1.19,0,0,0,.11.63h0a1.63,1.63,0,0,0,.9.44h0a.35.35,0,0,0,.26-.1h0a.7.7,0,0,0,.2-.51h0a1.29,1.29,0,0,0-.17-.59h0a.2.2,0,0,1,0-.11h0a.58.58,0,0,1,.14-.32h0s0,0,0,0h0l1.11.48h0c.25.09.56.31.57.54h0a.24.24,0,0,1-.08.16h0c-.22.22-.64.7-.9,1h0a1.39,1.39,0,0,1-.52.25h0c-.19.06-.34.13-.4.28h0a.32.32,0,0,0,0,.14h0c0,.2.14.43.14.63h0a.27.27,0,0,1-.08.2h0a1.37,1.37,0,0,0-.2.35h0a.38.38,0,0,1-.37.21h0a.26.26,0,0,0-.23.15h0a.72.72,0,0,0-.09.37h0a.71.71,0,0,0,.16.48h0l0,0h0a0,0,0,0,1,0,0h0a0,0,0,0,1,0,0h0a1.19,1.19,0,0,1-.71.41h0a.33.33,0,0,1-.24-.1Z"/><path class="cls-1" d="M37.81,40.89c-.26.25-.66.56-.91.31s-.55-.87-.93-.87-.58-.75-1.31-.94c-.47-.12-.61.13-.77.33a.68.68,0,0,1,.23.12c.2.2-.23.49-.55.49s-.61.29-.88.56-.33-.45-1-.45-1.66-.21-1.88,0-1,.44-1,1c0,0,.16-.6.38,0s1,1.1,1,1.91c0,.66.33,1.61.27,2.39.17.22.24,1,.41,1.15s.56-.56.81-.56,0,.51,0,.81.56.12.64.41.55.68.81.94.64,1.31.92,1a3.8,3.8,0,0,1,.79-.54,3.87,3.87,0,0,1,.91-2.51c.33-.33.58.33.87.62s.29-.29.52-.29.09.61.27.79h0a.93.93,0,0,0,1-.8c0-.48-.4-.66-.26-.86l-.63-.59c-.22-.22,0-1,.35-1.35s.81.21,1.27.21.64-.77.87-1.27.35-1,.48-1.16C40.22,41.4,38.22,41.12,37.81,40.89Z"/><path class="cls-1" d="M34,49.58c-.16,0-.3-.22-.45-.46h0a4.11,4.11,0,0,0-.39-.61h0c-.26-.27-.74-.66-.82-1h0a.27.27,0,0,0-.21-.16h0a1.07,1.07,0,0,1-.32-.08h0a.18.18,0,0,1-.11-.18h0c0-.2.09-.47.08-.63h0c0-.1,0-.14-.09-.15h0c-.08,0-.22.14-.35.29h0c-.13.15-.25.3-.38.31h0a.14.14,0,0,1-.1-.05h0a1.57,1.57,0,0,1-.22-.57h0a2.16,2.16,0,0,0-.19-.58h0a0,0,0,0,1,0,0h0a1.09,1.09,0,0,0,0-.18h0c0-.74-.28-1.59-.28-2.21h0c0-.79-.81-1.29-1-1.9h0c-.07-.2-.14-.25-.17-.25h0s-.07.05-.1.12h0a1,1,0,0,0-.05.12h0a0,0,0,0,1,0,0h0a0,0,0,0,1,0,0h0c0-.59.85-.8,1.05-1h0a.71.71,0,0,1,.46-.1h0c.41,0,1,.09,1.44.09h0a.81.81,0,0,1,.6.27h0c.13.13.22.25.28.24h0a.14.14,0,0,0,.1-.05h0c.27-.27.56-.57.9-.57h0a.81.81,0,0,0,.39-.12h0c.11-.07.19-.16.18-.23h0a.12.12,0,0,0,0-.09h0a.53.53,0,0,0-.22-.12h0a0,0,0,0,1,0,0h0v0h0c.13-.16.26-.37.57-.37h0l.23,0h0a1.64,1.64,0,0,1,.81.55h0c.19.21.34.39.5.39h0c.41,0,.56.49,1,.87h0a.28.28,0,0,0,.2.09h0a1.2,1.2,0,0,0,.67-.4h0a10.24,10.24,0,0,0,1.4.39h0a3.39,3.39,0,0,1,1.35.5h0a0,0,0,0,1,0,0h0c-.13.19-.27.71-.48,1.16h0c-.12.25-.22.57-.35.83h0c-.13.26-.3.46-.55.46h0c-.37,0-.7-.34-1-.34h0A.37.37,0,0,0,38,44h0a1.65,1.65,0,0,0-.43,1h0a.46.46,0,0,0,.08.29h0l.63.59h0a0,0,0,0,1,0,0h0a.11.11,0,0,0,0,.07h0a.79.79,0,0,0,.14.28h0a1,1,0,0,1,.15.49h0a1,1,0,0,1-1,.84h-.09c-.15-.15-.1-.53-.17-.7h0c0-.06,0-.08-.08-.08h0c-.07,0-.12.07-.18.17h0c0,.09-.09.19-.2.2h0a.24.24,0,0,1-.16-.09h0a4.12,4.12,0,0,1-.35-.45h0c-.11-.14-.22-.25-.32-.25h0a.22.22,0,0,0-.16.08h0a4.16,4.16,0,0,0-.92,2.24h0a1.94,1.94,0,0,0,0,.24h0a0,0,0,0,1,0,0h0l-.29.17h0a2.94,2.94,0,0,0-.5.37h0a.17.17,0,0,1-.12,0ZM31.8,46.36a.2.2,0,0,1,0,.14h0c0,.18-.09.45-.09.63h0a.14.14,0,0,0,.07.13h0a.53.53,0,0,0,.2.05h0c.14,0,.32,0,.37.22h0c.07.27.54.67.8.93h0a3.87,3.87,0,0,1,.4.63h0c.14.24.3.44.4.43h0a.1.1,0,0,0,.08,0h0a3.54,3.54,0,0,1,.78-.53h0a1.79,1.79,0,0,1,0-.23h0a4.09,4.09,0,0,1,.94-2.28h0a.26.26,0,0,1,.2-.1h0c.14,0,.26.13.37.28h0a4,4,0,0,0,.34.43h0c0,.06.09.08.12.08h0c.05,0,.1-.08.15-.17h0c0-.09.11-.2.23-.2h0a.15.15,0,0,1,.14.12h0a.56.56,0,0,1,0,.23h0a1,1,0,0,0,.11.45h.05a1,1,0,0,0,.64-.24h0a.74.74,0,0,0,.28-.53h0a.86.86,0,0,0-.14-.46h0c-.07-.12-.15-.21-.15-.31h0a.29.29,0,0,1,0-.09h0l-.61-.57h0a.47.47,0,0,1-.1-.33h0A1.64,1.64,0,0,1,37.91,44h0a.42.42,0,0,1,.31-.14h0c.32,0,.65.35,1,.34h0c.21,0,.37-.17.5-.43h0c.12-.25.23-.57.34-.82h0c.21-.44.34-.93.47-1.15h0a3.59,3.59,0,0,0-1.3-.46h0a9.51,9.51,0,0,1-1.4-.39h0a1.15,1.15,0,0,1-.69.4h0a.33.33,0,0,1-.24-.1h0c-.4-.4-.56-.87-.91-.86h0c-.21,0-.35-.2-.54-.41h0a1.55,1.55,0,0,0-.78-.53h0l-.22,0h0a.59.59,0,0,0-.49.31h0a.71.71,0,0,1,.2.11h0a.22.22,0,0,1,.06.14h0a.36.36,0,0,1-.21.28h0a.83.83,0,0,1-.42.13h0c-.3,0-.58.28-.86.55h0a.17.17,0,0,1-.14.07h0c-.12,0-.2-.14-.32-.26h0a.78.78,0,0,0-.56-.25h0c-.44,0-1-.09-1.44-.09h0a.62.62,0,0,0-.42.09h0c-.19.18-.75.36-1,.7h0s.05,0,.08,0h0c.09,0,.15.09.23.29h0c.2.57,1,1.08,1,1.92h0c0,.61.28,1.46.28,2.21h0a1,1,0,0,1,0,.17h0a2,2,0,0,1,.2.6h0a1.65,1.65,0,0,0,.2.54h0a.09.09,0,0,0,.06,0h0c.08,0,.21-.14.34-.29h0c.13-.15.26-.3.39-.31h0a.12.12,0,0,1,.11.07Zm6-5.45,0,0,0,0Z"/><rect class="cls-2" x="45.31" y="34.39" width="2.84" height="9.07"/><rect class="cls-2" x="49.59" y="42.9" width="2.84" height="6.12"/><rect class="cls-2" x="48.34" y="24.48" width="2.84" height="8.56"/><rect class="cls-3" x="40.94" y="32.36" width="2.84" height="5.69"/><rect class="cls-3" x="40.7" y="42.65" width="2.84" height="3.62"/><rect class="cls-4" x="47.59" y="48.36" width="3.01" height="1.96"/><rect class="cls-4" x="49.5" y="38.5" width="2.84" height="2.71"/><rect class="cls-4" x="44.89" y="43.77" width="2.79" height="2.68"/><rect class="cls-4" x="33.22" y="35.36" width="2.85" height="2.8"/><rect class="cls-4" x="35.35" y="39.93" width="2.81" height="2.8"/><rect class="cls-4" x="39.67" y="47.95" width="2.8" height="2.8"/><rect class="cls-3" x="33.84" y="45.38" width="2.36" height="4.19"/><rect class="cls-4" x="29.01" y="38.45" width="2.63" height="2.8"/><rect class="cls-4" x="39.2" y="37.5" width="2.84" height="2.8"/></svg>