<svg id="图层_1" data-name="图层 1" xmlns="http://www.w3.org/2000/svg" viewBox="0 0 70 70"><defs><style>.cls-1{fill:#898989;}.cls-2{fill:#ff9f80;}.cls-3{fill:#69b5e1;}</style></defs><title>matchstick</title><rect class="cls-1" x="8.48" y="20.36" width="0.14" height="0.14"/><path class="cls-1" d="M8.63,34.42H8.48v-.28h.15Zm0-.55H8.48v-.28h.15Zm0-.56H8.48V33h.15Zm0-.56H8.48v-.28h.15Zm0-.56H8.48v-.27h.15Zm0-.55H8.48v-.28h.15Zm0-.56H8.48V30.8h.15Zm0-.56H8.48v-.28h.15Zm0-.55H8.48v-.28h.15Zm0-.56H8.48v-.28h.15Zm0-.56H8.48v-.28h.15Zm0-.55H8.48V28h.15Zm0-.56H8.48v-.28h.15Zm0-.56H8.48V26.9h.15Zm0-.56H8.48v-.27h.15Zm0-.55H8.48v-.28h.15Zm0-.56H8.48v-.28h.15Zm0-.56H8.48v-.28h.15Zm0-.55H8.48v-.28h.15Zm0-.56H8.48v-.28h.15Zm0-.56H8.48V23h.15Zm0-.56H8.48v-.27h.15Zm0-.55H8.48v-.28h.15Zm0-.56H8.48v-.28h.15Zm0-.56H8.48v-.28h.15Z"/><rect class="cls-1" x="8.48" y="34.7" width="0.14" height="0.14"/><circle class="cls-2" cx="8.55" cy="20.69" r="1.1"/><rect class="cls-1" x="13.51" y="28.18" width="0.14" height="0.14"/><path class="cls-1" d="M13.65,34.42h-.14v-.27h.14Zm0-.55h-.14v-.28h.14Zm0-.56h-.14V33h.14Zm0-.55h-.14v-.28h.14Zm0-.56h-.14v-.27h.14Zm0-.55h-.14v-.28h.14Zm0-.56h-.14v-.28h.14Zm0-.55h-.14v-.28h.14Zm0-.56h-.14V29.7h.14Zm0-.55h-.14v-.28h.14Zm0-.56h-.14v-.28h.14Z"/><rect class="cls-1" x="13.51" y="34.7" width="0.14" height="0.14"/><circle class="cls-2" cx="13.58" cy="28.18" r="1.1"/><rect class="cls-1" x="18.53" y="23.77" width="0.14" height="0.14"/><path class="cls-1" d="M18.67,34.42h-.14v-.27h.14Zm0-.55h-.14v-.28h.14Zm0-.55h-.14V33h.14Zm0-.56h-.14v-.27h.14Zm0-.55h-.14v-.28h.14Zm0-.55h-.14v-.28h.14Zm0-.56h-.14v-.27h.14Zm0-.55h-.14v-.28h.14Zm0-.55h-.14v-.28h.14Zm0-.56h-.14v-.27h.14Zm0-.55h-.14v-.28h.14Zm0-.55h-.14v-.28h.14Zm0-.56h-.14v-.27h.14Zm0-.55h-.14V27h.14Zm0-.55h-.14V26.4h.14Zm0-.56h-.14v-.27h.14Zm0-.55h-.14v-.28h.14Zm0-.55h-.14v-.28h.14Zm0-.56h-.14v-.27h.14Z"/><rect class="cls-1" x="18.53" y="34.7" width="0.14" height="0.14"/><circle class="cls-2" cx="18.6" cy="24.01" r="1.1"/><rect class="cls-1" x="23.5" y="18.35" width="0.14" height="0.14" transform="translate(-0.14 0.18) rotate(-0.45)"/><path class="cls-1" d="M23.63,34.42v-.29h.14v.29Zm0-.57v-.29h.14v.29Zm0-.57V33h.14v.29Zm0-.57v-.28h.14v.28Zm0-.57v-.28h.14v.28Zm0-.57v-.28h.15v.28Zm0-.57v-.28h.14V31Zm0-.56v-.29h.14v.28Zm0-.57v-.29h.14v.29Zm0-.57V29h.14v.29Zm0-.57v-.28h.14v.29Zm0-.57v-.28h.14v.28Zm0-.57v-.28h.15v.28Zm0-.57v-.28h.14V27Zm0-.57v-.28h.15v.28Zm0-.56V25.6h.14v.28Zm0-.57V25h.14v.29Zm0-.57v-.29h.14v.29Zm0-.57V23.9h.14v.29Zm0-.57v-.28h.14v.28Zm0-.57v-.28h.14V23Zm0-.57v-.28h.15v.28Zm0-.57v-.28h.14v.28Zm0-.56v-.29h.15v.28Zm0-.57v-.29h.14v.29Zm0-.57v-.29h.14v.29Zm0-.57v-.28h.14v.29Zm0-.57v-.28h.14v.28Z"/><rect class="cls-1" x="23.63" y="34.7" width="0.14" height="0.14" transform="translate(-0.27 0.19) rotate(-0.45)"/><circle class="cls-2" cx="23.63" cy="18.35" r="1.1"/><rect class="cls-1" x="28.58" y="25.39" width="0.14" height="0.14"/><path class="cls-1" d="M28.72,34.42h-.14v-.27h.14Zm0-.55h-.14v-.28h.14Zm0-.56h-.14V33h.14Zm0-.55h-.14v-.28h.14Zm0-.56h-.14v-.28h.14Zm0-.55h-.14v-.28h.14Zm0-.56h-.14v-.28h.14Zm0-.56h-.14v-.27h.14Zm0-.55h-.14V29.7h.14Zm0-.56h-.14v-.27h.14Zm0-.55h-.14v-.28h.14Zm0-.56h-.14V28h.14Zm0-.55h-.14v-.28h.14Zm0-.56h-.14v-.28h.14Zm0-.55h-.14v-.28h.14Zm0-.56h-.14v-.28h.14Z"/><rect class="cls-1" x="28.58" y="34.7" width="0.14" height="0.14"/><circle class="cls-2" cx="28.65" cy="24.86" r="1.1"/><rect class="cls-1" x="33.61" y="19.59" width="0.14" height="0.14"/><path class="cls-1" d="M33.75,34.42h-.14v-.28h.14Zm0-.57h-.14v-.28h.14Zm0-.56h-.14V33h.14Zm0-.57h-.14v-.28h.14Zm0-.56h-.14v-.28h.14Zm0-.56h-.14v-.29h.14Zm0-.57h-.14v-.28h.14Zm0-.56h-.14v-.29h.14Zm0-.57h-.14v-.28h.14Zm0-.56h-.14v-.29h.14Zm0-.57h-.14v-.28h.14Zm0-.56h-.14v-.29h.14Zm0-.57h-.14v-.28h.14Zm0-.56h-.14V26.8h.14Zm0-.57h-.14v-.28h.14Zm0-.56h-.14v-.28h.14Zm0-.57h-.14V25.1h.14Zm0-.56h-.14v-.28h.14Zm0-.57h-.14V24h.14Zm0-.56h-.14v-.28h.14Zm0-.57h-.14v-.28h.14Zm0-.56h-.14v-.28h.14Zm0-.56h-.14v-.29h.14Zm0-.57h-.14v-.28h.14Zm0-.56h-.14v-.29h.14Zm0-.57h-.14V20h.14Z"/><rect class="cls-1" x="33.61" y="34.7" width="0.14" height="0.14"/><circle class="cls-2" cx="33.68" cy="19.59" r="1.1"/><rect class="cls-1" x="38.63" y="21.45" width="0.14" height="0.14"/><path class="cls-1" d="M38.77,34.42h-.14v-.28h.14Zm0-.56h-.14v-.27h.14Zm0-.55h-.14V33h.14Zm0-.56h-.14v-.28h.14Zm0-.56h-.14v-.28h.14Zm0-.56h-.14v-.28h.14Zm0-.56h-.14V30.8h.14Zm0-.55h-.14v-.28h.14Zm0-.56h-.14v-.28h.14Zm0-.56h-.14v-.28h.14Zm0-.56h-.14v-.28h.14Zm0-.55h-.14V28h.14Zm0-.56h-.14v-.28h.14Zm0-.56h-.14v-.28h.14Zm0-.56h-.14v-.28h.14Zm0-.56h-.14v-.27h.14Zm0-.55h-.14v-.28h.14Zm0-.56h-.14v-.28h.14Zm0-.56h-.14V24.1h.14Zm0-.56h-.14v-.28h.14Zm0-.55h-.14V23h.14Zm0-.56h-.14v-.28h.14Zm0-.56h-.14v-.28h.14Z"/><rect class="cls-1" x="38.63" y="34.7" width="0.14" height="0.14"/><circle class="cls-2" cx="38.7" cy="21.45" r="1.1"/><rect class="cls-1" x="43.66" y="18.77" width="0.14" height="0.14"/><path class="cls-1" d="M43.8,34.41h-.14v-.28h.14Zm0-.57h-.14v-.29h.14Zm0-.57h-.14V33h.14Zm0-.58h-.14V32.4h.14Zm0-.57h-.14v-.29h.14Zm0-.58h-.14v-.28h.14Zm0-.57h-.14v-.29h.14Zm0-.58h-.14v-.28h.14Zm0-.57h-.14v-.29h.14Zm0-.57h-.14V29h.14Zm0-.58h-.14v-.29h.14Zm0-.57h-.14v-.29h.14Zm0-.58h-.14v-.28h.14Zm0-.57h-.14v-.29h.14Zm0-.58h-.14v-.28h.14Zm0-.57h-.14v-.29h.14Zm0-.57h-.14v-.29h.14Zm0-.58h-.14v-.28h.14Zm0-.57h-.14v-.29h.14Zm0-.58h-.14v-.28h.14Zm0-.57h-.14v-.29h.14Zm0-.57h-.14v-.29h.14Zm0-.58h-.14v-.29h.14Zm0-.57h-.14v-.29h.14Zm0-.58h-.14v-.28h.14Zm0-.57h-.14v-.29h.14Zm0-.58h-.14V19.2h.14Z"/><rect class="cls-1" x="43.66" y="34.7" width="0.14" height="0.14"/><circle class="cls-2" cx="43.73" cy="18.77" r="1.1"/><rect class="cls-1" x="48.68" y="31.51" width="0.14" height="0.14"/><path class="cls-1" d="M48.82,34.42h-.14v-.27h.14Zm0-.55h-.14v-.28h.14Zm0-.56h-.14V33h.14Zm0-.55h-.14v-.28h.14Zm0-.56h-.14v-.27h.14Z"/><rect class="cls-1" x="48.68" y="34.7" width="0.14" height="0.14"/><circle class="cls-2" cx="48.75" cy="31.51" r="1.1"/><rect class="cls-1" x="53.7" y="24.7" width="0.14" height="0.14"/><path class="cls-1" d="M53.85,34.42H53.7v-.28h.15Zm0-.56H53.7v-.29h.15Zm0-.57H53.7V33h.15Zm0-.56H53.7v-.28h.15Zm0-.57H53.7v-.28h.15Zm0-.56H53.7v-.28h.15Zm0-.56H53.7v-.28h.15Zm0-.57H53.7v-.28h.15Zm0-.56H53.7v-.28h.15Zm0-.56H53.7v-.28h.15Zm0-.57H53.7V28.5h.15Zm0-.56H53.7v-.28h.15Zm0-.56H53.7v-.29h.15Zm0-.57H53.7v-.28h.15Zm0-.56H53.7v-.28h.15Zm0-.56H53.7v-.29h.15Zm0-.57H53.7v-.28h.15Z"/><rect class="cls-1" x="53.7" y="34.7" width="0.14" height="0.14"/><circle class="cls-2" cx="53.78" cy="24.7" r="1.1"/><rect class="cls-1" x="58.73" y="22.22" width="0.14" height="0.14"/><path class="cls-1" d="M58.87,34.41h-.14v-.28h.14Zm0-.57h-.14v-.29h.14Zm0-.57h-.14V33h.14Zm0-.58h-.14v-.28h.14Zm0-.57h-.14v-.29h.14Zm0-.57h-.14v-.29h.14Zm0-.58h-.14v-.29h.14Zm0-.57h-.14v-.29h.14Zm0-.58h-.14v-.28h.14Zm0-.57h-.14V29h.14Zm0-.57h-.14v-.29h.14Zm0-.58h-.14v-.28h.14Zm0-.57h-.14v-.29h.14Zm0-.58h-.14v-.28h.14Zm0-.57h-.14v-.29h.14Zm0-.57h-.14v-.29h.14Zm0-.58h-.14V25h.14Zm0-.57h-.14v-.29h.14Zm0-.57h-.14V23.8h.14Zm0-.58h-.14v-.28h.14Zm0-.57h-.14v-.29h.14Z"/><rect class="cls-1" x="58.73" y="34.7" width="0.14" height="0.14"/><circle class="cls-2" cx="58.8" cy="22.01" r="1.1"/><rect class="cls-1" x="63.83" y="16.77" width="0.14" height="0.14"/><path class="cls-1" d="M64,34.42h-.14v-.28H64Zm0-.57h-.14v-.28H64Zm0-.56h-.14V33H64Zm0-.57h-.14v-.28H64Zm0-.56h-.14v-.28H64Zm0-.57h-.14v-.28H64ZM64,31h-.14v-.28H64Zm0-.57h-.14v-.28H64Zm0-.56h-.14v-.28H64Zm0-.57h-.14v-.28H64Zm0-.56h-.14v-.28H64Zm0-.56h-.14v-.29H64Zm0-.57h-.14v-.28H64Zm0-.56h-.14v-.29H64Zm0-.57h-.14v-.28H64ZM64,26h-.14v-.29H64Zm0-.57h-.14V25.1H64Zm0-.56h-.14v-.29H64Zm0-.57h-.14V24H64Zm0-.56h-.14V23.4H64Zm0-.57h-.14v-.28H64Zm0-.56h-.14v-.29H64ZM64,22h-.14v-.28H64Zm0-.56h-.14v-.29H64Zm0-.57h-.14v-.28H64Zm0-.56h-.14V20H64Zm0-.57h-.14v-.28H64Zm0-.56h-.14v-.28H64Zm0-.57h-.14v-.28H64ZM64,18h-.14v-.28H64Zm0-.57h-.14v-.28H64Z"/><rect class="cls-1" x="63.83" y="34.7" width="0.14" height="0.14"/><circle class="cls-2" cx="63.9" cy="16.77" r="1.1"/><rect class="cls-1" x="61.37" y="43.05" width="0.14" height="0.14"/><path class="cls-1" d="M61.52,42.77h-.15v-.28h.15Zm0-.55h-.15v-.28h.15Zm0-.56h-.15v-.28h.15Zm0-.56h-.15v-.28h.15Zm0-.55h-.15v-.28h.15Zm0-.56h-.15v-.28h.15Zm0-.56h-.15v-.28h.15Zm0-.56h-.15V38.6h.15Zm0-.55h-.15V38h.15Zm0-.56h-.15v-.28h.15Zm0-.56h-.15v-.27h.15Zm0-.55h-.15v-.28h.15Z"/><rect class="cls-1" x="61.37" y="35.95" width="0.14" height="0.14"/><circle class="cls-3" cx="61.45" cy="42.66" r="1.1"/><rect class="cls-1" x="56.35" y="42.47" width="0.14" height="0.14"/><path class="cls-1" d="M56.49,42.2h-.14v-.28h.14Zm0-.56h-.14v-.28h.14Zm0-.55h-.14v-.28h.14Zm0-.56h-.14v-.28h.14Zm0-.55h-.14V39.7h.14Zm0-.56h-.14v-.28h.14Zm0-.55h-.14v-.28h.14Zm0-.56h-.14V38h.14Zm0-.55h-.14v-.28h.14Zm0-.56h-.14v-.28h.14Zm0-.55h-.14v-.28h.14Z"/><rect class="cls-1" x="56.35" y="35.95" width="0.14" height="0.14"/><circle class="cls-3" cx="56.42" cy="42.62" r="1.1"/><rect class="cls-1" x="51.33" y="44.07" width="0.14" height="0.14"/><path class="cls-1" d="M51.47,43.79h-.14v-.27h.14Zm0-.55h-.14V43h.14Zm0-.55h-.14v-.27h.14Zm0-.55h-.14v-.27h.14Zm0-.55h-.14v-.27h.14Zm0-.55h-.14v-.27h.14Zm0-.55h-.14v-.27h.14Zm0-.55h-.14v-.27h.14Zm0-.55h-.14v-.27h.14Zm0-.55h-.14v-.27h.14Zm0-.55h-.14V38h.14Zm0-.55h-.14v-.27h.14Zm0-.55h-.14v-.27h.14Zm0-.55h-.14v-.27h.14Z"/><rect class="cls-1" x="51.33" y="35.95" width="0.14" height="0.14"/><circle class="cls-3" cx="51.4" cy="43.99" r="1.1"/><rect class="cls-1" x="46.35" y="52.3" width="0.14" height="0.14" transform="translate(-0.41 0.36) rotate(-0.45)"/><path class="cls-1" d="M46.35,52v-.29h.14V52Zm0-.57v-.29h.15v.29Zm0-.57v-.29h.14v.29Zm0-.57V50h.14v.29Zm0-.57v-.28h.14v.28Zm0-.57v-.28h.14v.28Zm0-.57v-.28h.14v.28Zm0-.57v-.28h.14V48Zm0-.56v-.29h.15v.28Zm0-.57v-.29h.14v.29Zm0-.57V46h.15v.29Zm0-.57v-.29h.14v.29Zm0-.57v-.28h.14v.28Zm0-.57v-.28h.14v.28Zm0-.57v-.28h.14v.28Zm0-.57V43.2h.14v.28Zm0-.56v-.29h.14v.28Zm0-.57v-.29h.15v.29Zm0-.57v-.29h.14v.29Zm0-.57v-.28h.15v.29Zm0-.57v-.28h.14v.28Zm0-.57v-.28h.14v.28Zm0-.57v-.28h.14v.28Zm0-.57v-.28h.14v.28Zm0-.56v-.29h.14v.28Zm0-.57v-.29h.14v.29Zm0-.57v-.29h.15v.29Zm0-.57v-.28h.14v.29Z"/><rect class="cls-1" x="46.23" y="35.95" width="0.14" height="0.14" transform="matrix(1, -0.01, 0.01, 1, -0.28, 0.36)"/><circle class="cls-3" cx="46.37" cy="52.44" r="1.1"/><rect class="cls-1" x="41.28" y="40.53" width="0.14" height="0.14"/><path class="cls-1" d="M41.42,40.24h-.14v-.3h.14Zm0-.6h-.14v-.29h.14Zm0-.59h-.14v-.3h.14Zm0-.59h-.14v-.3h.14Zm0-.59h-.14v-.3h.14Zm0-.6h-.14V37h.14Zm0-.59h-.14v-.29h.14Z"/><rect class="cls-1" x="41.28" y="35.95" width="0.14" height="0.14"/><circle class="cls-3" cx="41.35" cy="40.38" r="1.1"/><rect class="cls-1" x="36.25" y="51.05" width="0.14" height="0.14"/><path class="cls-1" d="M36.39,50.77h-.14v-.28h.14Zm0-.56h-.14v-.28h.14Zm0-.57h-.14v-.28h.14Zm0-.56h-.14V48.8h.14Zm0-.57h-.14v-.28h.14Zm0-.56h-.14v-.28h.14Zm0-.57h-.14V47.1h.14Zm0-.56h-.14v-.28h.14Zm0-.57h-.14V46h.14Zm0-.56h-.14v-.28h.14Zm0-.56h-.14v-.29h.14Zm0-.57h-.14v-.28h.14Zm0-.56h-.14v-.29h.14Zm0-.57h-.14v-.28h.14Zm0-.56h-.14v-.29h.14Zm0-.57h-.14V42h.14Zm0-.56h-.14v-.29h.14Zm0-.57h-.14v-.28h.14Zm0-.56h-.14v-.28h.14Zm0-.57h-.14v-.28h.14Zm0-.56h-.14V39.2h.14Zm0-.57h-.14v-.28h.14Zm0-.56h-.14v-.28h.14Zm0-.57h-.14V37.5h.14Zm0-.56h-.14v-.28h.14Zm0-.57h-.14v-.28h.14Z"/><rect class="cls-1" x="36.25" y="35.95" width="0.14" height="0.14"/><circle class="cls-3" cx="36.32" cy="51.2" r="1.1"/><rect class="cls-1" x="31.23" y="39.43" width="0.14" height="0.14"/><path class="cls-1" d="M31.37,39.13h-.14v-.31h.14Zm0-.61h-.14v-.31h.14Zm0-.61h-.14v-.3h.14Zm0-.61h-.14V37h.14Zm0-.6h-.14v-.31h.14Z"/><rect class="cls-1" x="31.23" y="35.95" width="0.14" height="0.14"/><circle class="cls-3" cx="31.3" cy="39.28" r="1.1"/><rect class="cls-1" x="26.2" y="49.13" width="0.14" height="0.14"/><path class="cls-1" d="M26.34,48.85H26.2v-.27h.14Zm0-.55H26.2V48h.14Zm0-.56H26.2v-.27h.14Zm0-.55H26.2v-.28h.14Zm0-.56H26.2v-.27h.14Zm0-.55H26.2V45.8h.14Zm0-.56H26.2v-.27h.14Zm0-.55H26.2v-.28h.14Zm0-.56H26.2v-.27h.14Zm0-.55H26.2v-.28h.14Zm0-.56H26.2V43h.14Zm0-.55H26.2v-.28h.14Zm0-.56H26.2v-.27h.14Zm0-.55H26.2v-.28h.14Zm0-.56H26.2v-.27h.14Zm0-.55H26.2v-.28h.14Zm0-.56H26.2V39.7h.14Zm0-.55H26.2v-.28h.14Zm0-.56H26.2v-.27h.14Zm0-.55H26.2V38h.14Zm0-.56H26.2v-.27h.14Zm0-.55H26.2v-.28h.14Zm0-.56H26.2v-.27h.14Z"/><rect class="cls-1" x="26.2" y="35.95" width="0.14" height="0.14"/><circle class="cls-3" cx="26.27" cy="48.78" r="1.1"/><rect class="cls-1" x="21.18" y="39.14" width="0.14" height="0.14"/><path class="cls-1" d="M21.32,38.86h-.14v-.27h.14Zm0-.55h-.14V38h.14Zm0-.56h-.14v-.27h.14Zm0-.55h-.14v-.28h.14Zm0-.56h-.14v-.27h.14Z"/><rect class="cls-1" x="21.18" y="35.95" width="0.14" height="0.14"/><circle class="cls-3" cx="21.25" cy="39.28" r="1.1"/><rect class="cls-1" x="16.15" y="55.37" width="0.14" height="0.14"/><path class="cls-1" d="M16.3,55.09h-.15v-.28h.15Zm0-.56h-.15v-.28h.15Zm0-.56h-.15v-.28h.15Zm0-.56h-.15v-.27h.15Zm0-.55h-.15v-.28h.15Zm0-.56h-.15V52h.15Zm0-.56h-.15v-.28h.15Zm0-.56h-.15V50.9h.15Zm0-.56h-.15v-.28h.15Zm0-.56h-.15v-.28h.15Zm0-.56h-.15v-.28h.15Zm0-.56h-.15v-.28h.15Zm0-.56h-.15v-.27h.15Zm0-.55h-.15v-.28h.15Zm0-.56h-.15V47h.15Zm0-.56h-.15v-.28h.15Zm0-.56h-.15v-.28h.15Zm0-.56h-.15v-.28h.15Zm0-.56h-.15v-.28h.15Zm0-.56h-.15v-.28h.15Zm0-.56h-.15v-.28h.15Zm0-.56h-.15v-.27h.15Zm0-.55h-.15v-.28h.15Zm0-.56h-.15V42h.15Zm0-.56h-.15V41.4h.15Zm0-.56h-.15v-.28h.15Zm0-.56h-.15v-.28h.15Zm0-.56h-.15v-.28h.15Zm0-.56h-.15v-.28h.15Zm0-.56h-.15V38.6h.15Zm0-.55h-.15v-.28h.15Zm0-.56h-.15v-.28h.15Zm0-.56h-.15v-.28h.15Zm0-.56h-.15v-.28h.15Z"/><rect class="cls-1" x="16.15" y="35.95" width="0.14" height="0.14"/><circle class="cls-3" cx="16.22" cy="54.63" r="1.1"/><rect class="cls-1" x="11.13" y="48.43" width="0.14" height="0.14"/><path class="cls-1" d="M11.27,48.14h-.14v-.29h.14Zm0-.57h-.14v-.29h.14Zm0-.58h-.14V46.7h.14Zm0-.57h-.14v-.29h.14Zm0-.58h-.14v-.28h.14Zm0-.57h-.14V45h.14Zm0-.57h-.14v-.29h.14Zm0-.58h-.14v-.28h.14Zm0-.57h-.14v-.29h.14Zm0-.57h-.14v-.29h.14Zm0-.58h-.14v-.29h.14Zm0-.57h-.14v-.29h.14Zm0-.58h-.14V41h.14Zm0-.57h-.14v-.29h.14Zm0-.57h-.14v-.29h.14Zm0-.58h-.14v-.28h.14Zm0-.57h-.14v-.29h.14Zm0-.58h-.14V38.1h.14Zm0-.57h-.14v-.29h.14Zm0-.57h-.14V37h.14Zm0-.58h-.14v-.28h.14Z"/><rect class="cls-1" x="11.13" y="35.95" width="0.14" height="0.14"/><circle class="cls-3" cx="11.2" cy="48.78" r="1.1"/><rect class="cls-1" x="6.03" y="46.86" width="0.14" height="0.14"/><path class="cls-1" d="M6.17,46.59H6v-.28h.14Zm0-.55H6v-.28h.14Zm0-.56H6v-.27h.14Zm0-.55H6v-.28h.14Zm0-.55H6V44.1h.14Zm0-.55H6v-.28h.14Zm0-.56H6V43h.14Zm0-.55H6v-.28h.14Zm0-.55H6v-.28h.14Zm0-.55H6v-.28h.14Zm0-.56H6v-.27h.14Zm0-.55H6v-.28h.14Zm0-.55H6v-.28h.14Zm0-.55H6v-.28h.14Zm0-.56H6v-.27h.14Zm0-.55H6V38h.14Zm0-.55H6v-.28h.14Zm0-.55H6v-.28h.14Zm0-.56H6v-.27h.14Z"/><rect class="cls-1" x="6.03" y="35.95" width="0.14" height="0.14"/><circle class="cls-3" cx="6.1" cy="47.19" r="1.1"/></svg>