<svg id="图层_1" data-name="图层 1" xmlns="http://www.w3.org/2000/svg" viewBox="0 0 70 70"><defs><style>.cls-1{fill:#bcbcbc;}.cls-2{opacity:0.76;}.cls-3{fill:#69b5e1;}</style></defs><title>parallel</title><rect class="cls-1" x="6.11" y="14.71" width="0.5" height="41.15"/><rect class="cls-1" x="24.79" y="14.71" width="0.5" height="41.15"/><rect class="cls-1" x="43.48" y="14.71" width="0.5" height="41.15"/><rect class="cls-1" x="62.16" y="14.71" width="0.5" height="41.15"/><rect class="cls-1" x="6.03" y="14.79" width="1.34" height="0.66"/><rect class="cls-1" x="6.03" y="24.88" width="1.34" height="0.66"/><rect class="cls-1" x="6.03" y="34.96" width="1.34" height="0.66"/><rect class="cls-1" x="6.03" y="45.05" width="1.34" height="0.66"/><rect class="cls-1" x="6.03" y="55.14" width="1.34" height="0.66"/><rect class="cls-1" x="25.04" y="14.79" width="1.34" height="0.66"/><rect class="cls-1" x="25.04" y="24.88" width="1.34" height="0.66"/><rect class="cls-1" x="25.04" y="34.96" width="1.34" height="0.66"/><rect class="cls-1" x="25.04" y="45.05" width="1.34" height="0.66"/><rect class="cls-1" x="25.04" y="55.14" width="1.34" height="0.66"/><rect class="cls-1" x="43.9" y="14.79" width="1.34" height="0.66"/><rect class="cls-1" x="43.9" y="24.88" width="1.34" height="0.66"/><rect class="cls-1" x="43.9" y="34.96" width="1.34" height="0.66"/><rect class="cls-1" x="43.9" y="45.05" width="1.34" height="0.66"/><rect class="cls-1" x="43.9" y="55.14" width="1.34" height="0.66"/><rect class="cls-1" x="62.63" y="14.79" width="1.34" height="0.66"/><rect class="cls-1" x="62.63" y="24.88" width="1.34" height="0.66"/><rect class="cls-1" x="62.63" y="34.96" width="1.34" height="0.66"/><rect class="cls-1" x="62.63" y="45.05" width="1.34" height="0.66"/><rect class="cls-1" x="62.63" y="55.14" width="1.34" height="0.66"/><g class="cls-2"><polygon class="cls-3" points="62.19 45.77 43.51 29.44 24.68 15.54 6.29 15.54 6.29 14.7 24.95 14.7 44.04 28.81 62.74 45.15 62.19 45.77"/></g><g class="cls-2"><polygon class="cls-3" points="62.2 37.58 43.61 21.85 24.88 21.32 6.43 27.8 6.15 27.02 24.75 20.49 43.93 21.02 62.73 36.95 62.2 37.58"/></g><g class="cls-2"><polygon class="cls-3" points="6.41 33.09 6.17 32.3 25.06 26.44 25.08 26.43 43.87 23 62.57 27.99 62.36 28.79 43.84 23.85 25.26 27.25 6.41 33.09"/></g></svg>