<svg id="图层_1" data-name="图层 1" xmlns="http://www.w3.org/2000/svg" viewBox="0 0 70 70"><defs><style>.cls-1{fill:#69b5e1;}.cls-2{fill:#ea6a6a;}</style></defs><title>pareto</title><path class="cls-1" d="M58.77,51.83H64a0,0,0,0,1,0,0v9.38a1.24,1.24,0,0,1-1.24,1.24H60a1.24,1.24,0,0,1-1.24-1.24V51.83a0,0,0,0,1,0,0Z" transform="translate(122.74 114.28) rotate(-180)"/><path class="cls-1" d="M51.3,45.46h5.21a0,0,0,0,1,0,0V61.21a1.24,1.24,0,0,1-1.24,1.24H52.54a1.24,1.24,0,0,1-1.24-1.24V45.46A0,0,0,0,1,51.3,45.46Z" transform="translate(107.8 107.91) rotate(-180)"/><path class="cls-1" d="M43.83,41.21H49a0,0,0,0,1,0,0v20a1.24,1.24,0,0,1-1.24,1.24H45.07a1.24,1.24,0,0,1-1.24-1.24v-20A0,0,0,0,1,43.83,41.21Z" transform="translate(92.87 103.66) rotate(-180)"/><path class="cls-1" d="M36.36,39.52h5.21a0,0,0,0,1,0,0V61.21a1.24,1.24,0,0,1-1.24,1.24H37.6a1.24,1.24,0,0,1-1.24-1.24V39.52A0,0,0,0,1,36.36,39.52Z" transform="translate(77.93 101.97) rotate(-180)"/><path class="cls-1" d="M28.93,37.43h5.21a0,0,0,0,1,0,0V61.21a1.24,1.24,0,0,1-1.24,1.24H30.17a1.24,1.24,0,0,1-1.24-1.24V37.43A0,0,0,0,1,28.93,37.43Z" transform="translate(63.08 99.88) rotate(-180)"/><path class="cls-1" d="M21.47,32.65h5.21a0,0,0,0,1,0,0V61.21a1.24,1.24,0,0,1-1.24,1.24H22.71a1.24,1.24,0,0,1-1.24-1.24V32.65A0,0,0,0,1,21.47,32.65Z" transform="translate(48.14 95.1) rotate(-180)"/><path class="cls-1" d="M14,28h5.21a0,0,0,0,1,0,0V61.21A1.24,1.24,0,0,1,18,62.45H15.24A1.24,1.24,0,0,1,14,61.21V28a0,0,0,0,1,0,0Z" transform="translate(33.2 90.43) rotate(-180)"/><path class="cls-1" d="M6.48,16.21h5.21a0,0,0,0,1,0,0v45a1.24,1.24,0,0,1-1.24,1.24H7.72a1.24,1.24,0,0,1-1.24-1.24v-45A0,0,0,0,1,6.48,16.21Z" transform="translate(18.17 78.66) rotate(-180)"/><polygon class="cls-2" points="9.4 45.45 8.77 44.99 16.53 34.28 23.93 29.58 31.68 28.33 39.08 27.31 46.51 24.9 53.69 22.05 61.1 15.15 61.64 15.72 54.11 22.72 46.76 25.64 39.26 28.07 31.8 29.1 24.21 30.32 17.08 34.86 9.4 45.45"/></svg>