<svg id="图层_1" data-name="图层 1" xmlns="http://www.w3.org/2000/svg" viewBox="0 0 70 70"><defs><style>.cls-1{fill:#ffdb5c;}.cls-2{fill:#67e0e3;}.cls-3{fill:#69b5e1;}.cls-4{fill:#ea6a6a;}.cls-5{fill:#ff9f80;}</style></defs><title>pie</title><path class="cls-1" d="M10.17,51.85A29.67,29.67,0,0,1,6.28,25.57l28,9.19a.15.15,0,0,0,0,.07.16.16,0,0,0,0,.11Z"/><path class="cls-2" d="M34.45,64.48A29.69,29.69,0,0,1,10.17,51.85L34.28,34.94a.21.21,0,0,0,.35,0L59,51.42A29.61,29.61,0,0,1,34.45,64.48Z"/><path class="cls-3" d="M59,51.42,34.63,34.93s0,0,0-.1a.21.21,0,0,0-.21-.21V5.18A29.65,29.65,0,0,1,59,51.42Z"/><path class="cls-4" d="M34.34,34.66l-18-23.29A29.84,29.84,0,0,1,34.45,5.18V34.62A.15.15,0,0,0,34.34,34.66Z"/><path class="cls-5" d="M34.26,34.76l-28-9.19a29.66,29.66,0,0,1,10-14.2l18,23.29A.22.22,0,0,0,34.26,34.76Z"/></svg>