<svg id="图层_1" data-name="图层 1" xmlns="http://www.w3.org/2000/svg" viewBox="0 0 70 70"><defs><style>.cls-1{fill:#f9f9f9;}.cls-2{fill:#494949;}.cls-3{fill:#b8b8b8;}.cls-4{fill:#eaeaea;}.cls-5{fill:#c6c6c6;}</style></defs><title>pivottable</title><rect class="cls-1" x="5.51" y="8.52" width="19.4" height="52.98" rx="4.62" ry="4.62"/><path class="cls-2" d="M9.94,8.52h15a0,0,0,0,1,0,0v8.63a0,0,0,0,1,0,0H5.51a0,0,0,0,1,0,0v-4.2A4.43,4.43,0,0,1,9.94,8.52Z"/><path class="cls-3" d="M5.51,56h19.4a0,0,0,0,1,0,0v5.47a0,0,0,0,1,0,0H9.28a3.77,3.77,0,0,1-3.77-3.77V56A0,0,0,0,1,5.51,56Z"/><rect class="cls-4" x="5.51" y="45.06" width="19.4" height="5.47"/><rect class="cls-4" x="5.51" y="34.16" width="19.4" height="5.47"/><rect class="cls-4" x="5.51" y="23.26" width="19.4" height="5.47"/><rect class="cls-1" x="25.48" y="8.52" width="19.4" height="52.98"/><rect class="cls-2" x="25.48" y="8.52" width="19.4" height="8.63"/><rect class="cls-3" x="25.48" y="55.96" width="19.4" height="5.47"/><rect class="cls-4" x="25.48" y="45.06" width="19.4" height="5.47"/><rect class="cls-4" x="25.48" y="34.16" width="19.4" height="5.47"/><rect class="cls-4" x="25.48" y="23.26" width="19.4" height="5.47"/><rect class="cls-1" x="45.48" y="8.52" width="19.4" height="52.98" rx="9.7" ry="9.7"/><path class="cls-2" d="M45.48,8.52h15a4.43,4.43,0,0,1,4.43,4.43v4.2a0,0,0,0,1,0,0H45.48a0,0,0,0,1,0,0V8.52A0,0,0,0,1,45.48,8.52Z"/><path class="cls-3" d="M45.48,56h19.4a0,0,0,0,1,0,0V57a4.4,4.4,0,0,1-4.4,4.4h-15a0,0,0,0,1,0,0V56A0,0,0,0,1,45.48,56Z"/><rect class="cls-4" x="45.48" y="45.06" width="19.4" height="5.47"/><rect class="cls-4" x="45.48" y="34.16" width="19.4" height="5.47"/><rect class="cls-4" x="45.48" y="23.26" width="19.4" height="5.47"/><polygon class="cls-1" points="59.77 14.45 59.01 13.13 58.25 11.81 59.77 11.81 61.3 11.81 60.54 13.13 59.77 14.45"/><polygon class="cls-1" points="40.67 14.45 39.91 13.13 39.15 11.81 40.67 11.81 42.2 11.81 41.44 13.13 40.67 14.45"/><polygon class="cls-1" points="21.51 14.45 20.75 13.13 19.99 11.81 21.51 11.81 23.04 11.81 22.28 13.13 21.51 14.45"/><rect class="cls-5" x="7.14" y="18.71" width="2.96" height="2.96" rx="0.68" ry="0.68"/><rect class="cls-1" x="7.69" y="20.09" width="1.87" height="0.21"/><rect class="cls-1" x="7.69" y="20.09" width="1.87" height="0.21" transform="translate(28.81 11.57) rotate(90)"/><rect class="cls-5" x="7.14" y="29.93" width="2.96" height="2.96" rx="0.68" ry="0.68"/><rect class="cls-1" x="7.69" y="31.31" width="1.87" height="0.21"/><rect class="cls-1" x="7.69" y="31.31" width="1.87" height="0.21" transform="translate(40.04 22.79) rotate(90)"/><rect class="cls-5" x="7.14" y="24.51" width="2.96" height="2.96" rx="0.68" ry="0.68"/><rect class="cls-1" x="7.69" y="25.89" width="1.87" height="0.21"/><rect class="cls-1" x="7.69" y="25.89" width="1.87" height="0.21" transform="translate(34.61 17.37) rotate(90)"/><rect class="cls-5" x="7.14" y="35.41" width="2.96" height="2.96" rx="0.68" ry="0.68"/><rect class="cls-1" x="7.69" y="36.79" width="1.87" height="0.21"/><rect class="cls-1" x="7.69" y="36.79" width="1.87" height="0.21" transform="translate(45.51 28.27) rotate(90)"/><rect class="cls-5" x="7.14" y="41.06" width="2.96" height="2.96" rx="0.68" ry="0.68"/><rect class="cls-1" x="7.69" y="42.43" width="1.87" height="0.21"/><rect class="cls-1" x="7.69" y="42.43" width="1.87" height="0.21" transform="translate(51.16 33.92) rotate(90)"/><rect class="cls-5" x="7.14" y="52.04" width="2.96" height="2.96" rx="0.68" ry="0.68"/><rect class="cls-1" x="7.69" y="53.42" width="1.87" height="0.21"/><rect class="cls-1" x="7.69" y="53.42" width="1.87" height="0.21" transform="translate(62.14 44.9) rotate(90)"/><rect class="cls-5" x="7.14" y="46.31" width="2.96" height="2.96" rx="0.68" ry="0.68"/><rect class="cls-1" x="7.69" y="47.69" width="1.87" height="0.21"/><rect class="cls-1" x="7.69" y="47.69" width="1.87" height="0.21" transform="translate(56.41 39.17) rotate(90)"/></svg>