<svg id="图层_1" data-name="图层 1" xmlns="http://www.w3.org/2000/svg" viewBox="0 0 70 70"><defs><style>.cls-1{fill:#eee;}.cls-2{opacity:0.53;}.cls-3{fill:#69b5e1;}.cls-4{opacity:0.55;}.cls-5{fill:#ff9f80;}.cls-6{opacity:0.47;}.cls-7{fill:#ea6a6a;}</style></defs><title>radar</title><path class="cls-1" d="M35,56.94,15.85,45.87V23.74L35,12.68,54.18,23.74V45.87ZM21.66,42.52,35,50.23l13.36-7.71V27.09L35,19.38,21.66,27.09Z"/><polygon class="cls-1" points="35.02 27.04 28.3 30.93 28.3 38.69 35.02 42.57 41.74 38.69 41.74 30.93 35.02 27.04"/><path class="cls-1" d="M35,63.84l-.05,0L9.88,49.32v-29l0,0L35,5.78l0,0L60.16,20.29v29l0,0Zm-25-14.63L35,63.62,60,49.21V20.4L35,6l-25,14.41Z"/><line class="cls-1" x1="60.06" y1="20.35" x2="9.97" y2="49.27"/><rect class="cls-1" x="6.1" y="34.71" width="57.84" height="0.19" transform="translate(-12.71 22.17) rotate(-29.99)"/><line class="cls-1" x1="9.97" y1="20.35" x2="60.06" y2="49.27"/><rect class="cls-1" x="34.92" y="5.89" width="0.19" height="57.84" transform="translate(-12.63 47.73) rotate(-60)"/><rect class="cls-1" x="34.92" y="5.89" width="0.19" height="57.84"/><g class="cls-2"><polygon class="cls-3" points="28.5 38.58 31.61 32.55 35.07 21.82 48.44 27.15 48.77 42.55 35.17 63.54 28.5 38.58"/></g><path class="cls-3" d="M35.09,64,28.3,38.55l3.14-6.07L35,21.57,48.62,27,49,42.6l0,0ZM28.7,38.6l6.54,24.49L48.58,42.5l-.33-15.23L35.19,22.06,31.78,32.64Z"/><g class="cls-4"><polygon class="cls-5" points="31.65 36.4 33.16 33.27 34.8 27.8 41.12 31.03 41.02 38.58 34.57 48.17 31.65 36.4"/></g><path class="cls-5" d="M34.49,48.62l-3-12.25L33,33.21l1.71-5.68,6.62,3.38-.1,7.72Zm-2.64-12.2,2.8,11.29,6.19-9.19.09-7.38-6-3.07-1.6,5.29Z"/><g class="cls-6"><polygon class="cls-7" points="34.65 34.01 35.2 32.99 35.68 31.26 37.56 32.2 38.12 34.88 35.68 38.58 34.65 34.01"/></g><path class="cls-7" d="M35.59,39.05,34.46,34,35,32.92,35.56,31l2.17,1.09.59,2.84Zm-.74-5,.91,4.07,2.16-3.27-.52-2.51-1.6-.8-.43,1.55Z"/></svg>