<svg id="图层_1" data-name="图层 1" xmlns="http://www.w3.org/2000/svg" viewBox="0 0 70 70"><defs><style>.cls-1,.cls-4{fill:#69b5e1;}.cls-2,.cls-5{fill:#ff9f80;}.cls-3{fill:#ea6a6a;}.cls-4,.cls-5{opacity:0.29;}</style></defs><title>sankey</title><rect class="cls-1" x="6.48" y="17.32" width="1.81" height="9.39"/><rect class="cls-2" x="6.48" y="27.3" width="1.81" height="9.39"/><rect class="cls-2" x="6.48" y="36.69" width="1.81" height="16.17"/><rect class="cls-3" x="61.77" y="29.94" width="1.81" height="19.41"/><rect class="cls-1" x="34.18" y="17.32" width="1.81" height="9.39"/><rect class="cls-1" x="61.77" y="20.06" width="1.81" height="9.39"/><rect class="cls-4" x="8.29" y="17.32" width="25.89" height="9.39"/><path class="cls-4" d="M36,23.63a49.18,49.18,0,0,0,13.22-1.87,48.63,48.63,0,0,1,12.56-1.7V23.2s-7.75.14-12.65,1.55A41.15,41.15,0,0,1,36,26.7Z"/><path class="cls-4" d="M35.8,42.32s6.1,0,13.46-4.7c7.92-5,11.56-4.59,12.51-4.69v-3s-3.61-.08-11.46,4.48-9.61,5-14.51,5Z"/><path class="cls-5" d="M8.29,52.86S25.45,52.68,35,51s26.74-1.63,26.74-1.63V33.25s-14.26-.59-25.42,2.22c-9.28,2.34-24.08,1.81-28.06,1.22Z"/><rect class="cls-1" x="33.99" y="32.93" width="1.81" height="9.39"/><path class="cls-5" d="M8.29,27.3s6-.34,15.57,4c4,1.81,10.13,1.65,10.13,1.65v9.39s-5,.1-15-3.55A54.08,54.08,0,0,0,8.29,36.69Z"/><path class="cls-4" d="M35.8,32.93a26.43,26.43,0,0,0,13.46-5.1c6.91-5,12.51-4.63,12.51-4.63v6.24s-5.33.28-12.89,5.37S35.8,39.46,35.8,39.46Z"/></svg>