<svg id="图层_1" data-name="图层 1" xmlns="http://www.w3.org/2000/svg" viewBox="0 0 70 70"><defs><style>.cls-1{fill:#ffdb5c;}.cls-2{fill:#ea6a6a;}.cls-3{fill:#97c979;}.cls-4{fill:#69b5e1;}.cls-5{fill:#ffab1f;}.cls-6{fill:#ff9f80;}.cls-7{fill:#ff296a;}.cls-8{fill:#3c85fc;}.cls-9{fill:#1fd668;}.cls-10{fill:#a129f4;}</style></defs><title>scatter</title><circle class="cls-1" cx="53.61" cy="52.4" r="1.57"/><circle class="cls-1" cx="53.61" cy="56.94" r="1.57"/><circle class="cls-1" cx="53.61" cy="38.74" r="1.57"/><circle class="cls-2" cx="22.29" cy="58.79" r="1.57"/><circle class="cls-3" cx="22.29" cy="37.68" r="1.57"/><circle class="cls-4" cx="22.29" cy="59.84" r="1.57"/><circle class="cls-5" cx="22.29" cy="57.09" r="1.57"/><circle class="cls-6" cx="22.29" cy="36.87" r="1.57"/><circle class="cls-7" cx="59.87" cy="58.79" r="1.57"/><circle class="cls-3" cx="59.87" cy="37.68" r="1.57"/><circle class="cls-5" cx="59.87" cy="57.09" r="1.57"/><circle class="cls-6" cx="59.87" cy="36.87" r="1.57"/><circle class="cls-8" cx="16.03" cy="59.84" r="1.57"/><circle class="cls-3" cx="16.03" cy="56.3" r="1.57"/><circle class="cls-5" cx="16.03" cy="59.26" r="1.57"/><circle class="cls-3" cx="16.03" cy="48.67" r="1.57"/><circle class="cls-6" cx="16.03" cy="41.66" r="1.57"/><circle class="cls-8" cx="9.77" cy="59.03" r="1.57"/><circle class="cls-9" cx="9.77" cy="52.9" r="1.57"/><circle class="cls-3" cx="9.77" cy="51.57" r="1.57"/><circle class="cls-3" cx="9.77" cy="33.97" r="1.57"/><circle class="cls-4" cx="28.56" cy="57.62" r="1.57"/><circle class="cls-7" cx="28.56" cy="58.67" r="1.57"/><circle class="cls-4" cx="28.56" cy="52.5" r="1.57"/><circle class="cls-4" cx="28.56" cy="58.16" r="1.57"/><circle class="cls-6" cx="28.56" cy="50.09" r="1.57"/><circle class="cls-6" cx="28.56" cy="51.87" r="1.57"/><circle class="cls-6" cx="28.56" cy="55.01" r="1.57"/><circle class="cls-3" cx="28.56" cy="42.85" r="1.57"/><circle class="cls-9" cx="28.56" cy="56.58" r="1.57"/><circle class="cls-6" cx="28.56" cy="58.58" r="1.57"/><circle class="cls-9" cx="28.56" cy="50.84" r="1.57"/><circle class="cls-6" cx="28.56" cy="37.35" r="1.57"/><circle class="cls-3" cx="28.56" cy="26.83" r="1.57"/><circle class="cls-3" cx="28.56" cy="21.32" r="1.57"/><circle class="cls-4" cx="47.34" cy="48.55" r="1.57"/><circle class="cls-4" cx="47.34" cy="54.61" r="1.57"/><circle class="cls-1" cx="47.34" cy="55.82" r="1.57"/><circle class="cls-8" cx="47.34" cy="59.84" r="1.57"/><circle class="cls-3" cx="47.34" cy="37.16" r="1.57"/><circle class="cls-10" cx="47.34" cy="47.1" r="1.57"/><circle class="cls-3" cx="47.34" cy="46.98" r="1.57"/><circle class="cls-4" cx="41.08" cy="55.06" r="1.57"/><circle class="cls-2" cx="53.61" cy="44.17" r="1.57"/><circle class="cls-2" cx="53.61" cy="25.56" r="1.57"/><circle class="cls-2" cx="53.61" cy="57.44" r="1.57"/><circle class="cls-2" cx="22.29" cy="57.43" r="1.57"/><circle class="cls-2" cx="59.87" cy="57.43" r="1.57"/><circle class="cls-2" cx="16.03" cy="59.84" r="1.57"/><circle class="cls-2" cx="16.03" cy="57.39" r="1.57"/><circle class="cls-2" cx="16.03" cy="33.85" r="1.57"/><circle class="cls-2" cx="28.56" cy="59.84" r="1.57"/><circle class="cls-2" cx="47.34" cy="58.27" r="1.57"/><circle class="cls-2" cx="47.34" cy="27.21" r="1.57"/><circle class="cls-2" cx="47.34" cy="16.1" r="1.57"/><circle class="cls-2" cx="41.08" cy="50.8" r="1.57"/><circle class="cls-2" cx="41.08" cy="37.92" r="1.57"/><circle class="cls-1" cx="34.82" cy="52.38" r="1.57"/><circle class="cls-8" cx="34.82" cy="46.19" r="1.57"/><circle class="cls-6" cx="34.82" cy="32.03" r="1.57"/><circle class="cls-1" cx="34.82" cy="58.79" r="1.57"/><circle class="cls-1" cx="34.82" cy="45.98" r="1.57"/><circle class="cls-4" cx="53.61" cy="59.84" r="1.57"/><circle class="cls-4" cx="53.61" cy="51.05" r="1.57"/><circle class="cls-4" cx="22.29" cy="53.61" r="1.57"/><circle class="cls-4" cx="22.29" cy="48.64" r="1.57"/><circle class="cls-4" cx="22.29" cy="47.21" r="1.57"/><circle class="cls-4" cx="22.29" cy="14.95" r="1.57"/><circle class="cls-4" cx="22.29" cy="42.25" r="1.57"/><circle class="cls-4" cx="59.87" cy="53.61" r="1.57"/><circle class="cls-4" cx="59.87" cy="48.64" r="1.57"/><circle class="cls-4" cx="59.87" cy="59.84" r="1.57"/><circle class="cls-4" cx="59.87" cy="47.21" r="1.57"/><circle class="cls-4" cx="59.87" cy="42.25" r="1.57"/><circle class="cls-4" cx="16.03" cy="53.45" r="1.57"/><circle class="cls-4" cx="9.77" cy="59.84" r="1.57"/><circle class="cls-4" cx="9.77" cy="58.51" r="1.57"/><circle class="cls-4" cx="9.77" cy="52.64" r="1.57"/><circle class="cls-4" cx="9.77" cy="40.92" r="1.57"/><circle class="cls-4" cx="28.56" cy="56.83" r="1.57"/><circle class="cls-4" cx="28.56" cy="51.23" r="1.57"/><circle class="cls-4" cx="28.56" cy="39.24" r="1.57"/><circle class="cls-4" cx="47.34" cy="59.75" r="1.57"/><circle class="cls-4" cx="47.34" cy="42.15" r="1.57"/><circle class="cls-4" cx="47.34" cy="48.21" r="1.57"/><circle class="cls-4" cx="47.34" cy="53.45" r="1.57"/><circle class="cls-4" cx="41.08" cy="59.84" r="1.57"/><circle class="cls-4" cx="41.08" cy="57.69" r="1.57"/><circle class="cls-4" cx="41.08" cy="48.67" r="1.57"/><circle class="cls-4" cx="41.08" cy="53.45" r="1.57"/><circle class="cls-4" cx="41.08" cy="32.28" r="1.57"/><circle class="cls-4" cx="34.82" cy="59.84" r="1.57"/><circle class="cls-4" cx="34.82" cy="53.57" r="1.57"/><circle class="cls-4" cx="34.82" cy="47.28" r="1.57"/><circle class="cls-6" cx="34.82" cy="25.64" r="1.57"/><circle class="cls-1" cx="34.82" cy="57.39" r="1.57"/></svg>