<svg id="图层_1" data-name="图层 1" xmlns="http://www.w3.org/2000/svg" viewBox="0 0 70 70"><defs><style>.cls-1{fill:#3ea3d8;}.cls-2{fill:#feda66;}.cls-3{fill:#fd9e82;}.cls-4{fill:#de61ad;}.cls-5{fill:#e8696d;}.cls-6{fill:#6ce1e2;}.cls-7{fill:#e06cb2;}</style></defs><title>spiralcolumn</title><path class="cls-1" d="M33.66,20.14h-.87v2.58q.43,0,.87,0Z"/><path class="cls-2" d="M37,14l-.86-.15-1.51,8.88c.29,0,.58,0,.87.07Z"/><path class="cls-3" d="M37.31,19.48l-.84-.21-.91,3.53c.29,0,.58.08.86.14Z"/><path class="cls-4" d="M39.19,18.38l-.82-.31L36.5,23c.29.06.57.14.85.22Z"/><path class="cls-5" d="M40.47,18.9l-.8-.36-2.12,4.69a8,8,0,0,1,.82.29Z"/><path class="cls-1" d="M40.37,22l-.77-.4-1.07,2c.27.1.54.23.8.35Z"/><path class="cls-6" d="M40.51,23.93l-.71-.5-.38.54c.26.13.52.27.77.42Z"/><path class="cls-2" d="M45.2,20l-.66-.56-4.22,5c.25.15.49.31.73.48Z"/><path class="cls-3" d="M45,22.51l-.6-.63L41.12,25c.24.17.48.35.7.53Z"/><path class="cls-4" d="M42.68,26.32l2.46-2.12-.57-.66L42,25.72C42.26,25.91,42.48,26.11,42.68,26.32Z"/><path class="cls-5" d="M45.37,25.75,44.86,25l-2,1.46c.2.21.4.43.58.65Z"/><path class="cls-1" d="M44.22,27.91l-.51-.71-.15.12a7.47,7.47,0,0,1,.52.7Z"/><path class="cls-6" d="M46.53,27.86l-.43-.75-1.91,1.1c.16.24.31.49.45.74Z"/><path class="cls-2" d="M50.58,27.79,50.25,27,44.76,29.2c.13.25.26.52.37.78Z"/><path class="cls-5" d="M47.87,30.41l-.22-.84-2.43.63c.11.27.2.55.29.83Z"/><path class="cls-7" d="M50.75,31.2l-.16-.86-5,.95c.08.27.15.56.21.84Z"/><path class="cls-5" d="M49.65,32.94l-.07-.87-3.72.32c0,.28.08.57.11.86Z"/><path class="cls-1" d="M46.05,34.38H48v-.87H46s0,.05,0,.07C46,33.85,46,34.11,46.05,34.38Z"/><path class="cls-6" d="M46,35.6l.41,0,0-.87-.44,0C46.06,35,46.05,35.31,46,35.6Z"/><path class="cls-2" d="M53.51,38.15l.16-.86L46,35.89c0,.29,0,.58-.08.87Z"/><path class="cls-3" d="M48,38.43l.22-.84L45.9,37c0,.29-.08.58-.15.86Z"/><path class="cls-7" d="M49.75,40.49l.26-.83-4.36-1.4c-.07.28-.14.56-.22.84Z"/><path class="cls-5" d="M48.32,41.78,48.7,41l-3.35-1.65c-.09.28-.2.55-.31.82Z"/><path class="cls-1" d="M44.89,41.58l.39-.78-.41-.2c-.11.27-.25.52-.38.78Z"/><path class="cls-6" d="M44.38,42.76l.5-.71-.54-.38q-.21.38-.45.75Z"/><path class="cls-2" d="M47.92,47.51l.56-.67-4.85-4c-.17.25-.34.48-.52.71Z"/><path class="cls-3" d="M43.66,45.66l.58-.64L42.91,43.8q-.27.35-.57.66Z"/><path class="cls-7" d="M41.5,45.32,43.71,48l.68-.55-2.27-2.76C41.92,44.92,41.71,45.12,41.5,45.32Z"/><path class="cls-5" d="M42.05,48.51l.72-.5-1.65-2.36c-.22.19-.44.38-.67.56Z"/><path class="cls-1" d="M40,48.07l.75-.43-.68-1.19c-.24.17-.47.34-.72.5Z"/><path class="cls-6" d="M38.48,48.05l.76-.44L39,47.18c-.25.15-.5.3-.76.44Z"/><path class="cls-2" d="M38.51,51.5l.81-.31L38,47.72c-.26.13-.52.26-.79.37Z"/><path class="cls-3" d="M36.94,52.91l.84-.21-1.06-4.42c-.27.11-.55.2-.83.29Z"/><path class="cls-7" d="M35.11,52.72l.86-.13-.57-3.82-.54.08-.32.08Z"/><path class="cls-5" d="M33.3,52.84l1-.07L34.09,49c-.34.06-.68.1-1,.15Z"/><rect class="cls-1" x="31.58" y="49.32" width="1.11" height="1.42"/><rect class="cls-6" x="30.11" y="49.32" width="1.12" height="0.71"/><path class="cls-2" d="M27.44,56.7l1.16.2,1.34-7.59-.42-.08c-.25,0-.49,0-.74-.09Z"/><path class="cls-3" d="M26.37,52.65l1.31.32.94-3.77L27.76,49l-.45-.1Z"/><path class="cls-7" d="M24,54.24l1.27.44,2-5.77-.48-.16c-.27-.07-.55-.13-.82-.22Z"/><path class="cls-5" d="M23,51.26l1.22.56,1.55-3.34-.12,0c-.39-.13-.77-.27-1.15-.43Z"/><path class="cls-1" d="M21.05,51.07l1.17.67L24.4,48c-.41-.18-.81-.38-1.21-.59Z"/><path class="cls-6" d="M21.53,47.19l1.11.76.44-.64c-.4-.21-.78-.45-1.16-.7Z"/><path class="cls-2" d="M15.35,52.3l1,.86,5.46-6.59c-.37-.25-.74-.52-1.09-.8Z"/><path class="cls-3" d="M19.61,44.78l-.93.93.95.95,1-1c-.17-.14-.35-.26-.52-.41S19.77,44.93,19.61,44.78Z"/><path class="cls-7" d="M18.54,43.68l-3.85,3.25.87,1,3.92-3.31C19.15,44.34,18.84,44,18.54,43.68Z"/><path class="cls-5" d="M15.36,44.18l.8,1.08,2.28-1.69c-.3-.34-.59-.68-.86-1Z"/><path class="cls-1" d="M15.72,41.76l.68,1.17,1-.61c-.26-.36-.52-.73-.76-1.11Z"/><path class="cls-6" d="M15.4,40.08,16,41.3l.6-.28c-.23-.39-.44-.78-.64-1.19Z"/><path class="cls-2" d="M10.35,40.44l.51,1.25,5-2c-.2-.41-.37-.82-.54-1.24Z"/><path class="cls-3" d="M11.81,37.86l.39,1.29,3-.92c-.16-.41-.3-.84-.42-1.27Z"/><path class="cls-7" d="M11.32,35.87l.2,1.33,3.17-.47,0-.21c-.1-.36-.18-.73-.26-1.11Z"/><path class="cls-5" d="M12.27,33.94l.1,1.34,2-.14c-.08-.44-.15-.89-.2-1.34Z"/><path class="cls-1" d="M14,32.05H12.71v1.54h1.42c0-.35-.09-.7-.1-1.05C14,32.37,14,32.21,14,32.05Z"/><path class="cls-6" d="M13.27,30.4v1.54H14c0-.52,0-1,0-1.54Z"/><path class="cls-2" d="M5.73,27.47,5.52,29l8.57,1.19c0-.51.09-1,.17-1.53Z"/><path class="cls-3" d="M12.21,26.49,11.85,28l2.42.57c.09-.51.2-1,.32-1.51Z"/><path class="cls-7" d="M11.33,24.22l-.49,1.46L14.62,27a14.69,14.69,0,0,1,.45-1.47Z"/><path class="cls-5" d="M14.19,23.25l-.63,1.41,1.54.7c.17-.49.37-1,.57-1.44Z"/><path class="cls-1" d="M12.78,20.48l-.7,1.37,3.68,1.88q.32-.7.69-1.38Z"/><path class="cls-6" d="M15.81,19.87,15,21.17l1.57,1q.38-.68.81-1.32Z"/><path class="cls-2" d="M10.52,13.27l-1,1.22,7.9,6.22c.29-.42.59-.84.92-1.24Z"/><path class="cls-3" d="M19.51,18.16l-2.62-2.62L15.8,16.63l2.69,2.7c.29-.35.57-.7.88-1A.86.86,0,0,0,19.51,18.16Z"/><path class="cls-7" d="M15.14,10.35l-1.18,1L19.66,18c.36-.37.72-.74,1.11-1.08Z"/><path class="cls-5" d="M19.29,11.59,18,12.47l3,4.29c.4-.34.8-.66,1.21-1Z"/><path class="cls-1" d="M22.9,13.41l-1.34.77.84,1.46q.63-.45,1.29-.84Z"/><path class="cls-6" d="M25,13.25l-1.39.68.35.71c.44-.26.91-.49,1.37-.71Z"/><path class="cls-2" d="M25.38,9.34,24,9.93l1.59,3.87c.46-.22.94-.41,1.43-.59Z"/><path class="cls-3" d="M28,10l-1.49.39.72,2.7c.48-.18,1-.33,1.47-.47Z"/><path class="cls-7" d="M30.1,9.56l-1.52.22L29,12.57c.5-.13,1-.24,1.51-.33Z"/><path class="cls-5" d="M32,8.72l-1.54.1.21,3.38c.51-.09,1-.15,1.53-.2Z"/><path class="cls-1" d="M34.37,11.9l-.12-2L32.6,10,32.72,12l.52-.05C33.62,11.9,34,11.89,34.37,11.9Z"/><path class="cls-6" d="M36.39,10.13,34.74,10l-.11,1.86c.56,0,1.11,0,1.66.1Z"/><path class="cls-2" d="M39.06,6.47l-1.63-.28-1,5.82c.55.05,1.1.12,1.64.22Z"/><path class="cls-3" d="M40.37,11.06l-1.61-.41-.42,1.62c.54.1,1.09.22,1.62.35Z"/><path class="cls-7" d="M42.55,10.91,41,10.33l-.87,2.34c.54.14,1.07.31,1.59.49Z"/><path class="cls-5" d="M45.16,10.66,43.48,9.9,42,13.25c.58.21,1.15.44,1.71.7Z"/><path class="cls-1" d="M45.63,14.53,44,13.65l-.19.36c.56.26,1.11.54,1.64.85Z"/><path class="cls-6" d="M47.77,15l-1.53-1-.67,1c.53.31,1.06.64,1.56,1Z"/><path class="cls-2" d="M52.34,12.87l-1.41-1.18L47.28,16c.5.36,1,.74,1.45,1.14Z"/><path class="cls-3" d="M50.25,18.55,52,16.66,50.65,15.4,48.9,17.29c.31.27.62.55.92.84C50,18.26,50.1,18.41,50.25,18.55Z"/><path class="cls-7" d="M54.18,17.93,53,16.5l-2.67,2.16c.43.44.84.9,1.23,1.37Z"/><path class="cls-5" d="M54.88,20.11l-1.16-1.43-1.95,1.58c.39.48.76,1,1.1,1.48Z"/><path class="cls-1" d="M54.34,23.17l-.92-1.6-.48.28c.35.51.67,1,1,1.57Z"/><path class="cls-6" d="M55,25.13l-.86-1.63-.13.07c.3.54.57,1.09.82,1.66Z"/><path class="cls-2" d="M63.25,24.26l-.65-1.73-7.7,2.89c.24.57.46,1.14.65,1.72Z"/><path class="cls-3" d="M57.19,28.76,56.63,27l-1,.32c.2.59.36,1.18.51,1.78Z"/><path class="cls-7" d="M57.77,30.93l-.35-1.81-1.24.23c.13.6.25,1.2.34,1.82Z"/><path class="cls-5" d="M60.56,32.9l-.15-1.84-3.86.33q.12.9.18,1.83Z"/><path class="cls-1" d="M56.75,35.28l1,.06.11-1.84-1.14-.07c0,.37,0,.75,0,1.12S56.76,35,56.75,35.28Z"/><path class="cls-6" d="M57.12,37.5l.11-1.84-.48,0c0,.62-.07,1.23-.14,1.84Z"/><path class="cls-2" d="M64,41l.33-1.81-7.72-1.42q-.11.92-.27,1.83Z"/><path class="cls-3" d="M57.38,42l.33-1.82-1.47-.27c-.12.61-.27,1.21-.43,1.8Z"/><path class="cls-7" d="M59.56,45.29l.63-1.73-4.44-1.64c-.18.59-.37,1.18-.59,1.75Z"/><path class="cls-5" d="M57,46.91l.81-1.66L55.09,43.9l0,.05c-.21.56-.44,1.11-.7,1.65Z"/><path class="cls-1" d="M55.45,48.75l.92-1.59-2.16-1.25c-.27.55-.55,1.1-.86,1.63Z"/><path class="cls-6" d="M52.58,49.65l.93-1.6-.35-.2c-.32.53-.66,1-1,1.55Z"/><path class="cls-2" d="M55.06,54.73l1.18-1.42L51.9,49.74c-.36.49-.75,1-1.16,1.44Z"/><path class="cls-3" d="M49.22,52.79l.71.63,1.23-1.37-.66-.59c-.3.34-.61.67-.94,1Z"/><path class="cls-7" d="M50.06,57.36,51.72,56l-2.58-3.07-.23.19c-.46.42-.93.83-1.42,1.22Z"/><path class="cls-5" d="M47.39,58.07l1.79-1.24-1.72-2.48-.35.25c-.47.35-.94.69-1.42,1Z"/><path class="cls-1" d="M44.71,58.48l1.89-1.09-1-1.72c-.6.4-1.23.77-1.87,1.11Z"/><path class="cls-6" d="M41.92,58.27l2-.93-.24-.51c-.64.34-1.29.66-2,1Z"/><rect class="cls-2" x="40.93" y="58.05" width="2.17" height="8.01" transform="translate(-19.13 18.72) rotate(-20.57)"/><rect class="cls-3" x="37.7" y="58.97" width="2.17" height="2.09" transform="translate(-15.46 13.51) rotate(-16.52)"/><rect class="cls-7" x="35.47" y="59.54" width="2.17" height="3.04" transform="translate(-9.54 6.84) rotate(-9.46)"/><rect class="cls-5" x="33.07" y="59.9" width="2.17" height="3.87" transform="translate(-5.93 3.67) rotate(-5.66)"/><path class="cls-6" d="M34.57,22.71v-.22l-.87,0v.25C34,22.68,34.28,22.7,34.57,22.71Z"/></svg>