<svg id="图层_1" data-name="图层 1" xmlns="http://www.w3.org/2000/svg" viewBox="0 0 70 70"><defs><style>.cls-1{fill:#ea6a6a;}.cls-2{fill:#ffdb5c;}.cls-3{fill:#ff9f80;}.cls-4{fill:#67e0e3;}.cls-5{fill:#69b5e1;}</style></defs><title>stackedcolumn</title><path class="cls-1" d="M8.43,42.08h2.33a1.34,1.34,0,0,1,1.34,1.34V61.57a0,0,0,0,1,0,0h-5a0,0,0,0,1,0,0V43.42a1.34,1.34,0,0,1,1.34-1.34Z"/><path class="cls-1" d="M15.38,36.85h2.78A1.11,1.11,0,0,1,19.28,38V61.57a0,0,0,0,1,0,0h-5a0,0,0,0,1,0,0V38a1.11,1.11,0,0,1,1.11-1.11Z"/><path class="cls-1" d="M22.57,30.67h2.78a1.11,1.11,0,0,1,1.11,1.11V61.57a0,0,0,0,1,0,0h-5a0,0,0,0,1,0,0V31.78A1.11,1.11,0,0,1,22.57,30.67Z"/><path class="cls-1" d="M29.85,39.39h2.59a1.21,1.21,0,0,1,1.21,1.21v21a0,0,0,0,1,0,0h-5a0,0,0,0,1,0,0v-21A1.21,1.21,0,0,1,29.85,39.39Z"/><path class="cls-1" d="M36.89,27.18h2.78a1.11,1.11,0,0,1,1.11,1.11V61.57a0,0,0,0,1,0,0h-5a0,0,0,0,1,0,0V28.3A1.11,1.11,0,0,1,36.89,27.18Z"/><path class="cls-1" d="M44.07,10.86h2.78A1.11,1.11,0,0,1,48,12v49.6a0,0,0,0,1,0,0H43a0,0,0,0,1,0,0V12a1.11,1.11,0,0,1,1.11-1.11Z"/><path class="cls-1" d="M51.27,17.36H54a1.11,1.11,0,0,1,1.11,1.11v43.1a0,0,0,0,1,0,0h-5a0,0,0,0,1,0,0V18.48A1.12,1.12,0,0,1,51.27,17.36Z"/><path class="cls-1" d="M58.48,12.29h2.78a1.11,1.11,0,0,1,1.11,1.11V61.57a0,0,0,0,1,0,0h-5a0,0,0,0,1,0,0V13.4a1.11,1.11,0,0,1,1.11-1.11Z"/><rect class="cls-2" x="7.09" y="45.2" width="5.01" height="3.46"/><rect class="cls-3" x="7.09" y="43.56" width="5.01" height="1.64"/><rect class="cls-4" x="7.09" y="48.65" width="5.01" height="4.75"/><rect class="cls-5" x="7.09" y="53.41" width="5.01" height="8.16"/><rect class="cls-2" x="14.27" y="40.56" width="5.01" height="4.43"/><rect class="cls-3" x="14.27" y="38.46" width="5.01" height="2.1"/><rect class="cls-4" x="14.27" y="44.99" width="5.01" height="6.1"/><rect class="cls-5" x="14.27" y="51.09" width="5.01" height="10.48"/><rect class="cls-2" x="21.45" y="35.14" width="5.01" height="5.58"/><rect class="cls-3" x="21.45" y="32.49" width="5.01" height="2.65"/><rect class="cls-4" x="21.45" y="40.72" width="5.01" height="7.68"/><rect class="cls-5" x="21.45" y="48.39" width="5.01" height="13.18"/><rect class="cls-2" x="28.63" y="42.9" width="5.01" height="3.94"/><rect class="cls-3" x="28.63" y="41.03" width="5.01" height="1.87"/><rect class="cls-4" x="28.63" y="46.84" width="5.01" height="5.42"/><rect class="cls-5" x="28.63" y="52.26" width="5.01" height="9.31"/><rect class="cls-2" x="35.82" y="33.48" width="5.01" height="5.93"/><rect class="cls-3" x="35.82" y="30.67" width="5.01" height="2.81"/><rect class="cls-4" x="35.82" y="39.41" width="5.01" height="8.16"/><rect class="cls-5" x="35.82" y="47.57" width="5.01" height="14"/><rect class="cls-2" x="43" y="18.14" width="5.01" height="9.17"/><rect class="cls-3" x="43" y="13.79" width="5.01" height="4.35"/><rect class="cls-4" x="43" y="27.3" width="5.01" height="12.61"/><rect class="cls-5" x="43" y="39.92" width="5.01" height="21.66"/><rect class="cls-2" x="50.18" y="22.6" width="5.01" height="8.23"/><rect class="cls-3" x="50.18" y="18.7" width="5.01" height="3.9"/><rect class="cls-4" x="50.18" y="30.82" width="5.01" height="11.32"/><rect class="cls-5" x="50.18" y="42.14" width="5.01" height="19.43"/><rect class="cls-2" x="57.36" y="20.11" width="5.01" height="8.75"/><rect class="cls-3" x="57.36" y="15.96" width="5.01" height="4.15"/><rect class="cls-4" x="57.36" y="28.86" width="5.01" height="12.04"/><rect class="cls-5" x="57.36" y="40.9" width="5.01" height="20.67"/></svg>