<svg id="图层_1" data-name="图层 1" xmlns="http://www.w3.org/2000/svg" viewBox="0 0 70 70"><defs><style>.cls-1{fill:#ea6a6a;}.cls-2{fill:#ffdb5c;}.cls-3{fill:#ff9f80;}.cls-4{fill:#67e0e3;}.cls-5{fill:#69b5e1;}</style></defs><title>stackedbarcolumn</title><path class="cls-1" d="M17.34,50.53h5a0,0,0,0,1,0,0V68.69A1.34,1.34,0,0,1,21,70H18.68a1.34,1.34,0,0,1-1.34-1.34V50.53A0,0,0,0,1,17.34,50.53Z" transform="translate(-40.44 80.12) rotate(-90)"/><path class="cls-1" d="M20,40.74h5a0,0,0,0,1,0,0V64.34a1.11,1.11,0,0,1-1.11,1.11H21.07A1.11,1.11,0,0,1,20,64.34V40.74a0,0,0,0,1,0,0Z" transform="translate(-30.64 75.56) rotate(-90)"/><path class="cls-1" d="M23,30.46h5a0,0,0,0,1,0,0V60.25a1.11,1.11,0,0,1-1.11,1.11H24.16A1.11,1.11,0,0,1,23,60.25V30.46a0,0,0,0,1,0,0Z" transform="translate(-20.37 71.46) rotate(-90)"/><path class="cls-1" d="M18.69,27.64h5a0,0,0,0,1,0,0v21a1.21,1.21,0,0,1-1.21,1.21H19.9a1.21,1.21,0,0,1-1.21-1.21v-21A0,0,0,0,1,18.69,27.64Z" transform="translate(-17.54 59.92) rotate(-90)"/><path class="cls-1" d="M24.79,14.4h5a0,0,0,0,1,0,0V47.67a1.11,1.11,0,0,1-1.11,1.11H25.9a1.11,1.11,0,0,1-1.11-1.11V14.4A0,0,0,0,1,24.79,14.4Z" transform="translate(-4.3 58.88) rotate(-90)"/><path class="cls-1" d="M32.95-.95h5a0,0,0,0,1,0,0v49.6a1.11,1.11,0,0,1-1.11,1.11H34.06a1.11,1.11,0,0,1-1.11-1.11V-.95A0,0,0,0,1,32.95-.95Z" transform="translate(11.05 59.86) rotate(-90)"/><path class="cls-1" d="M29.7-4.88h5a0,0,0,0,1,0,0v43.1a1.11,1.11,0,0,1-1.11,1.11H30.82a1.12,1.12,0,0,1-1.12-1.12V-4.88A0,0,0,0,1,29.7-4.88Z" transform="translate(14.98 49.43) rotate(-90)"/><path class="cls-1" d="M32.24-14.65h5a0,0,0,0,1,0,0V33.52a1.11,1.11,0,0,1-1.11,1.11H33.35a1.11,1.11,0,0,1-1.11-1.11V-14.65A0,0,0,0,1,32.24-14.65Z" transform="translate(24.74 44.73) rotate(-90)"/><rect class="cls-2" x="22.24" y="58.55" width="5.01" height="3.46" transform="translate(-35.54 85.02) rotate(-90)"/><rect class="cls-3" x="24.79" y="59.46" width="5.01" height="1.64" transform="translate(-32.99 87.57) rotate(-90)"/><rect class="cls-4" x="18.13" y="57.9" width="5.01" height="4.75" transform="translate(-39.64 80.92) rotate(-90)"/><rect class="cls-5" x="11.68" y="56.2" width="5.01" height="8.16" transform="translate(-46.1 74.46) rotate(-90)"/><rect class="cls-2" x="26.39" y="50.88" width="5.01" height="4.43" transform="translate(-24.2 81.99) rotate(-90)"/><rect class="cls-3" x="29.66" y="52.05" width="5.01" height="2.1" transform="translate(-20.93 85.26) rotate(-90)"/><rect class="cls-4" x="21.12" y="50.05" width="5.01" height="6.1" transform="translate(-29.47 76.72) rotate(-90)"/><rect class="cls-5" x="12.83" y="47.86" width="5.01" height="10.48" transform="translate(-37.76 68.43) rotate(-90)"/><rect class="cls-2" x="31.24" y="43.13" width="5.01" height="5.58" transform="translate(-12.17 79.66) rotate(-90)"/><rect class="cls-3" x="35.35" y="44.59" width="5.01" height="2.65" transform="translate(-8.06 83.77) rotate(-90)"/><rect class="cls-4" x="24.61" y="42.08" width="5.01" height="7.68" transform="translate(-18.8 73.03) rotate(-90)"/><rect class="cls-5" x="14.18" y="39.33" width="5.01" height="13.18" transform="translate(-29.23 62.6) rotate(-90)"/><rect class="cls-2" x="24.29" y="36.76" width="5.01" height="3.94" transform="translate(-11.93 65.53) rotate(-90)"/><rect class="cls-3" x="27.2" y="37.8" width="5.01" height="1.87" transform="translate(-9.03 68.44) rotate(-90)"/><rect class="cls-4" x="19.61" y="36.02" width="5.01" height="5.42" transform="translate(-16.62 60.85) rotate(-90)"/><rect class="cls-5" x="12.25" y="34.08" width="5.01" height="9.31" transform="translate(-23.98 53.49) rotate(-90)"/><rect class="cls-2" x="32.72" y="28.59" width="5.01" height="5.93" transform="translate(3.67 66.77) rotate(-90)"/><rect class="cls-3" x="37.09" y="30.14" width="5.01" height="2.81" transform="translate(8.04 71.14) rotate(-90)"/><rect class="cls-4" x="25.68" y="27.47" width="5.01" height="8.16" transform="translate(-3.37 59.73) rotate(-90)"/><rect class="cls-5" x="14.6" y="24.55" width="5.01" height="14" transform="translate(-14.45 48.65) rotate(-90)"/><rect class="cls-2" x="46.44" y="19.78" width="5.01" height="9.17" transform="translate(24.58 73.32) rotate(-90)"/><rect class="cls-3" x="53.2" y="22.19" width="5.01" height="4.35" transform="translate(31.34 80.07) rotate(-90)"/><rect class="cls-4" x="35.55" y="18.06" width="5.01" height="12.61" transform="translate(13.69 62.43) rotate(-90)"/><rect class="cls-5" x="18.42" y="13.54" width="5.01" height="21.66" transform="translate(-3.44 45.29) rotate(-90)"/><rect class="cls-2" x="42.45" y="13.07" width="5.01" height="8.23" transform="translate(27.77 62.14) rotate(-90)"/><rect class="cls-3" x="48.52" y="15.24" width="5.01" height="3.9" transform="translate(33.84 68.21) rotate(-90)"/><rect class="cls-4" x="32.68" y="11.53" width="5.01" height="11.32" transform="translate(18 52.37) rotate(-90)"/><rect class="cls-5" x="17.31" y="7.47" width="5.01" height="19.43" transform="translate(2.63 37) rotate(-90)"/><rect class="cls-2" x="44.68" y="5.63" width="5.01" height="8.75" transform="translate(37.18 57.18) rotate(-90)"/><rect class="cls-3" x="51.13" y="7.93" width="5.01" height="4.15" transform="translate(43.63 63.63) rotate(-90)"/><rect class="cls-4" x="34.28" y="3.98" width="5.01" height="12.04" transform="translate(26.78 46.79) rotate(-90)"/><rect class="cls-5" x="17.93" y="-0.33" width="5.01" height="20.67" transform="translate(10.43 30.44) rotate(-90)"/></svg>