<svg id="图层_1" data-name="图层 1" xmlns="http://www.w3.org/2000/svg" viewBox="0 0 70 70"><defs><style>.cls-1{fill:#69b5e1;}.cls-2{fill:#48b788;}.cls-3{fill:#feebae;}.cls-4{fill:#97c979;}.cls-5{fill:#ea6a6a;}.cls-6{fill:#e062ae;}.cls-7{fill:#ff9f80;}.cls-8{fill:#ffdb5c;}.cls-9{fill:#67e0e3;}.cls-10{fill:#36a2da;}</style></defs><title>sunburst</title><path class="cls-1" d="M34.85,63.89a28.78,28.78,0,1,1,0-57.55V16.71A18.41,18.41,0,1,0,52.74,39.46L62.82,41.9A28.69,28.69,0,0,1,34.85,63.89Z"/><path class="cls-2" d="M62.82,41.9,52.74,39.47a18.26,18.26,0,0,0,.49-3.37l10.36.54A30.06,30.06,0,0,1,62.82,41.9Z"/><path class="cls-3" d="M63.59,36.64,53.23,36.1c0-.33,0-.65,0-1a19.12,19.12,0,0,0-.14-2.28l10.29-1.26a29.64,29.64,0,0,1,.22,3.54C63.63,35.63,63.61,36.14,63.59,36.64Z"/><path class="cls-4" d="M53.12,32.84a18.49,18.49,0,0,0-.72-3.3l9.88-3.14a29.35,29.35,0,0,1,1.13,5.18Z"/><path class="cls-5" d="M52.4,29.54a19,19,0,0,0-1.3-3.08l9.14-4.89a28.53,28.53,0,0,1,2,4.84Z"/><path class="cls-6" d="M51.1,26.46a18.82,18.82,0,0,0-2.24-3.28l7.9-6.73a29.06,29.06,0,0,1,3.48,5.12Z"/><path class="cls-7" d="M48.86,23.18A18,18,0,0,0,46,20.5l6.31-8.23a29.14,29.14,0,0,1,4.42,4.18Z"/><path class="cls-8" d="M46,20.5a18.41,18.41,0,0,0-3-1.9l4.59-9.3a28.51,28.51,0,0,1,4.76,3Z"/><path class="cls-9" d="M43,18.6a18.63,18.63,0,0,0-3.89-1.4L41.48,7.11a28.64,28.64,0,0,1,6.1,2.19Z"/><path class="cls-10" d="M39.1,17.2a18.29,18.29,0,0,0-4.25-.49V6.34a28.89,28.89,0,0,1,6.63.77Z"/><path class="cls-2" d="M33.32,63.85a29.13,29.13,0,0,1-5.26-.76L30.5,53a19,19,0,0,0,3.36.49Z"/><path class="cls-3" d="M34.85,63.89c-.51,0-1,0-1.53,0l.54-10.35a18.68,18.68,0,0,0,3.26-.12l1.27,10.3A29.89,29.89,0,0,1,34.85,63.89Z"/><path class="cls-4" d="M38.39,63.68l-1.27-10.3a17.66,17.66,0,0,0,3.3-.72l3.14,9.89A29.43,29.43,0,0,1,38.39,63.68Z"/><path class="cls-5" d="M43.56,62.55l-3.14-9.89a17.75,17.75,0,0,0,3.09-1.3l4.88,9.15A28.43,28.43,0,0,1,43.56,62.55Z"/><path class="cls-6" d="M48.39,60.51l-4.88-9.15a18.52,18.52,0,0,0,3.27-2.23L53.51,57A28.74,28.74,0,0,1,48.39,60.51Z"/><path class="cls-7" d="M53.51,57l-6.73-7.89a18.5,18.5,0,0,0,2.69-2.83l8.23,6.31A29.16,29.16,0,0,1,53.51,57Z"/><path class="cls-8" d="M57.7,52.61,49.47,46.3a17.8,17.8,0,0,0,1.89-3l9.3,4.6A29.3,29.3,0,0,1,57.7,52.61Z"/><path class="cls-9" d="M60.66,47.85l-9.3-4.6a17.3,17.3,0,0,0,1.4-3.88l10.1,2.38A28.67,28.67,0,0,1,60.66,47.85Z"/><path class="cls-10" d="M62.86,41.75l-10.1-2.38a18.43,18.43,0,0,0,.5-4.25H63.63A28.89,28.89,0,0,1,62.86,41.75Z"/><path class="cls-2" d="M16.44,35,6.07,34.87a29.28,29.28,0,0,1,.53-5.29l10.18,2A18.19,18.19,0,0,0,16.44,35Z"/><path class="cls-6" d="M6.47,39.92A29.57,29.57,0,0,1,6.1,36.4q0-.76,0-1.53L16.44,35c0,.32,0,.65,0,1a17.15,17.15,0,0,0,.24,2.26Z"/><path class="cls-6" d="M7.83,45a29.28,29.28,0,0,1-1.36-5.12L16.7,38.2a18.55,18.55,0,0,0,.87,3.27Z"/><path class="cls-7" d="M10.08,49.78A28.56,28.56,0,0,1,7.83,45l9.73-3.57a19,19,0,0,0,1.44,3Z"/><path class="cls-7" d="M13.79,54.73a28.81,28.81,0,0,1-3.71-4.95L19,44.49a18.24,18.24,0,0,0,2.38,3.17Z"/><path class="cls-7" d="M18.39,58.72a28.57,28.57,0,0,1-4.59-4l7.58-7.07a19.35,19.35,0,0,0,2.94,2.56Z"/><path class="cls-8" d="M23.28,61.47a28.64,28.64,0,0,1-4.89-2.75l5.94-8.5A18.1,18.1,0,0,0,27.45,52Z"/><path class="cls-9" d="M29.47,63.39a28.47,28.47,0,0,1-6.19-1.92L27.45,52A18.82,18.82,0,0,0,31.4,53.2Z"/><path class="cls-10" d="M34.84,63.89a29.16,29.16,0,0,1-5.37-.5L31.4,53.2a17.92,17.92,0,0,0,4.27.3l.46,10.36Q35.49,63.89,34.84,63.89Z"/><path class="cls-2" d="M39.14,17.21a20.21,20.21,0,0,0-4.16-.5l.15-10.37a30.41,30.41,0,0,1,6.31.76Z"/><path class="cls-3" d="M31.76,17,30,6.74a29.74,29.74,0,0,1,3.53-.37c.51,0,1,0,1.52,0L35,16.71c-.33,0-.66,0-1,0A17.3,17.3,0,0,0,31.76,17Z"/><path class="cls-4" d="M28.5,17.83,24.93,8.1A28.1,28.1,0,0,1,30,6.74L31.76,17A18.2,18.2,0,0,0,28.5,17.83Z"/><path class="cls-5" d="M25.48,19.27l-5.29-8.92A28.46,28.46,0,0,1,24.92,8.1l3.58,9.73A18.58,18.58,0,0,0,25.48,19.27Z"/><path class="cls-5" d="M22.3,21.65l-7.07-7.59a28.5,28.5,0,0,1,5-3.71l5.29,8.92A17.94,17.94,0,0,0,22.3,21.65Z"/><path class="cls-5" d="M19.74,24.59l-8.5-5.94a29.6,29.6,0,0,1,4-4.59l7.07,7.59A18.43,18.43,0,0,0,19.74,24.59Z"/><path class="cls-5" d="M18,27.72l-9.5-4.17a29.34,29.34,0,0,1,2.75-4.89l8.51,5.93A18.18,18.18,0,0,0,18,27.72Z"/><path class="cls-6" d="M16.76,31.67,6.57,29.73a29.12,29.12,0,0,1,1.92-6.18L18,27.72A18.1,18.1,0,0,0,16.76,31.67Z"/><path class="cls-6" d="M6.1,36.4a29.06,29.06,0,0,1,.47-6.66l10.19,1.93a18.94,18.94,0,0,0-.3,4.26Z"/></svg>