<svg id="图层_1" data-name="图层 1" xmlns="http://www.w3.org/2000/svg" viewBox="0 0 70 70"><defs><style>.cls-1{fill:#f9f9f9;}.cls-2{fill:#89c7e6;}.cls-3{fill:#b8b8b8;}.cls-4{fill:#eaeaea;}</style></defs><title>table</title><rect class="cls-1" x="5.32" y="8.52" width="19.4" height="52.98" rx="4.62" ry="4.62"/><path class="cls-2" d="M9.75,8.52h15a0,0,0,0,1,0,0v8.63a0,0,0,0,1,0,0H5.32a0,0,0,0,1,0,0v-4.2A4.43,4.43,0,0,1,9.75,8.52Z"/><path class="cls-3" d="M5.32,56h19.4a0,0,0,0,1,0,0v5.47a0,0,0,0,1,0,0H9.09a3.77,3.77,0,0,1-3.77-3.77V56A0,0,0,0,1,5.32,56Z"/><rect class="cls-4" x="5.32" y="45.06" width="19.4" height="5.47"/><rect class="cls-4" x="5.32" y="34.16" width="19.4" height="5.47"/><rect class="cls-4" x="5.32" y="23.26" width="19.4" height="5.47"/><rect class="cls-1" x="25.29" y="8.52" width="19.4" height="52.98"/><rect class="cls-2" x="25.29" y="8.52" width="19.4" height="8.63"/><rect class="cls-3" x="25.29" y="55.96" width="19.4" height="5.47"/><rect class="cls-4" x="25.29" y="45.06" width="19.4" height="5.47"/><rect class="cls-4" x="25.29" y="34.16" width="19.4" height="5.47"/><rect class="cls-4" x="25.29" y="23.26" width="19.4" height="5.47"/><rect class="cls-1" x="45.29" y="8.52" width="19.4" height="52.98" rx="9.7" ry="9.7"/><path class="cls-2" d="M45.29,8.52h15a4.43,4.43,0,0,1,4.43,4.43v4.2a0,0,0,0,1,0,0H45.29a0,0,0,0,1,0,0V8.52A0,0,0,0,1,45.29,8.52Z"/><path class="cls-3" d="M45.29,56h19.4a0,0,0,0,1,0,0V57a4.4,4.4,0,0,1-4.4,4.4h-15a0,0,0,0,1,0,0V56A0,0,0,0,1,45.29,56Z"/><rect class="cls-4" x="45.29" y="45.06" width="19.4" height="5.47"/><rect class="cls-4" x="45.29" y="34.16" width="19.4" height="5.47"/><rect class="cls-4" x="45.29" y="23.26" width="19.4" height="5.47"/></svg>