<svg id="图层_1" data-name="图层 1" xmlns="http://www.w3.org/2000/svg" viewBox="0 0 70 70"><defs><style>.cls-1{fill:#69b5e1;}</style></defs><title>text</title><path class="cls-1" d="M20.24,29.65H15.42V41.83H13V29.65H8.13v-2H20.24Z"/><path class="cls-1" d="M33.17,41.76h-11V27.59H32.83v2.06H24.64v3.93h7.71v2H24.64V39.9h8.53Z"/><path class="cls-1" d="M42.94,34.68l5.37,7.15h-3l-3.44-5a1.77,1.77,0,0,0-.27-.48,3.11,3.11,0,0,0-.28-.42,1.34,1.34,0,0,1-.27.42,2.8,2.8,0,0,1-.28.48c-.14.14-1.28,1.81-3.44,5h-3l5.44-7.15-4.89-7.09h2.89c1.84,2.94,2.82,4.52,3,4.75a3.84,3.84,0,0,1,.35.55c.18.27.29.46.34.55l.48-.83a1.26,1.26,0,0,1,.21-.34q.21-.42,2.82-4.68h3Z"/><path class="cls-1" d="M60.9,29.65H56.08V41.83H53.61V29.65H48.79v-2H60.9Z"/></svg>