<svg id="图层_1" data-name="图层 1" xmlns="http://www.w3.org/2000/svg" viewBox="0 0 70 70"><defs><style>.cls-1{fill:#69b5e1;}.cls-2{fill:#ff9f80;}.cls-3{fill:#c6c6cb;}</style></defs><title>timecolumn</title><path class="cls-1" d="M7.28,47.56h3.47a.9.9,0,0,1,.9.9v15.6a0,0,0,0,1,0,0H6.38a0,0,0,0,1,0,0V48.46A.9.9,0,0,1,7.28,47.56Z"/><path class="cls-2" d="M14.83,43.14H18.3a.9.9,0,0,1,.9.9v20a0,0,0,0,1,0,0H13.93a0,0,0,0,1,0,0V44A.9.9,0,0,1,14.83,43.14Z"/><path class="cls-1" d="M22.38,37.91h3.47a.9.9,0,0,1,.9.9V64.06a0,0,0,0,1,0,0H21.48a0,0,0,0,1,0,0V38.81a.9.9,0,0,1,.9-.9Z"/><path class="cls-2" d="M29.92,45.28h3.47a.9.9,0,0,1,.9.9V64.06a0,0,0,0,1,0,0H29a0,0,0,0,1,0,0V46.18A.9.9,0,0,1,29.92,45.28Z"/><path class="cls-1" d="M37.43,35H40.9a.9.9,0,0,1,.9.9v28.2a0,0,0,0,1,0,0H36.53a0,0,0,0,1,0,0V35.86A.9.9,0,0,1,37.43,35Z"/><path class="cls-2" d="M45,24.58h3.47a.9.9,0,0,1,.9.9V64.06a0,0,0,0,1,0,0H44.08a0,0,0,0,1,0,0V25.48A.9.9,0,0,1,45,24.58Z"/><path class="cls-1" d="M52.53,26.64H56a.9.9,0,0,1,.9.9V64.06a0,0,0,0,1,0,0H51.63a0,0,0,0,1,0,0V27.54A.9.9,0,0,1,52.53,26.64Z"/><path class="cls-2" d="M60.13,25.39h3.47a.9.9,0,0,1,.9.9V64.06a0,0,0,0,1,0,0H59.23a0,0,0,0,1,0,0V26.29A.9.9,0,0,1,60.13,25.39Z"/><polygon class="cls-3" points="55.78 11.39 57.38 12.4 58.98 13.4 59.22 14.83 57.79 14.59 56.79 12.99 55.78 11.39"/><path class="cls-3" d="M57.41,20.27A7.07,7.07,0,0,1,52.62,8a.66.66,0,0,1,.94,0,.66.66,0,0,1,0,.94A5.73,5.73,0,1,0,58.09,7.5V9.21a.68.68,0,1,1-1.35,0V6.79a.67.67,0,0,1,.67-.67,7.08,7.08,0,1,1,0,14.15Z"/></svg>