<svg id="图层_1" data-name="图层 1" xmlns="http://www.w3.org/2000/svg" viewBox="0 0 70 70"><defs><style>.cls-1{fill:#ffdb5c;}.cls-2{fill:#ea6a6a;}.cls-3{fill:#97c979;}.cls-4{fill:#69b5e1;}.cls-5{fill:#ffab1f;}.cls-6{fill:#ff9f80;}.cls-7{fill:#ff296a;}.cls-8{fill:#3c85fc;}.cls-9{fill:#1fd668;}.cls-10{fill:#a129f4;}.cls-11{fill:#c6c6cb;}</style></defs><title>timescatter</title><circle class="cls-1" cx="53.16" cy="53.72" r="1.57"/><circle class="cls-1" cx="53.16" cy="58.26" r="1.57"/><circle class="cls-1" cx="53.16" cy="40.07" r="1.57"/><circle class="cls-2" cx="21.85" cy="60.12" r="1.57"/><circle class="cls-3" cx="21.85" cy="39.01" r="1.57"/><circle class="cls-4" cx="21.85" cy="61.17" r="1.57"/><circle class="cls-5" cx="21.85" cy="58.42" r="1.57"/><circle class="cls-6" cx="21.85" cy="38.2" r="1.57"/><circle class="cls-7" cx="59.42" cy="60.12" r="1.57"/><circle class="cls-3" cx="59.42" cy="39.01" r="1.57"/><circle class="cls-5" cx="59.42" cy="58.42" r="1.57"/><circle class="cls-6" cx="59.42" cy="38.2" r="1.57"/><circle class="cls-8" cx="15.58" cy="61.17" r="1.57"/><circle class="cls-3" cx="15.58" cy="57.62" r="1.57"/><circle class="cls-5" cx="15.58" cy="60.58" r="1.57"/><circle class="cls-3" cx="15.58" cy="49.99" r="1.57"/><circle class="cls-6" cx="15.58" cy="42.99" r="1.57"/><circle class="cls-8" cx="9.32" cy="60.36" r="1.57"/><circle class="cls-9" cx="9.32" cy="54.22" r="1.57"/><circle class="cls-3" cx="9.32" cy="52.89" r="1.57"/><circle class="cls-3" cx="9.32" cy="35.3" r="1.57"/><circle class="cls-4" cx="28.11" cy="58.95" r="1.57"/><circle class="cls-7" cx="28.11" cy="60" r="1.57"/><circle class="cls-4" cx="28.11" cy="53.83" r="1.57"/><circle class="cls-4" cx="28.11" cy="59.49" r="1.57"/><circle class="cls-6" cx="28.11" cy="51.42" r="1.57"/><circle class="cls-6" cx="28.11" cy="53.19" r="1.57"/><circle class="cls-6" cx="28.11" cy="56.33" r="1.57"/><circle class="cls-3" cx="28.11" cy="44.17" r="1.57"/><circle class="cls-9" cx="28.11" cy="57.91" r="1.57"/><circle class="cls-6" cx="28.11" cy="59.9" r="1.57"/><circle class="cls-9" cx="28.11" cy="52.16" r="1.57"/><circle class="cls-6" cx="28.11" cy="38.68" r="1.57"/><circle class="cls-3" cx="28.11" cy="28.16" r="1.57"/><circle class="cls-3" cx="28.11" cy="22.65" r="1.57"/><circle class="cls-4" cx="46.9" cy="49.87" r="1.57"/><circle class="cls-4" cx="46.9" cy="55.93" r="1.57"/><circle class="cls-1" cx="46.9" cy="57.15" r="1.57"/><circle class="cls-8" cx="46.9" cy="61.17" r="1.57"/><circle class="cls-3" cx="46.9" cy="38.48" r="1.57"/><circle class="cls-10" cx="46.9" cy="48.42" r="1.57"/><circle class="cls-3" cx="46.9" cy="48.3" r="1.57"/><circle class="cls-4" cx="40.63" cy="56.39" r="1.57"/><circle class="cls-2" cx="53.16" cy="45.49" r="1.57"/><circle class="cls-2" cx="53.16" cy="26.89" r="1.57"/><circle class="cls-2" cx="53.16" cy="58.77" r="1.57"/><circle class="cls-2" cx="21.85" cy="58.76" r="1.57"/><circle class="cls-2" cx="59.42" cy="58.76" r="1.57"/><circle class="cls-2" cx="15.58" cy="61.17" r="1.57"/><circle class="cls-2" cx="15.58" cy="58.72" r="1.57"/><circle class="cls-2" cx="15.58" cy="35.18" r="1.57"/><circle class="cls-2" cx="28.11" cy="61.17" r="1.57"/><circle class="cls-2" cx="46.9" cy="59.6" r="1.57"/><circle class="cls-2" cx="46.9" cy="28.53" r="1.57"/><circle class="cls-2" cx="46.9" cy="17.42" r="1.57"/><circle class="cls-2" cx="40.63" cy="52.13" r="1.57"/><circle class="cls-2" cx="40.63" cy="39.24" r="1.57"/><circle class="cls-1" cx="34.37" cy="53.7" r="1.57"/><circle class="cls-8" cx="34.37" cy="47.52" r="1.57"/><circle class="cls-6" cx="34.37" cy="33.36" r="1.57"/><circle class="cls-1" cx="34.37" cy="60.11" r="1.57"/><circle class="cls-1" cx="34.37" cy="47.31" r="1.57"/><circle class="cls-4" cx="53.16" cy="61.17" r="1.57"/><circle class="cls-4" cx="53.16" cy="52.37" r="1.57"/><circle class="cls-4" cx="21.85" cy="54.93" r="1.57"/><circle class="cls-4" cx="21.85" cy="49.97" r="1.57"/><circle class="cls-4" cx="21.85" cy="48.54" r="1.57"/><circle class="cls-4" cx="21.85" cy="16.28" r="1.57"/><circle class="cls-4" cx="21.85" cy="43.57" r="1.57"/><circle class="cls-4" cx="59.42" cy="54.93" r="1.57"/><circle class="cls-4" cx="59.42" cy="49.97" r="1.57"/><circle class="cls-4" cx="59.42" cy="61.17" r="1.57"/><circle class="cls-4" cx="59.42" cy="48.54" r="1.57"/><circle class="cls-4" cx="59.42" cy="43.57" r="1.57"/><circle class="cls-4" cx="15.58" cy="54.77" r="1.57"/><circle class="cls-4" cx="9.32" cy="61.17" r="1.57"/><circle class="cls-4" cx="9.32" cy="59.84" r="1.57"/><circle class="cls-4" cx="9.32" cy="53.97" r="1.57"/><circle class="cls-4" cx="9.32" cy="42.24" r="1.57"/><circle class="cls-4" cx="28.11" cy="58.16" r="1.57"/><circle class="cls-4" cx="28.11" cy="52.55" r="1.57"/><circle class="cls-4" cx="28.11" cy="40.56" r="1.57"/><circle class="cls-4" cx="46.9" cy="61.07" r="1.57"/><circle class="cls-4" cx="46.9" cy="43.48" r="1.57"/><circle class="cls-4" cx="46.9" cy="49.54" r="1.57"/><circle class="cls-4" cx="46.9" cy="54.77" r="1.57"/><circle class="cls-4" cx="40.63" cy="61.17" r="1.57"/><circle class="cls-4" cx="40.63" cy="59.01" r="1.57"/><circle class="cls-4" cx="40.63" cy="49.99" r="1.57"/><circle class="cls-4" cx="40.63" cy="54.77" r="1.57"/><circle class="cls-4" cx="40.63" cy="33.61" r="1.57"/><circle class="cls-4" cx="34.37" cy="61.17" r="1.57"/><circle class="cls-4" cx="34.37" cy="54.9" r="1.57"/><circle class="cls-4" cx="34.37" cy="48.6" r="1.57"/><circle class="cls-6" cx="34.37" cy="26.96" r="1.57"/><circle class="cls-1" cx="34.37" cy="58.72" r="1.57"/><polygon class="cls-11" points="56.37 11.39 57.97 12.4 59.56 13.4 59.81 14.83 58.38 14.59 57.38 12.99 56.37 11.39"/><path class="cls-11" d="M58,20.27A7.07,7.07,0,0,1,53.21,8a.66.66,0,0,1,.94,0,.66.66,0,0,1,0,.94A5.73,5.73,0,1,0,58.68,7.5V9.21a.68.68,0,0,1-.68.68.67.67,0,0,1-.67-.68V6.79A.67.67,0,0,1,58,6.12a7.08,7.08,0,1,1,0,14.15Z"/></svg>