<svg id="图层_1" data-name="图层 1" xmlns="http://www.w3.org/2000/svg" viewBox="0 0 70 70"><defs><style>.cls-1{fill:#ff9f80;}.cls-2{fill:#69b5e1;}.cls-3{fill:#ea6a6a;}.cls-4{fill:#c6c6cb;}</style></defs><title>timebubble</title><circle class="cls-1" cx="8.35" cy="45.35" r="2.42"/><circle class="cls-2" cx="15.13" cy="52.82" r="1.87"/><circle class="cls-3" cx="21.92" cy="22.41" r="4.83"/><circle class="cls-1" cx="27.63" cy="43.37" r="2.9"/><circle class="cls-2" cx="35.49" cy="49.63" r="2.46"/><circle class="cls-1" cx="40.61" cy="37.32" r="3.63"/><circle class="cls-2" cx="49.44" cy="45.62" r="2.69"/><circle class="cls-2" cx="54.79" cy="57.01" r="1.63"/><circle class="cls-3" cx="59.57" cy="32.67" r="4.78"/><polygon class="cls-4" points="54.96 11.39 56.56 12.4 58.15 13.4 58.4 14.83 56.97 14.59 55.96 12.99 54.96 11.39"/><path class="cls-4" d="M56.59,20.27A7.08,7.08,0,0,1,51.79,8a.68.68,0,0,1,1,0,.66.66,0,0,1,0,.94A5.74,5.74,0,1,0,57.26,7.5V9.21a.67.67,0,1,1-1.34,0V6.79a.67.67,0,0,1,.67-.67,7.08,7.08,0,1,1,0,14.15Z"/></svg>