<svg id="图层_1" data-name="图层 1" xmlns="http://www.w3.org/2000/svg" viewBox="0 0 70 70"><defs><style>.cls-1{fill:#a8d8ef;}.cls-2{fill:#82c6e8;}.cls-3{fill:#d2eefc;}.cls-4{fill:#69b5e1;}</style></defs><title>wordcloud</title><path class="cls-1" d="M9.67,24.88H7.79V19.23H9.64c1.91,0,2.89,1,2.92,2.81S11.65,24.93,9.67,24.88Zm-.05-4.83H8.74v4.06h.85c1.31,0,2-.69,2-2.07A1.79,1.79,0,0,0,9.62,20.05Z"/><path class="cls-1" d="M16.88,24.85H16a1.32,1.32,0,0,1-.19-.65,2.1,2.1,0,0,1-1.77.73c-.84,0-1.27-.41-1.31-1.12s.5-1.15,1.5-1.28a4.11,4.11,0,0,0,1.53-.43c0-.51-.26-.75-.93-.71a1,1,0,0,0-1.09.68l-.87-.16c.2-.82.85-1.22,2-1.2,1.29,0,1.91.5,1.86,1.63V24A1.55,1.55,0,0,0,16.88,24.85ZM15.79,23.1v-.43a2.45,2.45,0,0,1-1.17.38c-.67.11-1,.35-1,.74s.24.53.79.51A1.26,1.26,0,0,0,15.79,23.1Z"/><path class="cls-1" d="M18.23,19.26v1.55h.93v.71h-.93v2.13c0,.44.17.65.49.63a.71.71,0,0,0,.39-.11l.19.57a1.77,1.77,0,0,1-.9.19.93.93,0,0,1-1.09-1.09V21.52h-.66v-.71h.66v-1.3Z"/><path class="cls-1" d="M23.24,24.85h-.9a1.22,1.22,0,0,1-.19-.65,2.14,2.14,0,0,1-1.78.73c-.83,0-1.27-.41-1.3-1.12s.5-1.15,1.5-1.28a4,4,0,0,0,1.52-.43c.06-.51-.25-.75-.93-.71a1,1,0,0,0-1.09.68l-.87-.16c.2-.82.86-1.22,2-1.2,1.29,0,1.91.5,1.86,1.63V24A1.47,1.47,0,0,0,23.24,24.85ZM22.15,23.1v-.43a2.54,2.54,0,0,1-1.18.38c-.67.11-1,.35-1,.74s.25.53.79.51A1.27,1.27,0,0,0,22.15,23.1Z"/><path class="cls-1" d="M27.48,20.05h-3v1.64h2.62v.79H24.5v2.37h-1V19.23h4Z"/><path class="cls-1" d="M29.67,20.73a2,2,0,0,1,2.07,2.13,1.92,1.92,0,0,1-2.1,2.1,2,2,0,0,1-2.07-2.07A2,2,0,0,1,29.67,20.73Zm0,3.55c.73,0,1.1-.48,1.12-1.39s-.39-1.38-1.12-1.42-1.1.49-1.11,1.42S28.92,24.24,29.64,24.28Z"/><path class="cls-1" d="M35.93,22l-1,.17a1,1,0,0,0-1-.71c-.72,0-1.11.5-1.14,1.39s.4,1.37,1.14,1.39a1,1,0,0,0,1-.9l1,.14a1.74,1.74,0,0,1-2,1.44,1.9,1.9,0,0,1-2.1-2.07A2.11,2.11,0,0,1,35.93,22Z"/><path class="cls-1" d="M39.81,24.85h-.92V24.2a1.53,1.53,0,0,1-1.34.73c-1,0-1.5-.53-1.5-1.58V20.81H37v2.43c0,.69.31,1,.93,1a1,1,0,0,0,1-1.12V20.81h.92Z"/><path class="cls-1" d="M43.64,21.8l-1,.13a.73.73,0,0,0-.82-.57c-.49,0-.74.17-.76.52s.25.43.84.54l.36.08.33.09q1.2.3,1.14,1.17Q43.78,25,42,25c-1.19.05-1.86-.36-2-1.23L41,23.6c.09.47.43.7,1,.7s.86-.19.87-.57-.24-.44-.84-.57l-.38-.08-.3-.08c-.78-.19-1.17-.54-1.17-1.07,0-.78.59-1.19,1.66-1.22S43.43,21.05,43.64,21.8Z"/><path class="cls-2" d="M9.67,41H7.79V35.4H9.64c1.91,0,2.89,1,2.92,2.8S11.65,41.09,9.67,41Zm-.05-4.83H8.74v4.07h.85c1.31,0,2-.7,2-2.08A1.79,1.79,0,0,0,9.62,36.21Z"/><path class="cls-2" d="M16.88,41H16a1.32,1.32,0,0,1-.19-.65,2.08,2.08,0,0,1-1.77.73c-.84,0-1.27-.41-1.31-1.11s.5-1.16,1.5-1.29a4.11,4.11,0,0,0,1.53-.43c0-.51-.26-.75-.93-.71a1,1,0,0,0-1.09.68l-.87-.16c.2-.82.85-1.22,2-1.2,1.29,0,1.91.51,1.86,1.63v1.67A1.54,1.54,0,0,0,16.88,41Zm-1.09-1.74v-.44a2.45,2.45,0,0,1-1.17.38c-.67.11-1,.36-1,.74s.24.53.79.52A1.27,1.27,0,0,0,15.79,39.27Z"/><path class="cls-2" d="M18.23,35.42V37h.93v.71h-.93v2.12c0,.44.17.65.49.63a.71.71,0,0,0,.39-.11l.19.57a1.77,1.77,0,0,1-.9.19A.93.93,0,0,1,17.31,40V37.69h-.66V37h.66V35.67Z"/><path class="cls-2" d="M23.24,41h-.9a1.22,1.22,0,0,1-.19-.65,2.11,2.11,0,0,1-1.78.73c-.83,0-1.27-.41-1.3-1.11s.5-1.16,1.5-1.29a4,4,0,0,0,1.52-.43c.06-.51-.25-.75-.93-.71a1,1,0,0,0-1.09.68l-.87-.16c.2-.82.86-1.22,2-1.2,1.29,0,1.91.51,1.86,1.63v1.67A1.46,1.46,0,0,0,23.24,41Zm-1.09-1.74v-.44a2.54,2.54,0,0,1-1.18.38c-.67.11-1,.36-1,.74s.25.53.79.52A1.28,1.28,0,0,0,22.15,39.27Z"/><path class="cls-2" d="M27.48,36.21h-3v1.64h2.62v.79H24.5V41h-1V35.4h4Z"/><path class="cls-2" d="M29.67,36.89A2,2,0,0,1,31.74,39a1.92,1.92,0,0,1-2.1,2.1,2,2,0,0,1-2.07-2.07A2,2,0,0,1,29.67,36.89Zm0,3.55c.73,0,1.1-.48,1.12-1.39s-.39-1.38-1.12-1.42-1.1.49-1.11,1.42S28.92,40.4,29.64,40.44Z"/><path class="cls-2" d="M35.93,38.18l-1,.16a1,1,0,0,0-1-.71c-.72,0-1.11.5-1.14,1.39s.4,1.37,1.14,1.39a1,1,0,0,0,1-.9l1,.14a1.74,1.74,0,0,1-2,1.44A1.89,1.89,0,0,1,31.87,39a2.11,2.11,0,0,1,4.06-.84Z"/><path class="cls-2" d="M39.81,41h-.92v-.65a1.51,1.51,0,0,1-1.34.73c-1,0-1.5-.52-1.5-1.58V37H37V39.4c0,.69.31,1,.93,1a1,1,0,0,0,1-1.12V37h.92Z"/><path class="cls-2" d="M43.64,38l-1,.13a.73.73,0,0,0-.82-.57c-.49,0-.74.18-.76.52s.25.44.84.55l.36.08.33.08q1.2.3,1.14,1.17,0,1.2-1.74,1.2c-1.19.06-1.86-.35-2-1.23l.93-.13c.09.47.43.71,1,.71s.86-.19.87-.58-.24-.44-.84-.57l-.38-.08-.3-.08c-.78-.18-1.17-.54-1.17-1.07,0-.78.59-1.19,1.66-1.22S43.43,37.21,43.64,38Z"/><path class="cls-3" d="M14.18,55.82H12.43V50.55h1.73a2.42,2.42,0,0,1,2.73,2.62C16.94,55,16,55.87,14.18,55.82Zm0-4.51h-.81v3.8h.79c1.22,0,1.83-.65,1.83-1.94A1.67,1.67,0,0,0,14.13,51.31Z"/><path class="cls-3" d="M20.92,55.79h-.84a1.16,1.16,0,0,1-.17-.61,2,2,0,0,1-1.66.69c-.78,0-1.19-.38-1.22-1s.46-1.08,1.4-1.2a3.67,3.67,0,0,0,1.42-.41c.06-.47-.23-.7-.86-.66s-.9.21-1,.64L17.15,53c.19-.76.8-1.14,1.84-1.12,1.2,0,1.78.48,1.73,1.53V55A1.41,1.41,0,0,0,20.92,55.79Zm-1-1.63v-.4a2.32,2.32,0,0,1-1.1.35c-.63.1-.93.33-.92.69s.23.5.74.48A1.19,1.19,0,0,0,19.91,54.16Z"/><path class="cls-3" d="M22.19,50.57V52h.86v.67h-.86v2c0,.41.15.61.46.59a.6.6,0,0,0,.35-.1l.18.53a1.64,1.64,0,0,1-.84.18.87.87,0,0,1-1-1V52.69h-.61V52h.61V50.8Z"/><path class="cls-3" d="M26.86,55.79H26a1.26,1.26,0,0,1-.18-.61,2,2,0,0,1-1.65.69c-.78,0-1.19-.38-1.23-1s.47-1.08,1.41-1.2a3.74,3.74,0,0,0,1.42-.41c.05-.47-.24-.7-.86-.66s-.9.21-1,.64L23.09,53c.19-.76.8-1.14,1.84-1.12,1.2,0,1.78.48,1.73,1.53V55A1.41,1.41,0,0,0,26.86,55.79Zm-1-1.63v-.4a2.24,2.24,0,0,1-1.09.35c-.63.1-.94.33-.92.69s.23.5.74.48A1.18,1.18,0,0,0,25.84,54.16Z"/><path class="cls-3" d="M30.82,51.31H28.05v1.53h2.44v.74H28.05v2.21h-.92V50.55h3.69Z"/><path class="cls-3" d="M32.88,52a1.82,1.82,0,0,1,1.93,2,1.79,1.79,0,0,1-2,2,2,2,0,0,1,0-3.95Zm0,3.31c.68,0,1-.45,1-1.3s-.37-1.29-1-1.32-1,.45-1,1.32S32.17,55.23,32.85,55.26Z"/><path class="cls-3" d="M38.72,53.15l-.89.15a.91.91,0,0,0-.91-.66c-.68,0-1,.46-1.07,1.29s.37,1.29,1.07,1.3a.89.89,0,0,0,.94-.84l.92.13a1.64,1.64,0,0,1-1.89,1.35,1.78,1.78,0,0,1-2-1.94,2,2,0,0,1,3.79-.78Z"/><path class="cls-3" d="M42.36,55.79h-.87v-.61a1.43,1.43,0,0,1-1.25.69c-.93,0-1.4-.49-1.4-1.48V52h.87v2.27c0,.65.29,1,.86,1a1,1,0,0,0,.92-1V52h.87Z"/><path class="cls-3" d="M45.94,52.94l-.9.13a.68.68,0,0,0-.76-.54c-.46,0-.7.17-.71.49s.23.4.79.51l.33.07.3.08c.75.19,1.11.55,1.07,1.1,0,.74-.54,1.12-1.63,1.12s-1.73-.33-1.88-1.15l.86-.13c.09.44.41.66,1,.66s.8-.17.82-.53-.23-.42-.79-.54l-.36-.07-.28-.08c-.73-.17-1.09-.5-1.09-1,0-.73.55-1.11,1.55-1.15S45.73,52.24,45.94,52.94Z"/><path class="cls-4" d="M17.07,34.66H14.58V27.17H17q3.8.07,3.87,3.72C21,33.48,19.7,34.73,17.07,34.66ZM17,28.25H15.84v5.39H17c1.73,0,2.6-.91,2.6-2.75A2.39,2.39,0,0,0,17,28.25Z"/><path class="cls-4" d="M26.64,34.62H25.45a1.69,1.69,0,0,1-.25-.87,2.8,2.8,0,0,1-2.36,1c-1.1,0-1.68-.54-1.73-1.48s.66-1.54,2-1.7a5.48,5.48,0,0,0,2-.58c.08-.68-.33-1-1.23-.94s-1.27.3-1.44.9l-1.16-.22c.26-1.08,1.13-1.61,2.6-1.59,1.72-.05,2.54.68,2.46,2.17V33.5A2,2,0,0,0,26.64,34.62ZM25.2,32.31v-.58a3.35,3.35,0,0,1-1.56.5c-.89.15-1.33.47-1.3,1s.32.71,1.05.69A1.68,1.68,0,0,0,25.2,32.31Z"/><path class="cls-4" d="M28.44,27.2v2.07h1.23v.94H28.44V33c0,.58.21.86.65.83a.92.92,0,0,0,.5-.14l.26.76a2.49,2.49,0,0,1-1.2.25,1.24,1.24,0,0,1-1.44-1.45V30.21h-.87v-.94h.87V27.53Z"/><path class="cls-4" d="M35.07,34.62H33.88a1.79,1.79,0,0,1-.25-.87,2.78,2.78,0,0,1-2.35,1c-1.11,0-1.69-.54-1.74-1.48s.66-1.54,2-1.7a5.63,5.63,0,0,0,2-.58c.07-.68-.34-1-1.23-.94s-1.28.3-1.45.9l-1.16-.22q.39-1.62,2.61-1.59c1.71-.05,2.53.68,2.46,2.17V33.5A2,2,0,0,0,35.07,34.62Zm-1.44-2.31v-.58a3.31,3.31,0,0,1-1.56.5c-.89.15-1.33.47-1.3,1s.32.71,1.05.69A1.68,1.68,0,0,0,33.63,32.31Z"/><path class="cls-4" d="M40.7,28.25H36.76v2.17h3.47v1H36.76v3.15h-1.3V27.17H40.7Z"/><path class="cls-4" d="M43.61,29.16A2.59,2.59,0,0,1,46.36,32a2.54,2.54,0,0,1-2.78,2.79A2.61,2.61,0,0,1,40.83,32,2.62,2.62,0,0,1,43.61,29.16Zm0,4.7c1,0,1.46-.64,1.48-1.84s-.52-1.84-1.48-1.88-1.46.65-1.49,1.88S42.61,33.81,43.58,33.86Z"/><path class="cls-4" d="M51.92,30.86l-1.27.22a1.31,1.31,0,0,0-1.3-.94c-1,0-1.47.66-1.52,1.84s.53,1.82,1.52,1.85a1.28,1.28,0,0,0,1.34-1.2l1.3.18a2.32,2.32,0,0,1-2.68,1.92A2.52,2.52,0,0,1,46.53,32a2.8,2.8,0,0,1,5.39-1.12Z"/><path class="cls-4" d="M57.07,34.62H55.84v-.87a2,2,0,0,1-1.77,1c-1.33,0-2-.7-2-2.1V29.27h1.23v3.22c0,.91.41,1.37,1.23,1.37a1.34,1.34,0,0,0,1.3-1.48V29.27h1.23Z"/><path class="cls-4" d="M62.16,30.57l-1.27.18A1,1,0,0,0,59.81,30c-.66,0-1,.23-1,.69s.33.58,1.12.72l.47.11.44.11c1.06.26,1.57.78,1.52,1.55,0,1.06-.77,1.6-2.32,1.6s-2.46-.47-2.67-1.63L58.58,33c.12.62.57.94,1.37.94s1.13-.26,1.16-.76c0-.34-.33-.59-1.12-.76l-.51-.11-.4-.11c-1-.24-1.55-.71-1.55-1.41,0-1,.78-1.58,2.2-1.63S61.87,29.58,62.16,30.57Z"/><path class="cls-1" d="M17.07,49.44H14.58V42H17c2.53,0,3.82,1.29,3.87,3.72S19.7,49.52,17.07,49.44ZM17,43H15.84v5.39H17c1.73,0,2.6-.91,2.6-2.75A2.39,2.39,0,0,0,17,43Z"/><path class="cls-1" d="M26.64,49.41H25.45a1.69,1.69,0,0,1-.25-.87,2.83,2.83,0,0,1-2.36,1c-1.1-.05-1.68-.55-1.73-1.49s.66-1.53,2-1.7a5.09,5.09,0,0,0,2-.58c.08-.67-.33-1-1.23-.94a1.3,1.3,0,0,0-1.44.91l-1.16-.22c.26-1.08,1.13-1.61,2.6-1.59,1.72,0,2.54.67,2.46,2.17v2.21A2,2,0,0,0,26.64,49.41ZM25.2,47.09v-.58a3.34,3.34,0,0,1-1.56.51c-.89.15-1.33.47-1.3,1s.32.71,1.05.69A1.69,1.69,0,0,0,25.2,47.09Z"/><path class="cls-1" d="M28.44,42v2.06h1.23v1H28.44v2.82c0,.58.21.85.65.83a.84.84,0,0,0,.5-.15l.26.76a2.37,2.37,0,0,1-1.2.26,1.24,1.24,0,0,1-1.44-1.45V45h-.87v-1h.87V42.32Z"/><path class="cls-1" d="M35.07,49.41H33.88a1.79,1.79,0,0,1-.25-.87,2.81,2.81,0,0,1-2.35,1c-1.11-.05-1.69-.55-1.74-1.49s.66-1.53,2-1.7a5.23,5.23,0,0,0,2-.58c.07-.67-.34-1-1.23-.94a1.31,1.31,0,0,0-1.45.91l-1.16-.22q.39-1.62,2.61-1.59c1.71,0,2.53.67,2.46,2.17v2.21A2,2,0,0,0,35.07,49.41Zm-1.44-2.32v-.58a3.3,3.3,0,0,1-1.56.51c-.89.15-1.33.47-1.3,1s.32.71,1.05.69A1.69,1.69,0,0,0,33.63,47.09Z"/><path class="cls-1" d="M40.7,43H36.76v2.17h3.47v1H36.76v3.15h-1.3V42H40.7Z"/><path class="cls-1" d="M43.61,44a2.59,2.59,0,0,1,2.75,2.82,2.54,2.54,0,0,1-2.78,2.78,2.8,2.8,0,0,1,0-5.6Zm0,4.7c1,0,1.46-.64,1.48-1.85s-.52-1.83-1.48-1.88-1.46.65-1.49,1.88S42.61,48.6,43.58,48.65Z"/><path class="cls-1" d="M51.92,45.65l-1.27.21a1.34,1.34,0,0,0-1.3-.94c-1,0-1.47.67-1.52,1.85s.53,1.82,1.52,1.84a1.26,1.26,0,0,0,1.34-1.19l1.3.18a2.33,2.33,0,0,1-2.68,1.92,2.53,2.53,0,0,1-2.78-2.75,2.8,2.8,0,0,1,5.39-1.12Z"/><path class="cls-1" d="M57.07,49.41H55.84v-.87a2,2,0,0,1-1.77,1c-1.33,0-2-.7-2-2.1V44.05h1.23v3.22q0,1.38,1.23,1.38a1.35,1.35,0,0,0,1.3-1.48V44.05h1.23Z"/><path class="cls-1" d="M62.16,45.36l-1.27.18a1,1,0,0,0-1.08-.76c-.66,0-1,.23-1,.69s.33.57,1.12.72l.47.11.44.11c1.06.26,1.57.78,1.52,1.55,0,1.06-.77,1.59-2.32,1.59s-2.46-.47-2.67-1.62l1.23-.19c.12.63.57.95,1.37.95s1.13-.26,1.16-.76c0-.34-.33-.6-1.12-.76l-.51-.11-.4-.11c-1-.24-1.55-.71-1.55-1.41,0-1,.78-1.58,2.2-1.63S61.87,44.37,62.16,45.36Z"/><path class="cls-3" d="M32.61,18.5H31.2V14.29h1.38a1.94,1.94,0,0,1,2.18,2.1C34.8,17.84,34.08,18.54,32.61,18.5Zm0-3.6h-.65v3h.63c1,0,1.47-.51,1.47-1.54A1.35,1.35,0,0,0,32.56,14.9Z"/><path class="cls-3" d="M38,18.48h-.67a1,1,0,0,1-.14-.49,1.58,1.58,0,0,1-1.32.55c-.63,0-1-.3-1-.83s.37-.86,1.12-1a3.24,3.24,0,0,0,1.14-.32c0-.38-.19-.56-.69-.53a.74.74,0,0,0-.82.51L35,16.28c.15-.61.64-.9,1.47-.89s1.42.38,1.38,1.22v1.24A1.09,1.09,0,0,0,38,18.48Zm-.81-1.3v-.33a1.91,1.91,0,0,1-.87.29c-.51.08-.75.26-.74.55s.19.4.59.38A1,1,0,0,0,37.17,17.18Z"/><path class="cls-3" d="M39,14.31v1.16h.69V16H39v1.58c0,.33.12.49.36.47a.47.47,0,0,0,.29-.08l.14.43a1.39,1.39,0,0,1-.67.14q-.84,0-.81-.81V16h-.49v-.53h.49v-1Z"/><path class="cls-3" d="M42.72,18.48h-.67a1,1,0,0,1-.14-.49,1.58,1.58,0,0,1-1.33.55c-.62,0-.95-.3-1-.83s.37-.86,1.12-1a3.23,3.23,0,0,0,1.13-.32c0-.38-.19-.56-.69-.53s-.72.17-.81.51l-.65-.13c.15-.61.64-.9,1.46-.89s1.43.38,1.39,1.22v1.24A1.09,1.09,0,0,0,42.72,18.48Zm-.81-1.3v-.33a1.92,1.92,0,0,1-.88.29c-.5.08-.74.26-.73.55s.18.4.59.38A1,1,0,0,0,41.91,17.18Z"/><path class="cls-3" d="M45.88,14.9H43.66v1.22h2v.59h-2v1.77h-.73V14.29h3Z"/><path class="cls-3" d="M47.52,15.41A1.45,1.45,0,0,1,49.06,17a1.43,1.43,0,0,1-1.56,1.56A1.47,1.47,0,0,1,46,17,1.48,1.48,0,0,1,47.52,15.41Zm0,2.64c.54,0,.82-.36.83-1S48,16,47.5,16s-.82.36-.84,1.06S47,18,47.5,18.05Z"/><path class="cls-3" d="M52.18,16.37l-.71.12a.74.74,0,0,0-.73-.53c-.54,0-.83.37-.86,1s.3,1,.86,1a.71.71,0,0,0,.75-.67l.73.1a1.3,1.3,0,0,1-1.5,1.08A1.42,1.42,0,0,1,49.15,17a1.48,1.48,0,0,1,1.57-1.61A1.46,1.46,0,0,1,52.18,16.37Z"/><path class="cls-3" d="M55.08,18.48h-.69V18a1.14,1.14,0,0,1-1,.55c-.74,0-1.12-.39-1.12-1.18V15.47H53v1.81c0,.51.23.77.7.77s.7-.32.73-.83V15.47h.69Z"/><path class="cls-3" d="M57.93,16.2l-.71.1a.54.54,0,0,0-.61-.42c-.36,0-.55.13-.57.38s.19.33.63.41l.27.06.24.06c.6.15.88.44.86.88s-.44.89-1.3.89-1.39-.26-1.51-.91l.69-.11c.07.36.33.53.78.53s.63-.14.65-.42-.19-.34-.63-.43l-.29-.06-.22-.06c-.59-.14-.88-.4-.88-.8,0-.58.44-.88,1.24-.91S57.77,15.65,57.93,16.2Z"/></svg>